G04 #@! TF.GenerationSoftware,KiCad,Pcbnew,5.0.2-bee76a0~70~ubuntu18.04.1*
G04 #@! TF.CreationDate,2020-08-17T12:26:13+12:00*
G04 #@! TF.ProjectId,Wireless488,57697265-6c65-4737-9334-38382e6b6963,rev?*
G04 #@! TF.SameCoordinates,Original*
G04 #@! TF.FileFunction,Copper,L2,Bot*
G04 #@! TF.FilePolarity,Positive*
%FSLAX46Y46*%
G04 Gerber Fmt 4.6, Leading zero omitted, Abs format (unit mm)*
G04 Created by KiCad (PCBNEW 5.0.2-bee76a0~70~ubuntu18.04.1) date Mon 17 Aug 2020 12:26:13 NZST*
%MOMM*%
%LPD*%
G01*
G04 APERTURE LIST*
G04 #@! TA.AperFunction,EtchedComponent*
%ADD10C,0.250000*%
G04 #@! TD*
G04 #@! TA.AperFunction,ViaPad*
%ADD11C,1.524000*%
G04 #@! TD*
G04 #@! TA.AperFunction,ComponentPad*
%ADD12C,1.500000*%
G04 #@! TD*
G04 #@! TA.AperFunction,ComponentPad*
%ADD13R,1.700000X1.700000*%
G04 #@! TD*
G04 #@! TA.AperFunction,ComponentPad*
%ADD14O,1.700000X1.700000*%
G04 #@! TD*
G04 #@! TA.AperFunction,ComponentPad*
%ADD15C,1.524000*%
G04 #@! TD*
G04 #@! TA.AperFunction,ComponentPad*
%ADD16C,4.000000*%
G04 #@! TD*
G04 #@! TA.AperFunction,ComponentPad*
%ADD17R,1.600000X1.600000*%
G04 #@! TD*
G04 #@! TA.AperFunction,ComponentPad*
%ADD18O,1.600000X1.600000*%
G04 #@! TD*
G04 #@! TA.AperFunction,Conductor*
%ADD19C,0.250000*%
G04 #@! TD*
G04 #@! TA.AperFunction,Conductor*
%ADD20C,0.500000*%
G04 #@! TD*
G04 #@! TA.AperFunction,Conductor*
%ADD21C,0.254000*%
G04 #@! TD*
G04 APERTURE END LIST*
D10*
G04 #@! TO.C,SYM1*
X150480000Y-99460000D02*
X146670000Y-99460000D01*
X146670000Y-99460000D02*
X145400000Y-100730000D01*
X145400000Y-104540000D02*
X144130000Y-105810000D01*
X144130000Y-105810000D02*
X141590000Y-105810000D01*
X145400000Y-102000000D02*
X141590000Y-102000000D01*
X147940000Y-99460000D02*
X147940000Y-103270000D01*
X150480000Y-99460000D02*
X150480000Y-103270000D01*
X145400000Y-100730000D02*
X145400000Y-104540000D01*
G04 #@! TD*
D11*
G04 #@! TO.N,*
G04 #@! TO.C,SYM1*
X150480000Y-99460000D03*
X141590000Y-105810000D03*
G04 #@! TD*
D12*
G04 #@! TO.P,U1,38*
G04 #@! TO.N,GND*
X159500000Y-61180000D03*
G04 #@! TO.P,U1,37*
G04 #@! TO.N,Net-(U1-Pad37)*
X159500000Y-63720000D03*
G04 #@! TO.P,U1,36*
G04 #@! TO.N,Net-(U1-Pad36)*
X159500000Y-66260000D03*
G04 #@! TO.P,U1,35*
G04 #@! TO.N,Net-(U1-Pad35)*
X159500000Y-68800000D03*
G04 #@! TO.P,U1,34*
G04 #@! TO.N,Net-(U1-Pad34)*
X159500000Y-71340000D03*
G04 #@! TO.P,U1,33*
G04 #@! TO.N,Net-(U1-Pad33)*
X159500000Y-73880000D03*
G04 #@! TO.P,U1,32*
G04 #@! TO.N,GND*
X159500000Y-76420000D03*
G04 #@! TO.P,U1,31*
G04 #@! TO.N,Net-(U1-Pad31)*
X159500000Y-78960000D03*
G04 #@! TO.P,U1,30*
G04 #@! TO.N,Net-(U1-Pad30)*
X159500000Y-81500000D03*
G04 #@! TO.P,U1,29*
G04 #@! TO.N,Net-(U1-Pad29)*
X159500000Y-84040000D03*
G04 #@! TO.P,U1,28*
G04 #@! TO.N,Net-(U1-Pad28)*
X159500000Y-86580000D03*
G04 #@! TO.P,U1,27*
G04 #@! TO.N,Net-(U1-Pad27)*
X159500000Y-89120000D03*
G04 #@! TO.P,U1,26*
G04 #@! TO.N,Net-(U1-Pad26)*
X159500000Y-91660000D03*
G04 #@! TO.P,U1,25*
G04 #@! TO.N,Net-(U1-Pad25)*
X159500000Y-94200000D03*
G04 #@! TO.P,U1,24*
G04 #@! TO.N,Net-(U1-Pad24)*
X159500000Y-96740000D03*
G04 #@! TO.P,U1,23*
G04 #@! TO.N,Net-(U1-Pad23)*
X159500000Y-99280000D03*
G04 #@! TO.P,U1,22*
G04 #@! TO.N,Net-(U1-Pad22)*
X159500000Y-101820000D03*
G04 #@! TO.P,U1,21*
G04 #@! TO.N,Net-(U1-Pad21)*
X159500000Y-104360000D03*
G04 #@! TO.P,U1,20*
G04 #@! TO.N,Net-(U1-Pad20)*
X159500000Y-106900000D03*
G04 #@! TO.P,U1,19*
G04 #@! TO.N,+5V*
X134100000Y-106900000D03*
G04 #@! TO.P,U1,18*
G04 #@! TO.N,Net-(U1-Pad18)*
X134100000Y-104360000D03*
G04 #@! TO.P,U1,17*
G04 #@! TO.N,/ESP_TX*
X134100000Y-101820000D03*
G04 #@! TO.P,U1,16*
G04 #@! TO.N,Net-(U1-Pad16)*
X134100000Y-99280000D03*
G04 #@! TO.P,U1,15*
G04 #@! TO.N,Net-(R1-Pad2)*
X134100000Y-96740000D03*
G04 #@! TO.P,U1,14*
G04 #@! TO.N,GND*
X134100000Y-94200000D03*
G04 #@! TO.P,U1,13*
G04 #@! TO.N,Net-(U1-Pad13)*
X134100000Y-91660000D03*
G04 #@! TO.P,U1,12*
G04 #@! TO.N,Net-(U1-Pad12)*
X134100000Y-89120000D03*
G04 #@! TO.P,U1,11*
G04 #@! TO.N,Net-(U1-Pad11)*
X134100000Y-86580000D03*
G04 #@! TO.P,U1,10*
G04 #@! TO.N,Net-(U1-Pad10)*
X134100000Y-84040000D03*
G04 #@! TO.P,U1,9*
G04 #@! TO.N,Net-(U1-Pad9)*
X134100000Y-81500000D03*
G04 #@! TO.P,U1,8*
G04 #@! TO.N,Net-(U1-Pad8)*
X134100000Y-78960000D03*
G04 #@! TO.P,U1,7*
G04 #@! TO.N,Net-(U1-Pad7)*
X134100000Y-76420000D03*
G04 #@! TO.P,U1,6*
G04 #@! TO.N,Net-(U1-Pad6)*
X134100000Y-73880000D03*
G04 #@! TO.P,U1,5*
G04 #@! TO.N,Net-(U1-Pad5)*
X134100000Y-71340000D03*
G04 #@! TO.P,U1,4*
G04 #@! TO.N,Net-(U1-Pad4)*
X134100000Y-68800000D03*
G04 #@! TO.P,U1,3*
G04 #@! TO.N,Net-(U1-Pad3)*
X134100000Y-66260000D03*
G04 #@! TO.P,U1,2*
G04 #@! TO.N,Net-(U1-Pad2)*
X134100000Y-63720000D03*
G04 #@! TO.P,U1,1*
G04 #@! TO.N,Net-(U1-Pad1)*
X134100000Y-61180000D03*
G04 #@! TD*
D13*
G04 #@! TO.P,J2,1*
G04 #@! TO.N,+5V*
X115000000Y-106000000D03*
D14*
G04 #@! TO.P,J2,2*
G04 #@! TO.N,GND*
X112460000Y-106000000D03*
G04 #@! TD*
D15*
G04 #@! TO.P,J1,1*
G04 #@! TO.N,/DIO1*
X103290000Y-69120000D03*
G04 #@! TO.P,J1,2*
G04 #@! TO.N,/DIO2*
X103290000Y-71280000D03*
G04 #@! TO.P,J1,3*
G04 #@! TO.N,/DIO3*
X103290000Y-73440000D03*
G04 #@! TO.P,J1,4*
G04 #@! TO.N,/DIO4*
X103290000Y-75600000D03*
G04 #@! TO.P,J1,5*
G04 #@! TO.N,/EOI*
X103290000Y-77760000D03*
G04 #@! TO.P,J1,6*
G04 #@! TO.N,/DAV*
X103290000Y-79920000D03*
G04 #@! TO.P,J1,7*
G04 #@! TO.N,/NRFD*
X103290000Y-82080000D03*
G04 #@! TO.P,J1,8*
G04 #@! TO.N,/NDAC*
X103290000Y-84240000D03*
G04 #@! TO.P,J1,9*
G04 #@! TO.N,/IFC*
X103290000Y-86400000D03*
G04 #@! TO.P,J1,10*
G04 #@! TO.N,/SRQ*
X103290000Y-88560000D03*
G04 #@! TO.P,J1,11*
G04 #@! TO.N,/ATN*
X103290000Y-90720000D03*
G04 #@! TO.P,J1,12*
G04 #@! TO.N,/ChassisGND*
X103290000Y-92880000D03*
G04 #@! TO.P,J1,13*
G04 #@! TO.N,/DIO5*
X99000000Y-69120000D03*
G04 #@! TO.P,J1,14*
G04 #@! TO.N,/DIO6*
X99000000Y-71280000D03*
G04 #@! TO.P,J1,15*
G04 #@! TO.N,/DIO7*
X99000000Y-73440000D03*
G04 #@! TO.P,J1,16*
G04 #@! TO.N,/DIO8*
X99000000Y-75600000D03*
G04 #@! TO.P,J1,17*
G04 #@! TO.N,/REN*
X99000000Y-77760000D03*
G04 #@! TO.P,J1,18*
G04 #@! TO.N,GND*
X99000000Y-79920000D03*
G04 #@! TO.P,J1,19*
X99000000Y-82080000D03*
G04 #@! TO.P,J1,20*
X99000000Y-84240000D03*
G04 #@! TO.P,J1,21*
X99000000Y-86400000D03*
G04 #@! TO.P,J1,22*
X99000000Y-88560000D03*
G04 #@! TO.P,J1,23*
X99000000Y-90720000D03*
G04 #@! TO.P,J1,24*
X99000000Y-92880000D03*
D16*
G04 #@! TO.P,J1,*
G04 #@! TO.N,*
X101140000Y-57600000D03*
X101140000Y-104400000D03*
G04 #@! TD*
D17*
G04 #@! TO.P,A1,1*
G04 #@! TO.N,Net-(A1-Pad1)*
X127000000Y-95000000D03*
D18*
G04 #@! TO.P,A1,17*
G04 #@! TO.N,Net-(A1-Pad17)*
X111760000Y-61980000D03*
G04 #@! TO.P,A1,2*
G04 #@! TO.N,Net-(A1-Pad2)*
X127000000Y-92460000D03*
G04 #@! TO.P,A1,18*
G04 #@! TO.N,Net-(A1-Pad18)*
X111760000Y-64520000D03*
G04 #@! TO.P,A1,3*
G04 #@! TO.N,Net-(A1-Pad3)*
X127000000Y-89920000D03*
G04 #@! TO.P,A1,19*
G04 #@! TO.N,/DIO1*
X111760000Y-67060000D03*
G04 #@! TO.P,A1,4*
G04 #@! TO.N,GND*
X127000000Y-87380000D03*
G04 #@! TO.P,A1,20*
G04 #@! TO.N,/DIO2*
X111760000Y-69600000D03*
G04 #@! TO.P,A1,5*
G04 #@! TO.N,/SRQ*
X127000000Y-84840000D03*
G04 #@! TO.P,A1,21*
G04 #@! TO.N,/DIO3*
X111760000Y-72140000D03*
G04 #@! TO.P,A1,6*
G04 #@! TO.N,/REN*
X127000000Y-82300000D03*
G04 #@! TO.P,A1,22*
G04 #@! TO.N,/DIO4*
X111760000Y-74680000D03*
G04 #@! TO.P,A1,7*
G04 #@! TO.N,/DIO7*
X127000000Y-79760000D03*
G04 #@! TO.P,A1,23*
G04 #@! TO.N,/DIO5*
X111760000Y-77220000D03*
G04 #@! TO.P,A1,8*
G04 #@! TO.N,/DIO8*
X127000000Y-77220000D03*
G04 #@! TO.P,A1,24*
G04 #@! TO.N,/DIO6*
X111760000Y-79760000D03*
G04 #@! TO.P,A1,9*
G04 #@! TO.N,Net-(A1-Pad9)*
X127000000Y-74680000D03*
G04 #@! TO.P,A1,25*
G04 #@! TO.N,Net-(A1-Pad25)*
X111760000Y-82300000D03*
G04 #@! TO.P,A1,10*
G04 #@! TO.N,/ATN*
X127000000Y-72140000D03*
G04 #@! TO.P,A1,26*
G04 #@! TO.N,Net-(A1-Pad26)*
X111760000Y-84840000D03*
G04 #@! TO.P,A1,11*
G04 #@! TO.N,/IFC*
X127000000Y-69600000D03*
G04 #@! TO.P,A1,27*
G04 #@! TO.N,+5V*
X111760000Y-87380000D03*
G04 #@! TO.P,A1,12*
G04 #@! TO.N,/NDAC*
X127000000Y-67060000D03*
G04 #@! TO.P,A1,28*
G04 #@! TO.N,Net-(A1-Pad28)*
X111760000Y-89920000D03*
G04 #@! TO.P,A1,13*
G04 #@! TO.N,/NRFD*
X127000000Y-64520000D03*
G04 #@! TO.P,A1,29*
G04 #@! TO.N,GND*
X111760000Y-92460000D03*
G04 #@! TO.P,A1,14*
G04 #@! TO.N,/DAV*
X127000000Y-61980000D03*
G04 #@! TO.P,A1,30*
G04 #@! TO.N,Net-(A1-Pad30)*
X111760000Y-95000000D03*
G04 #@! TO.P,A1,15*
G04 #@! TO.N,/EOI*
X127000000Y-59440000D03*
G04 #@! TO.P,A1,16*
G04 #@! TO.N,Net-(A1-Pad16)*
X111760000Y-59440000D03*
G04 #@! TD*
D19*
G04 #@! TO.N,/REN*
X123334999Y-85965001D02*
X126200001Y-83099999D01*
X111219999Y-85965001D02*
X123334999Y-85965001D01*
X110634999Y-86550001D02*
X111219999Y-85965001D01*
X110634999Y-87143763D02*
X110634999Y-86550001D01*
X103811761Y-93967001D02*
X110634999Y-87143763D01*
X102768239Y-93967001D02*
X103811761Y-93967001D01*
X100087001Y-91285763D02*
X102768239Y-93967001D01*
X100087001Y-78847001D02*
X100087001Y-91285763D01*
X126200001Y-83099999D02*
X127000000Y-82300000D01*
X99000000Y-77760000D02*
X100087001Y-78847001D01*
G04 #@! TO.N,/DIO7*
X101752990Y-70687010D02*
X101752990Y-68247010D01*
X99000000Y-73440000D02*
X101752990Y-70687010D01*
X108549990Y-72134818D02*
X108549990Y-78549990D01*
X103965163Y-67549991D02*
X108549990Y-72134818D01*
X101752990Y-68247010D02*
X102450009Y-67549991D01*
X102450009Y-67549991D02*
X103965163Y-67549991D01*
X121554998Y-81000000D02*
X126554998Y-76000000D01*
X108549990Y-78549990D02*
X111000000Y-81000000D01*
X111000000Y-81000000D02*
X121554998Y-81000000D01*
X127799999Y-78960001D02*
X127000000Y-79760000D01*
X128125001Y-78634999D02*
X127799999Y-78960001D01*
X128125001Y-76679999D02*
X128125001Y-78634999D01*
X127445002Y-76000000D02*
X128125001Y-76679999D01*
X126554998Y-76000000D02*
X127445002Y-76000000D01*
G04 #@! TO.N,/DIO5*
X110634999Y-76094999D02*
X110634999Y-69634999D01*
X111760000Y-77220000D02*
X110634999Y-76094999D01*
X110634999Y-69634999D02*
X105000000Y-64000000D01*
X104120000Y-64000000D02*
X99000000Y-69120000D01*
X105000000Y-64000000D02*
X104120000Y-64000000D01*
G04 #@! TO.N,/DIO8*
X120505001Y-83714999D02*
X126200001Y-78019999D01*
X126200001Y-78019999D02*
X127000000Y-77220000D01*
X111509997Y-83714999D02*
X120505001Y-83714999D01*
X108885001Y-80885001D02*
X108885001Y-81090003D01*
X106000000Y-78205002D02*
X108679999Y-80885001D01*
X108679999Y-80885001D02*
X108885001Y-80885001D01*
X99000000Y-75600000D02*
X102202999Y-72397001D01*
X108885001Y-81090003D02*
X111509997Y-83714999D01*
X103778762Y-68000000D02*
X106000000Y-70221238D01*
X102202999Y-72397001D02*
X102202999Y-68598239D01*
X106000000Y-70221238D02*
X106000000Y-78205002D01*
X102202999Y-68598239D02*
X102801238Y-68000000D01*
X102801238Y-68000000D02*
X103778762Y-68000000D01*
G04 #@! TO.N,/DIO6*
X111760000Y-79760000D02*
X109000000Y-77000000D01*
X109000000Y-77000000D02*
X109000000Y-69000000D01*
X109000000Y-69000000D02*
X105000000Y-65000000D01*
X105000000Y-65000000D02*
X103756410Y-65000000D01*
X100087001Y-70192999D02*
X100087001Y-68912999D01*
X99000000Y-71280000D02*
X100087001Y-70192999D01*
X103756410Y-65243590D02*
X103756410Y-65000000D01*
X100087001Y-68912999D02*
X103756410Y-65243590D01*
D20*
G04 #@! TO.N,+5V*
X115000000Y-90620000D02*
X111760000Y-87380000D01*
X115000000Y-106000000D02*
X115000000Y-90620000D01*
G04 #@! TD*
D21*
G04 #@! TO.N,GND*
G36*
X134051186Y-59500000D02*
X134060853Y-59548601D01*
X134088383Y-59589803D01*
X134129585Y-59617333D01*
X134178186Y-59627000D01*
X159178186Y-59627000D01*
X159226787Y-59617333D01*
X159267989Y-59589803D01*
X159295519Y-59548601D01*
X159305186Y-59500000D01*
X159305186Y-51127000D01*
X163373000Y-51127000D01*
X163373000Y-108873000D01*
X91627000Y-108873000D01*
X91627000Y-103875866D01*
X98505000Y-103875866D01*
X98505000Y-104924134D01*
X98906155Y-105892608D01*
X99647392Y-106633845D01*
X100615866Y-107035000D01*
X101664134Y-107035000D01*
X102632608Y-106633845D01*
X102909561Y-106356892D01*
X111018514Y-106356892D01*
X111264817Y-106881358D01*
X111693076Y-107271645D01*
X112103110Y-107441476D01*
X112333000Y-107320155D01*
X112333000Y-106127000D01*
X111139181Y-106127000D01*
X111018514Y-106356892D01*
X102909561Y-106356892D01*
X103373845Y-105892608D01*
X103477191Y-105643108D01*
X111018514Y-105643108D01*
X111139181Y-105873000D01*
X112333000Y-105873000D01*
X112333000Y-104679845D01*
X112103110Y-104558524D01*
X111693076Y-104728355D01*
X111264817Y-105118642D01*
X111018514Y-105643108D01*
X103477191Y-105643108D01*
X103775000Y-104924134D01*
X103775000Y-103875866D01*
X103373845Y-102907392D01*
X102632608Y-102166155D01*
X101664134Y-101765000D01*
X100615866Y-101765000D01*
X99647392Y-102166155D01*
X98906155Y-102907392D01*
X98505000Y-103875866D01*
X91627000Y-103875866D01*
X91627000Y-95000000D01*
X110296887Y-95000000D01*
X110408260Y-95559909D01*
X110725423Y-96034577D01*
X111200091Y-96351740D01*
X111618667Y-96435000D01*
X111901333Y-96435000D01*
X112319909Y-96351740D01*
X112794577Y-96034577D01*
X113111740Y-95559909D01*
X113223113Y-95000000D01*
X113111740Y-94440091D01*
X112794577Y-93965423D01*
X112410892Y-93709053D01*
X112615134Y-93612389D01*
X112991041Y-93197423D01*
X113151904Y-92809039D01*
X113029915Y-92587000D01*
X111887000Y-92587000D01*
X111887000Y-92607000D01*
X111633000Y-92607000D01*
X111633000Y-92587000D01*
X110490085Y-92587000D01*
X110368096Y-92809039D01*
X110528959Y-93197423D01*
X110904866Y-93612389D01*
X111109108Y-93709053D01*
X110725423Y-93965423D01*
X110408260Y-94440091D01*
X110296887Y-95000000D01*
X91627000Y-95000000D01*
X91627000Y-93860213D01*
X98199392Y-93860213D01*
X98268857Y-94102397D01*
X98792302Y-94289144D01*
X99347368Y-94261362D01*
X99731143Y-94102397D01*
X99800608Y-93860213D01*
X99000000Y-93059605D01*
X98199392Y-93860213D01*
X91627000Y-93860213D01*
X91627000Y-92672302D01*
X97590856Y-92672302D01*
X97618638Y-93227368D01*
X97777603Y-93611143D01*
X98019787Y-93680608D01*
X98820395Y-92880000D01*
X98019787Y-92079392D01*
X97777603Y-92148857D01*
X97590856Y-92672302D01*
X91627000Y-92672302D01*
X91627000Y-90512302D01*
X97590856Y-90512302D01*
X97618638Y-91067368D01*
X97777603Y-91451143D01*
X98019787Y-91520608D01*
X98820395Y-90720000D01*
X98019787Y-89919392D01*
X97777603Y-89988857D01*
X97590856Y-90512302D01*
X91627000Y-90512302D01*
X91627000Y-88352302D01*
X97590856Y-88352302D01*
X97618638Y-88907368D01*
X97777603Y-89291143D01*
X98019787Y-89360608D01*
X98820395Y-88560000D01*
X98019787Y-87759392D01*
X97777603Y-87828857D01*
X97590856Y-88352302D01*
X91627000Y-88352302D01*
X91627000Y-86192302D01*
X97590856Y-86192302D01*
X97618638Y-86747368D01*
X97777603Y-87131143D01*
X98019787Y-87200608D01*
X98820395Y-86400000D01*
X98019787Y-85599392D01*
X97777603Y-85668857D01*
X97590856Y-86192302D01*
X91627000Y-86192302D01*
X91627000Y-84032302D01*
X97590856Y-84032302D01*
X97618638Y-84587368D01*
X97777603Y-84971143D01*
X98019787Y-85040608D01*
X98820395Y-84240000D01*
X98019787Y-83439392D01*
X97777603Y-83508857D01*
X97590856Y-84032302D01*
X91627000Y-84032302D01*
X91627000Y-81872302D01*
X97590856Y-81872302D01*
X97618638Y-82427368D01*
X97777603Y-82811143D01*
X98019787Y-82880608D01*
X98820395Y-82080000D01*
X98019787Y-81279392D01*
X97777603Y-81348857D01*
X97590856Y-81872302D01*
X91627000Y-81872302D01*
X91627000Y-79712302D01*
X97590856Y-79712302D01*
X97618638Y-80267368D01*
X97777603Y-80651143D01*
X98019787Y-80720608D01*
X98820395Y-79920000D01*
X98019787Y-79119392D01*
X97777603Y-79188857D01*
X97590856Y-79712302D01*
X91627000Y-79712302D01*
X91627000Y-68842119D01*
X97603000Y-68842119D01*
X97603000Y-69397881D01*
X97815680Y-69911337D01*
X98104343Y-70200000D01*
X97815680Y-70488663D01*
X97603000Y-71002119D01*
X97603000Y-71557881D01*
X97815680Y-72071337D01*
X98104343Y-72360000D01*
X97815680Y-72648663D01*
X97603000Y-73162119D01*
X97603000Y-73717881D01*
X97815680Y-74231337D01*
X98104343Y-74520000D01*
X97815680Y-74808663D01*
X97603000Y-75322119D01*
X97603000Y-75877881D01*
X97815680Y-76391337D01*
X98104343Y-76680000D01*
X97815680Y-76968663D01*
X97603000Y-77482119D01*
X97603000Y-78037881D01*
X97815680Y-78551337D01*
X98200448Y-78936105D01*
X98199392Y-78939787D01*
X99000000Y-79740395D01*
X99014143Y-79726253D01*
X99193748Y-79905858D01*
X99179605Y-79920000D01*
X99193748Y-79934143D01*
X99014143Y-80113748D01*
X99000000Y-80099605D01*
X98199392Y-80900213D01*
X98228014Y-81000000D01*
X98199392Y-81099787D01*
X99000000Y-81900395D01*
X99014143Y-81886253D01*
X99193748Y-82065858D01*
X99179605Y-82080000D01*
X99193748Y-82094143D01*
X99014143Y-82273748D01*
X99000000Y-82259605D01*
X98199392Y-83060213D01*
X98228014Y-83160000D01*
X98199392Y-83259787D01*
X99000000Y-84060395D01*
X99014143Y-84046253D01*
X99193748Y-84225858D01*
X99179605Y-84240000D01*
X99193748Y-84254143D01*
X99014143Y-84433748D01*
X99000000Y-84419605D01*
X98199392Y-85220213D01*
X98228014Y-85320000D01*
X98199392Y-85419787D01*
X99000000Y-86220395D01*
X99014143Y-86206253D01*
X99193748Y-86385858D01*
X99179605Y-86400000D01*
X99193748Y-86414143D01*
X99014143Y-86593748D01*
X99000000Y-86579605D01*
X98199392Y-87380213D01*
X98228014Y-87480000D01*
X98199392Y-87579787D01*
X99000000Y-88380395D01*
X99014143Y-88366253D01*
X99193748Y-88545858D01*
X99179605Y-88560000D01*
X99193748Y-88574143D01*
X99014143Y-88753748D01*
X99000000Y-88739605D01*
X98199392Y-89540213D01*
X98228014Y-89640000D01*
X98199392Y-89739787D01*
X99000000Y-90540395D01*
X99014143Y-90526253D01*
X99193748Y-90705858D01*
X99179605Y-90720000D01*
X99193748Y-90734143D01*
X99014143Y-90913748D01*
X99000000Y-90899605D01*
X98199392Y-91700213D01*
X98228014Y-91800000D01*
X98199392Y-91899787D01*
X99000000Y-92700395D01*
X99014143Y-92686253D01*
X99193748Y-92865858D01*
X99179605Y-92880000D01*
X99980213Y-93680608D01*
X100222397Y-93611143D01*
X100409144Y-93087698D01*
X100387805Y-92661369D01*
X102177910Y-94451474D01*
X102220310Y-94514930D01*
X102471702Y-94682905D01*
X102693387Y-94727001D01*
X102693391Y-94727001D01*
X102768238Y-94741889D01*
X102843085Y-94727001D01*
X103736914Y-94727001D01*
X103811761Y-94741889D01*
X103886608Y-94727001D01*
X103886613Y-94727001D01*
X104108298Y-94682905D01*
X104359690Y-94514930D01*
X104402092Y-94451471D01*
X110610693Y-88242871D01*
X110725423Y-88414577D01*
X111077758Y-88650000D01*
X110725423Y-88885423D01*
X110408260Y-89360091D01*
X110296887Y-89920000D01*
X110408260Y-90479909D01*
X110725423Y-90954577D01*
X111109108Y-91210947D01*
X110904866Y-91307611D01*
X110528959Y-91722577D01*
X110368096Y-92110961D01*
X110490085Y-92333000D01*
X111633000Y-92333000D01*
X111633000Y-92313000D01*
X111887000Y-92313000D01*
X111887000Y-92333000D01*
X113029915Y-92333000D01*
X113151904Y-92110961D01*
X112991041Y-91722577D01*
X112615134Y-91307611D01*
X112410892Y-91210947D01*
X112794577Y-90954577D01*
X113111740Y-90479909D01*
X113194130Y-90065708D01*
X114115001Y-90986580D01*
X114115000Y-104509522D01*
X113902235Y-104551843D01*
X113692191Y-104692191D01*
X113551843Y-104902235D01*
X113531261Y-105005708D01*
X113226924Y-104728355D01*
X112816890Y-104558524D01*
X112587000Y-104679845D01*
X112587000Y-105873000D01*
X112607000Y-105873000D01*
X112607000Y-106127000D01*
X112587000Y-106127000D01*
X112587000Y-107320155D01*
X112816890Y-107441476D01*
X113226924Y-107271645D01*
X113531261Y-106994292D01*
X113551843Y-107097765D01*
X113692191Y-107307809D01*
X113902235Y-107448157D01*
X114150000Y-107497440D01*
X115850000Y-107497440D01*
X116097765Y-107448157D01*
X116307809Y-107307809D01*
X116448157Y-107097765D01*
X116497440Y-106850000D01*
X116497440Y-105150000D01*
X116448157Y-104902235D01*
X116307809Y-104692191D01*
X116097765Y-104551843D01*
X115885000Y-104509522D01*
X115885000Y-96464506D01*
X132715000Y-96464506D01*
X132715000Y-97015494D01*
X132925853Y-97524540D01*
X133315460Y-97914147D01*
X133546870Y-98010000D01*
X133315460Y-98105853D01*
X132925853Y-98495460D01*
X132715000Y-99004506D01*
X132715000Y-99555494D01*
X132925853Y-100064540D01*
X133315460Y-100454147D01*
X133546870Y-100550000D01*
X133315460Y-100645853D01*
X132925853Y-101035460D01*
X132715000Y-101544506D01*
X132715000Y-102095494D01*
X132925853Y-102604540D01*
X133315460Y-102994147D01*
X133546870Y-103090000D01*
X133315460Y-103185853D01*
X132925853Y-103575460D01*
X132715000Y-104084506D01*
X132715000Y-104635494D01*
X132925853Y-105144540D01*
X133315460Y-105534147D01*
X133546870Y-105630000D01*
X133315460Y-105725853D01*
X132925853Y-106115460D01*
X132715000Y-106624506D01*
X132715000Y-107175494D01*
X132925853Y-107684540D01*
X133315460Y-108074147D01*
X133824506Y-108285000D01*
X134375494Y-108285000D01*
X134884540Y-108074147D01*
X135274147Y-107684540D01*
X135485000Y-107175494D01*
X135485000Y-106624506D01*
X135274147Y-106115460D01*
X134884540Y-105725853D01*
X134653130Y-105630000D01*
X134884540Y-105534147D01*
X134886568Y-105532119D01*
X140193000Y-105532119D01*
X140193000Y-106087881D01*
X140405680Y-106601337D01*
X140798663Y-106994320D01*
X141312119Y-107207000D01*
X141867881Y-107207000D01*
X142381337Y-106994320D01*
X142774320Y-106601337D01*
X142787300Y-106570000D01*
X144055153Y-106570000D01*
X144130000Y-106584888D01*
X144204847Y-106570000D01*
X144204852Y-106570000D01*
X144426537Y-106525904D01*
X144677929Y-106357929D01*
X144720331Y-106294470D01*
X145884473Y-105130329D01*
X145947929Y-105087929D01*
X146115904Y-104836537D01*
X146160000Y-104614852D01*
X146160000Y-104614848D01*
X146174888Y-104540001D01*
X146160000Y-104465154D01*
X146160000Y-102074852D01*
X146174889Y-102000000D01*
X146160000Y-101925148D01*
X146160000Y-101044801D01*
X146984802Y-100220000D01*
X147180000Y-100220000D01*
X147180001Y-103344852D01*
X147224097Y-103566537D01*
X147392072Y-103817929D01*
X147643464Y-103985904D01*
X147940000Y-104044889D01*
X148236537Y-103985904D01*
X148487929Y-103817929D01*
X148655904Y-103566537D01*
X148700000Y-103344852D01*
X148700000Y-100220000D01*
X149282700Y-100220000D01*
X149295680Y-100251337D01*
X149688663Y-100644320D01*
X149720000Y-100657300D01*
X149720001Y-103344852D01*
X149764097Y-103566537D01*
X149932072Y-103817929D01*
X150183464Y-103985904D01*
X150480000Y-104044889D01*
X150776537Y-103985904D01*
X151027929Y-103817929D01*
X151195904Y-103566537D01*
X151240000Y-103344852D01*
X151240000Y-100657300D01*
X151271337Y-100644320D01*
X151664320Y-100251337D01*
X151877000Y-99737881D01*
X151877000Y-99182119D01*
X151664320Y-98668663D01*
X151271337Y-98275680D01*
X150757881Y-98063000D01*
X150202119Y-98063000D01*
X149688663Y-98275680D01*
X149295680Y-98668663D01*
X149282700Y-98700000D01*
X148014852Y-98700000D01*
X147940000Y-98685111D01*
X147865148Y-98700000D01*
X146744846Y-98700000D01*
X146669999Y-98685112D01*
X146595152Y-98700000D01*
X146595148Y-98700000D01*
X146373463Y-98744096D01*
X146122071Y-98912071D01*
X146079671Y-98975527D01*
X144915530Y-100139669D01*
X144852071Y-100182071D01*
X144684096Y-100433464D01*
X144640000Y-100655149D01*
X144640000Y-100655153D01*
X144625112Y-100730000D01*
X144640000Y-100804847D01*
X144640000Y-101240000D01*
X141515148Y-101240000D01*
X141293463Y-101284096D01*
X141042071Y-101452071D01*
X140874096Y-101703463D01*
X140815111Y-102000000D01*
X140874096Y-102296537D01*
X141042071Y-102547929D01*
X141293463Y-102715904D01*
X141515148Y-102760000D01*
X144640001Y-102760000D01*
X144640001Y-104225197D01*
X143815199Y-105050000D01*
X142787300Y-105050000D01*
X142774320Y-105018663D01*
X142381337Y-104625680D01*
X141867881Y-104413000D01*
X141312119Y-104413000D01*
X140798663Y-104625680D01*
X140405680Y-105018663D01*
X140193000Y-105532119D01*
X134886568Y-105532119D01*
X135274147Y-105144540D01*
X135485000Y-104635494D01*
X135485000Y-104084506D01*
X135274147Y-103575460D01*
X134884540Y-103185853D01*
X134653130Y-103090000D01*
X134884540Y-102994147D01*
X135274147Y-102604540D01*
X135485000Y-102095494D01*
X135485000Y-101544506D01*
X135274147Y-101035460D01*
X134884540Y-100645853D01*
X134653130Y-100550000D01*
X134884540Y-100454147D01*
X135274147Y-100064540D01*
X135485000Y-99555494D01*
X135485000Y-99004506D01*
X135274147Y-98495460D01*
X134884540Y-98105853D01*
X134653130Y-98010000D01*
X134884540Y-97914147D01*
X135274147Y-97524540D01*
X135485000Y-97015494D01*
X135485000Y-96464506D01*
X135274147Y-95955460D01*
X134884540Y-95565853D01*
X134669070Y-95476603D01*
X134823923Y-95412460D01*
X134891912Y-95171517D01*
X134100000Y-94379605D01*
X133308088Y-95171517D01*
X133376077Y-95412460D01*
X133542658Y-95471745D01*
X133315460Y-95565853D01*
X132925853Y-95955460D01*
X132715000Y-96464506D01*
X115885000Y-96464506D01*
X115885000Y-90707161D01*
X115902337Y-90620000D01*
X115885000Y-90532839D01*
X115885000Y-90532835D01*
X115833652Y-90274690D01*
X115638049Y-89981951D01*
X115564156Y-89932577D01*
X115551579Y-89920000D01*
X125536887Y-89920000D01*
X125648260Y-90479909D01*
X125965423Y-90954577D01*
X126317758Y-91190000D01*
X125965423Y-91425423D01*
X125648260Y-91900091D01*
X125536887Y-92460000D01*
X125648260Y-93019909D01*
X125965423Y-93494577D01*
X126086106Y-93575215D01*
X125952235Y-93601843D01*
X125742191Y-93742191D01*
X125601843Y-93952235D01*
X125552560Y-94200000D01*
X125552560Y-95800000D01*
X125601843Y-96047765D01*
X125742191Y-96257809D01*
X125952235Y-96398157D01*
X126200000Y-96447440D01*
X127800000Y-96447440D01*
X128047765Y-96398157D01*
X128257809Y-96257809D01*
X128398157Y-96047765D01*
X128447440Y-95800000D01*
X128447440Y-94200000D01*
X128406698Y-93995171D01*
X132702799Y-93995171D01*
X132730770Y-94545448D01*
X132887540Y-94923923D01*
X133128483Y-94991912D01*
X133920395Y-94200000D01*
X134279605Y-94200000D01*
X135071517Y-94991912D01*
X135312460Y-94923923D01*
X135497201Y-94404829D01*
X135469230Y-93854552D01*
X135312460Y-93476077D01*
X135071517Y-93408088D01*
X134279605Y-94200000D01*
X133920395Y-94200000D01*
X133128483Y-93408088D01*
X132887540Y-93476077D01*
X132702799Y-93995171D01*
X128406698Y-93995171D01*
X128398157Y-93952235D01*
X128257809Y-93742191D01*
X128047765Y-93601843D01*
X127913894Y-93575215D01*
X128034577Y-93494577D01*
X128351740Y-93019909D01*
X128463113Y-92460000D01*
X128351740Y-91900091D01*
X128034577Y-91425423D01*
X127682242Y-91190000D01*
X128034577Y-90954577D01*
X128351740Y-90479909D01*
X128463113Y-89920000D01*
X128351740Y-89360091D01*
X128034577Y-88885423D01*
X127650892Y-88629053D01*
X127855134Y-88532389D01*
X128231041Y-88117423D01*
X128391904Y-87729039D01*
X128269915Y-87507000D01*
X127127000Y-87507000D01*
X127127000Y-87527000D01*
X126873000Y-87527000D01*
X126873000Y-87507000D01*
X125730085Y-87507000D01*
X125608096Y-87729039D01*
X125768959Y-88117423D01*
X126144866Y-88532389D01*
X126349108Y-88629053D01*
X125965423Y-88885423D01*
X125648260Y-89360091D01*
X125536887Y-89920000D01*
X115551579Y-89920000D01*
X113188017Y-87556439D01*
X113223113Y-87380000D01*
X113111740Y-86820091D01*
X113048203Y-86725001D01*
X123260152Y-86725001D01*
X123334999Y-86739889D01*
X123409846Y-86725001D01*
X123409851Y-86725001D01*
X123631536Y-86680905D01*
X123882928Y-86512930D01*
X123925330Y-86449471D01*
X125537405Y-84837397D01*
X125536887Y-84840000D01*
X125648260Y-85399909D01*
X125965423Y-85874577D01*
X126349108Y-86130947D01*
X126144866Y-86227611D01*
X125768959Y-86642577D01*
X125608096Y-87030961D01*
X125730085Y-87253000D01*
X126873000Y-87253000D01*
X126873000Y-87233000D01*
X127127000Y-87233000D01*
X127127000Y-87253000D01*
X128269915Y-87253000D01*
X128391904Y-87030961D01*
X128231041Y-86642577D01*
X127855134Y-86227611D01*
X127650892Y-86130947D01*
X128034577Y-85874577D01*
X128351740Y-85399909D01*
X128463113Y-84840000D01*
X128351740Y-84280091D01*
X128034577Y-83805423D01*
X127682242Y-83570000D01*
X128034577Y-83334577D01*
X128351740Y-82859909D01*
X128463113Y-82300000D01*
X128351740Y-81740091D01*
X128034577Y-81265423D01*
X127682242Y-81030000D01*
X128034577Y-80794577D01*
X128351740Y-80319909D01*
X128463113Y-79760000D01*
X128398688Y-79436113D01*
X128609471Y-79225330D01*
X128672930Y-79182928D01*
X128840905Y-78931536D01*
X128885001Y-78709851D01*
X128885001Y-78709847D01*
X128899889Y-78635000D01*
X128885001Y-78560153D01*
X128885001Y-76754847D01*
X128899889Y-76679999D01*
X128885001Y-76605151D01*
X128885001Y-76605147D01*
X128842511Y-76391535D01*
X128840905Y-76383461D01*
X128715330Y-76195526D01*
X128672930Y-76132070D01*
X128609474Y-76089670D01*
X128114607Y-75594804D01*
X128351740Y-75239909D01*
X128463113Y-74680000D01*
X128351740Y-74120091D01*
X128034577Y-73645423D01*
X127682242Y-73410000D01*
X128034577Y-73174577D01*
X128351740Y-72699909D01*
X128463113Y-72140000D01*
X128351740Y-71580091D01*
X128034577Y-71105423D01*
X127682242Y-70870000D01*
X128034577Y-70634577D01*
X128351740Y-70159909D01*
X128463113Y-69600000D01*
X128351740Y-69040091D01*
X128034577Y-68565423D01*
X127682242Y-68330000D01*
X128034577Y-68094577D01*
X128351740Y-67619909D01*
X128463113Y-67060000D01*
X128351740Y-66500091D01*
X128034577Y-66025423D01*
X127682242Y-65790000D01*
X128034577Y-65554577D01*
X128351740Y-65079909D01*
X128463113Y-64520000D01*
X128351740Y-63960091D01*
X128034577Y-63485423D01*
X127682242Y-63250000D01*
X128034577Y-63014577D01*
X128351740Y-62539909D01*
X128463113Y-61980000D01*
X128351740Y-61420091D01*
X128034577Y-60945423D01*
X127973341Y-60904506D01*
X132715000Y-60904506D01*
X132715000Y-61455494D01*
X132925853Y-61964540D01*
X133315460Y-62354147D01*
X133546870Y-62450000D01*
X133315460Y-62545853D01*
X132925853Y-62935460D01*
X132715000Y-63444506D01*
X132715000Y-63995494D01*
X132925853Y-64504540D01*
X133315460Y-64894147D01*
X133546870Y-64990000D01*
X133315460Y-65085853D01*
X132925853Y-65475460D01*
X132715000Y-65984506D01*
X132715000Y-66535494D01*
X132925853Y-67044540D01*
X133315460Y-67434147D01*
X133546870Y-67530000D01*
X133315460Y-67625853D01*
X132925853Y-68015460D01*
X132715000Y-68524506D01*
X132715000Y-69075494D01*
X132925853Y-69584540D01*
X133315460Y-69974147D01*
X133546870Y-70070000D01*
X133315460Y-70165853D01*
X132925853Y-70555460D01*
X132715000Y-71064506D01*
X132715000Y-71615494D01*
X132925853Y-72124540D01*
X133315460Y-72514147D01*
X133546870Y-72610000D01*
X133315460Y-72705853D01*
X132925853Y-73095460D01*
X132715000Y-73604506D01*
X132715000Y-74155494D01*
X132925853Y-74664540D01*
X133315460Y-75054147D01*
X133546870Y-75150000D01*
X133315460Y-75245853D01*
X132925853Y-75635460D01*
X132715000Y-76144506D01*
X132715000Y-76695494D01*
X132925853Y-77204540D01*
X133315460Y-77594147D01*
X133546870Y-77690000D01*
X133315460Y-77785853D01*
X132925853Y-78175460D01*
X132715000Y-78684506D01*
X132715000Y-79235494D01*
X132925853Y-79744540D01*
X133315460Y-80134147D01*
X133546870Y-80230000D01*
X133315460Y-80325853D01*
X132925853Y-80715460D01*
X132715000Y-81224506D01*
X132715000Y-81775494D01*
X132925853Y-82284540D01*
X133315460Y-82674147D01*
X133546870Y-82770000D01*
X133315460Y-82865853D01*
X132925853Y-83255460D01*
X132715000Y-83764506D01*
X132715000Y-84315494D01*
X132925853Y-84824540D01*
X133315460Y-85214147D01*
X133546870Y-85310000D01*
X133315460Y-85405853D01*
X132925853Y-85795460D01*
X132715000Y-86304506D01*
X132715000Y-86855494D01*
X132925853Y-87364540D01*
X133315460Y-87754147D01*
X133546870Y-87850000D01*
X133315460Y-87945853D01*
X132925853Y-88335460D01*
X132715000Y-88844506D01*
X132715000Y-89395494D01*
X132925853Y-89904540D01*
X133315460Y-90294147D01*
X133546870Y-90390000D01*
X133315460Y-90485853D01*
X132925853Y-90875460D01*
X132715000Y-91384506D01*
X132715000Y-91935494D01*
X132925853Y-92444540D01*
X133315460Y-92834147D01*
X133530930Y-92923397D01*
X133376077Y-92987540D01*
X133308088Y-93228483D01*
X134100000Y-94020395D01*
X134891912Y-93228483D01*
X134823923Y-92987540D01*
X134657342Y-92928255D01*
X134884540Y-92834147D01*
X135274147Y-92444540D01*
X135485000Y-91935494D01*
X135485000Y-91384506D01*
X135274147Y-90875460D01*
X134884540Y-90485853D01*
X134653130Y-90390000D01*
X134884540Y-90294147D01*
X135274147Y-89904540D01*
X135485000Y-89395494D01*
X135485000Y-88844506D01*
X135274147Y-88335460D01*
X134884540Y-87945853D01*
X134653130Y-87850000D01*
X134884540Y-87754147D01*
X135274147Y-87364540D01*
X135485000Y-86855494D01*
X135485000Y-86304506D01*
X135274147Y-85795460D01*
X134884540Y-85405853D01*
X134653130Y-85310000D01*
X134884540Y-85214147D01*
X135274147Y-84824540D01*
X135485000Y-84315494D01*
X135485000Y-83764506D01*
X135274147Y-83255460D01*
X134884540Y-82865853D01*
X134653130Y-82770000D01*
X134884540Y-82674147D01*
X135274147Y-82284540D01*
X135485000Y-81775494D01*
X135485000Y-81224506D01*
X135274147Y-80715460D01*
X134884540Y-80325853D01*
X134653130Y-80230000D01*
X134884540Y-80134147D01*
X135274147Y-79744540D01*
X135485000Y-79235494D01*
X135485000Y-78684506D01*
X158115000Y-78684506D01*
X158115000Y-79235494D01*
X158325853Y-79744540D01*
X158715460Y-80134147D01*
X158946870Y-80230000D01*
X158715460Y-80325853D01*
X158325853Y-80715460D01*
X158115000Y-81224506D01*
X158115000Y-81775494D01*
X158325853Y-82284540D01*
X158715460Y-82674147D01*
X158946870Y-82770000D01*
X158715460Y-82865853D01*
X158325853Y-83255460D01*
X158115000Y-83764506D01*
X158115000Y-84315494D01*
X158325853Y-84824540D01*
X158715460Y-85214147D01*
X158946870Y-85310000D01*
X158715460Y-85405853D01*
X158325853Y-85795460D01*
X158115000Y-86304506D01*
X158115000Y-86855494D01*
X158325853Y-87364540D01*
X158715460Y-87754147D01*
X158946870Y-87850000D01*
X158715460Y-87945853D01*
X158325853Y-88335460D01*
X158115000Y-88844506D01*
X158115000Y-89395494D01*
X158325853Y-89904540D01*
X158715460Y-90294147D01*
X158946870Y-90390000D01*
X158715460Y-90485853D01*
X158325853Y-90875460D01*
X158115000Y-91384506D01*
X158115000Y-91935494D01*
X158325853Y-92444540D01*
X158715460Y-92834147D01*
X158946870Y-92930000D01*
X158715460Y-93025853D01*
X158325853Y-93415460D01*
X158115000Y-93924506D01*
X158115000Y-94475494D01*
X158325853Y-94984540D01*
X158715460Y-95374147D01*
X158946870Y-95470000D01*
X158715460Y-95565853D01*
X158325853Y-95955460D01*
X158115000Y-96464506D01*
X158115000Y-97015494D01*
X158325853Y-97524540D01*
X158715460Y-97914147D01*
X158946870Y-98010000D01*
X158715460Y-98105853D01*
X158325853Y-98495460D01*
X158115000Y-99004506D01*
X158115000Y-99555494D01*
X158325853Y-100064540D01*
X158715460Y-100454147D01*
X158946870Y-100550000D01*
X158715460Y-100645853D01*
X158325853Y-101035460D01*
X158115000Y-101544506D01*
X158115000Y-102095494D01*
X158325853Y-102604540D01*
X158715460Y-102994147D01*
X158946870Y-103090000D01*
X158715460Y-103185853D01*
X158325853Y-103575460D01*
X158115000Y-104084506D01*
X158115000Y-104635494D01*
X158325853Y-105144540D01*
X158715460Y-105534147D01*
X158946870Y-105630000D01*
X158715460Y-105725853D01*
X158325853Y-106115460D01*
X158115000Y-106624506D01*
X158115000Y-107175494D01*
X158325853Y-107684540D01*
X158715460Y-108074147D01*
X159224506Y-108285000D01*
X159775494Y-108285000D01*
X160284540Y-108074147D01*
X160674147Y-107684540D01*
X160885000Y-107175494D01*
X160885000Y-106624506D01*
X160674147Y-106115460D01*
X160284540Y-105725853D01*
X160053130Y-105630000D01*
X160284540Y-105534147D01*
X160674147Y-105144540D01*
X160885000Y-104635494D01*
X160885000Y-104084506D01*
X160674147Y-103575460D01*
X160284540Y-103185853D01*
X160053130Y-103090000D01*
X160284540Y-102994147D01*
X160674147Y-102604540D01*
X160885000Y-102095494D01*
X160885000Y-101544506D01*
X160674147Y-101035460D01*
X160284540Y-100645853D01*
X160053130Y-100550000D01*
X160284540Y-100454147D01*
X160674147Y-100064540D01*
X160885000Y-99555494D01*
X160885000Y-99004506D01*
X160674147Y-98495460D01*
X160284540Y-98105853D01*
X160053130Y-98010000D01*
X160284540Y-97914147D01*
X160674147Y-97524540D01*
X160885000Y-97015494D01*
X160885000Y-96464506D01*
X160674147Y-95955460D01*
X160284540Y-95565853D01*
X160053130Y-95470000D01*
X160284540Y-95374147D01*
X160674147Y-94984540D01*
X160885000Y-94475494D01*
X160885000Y-93924506D01*
X160674147Y-93415460D01*
X160284540Y-93025853D01*
X160053130Y-92930000D01*
X160284540Y-92834147D01*
X160674147Y-92444540D01*
X160885000Y-91935494D01*
X160885000Y-91384506D01*
X160674147Y-90875460D01*
X160284540Y-90485853D01*
X160053130Y-90390000D01*
X160284540Y-90294147D01*
X160674147Y-89904540D01*
X160885000Y-89395494D01*
X160885000Y-88844506D01*
X160674147Y-88335460D01*
X160284540Y-87945853D01*
X160053130Y-87850000D01*
X160284540Y-87754147D01*
X160674147Y-87364540D01*
X160885000Y-86855494D01*
X160885000Y-86304506D01*
X160674147Y-85795460D01*
X160284540Y-85405853D01*
X160053130Y-85310000D01*
X160284540Y-85214147D01*
X160674147Y-84824540D01*
X160885000Y-84315494D01*
X160885000Y-83764506D01*
X160674147Y-83255460D01*
X160284540Y-82865853D01*
X160053130Y-82770000D01*
X160284540Y-82674147D01*
X160674147Y-82284540D01*
X160885000Y-81775494D01*
X160885000Y-81224506D01*
X160674147Y-80715460D01*
X160284540Y-80325853D01*
X160053130Y-80230000D01*
X160284540Y-80134147D01*
X160674147Y-79744540D01*
X160885000Y-79235494D01*
X160885000Y-78684506D01*
X160674147Y-78175460D01*
X160284540Y-77785853D01*
X160069070Y-77696603D01*
X160223923Y-77632460D01*
X160291912Y-77391517D01*
X159500000Y-76599605D01*
X158708088Y-77391517D01*
X158776077Y-77632460D01*
X158942658Y-77691745D01*
X158715460Y-77785853D01*
X158325853Y-78175460D01*
X158115000Y-78684506D01*
X135485000Y-78684506D01*
X135274147Y-78175460D01*
X134884540Y-77785853D01*
X134653130Y-77690000D01*
X134884540Y-77594147D01*
X135274147Y-77204540D01*
X135485000Y-76695494D01*
X135485000Y-76215171D01*
X158102799Y-76215171D01*
X158130770Y-76765448D01*
X158287540Y-77143923D01*
X158528483Y-77211912D01*
X159320395Y-76420000D01*
X159679605Y-76420000D01*
X160471517Y-77211912D01*
X160712460Y-77143923D01*
X160897201Y-76624829D01*
X160869230Y-76074552D01*
X160712460Y-75696077D01*
X160471517Y-75628088D01*
X159679605Y-76420000D01*
X159320395Y-76420000D01*
X158528483Y-75628088D01*
X158287540Y-75696077D01*
X158102799Y-76215171D01*
X135485000Y-76215171D01*
X135485000Y-76144506D01*
X135274147Y-75635460D01*
X134884540Y-75245853D01*
X134653130Y-75150000D01*
X134884540Y-75054147D01*
X135274147Y-74664540D01*
X135485000Y-74155494D01*
X135485000Y-73604506D01*
X135274147Y-73095460D01*
X134884540Y-72705853D01*
X134653130Y-72610000D01*
X134884540Y-72514147D01*
X135274147Y-72124540D01*
X135485000Y-71615494D01*
X135485000Y-71064506D01*
X135274147Y-70555460D01*
X134884540Y-70165853D01*
X134653130Y-70070000D01*
X134884540Y-69974147D01*
X135274147Y-69584540D01*
X135485000Y-69075494D01*
X135485000Y-68524506D01*
X135274147Y-68015460D01*
X134884540Y-67625853D01*
X134653130Y-67530000D01*
X134884540Y-67434147D01*
X135274147Y-67044540D01*
X135485000Y-66535494D01*
X135485000Y-65984506D01*
X135274147Y-65475460D01*
X134884540Y-65085853D01*
X134653130Y-64990000D01*
X134884540Y-64894147D01*
X135274147Y-64504540D01*
X135485000Y-63995494D01*
X135485000Y-63444506D01*
X158115000Y-63444506D01*
X158115000Y-63995494D01*
X158325853Y-64504540D01*
X158715460Y-64894147D01*
X158946870Y-64990000D01*
X158715460Y-65085853D01*
X158325853Y-65475460D01*
X158115000Y-65984506D01*
X158115000Y-66535494D01*
X158325853Y-67044540D01*
X158715460Y-67434147D01*
X158946870Y-67530000D01*
X158715460Y-67625853D01*
X158325853Y-68015460D01*
X158115000Y-68524506D01*
X158115000Y-69075494D01*
X158325853Y-69584540D01*
X158715460Y-69974147D01*
X158946870Y-70070000D01*
X158715460Y-70165853D01*
X158325853Y-70555460D01*
X158115000Y-71064506D01*
X158115000Y-71615494D01*
X158325853Y-72124540D01*
X158715460Y-72514147D01*
X158946870Y-72610000D01*
X158715460Y-72705853D01*
X158325853Y-73095460D01*
X158115000Y-73604506D01*
X158115000Y-74155494D01*
X158325853Y-74664540D01*
X158715460Y-75054147D01*
X158930930Y-75143397D01*
X158776077Y-75207540D01*
X158708088Y-75448483D01*
X159500000Y-76240395D01*
X160291912Y-75448483D01*
X160223923Y-75207540D01*
X160057342Y-75148255D01*
X160284540Y-75054147D01*
X160674147Y-74664540D01*
X160885000Y-74155494D01*
X160885000Y-73604506D01*
X160674147Y-73095460D01*
X160284540Y-72705853D01*
X160053130Y-72610000D01*
X160284540Y-72514147D01*
X160674147Y-72124540D01*
X160885000Y-71615494D01*
X160885000Y-71064506D01*
X160674147Y-70555460D01*
X160284540Y-70165853D01*
X160053130Y-70070000D01*
X160284540Y-69974147D01*
X160674147Y-69584540D01*
X160885000Y-69075494D01*
X160885000Y-68524506D01*
X160674147Y-68015460D01*
X160284540Y-67625853D01*
X160053130Y-67530000D01*
X160284540Y-67434147D01*
X160674147Y-67044540D01*
X160885000Y-66535494D01*
X160885000Y-65984506D01*
X160674147Y-65475460D01*
X160284540Y-65085853D01*
X160053130Y-64990000D01*
X160284540Y-64894147D01*
X160674147Y-64504540D01*
X160885000Y-63995494D01*
X160885000Y-63444506D01*
X160674147Y-62935460D01*
X160284540Y-62545853D01*
X160069070Y-62456603D01*
X160223923Y-62392460D01*
X160291912Y-62151517D01*
X159500000Y-61359605D01*
X158708088Y-62151517D01*
X158776077Y-62392460D01*
X158942658Y-62451745D01*
X158715460Y-62545853D01*
X158325853Y-62935460D01*
X158115000Y-63444506D01*
X135485000Y-63444506D01*
X135274147Y-62935460D01*
X134884540Y-62545853D01*
X134653130Y-62450000D01*
X134884540Y-62354147D01*
X135274147Y-61964540D01*
X135485000Y-61455494D01*
X135485000Y-60975171D01*
X158102799Y-60975171D01*
X158130770Y-61525448D01*
X158287540Y-61903923D01*
X158528483Y-61971912D01*
X159320395Y-61180000D01*
X159679605Y-61180000D01*
X160471517Y-61971912D01*
X160712460Y-61903923D01*
X160897201Y-61384829D01*
X160869230Y-60834552D01*
X160712460Y-60456077D01*
X160471517Y-60388088D01*
X159679605Y-61180000D01*
X159320395Y-61180000D01*
X158528483Y-60388088D01*
X158287540Y-60456077D01*
X158102799Y-60975171D01*
X135485000Y-60975171D01*
X135485000Y-60904506D01*
X135274147Y-60395460D01*
X135087170Y-60208483D01*
X158708088Y-60208483D01*
X159500000Y-61000395D01*
X160291912Y-60208483D01*
X160223923Y-59967540D01*
X159704829Y-59782799D01*
X159154552Y-59810770D01*
X158776077Y-59967540D01*
X158708088Y-60208483D01*
X135087170Y-60208483D01*
X134884540Y-60005853D01*
X134375494Y-59795000D01*
X133824506Y-59795000D01*
X133315460Y-60005853D01*
X132925853Y-60395460D01*
X132715000Y-60904506D01*
X127973341Y-60904506D01*
X127682242Y-60710000D01*
X128034577Y-60474577D01*
X128351740Y-59999909D01*
X128463113Y-59440000D01*
X128351740Y-58880091D01*
X128034577Y-58405423D01*
X127559909Y-58088260D01*
X127141333Y-58005000D01*
X126858667Y-58005000D01*
X126440091Y-58088260D01*
X125965423Y-58405423D01*
X125648260Y-58880091D01*
X125536887Y-59440000D01*
X125648260Y-59999909D01*
X125965423Y-60474577D01*
X126317758Y-60710000D01*
X125965423Y-60945423D01*
X125648260Y-61420091D01*
X125536887Y-61980000D01*
X125648260Y-62539909D01*
X125965423Y-63014577D01*
X126317758Y-63250000D01*
X125965423Y-63485423D01*
X125648260Y-63960091D01*
X125536887Y-64520000D01*
X125648260Y-65079909D01*
X125965423Y-65554577D01*
X126317758Y-65790000D01*
X125965423Y-66025423D01*
X125648260Y-66500091D01*
X125536887Y-67060000D01*
X125648260Y-67619909D01*
X125965423Y-68094577D01*
X126317758Y-68330000D01*
X125965423Y-68565423D01*
X125648260Y-69040091D01*
X125536887Y-69600000D01*
X125648260Y-70159909D01*
X125965423Y-70634577D01*
X126317758Y-70870000D01*
X125965423Y-71105423D01*
X125648260Y-71580091D01*
X125536887Y-72140000D01*
X125648260Y-72699909D01*
X125965423Y-73174577D01*
X126317758Y-73410000D01*
X125965423Y-73645423D01*
X125648260Y-74120091D01*
X125536887Y-74680000D01*
X125648260Y-75239909D01*
X125885393Y-75594803D01*
X121240197Y-80240000D01*
X113127635Y-80240000D01*
X113223113Y-79760000D01*
X113111740Y-79200091D01*
X112794577Y-78725423D01*
X112442242Y-78490000D01*
X112794577Y-78254577D01*
X113111740Y-77779909D01*
X113223113Y-77220000D01*
X113111740Y-76660091D01*
X112794577Y-76185423D01*
X112442242Y-75950000D01*
X112794577Y-75714577D01*
X113111740Y-75239909D01*
X113223113Y-74680000D01*
X113111740Y-74120091D01*
X112794577Y-73645423D01*
X112442242Y-73410000D01*
X112794577Y-73174577D01*
X113111740Y-72699909D01*
X113223113Y-72140000D01*
X113111740Y-71580091D01*
X112794577Y-71105423D01*
X112442242Y-70870000D01*
X112794577Y-70634577D01*
X113111740Y-70159909D01*
X113223113Y-69600000D01*
X113111740Y-69040091D01*
X112794577Y-68565423D01*
X112442242Y-68330000D01*
X112794577Y-68094577D01*
X113111740Y-67619909D01*
X113223113Y-67060000D01*
X113111740Y-66500091D01*
X112794577Y-66025423D01*
X112442242Y-65790000D01*
X112794577Y-65554577D01*
X113111740Y-65079909D01*
X113223113Y-64520000D01*
X113111740Y-63960091D01*
X112794577Y-63485423D01*
X112442242Y-63250000D01*
X112794577Y-63014577D01*
X113111740Y-62539909D01*
X113223113Y-61980000D01*
X113111740Y-61420091D01*
X112794577Y-60945423D01*
X112442242Y-60710000D01*
X112794577Y-60474577D01*
X113111740Y-59999909D01*
X113223113Y-59440000D01*
X113111740Y-58880091D01*
X112794577Y-58405423D01*
X112319909Y-58088260D01*
X111901333Y-58005000D01*
X111618667Y-58005000D01*
X111200091Y-58088260D01*
X110725423Y-58405423D01*
X110408260Y-58880091D01*
X110296887Y-59440000D01*
X110408260Y-59999909D01*
X110725423Y-60474577D01*
X111077758Y-60710000D01*
X110725423Y-60945423D01*
X110408260Y-61420091D01*
X110296887Y-61980000D01*
X110408260Y-62539909D01*
X110725423Y-63014577D01*
X111077758Y-63250000D01*
X110725423Y-63485423D01*
X110408260Y-63960091D01*
X110296887Y-64520000D01*
X110408260Y-65079909D01*
X110725423Y-65554577D01*
X111077758Y-65790000D01*
X110725423Y-66025423D01*
X110408260Y-66500091D01*
X110296887Y-67060000D01*
X110408260Y-67619909D01*
X110725423Y-68094577D01*
X111077758Y-68330000D01*
X110725423Y-68565423D01*
X110691297Y-68616496D01*
X105590331Y-63515530D01*
X105547929Y-63452071D01*
X105296537Y-63284096D01*
X105074852Y-63240000D01*
X105074847Y-63240000D01*
X105000000Y-63225112D01*
X104925153Y-63240000D01*
X104194846Y-63240000D01*
X104119999Y-63225112D01*
X104045152Y-63240000D01*
X104045148Y-63240000D01*
X103823463Y-63284096D01*
X103823461Y-63284097D01*
X103823462Y-63284097D01*
X103635526Y-63409671D01*
X103635524Y-63409673D01*
X103572071Y-63452071D01*
X103529673Y-63515524D01*
X99309218Y-67735980D01*
X99277881Y-67723000D01*
X98722119Y-67723000D01*
X98208663Y-67935680D01*
X97815680Y-68328663D01*
X97603000Y-68842119D01*
X91627000Y-68842119D01*
X91627000Y-57075866D01*
X98505000Y-57075866D01*
X98505000Y-58124134D01*
X98906155Y-59092608D01*
X99647392Y-59833845D01*
X100615866Y-60235000D01*
X101664134Y-60235000D01*
X102632608Y-59833845D01*
X103373845Y-59092608D01*
X103775000Y-58124134D01*
X103775000Y-57075866D01*
X103373845Y-56107392D01*
X102632608Y-55366155D01*
X101664134Y-54965000D01*
X100615866Y-54965000D01*
X99647392Y-55366155D01*
X98906155Y-56107392D01*
X98505000Y-57075866D01*
X91627000Y-57075866D01*
X91627000Y-51127000D01*
X134051186Y-51127000D01*
X134051186Y-59500000D01*
X134051186Y-59500000D01*
G37*
X134051186Y-59500000D02*
X134060853Y-59548601D01*
X134088383Y-59589803D01*
X134129585Y-59617333D01*
X134178186Y-59627000D01*
X159178186Y-59627000D01*
X159226787Y-59617333D01*
X159267989Y-59589803D01*
X159295519Y-59548601D01*
X159305186Y-59500000D01*
X159305186Y-51127000D01*
X163373000Y-51127000D01*
X163373000Y-108873000D01*
X91627000Y-108873000D01*
X91627000Y-103875866D01*
X98505000Y-103875866D01*
X98505000Y-104924134D01*
X98906155Y-105892608D01*
X99647392Y-106633845D01*
X100615866Y-107035000D01*
X101664134Y-107035000D01*
X102632608Y-106633845D01*
X102909561Y-106356892D01*
X111018514Y-106356892D01*
X111264817Y-106881358D01*
X111693076Y-107271645D01*
X112103110Y-107441476D01*
X112333000Y-107320155D01*
X112333000Y-106127000D01*
X111139181Y-106127000D01*
X111018514Y-106356892D01*
X102909561Y-106356892D01*
X103373845Y-105892608D01*
X103477191Y-105643108D01*
X111018514Y-105643108D01*
X111139181Y-105873000D01*
X112333000Y-105873000D01*
X112333000Y-104679845D01*
X112103110Y-104558524D01*
X111693076Y-104728355D01*
X111264817Y-105118642D01*
X111018514Y-105643108D01*
X103477191Y-105643108D01*
X103775000Y-104924134D01*
X103775000Y-103875866D01*
X103373845Y-102907392D01*
X102632608Y-102166155D01*
X101664134Y-101765000D01*
X100615866Y-101765000D01*
X99647392Y-102166155D01*
X98906155Y-102907392D01*
X98505000Y-103875866D01*
X91627000Y-103875866D01*
X91627000Y-95000000D01*
X110296887Y-95000000D01*
X110408260Y-95559909D01*
X110725423Y-96034577D01*
X111200091Y-96351740D01*
X111618667Y-96435000D01*
X111901333Y-96435000D01*
X112319909Y-96351740D01*
X112794577Y-96034577D01*
X113111740Y-95559909D01*
X113223113Y-95000000D01*
X113111740Y-94440091D01*
X112794577Y-93965423D01*
X112410892Y-93709053D01*
X112615134Y-93612389D01*
X112991041Y-93197423D01*
X113151904Y-92809039D01*
X113029915Y-92587000D01*
X111887000Y-92587000D01*
X111887000Y-92607000D01*
X111633000Y-92607000D01*
X111633000Y-92587000D01*
X110490085Y-92587000D01*
X110368096Y-92809039D01*
X110528959Y-93197423D01*
X110904866Y-93612389D01*
X111109108Y-93709053D01*
X110725423Y-93965423D01*
X110408260Y-94440091D01*
X110296887Y-95000000D01*
X91627000Y-95000000D01*
X91627000Y-93860213D01*
X98199392Y-93860213D01*
X98268857Y-94102397D01*
X98792302Y-94289144D01*
X99347368Y-94261362D01*
X99731143Y-94102397D01*
X99800608Y-93860213D01*
X99000000Y-93059605D01*
X98199392Y-93860213D01*
X91627000Y-93860213D01*
X91627000Y-92672302D01*
X97590856Y-92672302D01*
X97618638Y-93227368D01*
X97777603Y-93611143D01*
X98019787Y-93680608D01*
X98820395Y-92880000D01*
X98019787Y-92079392D01*
X97777603Y-92148857D01*
X97590856Y-92672302D01*
X91627000Y-92672302D01*
X91627000Y-90512302D01*
X97590856Y-90512302D01*
X97618638Y-91067368D01*
X97777603Y-91451143D01*
X98019787Y-91520608D01*
X98820395Y-90720000D01*
X98019787Y-89919392D01*
X97777603Y-89988857D01*
X97590856Y-90512302D01*
X91627000Y-90512302D01*
X91627000Y-88352302D01*
X97590856Y-88352302D01*
X97618638Y-88907368D01*
X97777603Y-89291143D01*
X98019787Y-89360608D01*
X98820395Y-88560000D01*
X98019787Y-87759392D01*
X97777603Y-87828857D01*
X97590856Y-88352302D01*
X91627000Y-88352302D01*
X91627000Y-86192302D01*
X97590856Y-86192302D01*
X97618638Y-86747368D01*
X97777603Y-87131143D01*
X98019787Y-87200608D01*
X98820395Y-86400000D01*
X98019787Y-85599392D01*
X97777603Y-85668857D01*
X97590856Y-86192302D01*
X91627000Y-86192302D01*
X91627000Y-84032302D01*
X97590856Y-84032302D01*
X97618638Y-84587368D01*
X97777603Y-84971143D01*
X98019787Y-85040608D01*
X98820395Y-84240000D01*
X98019787Y-83439392D01*
X97777603Y-83508857D01*
X97590856Y-84032302D01*
X91627000Y-84032302D01*
X91627000Y-81872302D01*
X97590856Y-81872302D01*
X97618638Y-82427368D01*
X97777603Y-82811143D01*
X98019787Y-82880608D01*
X98820395Y-82080000D01*
X98019787Y-81279392D01*
X97777603Y-81348857D01*
X97590856Y-81872302D01*
X91627000Y-81872302D01*
X91627000Y-79712302D01*
X97590856Y-79712302D01*
X97618638Y-80267368D01*
X97777603Y-80651143D01*
X98019787Y-80720608D01*
X98820395Y-79920000D01*
X98019787Y-79119392D01*
X97777603Y-79188857D01*
X97590856Y-79712302D01*
X91627000Y-79712302D01*
X91627000Y-68842119D01*
X97603000Y-68842119D01*
X97603000Y-69397881D01*
X97815680Y-69911337D01*
X98104343Y-70200000D01*
X97815680Y-70488663D01*
X97603000Y-71002119D01*
X97603000Y-71557881D01*
X97815680Y-72071337D01*
X98104343Y-72360000D01*
X97815680Y-72648663D01*
X97603000Y-73162119D01*
X97603000Y-73717881D01*
X97815680Y-74231337D01*
X98104343Y-74520000D01*
X97815680Y-74808663D01*
X97603000Y-75322119D01*
X97603000Y-75877881D01*
X97815680Y-76391337D01*
X98104343Y-76680000D01*
X97815680Y-76968663D01*
X97603000Y-77482119D01*
X97603000Y-78037881D01*
X97815680Y-78551337D01*
X98200448Y-78936105D01*
X98199392Y-78939787D01*
X99000000Y-79740395D01*
X99014143Y-79726253D01*
X99193748Y-79905858D01*
X99179605Y-79920000D01*
X99193748Y-79934143D01*
X99014143Y-80113748D01*
X99000000Y-80099605D01*
X98199392Y-80900213D01*
X98228014Y-81000000D01*
X98199392Y-81099787D01*
X99000000Y-81900395D01*
X99014143Y-81886253D01*
X99193748Y-82065858D01*
X99179605Y-82080000D01*
X99193748Y-82094143D01*
X99014143Y-82273748D01*
X99000000Y-82259605D01*
X98199392Y-83060213D01*
X98228014Y-83160000D01*
X98199392Y-83259787D01*
X99000000Y-84060395D01*
X99014143Y-84046253D01*
X99193748Y-84225858D01*
X99179605Y-84240000D01*
X99193748Y-84254143D01*
X99014143Y-84433748D01*
X99000000Y-84419605D01*
X98199392Y-85220213D01*
X98228014Y-85320000D01*
X98199392Y-85419787D01*
X99000000Y-86220395D01*
X99014143Y-86206253D01*
X99193748Y-86385858D01*
X99179605Y-86400000D01*
X99193748Y-86414143D01*
X99014143Y-86593748D01*
X99000000Y-86579605D01*
X98199392Y-87380213D01*
X98228014Y-87480000D01*
X98199392Y-87579787D01*
X99000000Y-88380395D01*
X99014143Y-88366253D01*
X99193748Y-88545858D01*
X99179605Y-88560000D01*
X99193748Y-88574143D01*
X99014143Y-88753748D01*
X99000000Y-88739605D01*
X98199392Y-89540213D01*
X98228014Y-89640000D01*
X98199392Y-89739787D01*
X99000000Y-90540395D01*
X99014143Y-90526253D01*
X99193748Y-90705858D01*
X99179605Y-90720000D01*
X99193748Y-90734143D01*
X99014143Y-90913748D01*
X99000000Y-90899605D01*
X98199392Y-91700213D01*
X98228014Y-91800000D01*
X98199392Y-91899787D01*
X99000000Y-92700395D01*
X99014143Y-92686253D01*
X99193748Y-92865858D01*
X99179605Y-92880000D01*
X99980213Y-93680608D01*
X100222397Y-93611143D01*
X100409144Y-93087698D01*
X100387805Y-92661369D01*
X102177910Y-94451474D01*
X102220310Y-94514930D01*
X102471702Y-94682905D01*
X102693387Y-94727001D01*
X102693391Y-94727001D01*
X102768238Y-94741889D01*
X102843085Y-94727001D01*
X103736914Y-94727001D01*
X103811761Y-94741889D01*
X103886608Y-94727001D01*
X103886613Y-94727001D01*
X104108298Y-94682905D01*
X104359690Y-94514930D01*
X104402092Y-94451471D01*
X110610693Y-88242871D01*
X110725423Y-88414577D01*
X111077758Y-88650000D01*
X110725423Y-88885423D01*
X110408260Y-89360091D01*
X110296887Y-89920000D01*
X110408260Y-90479909D01*
X110725423Y-90954577D01*
X111109108Y-91210947D01*
X110904866Y-91307611D01*
X110528959Y-91722577D01*
X110368096Y-92110961D01*
X110490085Y-92333000D01*
X111633000Y-92333000D01*
X111633000Y-92313000D01*
X111887000Y-92313000D01*
X111887000Y-92333000D01*
X113029915Y-92333000D01*
X113151904Y-92110961D01*
X112991041Y-91722577D01*
X112615134Y-91307611D01*
X112410892Y-91210947D01*
X112794577Y-90954577D01*
X113111740Y-90479909D01*
X113194130Y-90065708D01*
X114115001Y-90986580D01*
X114115000Y-104509522D01*
X113902235Y-104551843D01*
X113692191Y-104692191D01*
X113551843Y-104902235D01*
X113531261Y-105005708D01*
X113226924Y-104728355D01*
X112816890Y-104558524D01*
X112587000Y-104679845D01*
X112587000Y-105873000D01*
X112607000Y-105873000D01*
X112607000Y-106127000D01*
X112587000Y-106127000D01*
X112587000Y-107320155D01*
X112816890Y-107441476D01*
X113226924Y-107271645D01*
X113531261Y-106994292D01*
X113551843Y-107097765D01*
X113692191Y-107307809D01*
X113902235Y-107448157D01*
X114150000Y-107497440D01*
X115850000Y-107497440D01*
X116097765Y-107448157D01*
X116307809Y-107307809D01*
X116448157Y-107097765D01*
X116497440Y-106850000D01*
X116497440Y-105150000D01*
X116448157Y-104902235D01*
X116307809Y-104692191D01*
X116097765Y-104551843D01*
X115885000Y-104509522D01*
X115885000Y-96464506D01*
X132715000Y-96464506D01*
X132715000Y-97015494D01*
X132925853Y-97524540D01*
X133315460Y-97914147D01*
X133546870Y-98010000D01*
X133315460Y-98105853D01*
X132925853Y-98495460D01*
X132715000Y-99004506D01*
X132715000Y-99555494D01*
X132925853Y-100064540D01*
X133315460Y-100454147D01*
X133546870Y-100550000D01*
X133315460Y-100645853D01*
X132925853Y-101035460D01*
X132715000Y-101544506D01*
X132715000Y-102095494D01*
X132925853Y-102604540D01*
X133315460Y-102994147D01*
X133546870Y-103090000D01*
X133315460Y-103185853D01*
X132925853Y-103575460D01*
X132715000Y-104084506D01*
X132715000Y-104635494D01*
X132925853Y-105144540D01*
X133315460Y-105534147D01*
X133546870Y-105630000D01*
X133315460Y-105725853D01*
X132925853Y-106115460D01*
X132715000Y-106624506D01*
X132715000Y-107175494D01*
X132925853Y-107684540D01*
X133315460Y-108074147D01*
X133824506Y-108285000D01*
X134375494Y-108285000D01*
X134884540Y-108074147D01*
X135274147Y-107684540D01*
X135485000Y-107175494D01*
X135485000Y-106624506D01*
X135274147Y-106115460D01*
X134884540Y-105725853D01*
X134653130Y-105630000D01*
X134884540Y-105534147D01*
X134886568Y-105532119D01*
X140193000Y-105532119D01*
X140193000Y-106087881D01*
X140405680Y-106601337D01*
X140798663Y-106994320D01*
X141312119Y-107207000D01*
X141867881Y-107207000D01*
X142381337Y-106994320D01*
X142774320Y-106601337D01*
X142787300Y-106570000D01*
X144055153Y-106570000D01*
X144130000Y-106584888D01*
X144204847Y-106570000D01*
X144204852Y-106570000D01*
X144426537Y-106525904D01*
X144677929Y-106357929D01*
X144720331Y-106294470D01*
X145884473Y-105130329D01*
X145947929Y-105087929D01*
X146115904Y-104836537D01*
X146160000Y-104614852D01*
X146160000Y-104614848D01*
X146174888Y-104540001D01*
X146160000Y-104465154D01*
X146160000Y-102074852D01*
X146174889Y-102000000D01*
X146160000Y-101925148D01*
X146160000Y-101044801D01*
X146984802Y-100220000D01*
X147180000Y-100220000D01*
X147180001Y-103344852D01*
X147224097Y-103566537D01*
X147392072Y-103817929D01*
X147643464Y-103985904D01*
X147940000Y-104044889D01*
X148236537Y-103985904D01*
X148487929Y-103817929D01*
X148655904Y-103566537D01*
X148700000Y-103344852D01*
X148700000Y-100220000D01*
X149282700Y-100220000D01*
X149295680Y-100251337D01*
X149688663Y-100644320D01*
X149720000Y-100657300D01*
X149720001Y-103344852D01*
X149764097Y-103566537D01*
X149932072Y-103817929D01*
X150183464Y-103985904D01*
X150480000Y-104044889D01*
X150776537Y-103985904D01*
X151027929Y-103817929D01*
X151195904Y-103566537D01*
X151240000Y-103344852D01*
X151240000Y-100657300D01*
X151271337Y-100644320D01*
X151664320Y-100251337D01*
X151877000Y-99737881D01*
X151877000Y-99182119D01*
X151664320Y-98668663D01*
X151271337Y-98275680D01*
X150757881Y-98063000D01*
X150202119Y-98063000D01*
X149688663Y-98275680D01*
X149295680Y-98668663D01*
X149282700Y-98700000D01*
X148014852Y-98700000D01*
X147940000Y-98685111D01*
X147865148Y-98700000D01*
X146744846Y-98700000D01*
X146669999Y-98685112D01*
X146595152Y-98700000D01*
X146595148Y-98700000D01*
X146373463Y-98744096D01*
X146122071Y-98912071D01*
X146079671Y-98975527D01*
X144915530Y-100139669D01*
X144852071Y-100182071D01*
X144684096Y-100433464D01*
X144640000Y-100655149D01*
X144640000Y-100655153D01*
X144625112Y-100730000D01*
X144640000Y-100804847D01*
X144640000Y-101240000D01*
X141515148Y-101240000D01*
X141293463Y-101284096D01*
X141042071Y-101452071D01*
X140874096Y-101703463D01*
X140815111Y-102000000D01*
X140874096Y-102296537D01*
X141042071Y-102547929D01*
X141293463Y-102715904D01*
X141515148Y-102760000D01*
X144640001Y-102760000D01*
X144640001Y-104225197D01*
X143815199Y-105050000D01*
X142787300Y-105050000D01*
X142774320Y-105018663D01*
X142381337Y-104625680D01*
X141867881Y-104413000D01*
X141312119Y-104413000D01*
X140798663Y-104625680D01*
X140405680Y-105018663D01*
X140193000Y-105532119D01*
X134886568Y-105532119D01*
X135274147Y-105144540D01*
X135485000Y-104635494D01*
X135485000Y-104084506D01*
X135274147Y-103575460D01*
X134884540Y-103185853D01*
X134653130Y-103090000D01*
X134884540Y-102994147D01*
X135274147Y-102604540D01*
X135485000Y-102095494D01*
X135485000Y-101544506D01*
X135274147Y-101035460D01*
X134884540Y-100645853D01*
X134653130Y-100550000D01*
X134884540Y-100454147D01*
X135274147Y-100064540D01*
X135485000Y-99555494D01*
X135485000Y-99004506D01*
X135274147Y-98495460D01*
X134884540Y-98105853D01*
X134653130Y-98010000D01*
X134884540Y-97914147D01*
X135274147Y-97524540D01*
X135485000Y-97015494D01*
X135485000Y-96464506D01*
X135274147Y-95955460D01*
X134884540Y-95565853D01*
X134669070Y-95476603D01*
X134823923Y-95412460D01*
X134891912Y-95171517D01*
X134100000Y-94379605D01*
X133308088Y-95171517D01*
X133376077Y-95412460D01*
X133542658Y-95471745D01*
X133315460Y-95565853D01*
X132925853Y-95955460D01*
X132715000Y-96464506D01*
X115885000Y-96464506D01*
X115885000Y-90707161D01*
X115902337Y-90620000D01*
X115885000Y-90532839D01*
X115885000Y-90532835D01*
X115833652Y-90274690D01*
X115638049Y-89981951D01*
X115564156Y-89932577D01*
X115551579Y-89920000D01*
X125536887Y-89920000D01*
X125648260Y-90479909D01*
X125965423Y-90954577D01*
X126317758Y-91190000D01*
X125965423Y-91425423D01*
X125648260Y-91900091D01*
X125536887Y-92460000D01*
X125648260Y-93019909D01*
X125965423Y-93494577D01*
X126086106Y-93575215D01*
X125952235Y-93601843D01*
X125742191Y-93742191D01*
X125601843Y-93952235D01*
X125552560Y-94200000D01*
X125552560Y-95800000D01*
X125601843Y-96047765D01*
X125742191Y-96257809D01*
X125952235Y-96398157D01*
X126200000Y-96447440D01*
X127800000Y-96447440D01*
X128047765Y-96398157D01*
X128257809Y-96257809D01*
X128398157Y-96047765D01*
X128447440Y-95800000D01*
X128447440Y-94200000D01*
X128406698Y-93995171D01*
X132702799Y-93995171D01*
X132730770Y-94545448D01*
X132887540Y-94923923D01*
X133128483Y-94991912D01*
X133920395Y-94200000D01*
X134279605Y-94200000D01*
X135071517Y-94991912D01*
X135312460Y-94923923D01*
X135497201Y-94404829D01*
X135469230Y-93854552D01*
X135312460Y-93476077D01*
X135071517Y-93408088D01*
X134279605Y-94200000D01*
X133920395Y-94200000D01*
X133128483Y-93408088D01*
X132887540Y-93476077D01*
X132702799Y-93995171D01*
X128406698Y-93995171D01*
X128398157Y-93952235D01*
X128257809Y-93742191D01*
X128047765Y-93601843D01*
X127913894Y-93575215D01*
X128034577Y-93494577D01*
X128351740Y-93019909D01*
X128463113Y-92460000D01*
X128351740Y-91900091D01*
X128034577Y-91425423D01*
X127682242Y-91190000D01*
X128034577Y-90954577D01*
X128351740Y-90479909D01*
X128463113Y-89920000D01*
X128351740Y-89360091D01*
X128034577Y-88885423D01*
X127650892Y-88629053D01*
X127855134Y-88532389D01*
X128231041Y-88117423D01*
X128391904Y-87729039D01*
X128269915Y-87507000D01*
X127127000Y-87507000D01*
X127127000Y-87527000D01*
X126873000Y-87527000D01*
X126873000Y-87507000D01*
X125730085Y-87507000D01*
X125608096Y-87729039D01*
X125768959Y-88117423D01*
X126144866Y-88532389D01*
X126349108Y-88629053D01*
X125965423Y-88885423D01*
X125648260Y-89360091D01*
X125536887Y-89920000D01*
X115551579Y-89920000D01*
X113188017Y-87556439D01*
X113223113Y-87380000D01*
X113111740Y-86820091D01*
X113048203Y-86725001D01*
X123260152Y-86725001D01*
X123334999Y-86739889D01*
X123409846Y-86725001D01*
X123409851Y-86725001D01*
X123631536Y-86680905D01*
X123882928Y-86512930D01*
X123925330Y-86449471D01*
X125537405Y-84837397D01*
X125536887Y-84840000D01*
X125648260Y-85399909D01*
X125965423Y-85874577D01*
X126349108Y-86130947D01*
X126144866Y-86227611D01*
X125768959Y-86642577D01*
X125608096Y-87030961D01*
X125730085Y-87253000D01*
X126873000Y-87253000D01*
X126873000Y-87233000D01*
X127127000Y-87233000D01*
X127127000Y-87253000D01*
X128269915Y-87253000D01*
X128391904Y-87030961D01*
X128231041Y-86642577D01*
X127855134Y-86227611D01*
X127650892Y-86130947D01*
X128034577Y-85874577D01*
X128351740Y-85399909D01*
X128463113Y-84840000D01*
X128351740Y-84280091D01*
X128034577Y-83805423D01*
X127682242Y-83570000D01*
X128034577Y-83334577D01*
X128351740Y-82859909D01*
X128463113Y-82300000D01*
X128351740Y-81740091D01*
X128034577Y-81265423D01*
X127682242Y-81030000D01*
X128034577Y-80794577D01*
X128351740Y-80319909D01*
X128463113Y-79760000D01*
X128398688Y-79436113D01*
X128609471Y-79225330D01*
X128672930Y-79182928D01*
X128840905Y-78931536D01*
X128885001Y-78709851D01*
X128885001Y-78709847D01*
X128899889Y-78635000D01*
X128885001Y-78560153D01*
X128885001Y-76754847D01*
X128899889Y-76679999D01*
X128885001Y-76605151D01*
X128885001Y-76605147D01*
X128842511Y-76391535D01*
X128840905Y-76383461D01*
X128715330Y-76195526D01*
X128672930Y-76132070D01*
X128609474Y-76089670D01*
X128114607Y-75594804D01*
X128351740Y-75239909D01*
X128463113Y-74680000D01*
X128351740Y-74120091D01*
X128034577Y-73645423D01*
X127682242Y-73410000D01*
X128034577Y-73174577D01*
X128351740Y-72699909D01*
X128463113Y-72140000D01*
X128351740Y-71580091D01*
X128034577Y-71105423D01*
X127682242Y-70870000D01*
X128034577Y-70634577D01*
X128351740Y-70159909D01*
X128463113Y-69600000D01*
X128351740Y-69040091D01*
X128034577Y-68565423D01*
X127682242Y-68330000D01*
X128034577Y-68094577D01*
X128351740Y-67619909D01*
X128463113Y-67060000D01*
X128351740Y-66500091D01*
X128034577Y-66025423D01*
X127682242Y-65790000D01*
X128034577Y-65554577D01*
X128351740Y-65079909D01*
X128463113Y-64520000D01*
X128351740Y-63960091D01*
X128034577Y-63485423D01*
X127682242Y-63250000D01*
X128034577Y-63014577D01*
X128351740Y-62539909D01*
X128463113Y-61980000D01*
X128351740Y-61420091D01*
X128034577Y-60945423D01*
X127973341Y-60904506D01*
X132715000Y-60904506D01*
X132715000Y-61455494D01*
X132925853Y-61964540D01*
X133315460Y-62354147D01*
X133546870Y-62450000D01*
X133315460Y-62545853D01*
X132925853Y-62935460D01*
X132715000Y-63444506D01*
X132715000Y-63995494D01*
X132925853Y-64504540D01*
X133315460Y-64894147D01*
X133546870Y-64990000D01*
X133315460Y-65085853D01*
X132925853Y-65475460D01*
X132715000Y-65984506D01*
X132715000Y-66535494D01*
X132925853Y-67044540D01*
X133315460Y-67434147D01*
X133546870Y-67530000D01*
X133315460Y-67625853D01*
X132925853Y-68015460D01*
X132715000Y-68524506D01*
X132715000Y-69075494D01*
X132925853Y-69584540D01*
X133315460Y-69974147D01*
X133546870Y-70070000D01*
X133315460Y-70165853D01*
X132925853Y-70555460D01*
X132715000Y-71064506D01*
X132715000Y-71615494D01*
X132925853Y-72124540D01*
X133315460Y-72514147D01*
X133546870Y-72610000D01*
X133315460Y-72705853D01*
X132925853Y-73095460D01*
X132715000Y-73604506D01*
X132715000Y-74155494D01*
X132925853Y-74664540D01*
X133315460Y-75054147D01*
X133546870Y-75150000D01*
X133315460Y-75245853D01*
X132925853Y-75635460D01*
X132715000Y-76144506D01*
X132715000Y-76695494D01*
X132925853Y-77204540D01*
X133315460Y-77594147D01*
X133546870Y-77690000D01*
X133315460Y-77785853D01*
X132925853Y-78175460D01*
X132715000Y-78684506D01*
X132715000Y-79235494D01*
X132925853Y-79744540D01*
X133315460Y-80134147D01*
X133546870Y-80230000D01*
X133315460Y-80325853D01*
X132925853Y-80715460D01*
X132715000Y-81224506D01*
X132715000Y-81775494D01*
X132925853Y-82284540D01*
X133315460Y-82674147D01*
X133546870Y-82770000D01*
X133315460Y-82865853D01*
X132925853Y-83255460D01*
X132715000Y-83764506D01*
X132715000Y-84315494D01*
X132925853Y-84824540D01*
X133315460Y-85214147D01*
X133546870Y-85310000D01*
X133315460Y-85405853D01*
X132925853Y-85795460D01*
X132715000Y-86304506D01*
X132715000Y-86855494D01*
X132925853Y-87364540D01*
X133315460Y-87754147D01*
X133546870Y-87850000D01*
X133315460Y-87945853D01*
X132925853Y-88335460D01*
X132715000Y-88844506D01*
X132715000Y-89395494D01*
X132925853Y-89904540D01*
X133315460Y-90294147D01*
X133546870Y-90390000D01*
X133315460Y-90485853D01*
X132925853Y-90875460D01*
X132715000Y-91384506D01*
X132715000Y-91935494D01*
X132925853Y-92444540D01*
X133315460Y-92834147D01*
X133530930Y-92923397D01*
X133376077Y-92987540D01*
X133308088Y-93228483D01*
X134100000Y-94020395D01*
X134891912Y-93228483D01*
X134823923Y-92987540D01*
X134657342Y-92928255D01*
X134884540Y-92834147D01*
X135274147Y-92444540D01*
X135485000Y-91935494D01*
X135485000Y-91384506D01*
X135274147Y-90875460D01*
X134884540Y-90485853D01*
X134653130Y-90390000D01*
X134884540Y-90294147D01*
X135274147Y-89904540D01*
X135485000Y-89395494D01*
X135485000Y-88844506D01*
X135274147Y-88335460D01*
X134884540Y-87945853D01*
X134653130Y-87850000D01*
X134884540Y-87754147D01*
X135274147Y-87364540D01*
X135485000Y-86855494D01*
X135485000Y-86304506D01*
X135274147Y-85795460D01*
X134884540Y-85405853D01*
X134653130Y-85310000D01*
X134884540Y-85214147D01*
X135274147Y-84824540D01*
X135485000Y-84315494D01*
X135485000Y-83764506D01*
X135274147Y-83255460D01*
X134884540Y-82865853D01*
X134653130Y-82770000D01*
X134884540Y-82674147D01*
X135274147Y-82284540D01*
X135485000Y-81775494D01*
X135485000Y-81224506D01*
X135274147Y-80715460D01*
X134884540Y-80325853D01*
X134653130Y-80230000D01*
X134884540Y-80134147D01*
X135274147Y-79744540D01*
X135485000Y-79235494D01*
X135485000Y-78684506D01*
X158115000Y-78684506D01*
X158115000Y-79235494D01*
X158325853Y-79744540D01*
X158715460Y-80134147D01*
X158946870Y-80230000D01*
X158715460Y-80325853D01*
X158325853Y-80715460D01*
X158115000Y-81224506D01*
X158115000Y-81775494D01*
X158325853Y-82284540D01*
X158715460Y-82674147D01*
X158946870Y-82770000D01*
X158715460Y-82865853D01*
X158325853Y-83255460D01*
X158115000Y-83764506D01*
X158115000Y-84315494D01*
X158325853Y-84824540D01*
X158715460Y-85214147D01*
X158946870Y-85310000D01*
X158715460Y-85405853D01*
X158325853Y-85795460D01*
X158115000Y-86304506D01*
X158115000Y-86855494D01*
X158325853Y-87364540D01*
X158715460Y-87754147D01*
X158946870Y-87850000D01*
X158715460Y-87945853D01*
X158325853Y-88335460D01*
X158115000Y-88844506D01*
X158115000Y-89395494D01*
X158325853Y-89904540D01*
X158715460Y-90294147D01*
X158946870Y-90390000D01*
X158715460Y-90485853D01*
X158325853Y-90875460D01*
X158115000Y-91384506D01*
X158115000Y-91935494D01*
X158325853Y-92444540D01*
X158715460Y-92834147D01*
X158946870Y-92930000D01*
X158715460Y-93025853D01*
X158325853Y-93415460D01*
X158115000Y-93924506D01*
X158115000Y-94475494D01*
X158325853Y-94984540D01*
X158715460Y-95374147D01*
X158946870Y-95470000D01*
X158715460Y-95565853D01*
X158325853Y-95955460D01*
X158115000Y-96464506D01*
X158115000Y-97015494D01*
X158325853Y-97524540D01*
X158715460Y-97914147D01*
X158946870Y-98010000D01*
X158715460Y-98105853D01*
X158325853Y-98495460D01*
X158115000Y-99004506D01*
X158115000Y-99555494D01*
X158325853Y-100064540D01*
X158715460Y-100454147D01*
X158946870Y-100550000D01*
X158715460Y-100645853D01*
X158325853Y-101035460D01*
X158115000Y-101544506D01*
X158115000Y-102095494D01*
X158325853Y-102604540D01*
X158715460Y-102994147D01*
X158946870Y-103090000D01*
X158715460Y-103185853D01*
X158325853Y-103575460D01*
X158115000Y-104084506D01*
X158115000Y-104635494D01*
X158325853Y-105144540D01*
X158715460Y-105534147D01*
X158946870Y-105630000D01*
X158715460Y-105725853D01*
X158325853Y-106115460D01*
X158115000Y-106624506D01*
X158115000Y-107175494D01*
X158325853Y-107684540D01*
X158715460Y-108074147D01*
X159224506Y-108285000D01*
X159775494Y-108285000D01*
X160284540Y-108074147D01*
X160674147Y-107684540D01*
X160885000Y-107175494D01*
X160885000Y-106624506D01*
X160674147Y-106115460D01*
X160284540Y-105725853D01*
X160053130Y-105630000D01*
X160284540Y-105534147D01*
X160674147Y-105144540D01*
X160885000Y-104635494D01*
X160885000Y-104084506D01*
X160674147Y-103575460D01*
X160284540Y-103185853D01*
X160053130Y-103090000D01*
X160284540Y-102994147D01*
X160674147Y-102604540D01*
X160885000Y-102095494D01*
X160885000Y-101544506D01*
X160674147Y-101035460D01*
X160284540Y-100645853D01*
X160053130Y-100550000D01*
X160284540Y-100454147D01*
X160674147Y-100064540D01*
X160885000Y-99555494D01*
X160885000Y-99004506D01*
X160674147Y-98495460D01*
X160284540Y-98105853D01*
X160053130Y-98010000D01*
X160284540Y-97914147D01*
X160674147Y-97524540D01*
X160885000Y-97015494D01*
X160885000Y-96464506D01*
X160674147Y-95955460D01*
X160284540Y-95565853D01*
X160053130Y-95470000D01*
X160284540Y-95374147D01*
X160674147Y-94984540D01*
X160885000Y-94475494D01*
X160885000Y-93924506D01*
X160674147Y-93415460D01*
X160284540Y-93025853D01*
X160053130Y-92930000D01*
X160284540Y-92834147D01*
X160674147Y-92444540D01*
X160885000Y-91935494D01*
X160885000Y-91384506D01*
X160674147Y-90875460D01*
X160284540Y-90485853D01*
X160053130Y-90390000D01*
X160284540Y-90294147D01*
X160674147Y-89904540D01*
X160885000Y-89395494D01*
X160885000Y-88844506D01*
X160674147Y-88335460D01*
X160284540Y-87945853D01*
X160053130Y-87850000D01*
X160284540Y-87754147D01*
X160674147Y-87364540D01*
X160885000Y-86855494D01*
X160885000Y-86304506D01*
X160674147Y-85795460D01*
X160284540Y-85405853D01*
X160053130Y-85310000D01*
X160284540Y-85214147D01*
X160674147Y-84824540D01*
X160885000Y-84315494D01*
X160885000Y-83764506D01*
X160674147Y-83255460D01*
X160284540Y-82865853D01*
X160053130Y-82770000D01*
X160284540Y-82674147D01*
X160674147Y-82284540D01*
X160885000Y-81775494D01*
X160885000Y-81224506D01*
X160674147Y-80715460D01*
X160284540Y-80325853D01*
X160053130Y-80230000D01*
X160284540Y-80134147D01*
X160674147Y-79744540D01*
X160885000Y-79235494D01*
X160885000Y-78684506D01*
X160674147Y-78175460D01*
X160284540Y-77785853D01*
X160069070Y-77696603D01*
X160223923Y-77632460D01*
X160291912Y-77391517D01*
X159500000Y-76599605D01*
X158708088Y-77391517D01*
X158776077Y-77632460D01*
X158942658Y-77691745D01*
X158715460Y-77785853D01*
X158325853Y-78175460D01*
X158115000Y-78684506D01*
X135485000Y-78684506D01*
X135274147Y-78175460D01*
X134884540Y-77785853D01*
X134653130Y-77690000D01*
X134884540Y-77594147D01*
X135274147Y-77204540D01*
X135485000Y-76695494D01*
X135485000Y-76215171D01*
X158102799Y-76215171D01*
X158130770Y-76765448D01*
X158287540Y-77143923D01*
X158528483Y-77211912D01*
X159320395Y-76420000D01*
X159679605Y-76420000D01*
X160471517Y-77211912D01*
X160712460Y-77143923D01*
X160897201Y-76624829D01*
X160869230Y-76074552D01*
X160712460Y-75696077D01*
X160471517Y-75628088D01*
X159679605Y-76420000D01*
X159320395Y-76420000D01*
X158528483Y-75628088D01*
X158287540Y-75696077D01*
X158102799Y-76215171D01*
X135485000Y-76215171D01*
X135485000Y-76144506D01*
X135274147Y-75635460D01*
X134884540Y-75245853D01*
X134653130Y-75150000D01*
X134884540Y-75054147D01*
X135274147Y-74664540D01*
X135485000Y-74155494D01*
X135485000Y-73604506D01*
X135274147Y-73095460D01*
X134884540Y-72705853D01*
X134653130Y-72610000D01*
X134884540Y-72514147D01*
X135274147Y-72124540D01*
X135485000Y-71615494D01*
X135485000Y-71064506D01*
X135274147Y-70555460D01*
X134884540Y-70165853D01*
X134653130Y-70070000D01*
X134884540Y-69974147D01*
X135274147Y-69584540D01*
X135485000Y-69075494D01*
X135485000Y-68524506D01*
X135274147Y-68015460D01*
X134884540Y-67625853D01*
X134653130Y-67530000D01*
X134884540Y-67434147D01*
X135274147Y-67044540D01*
X135485000Y-66535494D01*
X135485000Y-65984506D01*
X135274147Y-65475460D01*
X134884540Y-65085853D01*
X134653130Y-64990000D01*
X134884540Y-64894147D01*
X135274147Y-64504540D01*
X135485000Y-63995494D01*
X135485000Y-63444506D01*
X158115000Y-63444506D01*
X158115000Y-63995494D01*
X158325853Y-64504540D01*
X158715460Y-64894147D01*
X158946870Y-64990000D01*
X158715460Y-65085853D01*
X158325853Y-65475460D01*
X158115000Y-65984506D01*
X158115000Y-66535494D01*
X158325853Y-67044540D01*
X158715460Y-67434147D01*
X158946870Y-67530000D01*
X158715460Y-67625853D01*
X158325853Y-68015460D01*
X158115000Y-68524506D01*
X158115000Y-69075494D01*
X158325853Y-69584540D01*
X158715460Y-69974147D01*
X158946870Y-70070000D01*
X158715460Y-70165853D01*
X158325853Y-70555460D01*
X158115000Y-71064506D01*
X158115000Y-71615494D01*
X158325853Y-72124540D01*
X158715460Y-72514147D01*
X158946870Y-72610000D01*
X158715460Y-72705853D01*
X158325853Y-73095460D01*
X158115000Y-73604506D01*
X158115000Y-74155494D01*
X158325853Y-74664540D01*
X158715460Y-75054147D01*
X158930930Y-75143397D01*
X158776077Y-75207540D01*
X158708088Y-75448483D01*
X159500000Y-76240395D01*
X160291912Y-75448483D01*
X160223923Y-75207540D01*
X160057342Y-75148255D01*
X160284540Y-75054147D01*
X160674147Y-74664540D01*
X160885000Y-74155494D01*
X160885000Y-73604506D01*
X160674147Y-73095460D01*
X160284540Y-72705853D01*
X160053130Y-72610000D01*
X160284540Y-72514147D01*
X160674147Y-72124540D01*
X160885000Y-71615494D01*
X160885000Y-71064506D01*
X160674147Y-70555460D01*
X160284540Y-70165853D01*
X160053130Y-70070000D01*
X160284540Y-69974147D01*
X160674147Y-69584540D01*
X160885000Y-69075494D01*
X160885000Y-68524506D01*
X160674147Y-68015460D01*
X160284540Y-67625853D01*
X160053130Y-67530000D01*
X160284540Y-67434147D01*
X160674147Y-67044540D01*
X160885000Y-66535494D01*
X160885000Y-65984506D01*
X160674147Y-65475460D01*
X160284540Y-65085853D01*
X160053130Y-64990000D01*
X160284540Y-64894147D01*
X160674147Y-64504540D01*
X160885000Y-63995494D01*
X160885000Y-63444506D01*
X160674147Y-62935460D01*
X160284540Y-62545853D01*
X160069070Y-62456603D01*
X160223923Y-62392460D01*
X160291912Y-62151517D01*
X159500000Y-61359605D01*
X158708088Y-62151517D01*
X158776077Y-62392460D01*
X158942658Y-62451745D01*
X158715460Y-62545853D01*
X158325853Y-62935460D01*
X158115000Y-63444506D01*
X135485000Y-63444506D01*
X135274147Y-62935460D01*
X134884540Y-62545853D01*
X134653130Y-62450000D01*
X134884540Y-62354147D01*
X135274147Y-61964540D01*
X135485000Y-61455494D01*
X135485000Y-60975171D01*
X158102799Y-60975171D01*
X158130770Y-61525448D01*
X158287540Y-61903923D01*
X158528483Y-61971912D01*
X159320395Y-61180000D01*
X159679605Y-61180000D01*
X160471517Y-61971912D01*
X160712460Y-61903923D01*
X160897201Y-61384829D01*
X160869230Y-60834552D01*
X160712460Y-60456077D01*
X160471517Y-60388088D01*
X159679605Y-61180000D01*
X159320395Y-61180000D01*
X158528483Y-60388088D01*
X158287540Y-60456077D01*
X158102799Y-60975171D01*
X135485000Y-60975171D01*
X135485000Y-60904506D01*
X135274147Y-60395460D01*
X135087170Y-60208483D01*
X158708088Y-60208483D01*
X159500000Y-61000395D01*
X160291912Y-60208483D01*
X160223923Y-59967540D01*
X159704829Y-59782799D01*
X159154552Y-59810770D01*
X158776077Y-59967540D01*
X158708088Y-60208483D01*
X135087170Y-60208483D01*
X134884540Y-60005853D01*
X134375494Y-59795000D01*
X133824506Y-59795000D01*
X133315460Y-60005853D01*
X132925853Y-60395460D01*
X132715000Y-60904506D01*
X127973341Y-60904506D01*
X127682242Y-60710000D01*
X128034577Y-60474577D01*
X128351740Y-59999909D01*
X128463113Y-59440000D01*
X128351740Y-58880091D01*
X128034577Y-58405423D01*
X127559909Y-58088260D01*
X127141333Y-58005000D01*
X126858667Y-58005000D01*
X126440091Y-58088260D01*
X125965423Y-58405423D01*
X125648260Y-58880091D01*
X125536887Y-59440000D01*
X125648260Y-59999909D01*
X125965423Y-60474577D01*
X126317758Y-60710000D01*
X125965423Y-60945423D01*
X125648260Y-61420091D01*
X125536887Y-61980000D01*
X125648260Y-62539909D01*
X125965423Y-63014577D01*
X126317758Y-63250000D01*
X125965423Y-63485423D01*
X125648260Y-63960091D01*
X125536887Y-64520000D01*
X125648260Y-65079909D01*
X125965423Y-65554577D01*
X126317758Y-65790000D01*
X125965423Y-66025423D01*
X125648260Y-66500091D01*
X125536887Y-67060000D01*
X125648260Y-67619909D01*
X125965423Y-68094577D01*
X126317758Y-68330000D01*
X125965423Y-68565423D01*
X125648260Y-69040091D01*
X125536887Y-69600000D01*
X125648260Y-70159909D01*
X125965423Y-70634577D01*
X126317758Y-70870000D01*
X125965423Y-71105423D01*
X125648260Y-71580091D01*
X125536887Y-72140000D01*
X125648260Y-72699909D01*
X125965423Y-73174577D01*
X126317758Y-73410000D01*
X125965423Y-73645423D01*
X125648260Y-74120091D01*
X125536887Y-74680000D01*
X125648260Y-75239909D01*
X125885393Y-75594803D01*
X121240197Y-80240000D01*
X113127635Y-80240000D01*
X113223113Y-79760000D01*
X113111740Y-79200091D01*
X112794577Y-78725423D01*
X112442242Y-78490000D01*
X112794577Y-78254577D01*
X113111740Y-77779909D01*
X113223113Y-77220000D01*
X113111740Y-76660091D01*
X112794577Y-76185423D01*
X112442242Y-75950000D01*
X112794577Y-75714577D01*
X113111740Y-75239909D01*
X113223113Y-74680000D01*
X113111740Y-74120091D01*
X112794577Y-73645423D01*
X112442242Y-73410000D01*
X112794577Y-73174577D01*
X113111740Y-72699909D01*
X113223113Y-72140000D01*
X113111740Y-71580091D01*
X112794577Y-71105423D01*
X112442242Y-70870000D01*
X112794577Y-70634577D01*
X113111740Y-70159909D01*
X113223113Y-69600000D01*
X113111740Y-69040091D01*
X112794577Y-68565423D01*
X112442242Y-68330000D01*
X112794577Y-68094577D01*
X113111740Y-67619909D01*
X113223113Y-67060000D01*
X113111740Y-66500091D01*
X112794577Y-66025423D01*
X112442242Y-65790000D01*
X112794577Y-65554577D01*
X113111740Y-65079909D01*
X113223113Y-64520000D01*
X113111740Y-63960091D01*
X112794577Y-63485423D01*
X112442242Y-63250000D01*
X112794577Y-63014577D01*
X113111740Y-62539909D01*
X113223113Y-61980000D01*
X113111740Y-61420091D01*
X112794577Y-60945423D01*
X112442242Y-60710000D01*
X112794577Y-60474577D01*
X113111740Y-59999909D01*
X113223113Y-59440000D01*
X113111740Y-58880091D01*
X112794577Y-58405423D01*
X112319909Y-58088260D01*
X111901333Y-58005000D01*
X111618667Y-58005000D01*
X111200091Y-58088260D01*
X110725423Y-58405423D01*
X110408260Y-58880091D01*
X110296887Y-59440000D01*
X110408260Y-59999909D01*
X110725423Y-60474577D01*
X111077758Y-60710000D01*
X110725423Y-60945423D01*
X110408260Y-61420091D01*
X110296887Y-61980000D01*
X110408260Y-62539909D01*
X110725423Y-63014577D01*
X111077758Y-63250000D01*
X110725423Y-63485423D01*
X110408260Y-63960091D01*
X110296887Y-64520000D01*
X110408260Y-65079909D01*
X110725423Y-65554577D01*
X111077758Y-65790000D01*
X110725423Y-66025423D01*
X110408260Y-66500091D01*
X110296887Y-67060000D01*
X110408260Y-67619909D01*
X110725423Y-68094577D01*
X111077758Y-68330000D01*
X110725423Y-68565423D01*
X110691297Y-68616496D01*
X105590331Y-63515530D01*
X105547929Y-63452071D01*
X105296537Y-63284096D01*
X105074852Y-63240000D01*
X105074847Y-63240000D01*
X105000000Y-63225112D01*
X104925153Y-63240000D01*
X104194846Y-63240000D01*
X104119999Y-63225112D01*
X104045152Y-63240000D01*
X104045148Y-63240000D01*
X103823463Y-63284096D01*
X103823461Y-63284097D01*
X103823462Y-63284097D01*
X103635526Y-63409671D01*
X103635524Y-63409673D01*
X103572071Y-63452071D01*
X103529673Y-63515524D01*
X99309218Y-67735980D01*
X99277881Y-67723000D01*
X98722119Y-67723000D01*
X98208663Y-67935680D01*
X97815680Y-68328663D01*
X97603000Y-68842119D01*
X91627000Y-68842119D01*
X91627000Y-57075866D01*
X98505000Y-57075866D01*
X98505000Y-58124134D01*
X98906155Y-59092608D01*
X99647392Y-59833845D01*
X100615866Y-60235000D01*
X101664134Y-60235000D01*
X102632608Y-59833845D01*
X103373845Y-59092608D01*
X103775000Y-58124134D01*
X103775000Y-57075866D01*
X103373845Y-56107392D01*
X102632608Y-55366155D01*
X101664134Y-54965000D01*
X100615866Y-54965000D01*
X99647392Y-55366155D01*
X98906155Y-56107392D01*
X98505000Y-57075866D01*
X91627000Y-57075866D01*
X91627000Y-51127000D01*
X134051186Y-51127000D01*
X134051186Y-59500000D01*
G04 #@! TD*
M02*
