G04 #@! TF.GenerationSoftware,KiCad,Pcbnew,5.0.2+dfsg1-1*
G04 #@! TF.CreationDate,2020-04-16T16:35:58+12:00*
G04 #@! TF.ProjectId,Wireless488,57697265-6c65-4737-9334-38382e6b6963,rev?*
G04 #@! TF.SameCoordinates,Original*
G04 #@! TF.FileFunction,Copper,L1,Top*
G04 #@! TF.FilePolarity,Positive*
%FSLAX46Y46*%
G04 Gerber Fmt 4.6, Leading zero omitted, Abs format (unit mm)*
G04 Created by KiCad (PCBNEW 5.0.2+dfsg1-1) date Thu 16 Apr 2020 16:35:58 NZST*
%MOMM*%
%LPD*%
G01*
G04 APERTURE LIST*
G04 #@! TA.AperFunction,EtchedComponent*
%ADD10C,0.250000*%
G04 #@! TD*
G04 #@! TA.AperFunction,ViaPad*
%ADD11C,1.524000*%
G04 #@! TD*
G04 #@! TA.AperFunction,ComponentPad*
%ADD12C,1.500000*%
G04 #@! TD*
G04 #@! TA.AperFunction,Conductor*
%ADD13C,0.100000*%
G04 #@! TD*
G04 #@! TA.AperFunction,SMDPad,CuDef*
%ADD14C,1.250000*%
G04 #@! TD*
G04 #@! TA.AperFunction,ComponentPad*
%ADD15R,1.700000X1.700000*%
G04 #@! TD*
G04 #@! TA.AperFunction,ComponentPad*
%ADD16O,1.700000X1.700000*%
G04 #@! TD*
G04 #@! TA.AperFunction,ComponentPad*
%ADD17C,1.524000*%
G04 #@! TD*
G04 #@! TA.AperFunction,ComponentPad*
%ADD18C,4.000000*%
G04 #@! TD*
G04 #@! TA.AperFunction,ComponentPad*
%ADD19R,1.600000X1.600000*%
G04 #@! TD*
G04 #@! TA.AperFunction,ComponentPad*
%ADD20O,1.600000X1.600000*%
G04 #@! TD*
G04 #@! TA.AperFunction,Conductor*
%ADD21C,0.250000*%
G04 #@! TD*
G04 #@! TA.AperFunction,Conductor*
%ADD22C,0.500000*%
G04 #@! TD*
G04 #@! TA.AperFunction,Conductor*
%ADD23C,0.254000*%
G04 #@! TD*
G04 APERTURE END LIST*
D10*
G04 #@! TO.C,SYM1*
X141590000Y-102000000D02*
X141590000Y-105810000D01*
X141590000Y-102000000D02*
X145400000Y-102000000D01*
X145400000Y-102000000D02*
X146670000Y-103270000D01*
X146670000Y-103270000D02*
X149210000Y-103270000D01*
X146670000Y-103270000D02*
X146670000Y-105810000D01*
X144130000Y-102000000D02*
X144130000Y-105810000D01*
X145400000Y-102000000D02*
X145400000Y-100730000D01*
X145400000Y-100730000D02*
X146670000Y-99460000D01*
X146670000Y-99460000D02*
X150480000Y-99460000D01*
G04 #@! TD*
D11*
G04 #@! TO.N,*
G04 #@! TO.C,SYM1*
X150480000Y-99460000D03*
X141590000Y-105810000D03*
G04 #@! TD*
D12*
G04 #@! TO.P,U1,38*
G04 #@! TO.N,GND*
X159500000Y-61180000D03*
G04 #@! TO.P,U1,37*
G04 #@! TO.N,Net-(U1-Pad37)*
X159500000Y-63720000D03*
G04 #@! TO.P,U1,36*
G04 #@! TO.N,Net-(U1-Pad36)*
X159500000Y-66260000D03*
G04 #@! TO.P,U1,35*
G04 #@! TO.N,Net-(U1-Pad35)*
X159500000Y-68800000D03*
G04 #@! TO.P,U1,34*
G04 #@! TO.N,Net-(U1-Pad34)*
X159500000Y-71340000D03*
G04 #@! TO.P,U1,33*
G04 #@! TO.N,Net-(U1-Pad33)*
X159500000Y-73880000D03*
G04 #@! TO.P,U1,32*
G04 #@! TO.N,GND*
X159500000Y-76420000D03*
G04 #@! TO.P,U1,31*
G04 #@! TO.N,Net-(U1-Pad31)*
X159500000Y-78960000D03*
G04 #@! TO.P,U1,30*
G04 #@! TO.N,Net-(U1-Pad30)*
X159500000Y-81500000D03*
G04 #@! TO.P,U1,29*
G04 #@! TO.N,Net-(U1-Pad29)*
X159500000Y-84040000D03*
G04 #@! TO.P,U1,28*
G04 #@! TO.N,Net-(U1-Pad28)*
X159500000Y-86580000D03*
G04 #@! TO.P,U1,27*
G04 #@! TO.N,Net-(U1-Pad27)*
X159500000Y-89120000D03*
G04 #@! TO.P,U1,26*
G04 #@! TO.N,Net-(U1-Pad26)*
X159500000Y-91660000D03*
G04 #@! TO.P,U1,25*
G04 #@! TO.N,Net-(U1-Pad25)*
X159500000Y-94200000D03*
G04 #@! TO.P,U1,24*
G04 #@! TO.N,Net-(U1-Pad24)*
X159500000Y-96740000D03*
G04 #@! TO.P,U1,23*
G04 #@! TO.N,Net-(U1-Pad23)*
X159500000Y-99280000D03*
G04 #@! TO.P,U1,22*
G04 #@! TO.N,Net-(U1-Pad22)*
X159500000Y-101820000D03*
G04 #@! TO.P,U1,21*
G04 #@! TO.N,Net-(U1-Pad21)*
X159500000Y-104360000D03*
G04 #@! TO.P,U1,20*
G04 #@! TO.N,Net-(U1-Pad20)*
X159500000Y-106900000D03*
G04 #@! TO.P,U1,19*
G04 #@! TO.N,+5V*
X134100000Y-106900000D03*
G04 #@! TO.P,U1,18*
G04 #@! TO.N,Net-(U1-Pad18)*
X134100000Y-104360000D03*
G04 #@! TO.P,U1,17*
G04 #@! TO.N,Net-(U1-Pad17)*
X134100000Y-101820000D03*
G04 #@! TO.P,U1,16*
G04 #@! TO.N,Net-(U1-Pad16)*
X134100000Y-99280000D03*
G04 #@! TO.P,U1,15*
G04 #@! TO.N,Net-(R1-Pad2)*
X134100000Y-96740000D03*
G04 #@! TO.P,U1,14*
G04 #@! TO.N,GND*
X134100000Y-94200000D03*
G04 #@! TO.P,U1,13*
G04 #@! TO.N,Net-(R2-Pad2)*
X134100000Y-91660000D03*
G04 #@! TO.P,U1,12*
G04 #@! TO.N,Net-(U1-Pad12)*
X134100000Y-89120000D03*
G04 #@! TO.P,U1,11*
G04 #@! TO.N,Net-(U1-Pad11)*
X134100000Y-86580000D03*
G04 #@! TO.P,U1,10*
G04 #@! TO.N,Net-(U1-Pad10)*
X134100000Y-84040000D03*
G04 #@! TO.P,U1,9*
G04 #@! TO.N,Net-(U1-Pad9)*
X134100000Y-81500000D03*
G04 #@! TO.P,U1,8*
G04 #@! TO.N,Net-(U1-Pad8)*
X134100000Y-78960000D03*
G04 #@! TO.P,U1,7*
G04 #@! TO.N,Net-(U1-Pad7)*
X134100000Y-76420000D03*
G04 #@! TO.P,U1,6*
G04 #@! TO.N,Net-(U1-Pad6)*
X134100000Y-73880000D03*
G04 #@! TO.P,U1,5*
G04 #@! TO.N,Net-(U1-Pad5)*
X134100000Y-71340000D03*
G04 #@! TO.P,U1,4*
G04 #@! TO.N,Net-(U1-Pad4)*
X134100000Y-68800000D03*
G04 #@! TO.P,U1,3*
G04 #@! TO.N,Net-(U1-Pad3)*
X134100000Y-66260000D03*
G04 #@! TO.P,U1,2*
G04 #@! TO.N,Net-(U1-Pad2)*
X134100000Y-63720000D03*
G04 #@! TO.P,U1,1*
G04 #@! TO.N,Net-(U1-Pad1)*
X134100000Y-61180000D03*
G04 #@! TD*
D13*
G04 #@! TO.N,Net-(R2-Pad2)*
G04 #@! TO.C,R2*
G36*
X130104505Y-102561205D02*
X130128774Y-102564805D01*
X130152572Y-102570766D01*
X130175672Y-102579031D01*
X130197850Y-102589521D01*
X130218894Y-102602134D01*
X130238599Y-102616748D01*
X130256778Y-102633224D01*
X130273254Y-102651403D01*
X130287868Y-102671108D01*
X130300481Y-102692152D01*
X130310971Y-102714330D01*
X130319236Y-102737430D01*
X130325197Y-102761228D01*
X130328797Y-102785497D01*
X130330001Y-102810001D01*
X130330001Y-104060001D01*
X130328797Y-104084505D01*
X130325197Y-104108774D01*
X130319236Y-104132572D01*
X130310971Y-104155672D01*
X130300481Y-104177850D01*
X130287868Y-104198894D01*
X130273254Y-104218599D01*
X130256778Y-104236778D01*
X130238599Y-104253254D01*
X130218894Y-104267868D01*
X130197850Y-104280481D01*
X130175672Y-104290971D01*
X130152572Y-104299236D01*
X130128774Y-104305197D01*
X130104505Y-104308797D01*
X130080001Y-104310001D01*
X129330001Y-104310001D01*
X129305497Y-104308797D01*
X129281228Y-104305197D01*
X129257430Y-104299236D01*
X129234330Y-104290971D01*
X129212152Y-104280481D01*
X129191108Y-104267868D01*
X129171403Y-104253254D01*
X129153224Y-104236778D01*
X129136748Y-104218599D01*
X129122134Y-104198894D01*
X129109521Y-104177850D01*
X129099031Y-104155672D01*
X129090766Y-104132572D01*
X129084805Y-104108774D01*
X129081205Y-104084505D01*
X129080001Y-104060001D01*
X129080001Y-102810001D01*
X129081205Y-102785497D01*
X129084805Y-102761228D01*
X129090766Y-102737430D01*
X129099031Y-102714330D01*
X129109521Y-102692152D01*
X129122134Y-102671108D01*
X129136748Y-102651403D01*
X129153224Y-102633224D01*
X129171403Y-102616748D01*
X129191108Y-102602134D01*
X129212152Y-102589521D01*
X129234330Y-102579031D01*
X129257430Y-102570766D01*
X129281228Y-102564805D01*
X129305497Y-102561205D01*
X129330001Y-102560001D01*
X130080001Y-102560001D01*
X130104505Y-102561205D01*
X130104505Y-102561205D01*
G37*
D14*
G04 #@! TD*
G04 #@! TO.P,R2,2*
G04 #@! TO.N,Net-(R2-Pad2)*
X129705001Y-103435001D03*
D13*
G04 #@! TO.N,Net-(A1-Pad2)*
G04 #@! TO.C,R2*
G36*
X127304505Y-102561205D02*
X127328774Y-102564805D01*
X127352572Y-102570766D01*
X127375672Y-102579031D01*
X127397850Y-102589521D01*
X127418894Y-102602134D01*
X127438599Y-102616748D01*
X127456778Y-102633224D01*
X127473254Y-102651403D01*
X127487868Y-102671108D01*
X127500481Y-102692152D01*
X127510971Y-102714330D01*
X127519236Y-102737430D01*
X127525197Y-102761228D01*
X127528797Y-102785497D01*
X127530001Y-102810001D01*
X127530001Y-104060001D01*
X127528797Y-104084505D01*
X127525197Y-104108774D01*
X127519236Y-104132572D01*
X127510971Y-104155672D01*
X127500481Y-104177850D01*
X127487868Y-104198894D01*
X127473254Y-104218599D01*
X127456778Y-104236778D01*
X127438599Y-104253254D01*
X127418894Y-104267868D01*
X127397850Y-104280481D01*
X127375672Y-104290971D01*
X127352572Y-104299236D01*
X127328774Y-104305197D01*
X127304505Y-104308797D01*
X127280001Y-104310001D01*
X126530001Y-104310001D01*
X126505497Y-104308797D01*
X126481228Y-104305197D01*
X126457430Y-104299236D01*
X126434330Y-104290971D01*
X126412152Y-104280481D01*
X126391108Y-104267868D01*
X126371403Y-104253254D01*
X126353224Y-104236778D01*
X126336748Y-104218599D01*
X126322134Y-104198894D01*
X126309521Y-104177850D01*
X126299031Y-104155672D01*
X126290766Y-104132572D01*
X126284805Y-104108774D01*
X126281205Y-104084505D01*
X126280001Y-104060001D01*
X126280001Y-102810001D01*
X126281205Y-102785497D01*
X126284805Y-102761228D01*
X126290766Y-102737430D01*
X126299031Y-102714330D01*
X126309521Y-102692152D01*
X126322134Y-102671108D01*
X126336748Y-102651403D01*
X126353224Y-102633224D01*
X126371403Y-102616748D01*
X126391108Y-102602134D01*
X126412152Y-102589521D01*
X126434330Y-102579031D01*
X126457430Y-102570766D01*
X126481228Y-102564805D01*
X126505497Y-102561205D01*
X126530001Y-102560001D01*
X127280001Y-102560001D01*
X127304505Y-102561205D01*
X127304505Y-102561205D01*
G37*
D14*
G04 #@! TD*
G04 #@! TO.P,R2,1*
G04 #@! TO.N,Net-(A1-Pad2)*
X126905001Y-103435001D03*
D13*
G04 #@! TO.N,Net-(A1-Pad1)*
G04 #@! TO.C,R1*
G36*
X127304505Y-100271205D02*
X127328774Y-100274805D01*
X127352572Y-100280766D01*
X127375672Y-100289031D01*
X127397850Y-100299521D01*
X127418894Y-100312134D01*
X127438599Y-100326748D01*
X127456778Y-100343224D01*
X127473254Y-100361403D01*
X127487868Y-100381108D01*
X127500481Y-100402152D01*
X127510971Y-100424330D01*
X127519236Y-100447430D01*
X127525197Y-100471228D01*
X127528797Y-100495497D01*
X127530001Y-100520001D01*
X127530001Y-101770001D01*
X127528797Y-101794505D01*
X127525197Y-101818774D01*
X127519236Y-101842572D01*
X127510971Y-101865672D01*
X127500481Y-101887850D01*
X127487868Y-101908894D01*
X127473254Y-101928599D01*
X127456778Y-101946778D01*
X127438599Y-101963254D01*
X127418894Y-101977868D01*
X127397850Y-101990481D01*
X127375672Y-102000971D01*
X127352572Y-102009236D01*
X127328774Y-102015197D01*
X127304505Y-102018797D01*
X127280001Y-102020001D01*
X126530001Y-102020001D01*
X126505497Y-102018797D01*
X126481228Y-102015197D01*
X126457430Y-102009236D01*
X126434330Y-102000971D01*
X126412152Y-101990481D01*
X126391108Y-101977868D01*
X126371403Y-101963254D01*
X126353224Y-101946778D01*
X126336748Y-101928599D01*
X126322134Y-101908894D01*
X126309521Y-101887850D01*
X126299031Y-101865672D01*
X126290766Y-101842572D01*
X126284805Y-101818774D01*
X126281205Y-101794505D01*
X126280001Y-101770001D01*
X126280001Y-100520001D01*
X126281205Y-100495497D01*
X126284805Y-100471228D01*
X126290766Y-100447430D01*
X126299031Y-100424330D01*
X126309521Y-100402152D01*
X126322134Y-100381108D01*
X126336748Y-100361403D01*
X126353224Y-100343224D01*
X126371403Y-100326748D01*
X126391108Y-100312134D01*
X126412152Y-100299521D01*
X126434330Y-100289031D01*
X126457430Y-100280766D01*
X126481228Y-100274805D01*
X126505497Y-100271205D01*
X126530001Y-100270001D01*
X127280001Y-100270001D01*
X127304505Y-100271205D01*
X127304505Y-100271205D01*
G37*
D14*
G04 #@! TD*
G04 #@! TO.P,R1,1*
G04 #@! TO.N,Net-(A1-Pad1)*
X126905001Y-101145001D03*
D13*
G04 #@! TO.N,Net-(R1-Pad2)*
G04 #@! TO.C,R1*
G36*
X130104505Y-100271205D02*
X130128774Y-100274805D01*
X130152572Y-100280766D01*
X130175672Y-100289031D01*
X130197850Y-100299521D01*
X130218894Y-100312134D01*
X130238599Y-100326748D01*
X130256778Y-100343224D01*
X130273254Y-100361403D01*
X130287868Y-100381108D01*
X130300481Y-100402152D01*
X130310971Y-100424330D01*
X130319236Y-100447430D01*
X130325197Y-100471228D01*
X130328797Y-100495497D01*
X130330001Y-100520001D01*
X130330001Y-101770001D01*
X130328797Y-101794505D01*
X130325197Y-101818774D01*
X130319236Y-101842572D01*
X130310971Y-101865672D01*
X130300481Y-101887850D01*
X130287868Y-101908894D01*
X130273254Y-101928599D01*
X130256778Y-101946778D01*
X130238599Y-101963254D01*
X130218894Y-101977868D01*
X130197850Y-101990481D01*
X130175672Y-102000971D01*
X130152572Y-102009236D01*
X130128774Y-102015197D01*
X130104505Y-102018797D01*
X130080001Y-102020001D01*
X129330001Y-102020001D01*
X129305497Y-102018797D01*
X129281228Y-102015197D01*
X129257430Y-102009236D01*
X129234330Y-102000971D01*
X129212152Y-101990481D01*
X129191108Y-101977868D01*
X129171403Y-101963254D01*
X129153224Y-101946778D01*
X129136748Y-101928599D01*
X129122134Y-101908894D01*
X129109521Y-101887850D01*
X129099031Y-101865672D01*
X129090766Y-101842572D01*
X129084805Y-101818774D01*
X129081205Y-101794505D01*
X129080001Y-101770001D01*
X129080001Y-100520001D01*
X129081205Y-100495497D01*
X129084805Y-100471228D01*
X129090766Y-100447430D01*
X129099031Y-100424330D01*
X129109521Y-100402152D01*
X129122134Y-100381108D01*
X129136748Y-100361403D01*
X129153224Y-100343224D01*
X129171403Y-100326748D01*
X129191108Y-100312134D01*
X129212152Y-100299521D01*
X129234330Y-100289031D01*
X129257430Y-100280766D01*
X129281228Y-100274805D01*
X129305497Y-100271205D01*
X129330001Y-100270001D01*
X130080001Y-100270001D01*
X130104505Y-100271205D01*
X130104505Y-100271205D01*
G37*
D14*
G04 #@! TD*
G04 #@! TO.P,R1,2*
G04 #@! TO.N,Net-(R1-Pad2)*
X129705001Y-101145001D03*
D15*
G04 #@! TO.P,J2,1*
G04 #@! TO.N,+5V*
X115000000Y-106000000D03*
D16*
G04 #@! TO.P,J2,2*
G04 #@! TO.N,GND*
X112460000Y-106000000D03*
G04 #@! TD*
D17*
G04 #@! TO.P,J1,1*
G04 #@! TO.N,/DIO1*
X103290000Y-69120000D03*
G04 #@! TO.P,J1,2*
G04 #@! TO.N,/DIO2*
X103290000Y-71280000D03*
G04 #@! TO.P,J1,3*
G04 #@! TO.N,/DIO3*
X103290000Y-73440000D03*
G04 #@! TO.P,J1,4*
G04 #@! TO.N,/DIO4*
X103290000Y-75600000D03*
G04 #@! TO.P,J1,5*
G04 #@! TO.N,/EOI*
X103290000Y-77760000D03*
G04 #@! TO.P,J1,6*
G04 #@! TO.N,/DAV*
X103290000Y-79920000D03*
G04 #@! TO.P,J1,7*
G04 #@! TO.N,/NRFD*
X103290000Y-82080000D03*
G04 #@! TO.P,J1,8*
G04 #@! TO.N,/NDAC*
X103290000Y-84240000D03*
G04 #@! TO.P,J1,9*
G04 #@! TO.N,/IFC*
X103290000Y-86400000D03*
G04 #@! TO.P,J1,10*
G04 #@! TO.N,/SRQ*
X103290000Y-88560000D03*
G04 #@! TO.P,J1,11*
G04 #@! TO.N,/ATN*
X103290000Y-90720000D03*
G04 #@! TO.P,J1,12*
G04 #@! TO.N,/ChassisGND*
X103290000Y-92880000D03*
G04 #@! TO.P,J1,13*
G04 #@! TO.N,/DIO5*
X99000000Y-69120000D03*
G04 #@! TO.P,J1,14*
G04 #@! TO.N,/DIO6*
X99000000Y-71280000D03*
G04 #@! TO.P,J1,15*
G04 #@! TO.N,/DIO7*
X99000000Y-73440000D03*
G04 #@! TO.P,J1,16*
G04 #@! TO.N,/DIO8*
X99000000Y-75600000D03*
G04 #@! TO.P,J1,17*
G04 #@! TO.N,/REN*
X99000000Y-77760000D03*
G04 #@! TO.P,J1,18*
G04 #@! TO.N,GND*
X99000000Y-79920000D03*
G04 #@! TO.P,J1,19*
X99000000Y-82080000D03*
G04 #@! TO.P,J1,20*
X99000000Y-84240000D03*
G04 #@! TO.P,J1,21*
X99000000Y-86400000D03*
G04 #@! TO.P,J1,22*
X99000000Y-88560000D03*
G04 #@! TO.P,J1,23*
X99000000Y-90720000D03*
G04 #@! TO.P,J1,24*
X99000000Y-92880000D03*
D18*
G04 #@! TO.P,J1,*
G04 #@! TO.N,*
X101140000Y-57600000D03*
X101140000Y-104400000D03*
G04 #@! TD*
D19*
G04 #@! TO.P,A1,1*
G04 #@! TO.N,Net-(A1-Pad1)*
X127000000Y-95000000D03*
D20*
G04 #@! TO.P,A1,17*
G04 #@! TO.N,Net-(A1-Pad17)*
X111760000Y-61980000D03*
G04 #@! TO.P,A1,2*
G04 #@! TO.N,Net-(A1-Pad2)*
X127000000Y-92460000D03*
G04 #@! TO.P,A1,18*
G04 #@! TO.N,Net-(A1-Pad18)*
X111760000Y-64520000D03*
G04 #@! TO.P,A1,3*
G04 #@! TO.N,Net-(A1-Pad3)*
X127000000Y-89920000D03*
G04 #@! TO.P,A1,19*
G04 #@! TO.N,/DIO1*
X111760000Y-67060000D03*
G04 #@! TO.P,A1,4*
G04 #@! TO.N,GND*
X127000000Y-87380000D03*
G04 #@! TO.P,A1,20*
G04 #@! TO.N,/DIO2*
X111760000Y-69600000D03*
G04 #@! TO.P,A1,5*
G04 #@! TO.N,/SRQ*
X127000000Y-84840000D03*
G04 #@! TO.P,A1,21*
G04 #@! TO.N,/DIO3*
X111760000Y-72140000D03*
G04 #@! TO.P,A1,6*
G04 #@! TO.N,/REN*
X127000000Y-82300000D03*
G04 #@! TO.P,A1,22*
G04 #@! TO.N,/DIO4*
X111760000Y-74680000D03*
G04 #@! TO.P,A1,7*
G04 #@! TO.N,/DIO7*
X127000000Y-79760000D03*
G04 #@! TO.P,A1,23*
G04 #@! TO.N,/DIO5*
X111760000Y-77220000D03*
G04 #@! TO.P,A1,8*
G04 #@! TO.N,/DIO8*
X127000000Y-77220000D03*
G04 #@! TO.P,A1,24*
G04 #@! TO.N,/DIO6*
X111760000Y-79760000D03*
G04 #@! TO.P,A1,9*
G04 #@! TO.N,Net-(A1-Pad9)*
X127000000Y-74680000D03*
G04 #@! TO.P,A1,25*
G04 #@! TO.N,Net-(A1-Pad25)*
X111760000Y-82300000D03*
G04 #@! TO.P,A1,10*
G04 #@! TO.N,/ATN*
X127000000Y-72140000D03*
G04 #@! TO.P,A1,26*
G04 #@! TO.N,Net-(A1-Pad26)*
X111760000Y-84840000D03*
G04 #@! TO.P,A1,11*
G04 #@! TO.N,/IFC*
X127000000Y-69600000D03*
G04 #@! TO.P,A1,27*
G04 #@! TO.N,+5V*
X111760000Y-87380000D03*
G04 #@! TO.P,A1,12*
G04 #@! TO.N,/NDAC*
X127000000Y-67060000D03*
G04 #@! TO.P,A1,28*
G04 #@! TO.N,Net-(A1-Pad28)*
X111760000Y-89920000D03*
G04 #@! TO.P,A1,13*
G04 #@! TO.N,/NRFD*
X127000000Y-64520000D03*
G04 #@! TO.P,A1,29*
G04 #@! TO.N,GND*
X111760000Y-92460000D03*
G04 #@! TO.P,A1,14*
G04 #@! TO.N,/DAV*
X127000000Y-61980000D03*
G04 #@! TO.P,A1,30*
G04 #@! TO.N,Net-(A1-Pad30)*
X111760000Y-95000000D03*
G04 #@! TO.P,A1,15*
G04 #@! TO.N,/EOI*
X127000000Y-59440000D03*
G04 #@! TO.P,A1,16*
G04 #@! TO.N,Net-(A1-Pad16)*
X111760000Y-59440000D03*
G04 #@! TD*
D21*
G04 #@! TO.N,Net-(A1-Pad1)*
X127250000Y-95000000D02*
X127000000Y-95000000D01*
X126905001Y-95094999D02*
X127000000Y-95000000D01*
X126905001Y-101145001D02*
X126905001Y-95094999D01*
G04 #@! TO.N,Net-(A1-Pad2)*
X127250000Y-92460000D02*
X127000000Y-92460000D01*
X126200001Y-93259999D02*
X127000000Y-92460000D01*
X123500000Y-95960000D02*
X126200001Y-93259999D01*
X123500000Y-100030000D02*
X123500000Y-95960000D01*
X126905001Y-103435001D02*
X123500000Y-100030000D01*
G04 #@! TO.N,/DIO1*
X103290000Y-69120000D02*
X104880000Y-69120000D01*
X106940000Y-67060000D02*
X111760000Y-67060000D01*
X104880000Y-69120000D02*
X106940000Y-67060000D01*
G04 #@! TO.N,/DIO2*
X103290000Y-71280000D02*
X104720000Y-71280000D01*
X106400000Y-69600000D02*
X111760000Y-69600000D01*
X104720000Y-71280000D02*
X106400000Y-69600000D01*
G04 #@! TO.N,/SRQ*
X123280000Y-88560000D02*
X127000000Y-84840000D01*
X103290000Y-88560000D02*
X123280000Y-88560000D01*
G04 #@! TO.N,/DIO3*
X103290000Y-73440000D02*
X104560000Y-73440000D01*
X105860000Y-72140000D02*
X111760000Y-72140000D01*
X104560000Y-73440000D02*
X105860000Y-72140000D01*
G04 #@! TO.N,/DIO4*
X103290000Y-75600000D02*
X104400000Y-75600000D01*
X105320000Y-74680000D02*
X111760000Y-74680000D01*
X104400000Y-75600000D02*
X105320000Y-74680000D01*
G04 #@! TO.N,/ATN*
X127799999Y-72939999D02*
X127000000Y-72140000D01*
X128125001Y-73265001D02*
X127799999Y-72939999D01*
X128000000Y-75345002D02*
X128125001Y-75220001D01*
X128125001Y-76125001D02*
X128000000Y-76000000D01*
X126511409Y-85965001D02*
X127540001Y-85965001D01*
X123466401Y-89010009D02*
X126511409Y-85965001D01*
X114334993Y-89010009D02*
X123466401Y-89010009D01*
X112300001Y-91045001D02*
X114334993Y-89010009D01*
X128125001Y-75220001D02*
X128125001Y-73265001D01*
X128000000Y-76000000D02*
X128000000Y-75345002D01*
X127540001Y-85965001D02*
X128125001Y-85380001D01*
X109128999Y-91045001D02*
X112300001Y-91045001D01*
X128125001Y-85380001D02*
X128125001Y-76125001D01*
X108041999Y-89958001D02*
X109128999Y-91045001D01*
X104051999Y-89958001D02*
X108041999Y-89958001D01*
X103290000Y-90720000D02*
X104051999Y-89958001D01*
G04 #@! TO.N,/IFC*
X122000000Y-74600000D02*
X126200001Y-70399999D01*
X122000000Y-76265002D02*
X122000000Y-74600000D01*
X112300001Y-85965001D02*
X122000000Y-76265002D01*
X104802629Y-85965001D02*
X112300001Y-85965001D01*
X126200001Y-70399999D02*
X127000000Y-69600000D01*
X104367630Y-86400000D02*
X104802629Y-85965001D01*
X103290000Y-86400000D02*
X104367630Y-86400000D01*
D22*
G04 #@! TO.N,+5V*
X133170000Y-106000000D02*
X134030000Y-106860000D01*
X115000000Y-106000000D02*
X133170000Y-106000000D01*
D21*
G04 #@! TO.N,/NDAC*
X125874999Y-69850003D02*
X125874999Y-68185001D01*
X125874999Y-68185001D02*
X126200001Y-67859999D01*
X112300001Y-83425001D02*
X125874999Y-69850003D01*
X104104999Y-83425001D02*
X112300001Y-83425001D01*
X126200001Y-67859999D02*
X127000000Y-67060000D01*
X103290000Y-84240000D02*
X104104999Y-83425001D01*
G04 #@! TO.N,/NRFD*
X126200001Y-65319999D02*
X127000000Y-64520000D01*
X125874999Y-67310003D02*
X125874999Y-65645001D01*
X112010003Y-81174999D02*
X125874999Y-67310003D01*
X125874999Y-65645001D02*
X126200001Y-65319999D01*
X104195001Y-81174999D02*
X112010003Y-81174999D01*
X103290000Y-82080000D02*
X104195001Y-81174999D01*
G04 #@! TO.N,/DAV*
X104051999Y-79158001D02*
X103290000Y-79920000D01*
X104575001Y-78634999D02*
X104051999Y-79158001D01*
X112010003Y-78634999D02*
X104575001Y-78634999D01*
X112885001Y-77760001D02*
X112010003Y-78634999D01*
X112885001Y-76094999D02*
X112885001Y-77760001D01*
X127000000Y-61980000D02*
X112885001Y-76094999D01*
G04 #@! TO.N,/EOI*
X125874999Y-60565001D02*
X126200001Y-60239999D01*
X126200001Y-60239999D02*
X127000000Y-59440000D01*
X112300001Y-75805001D02*
X125874999Y-62230003D01*
X105244999Y-75805001D02*
X112300001Y-75805001D01*
X125874999Y-62230003D02*
X125874999Y-60565001D01*
X103290000Y-77760000D02*
X105244999Y-75805001D01*
G04 #@! TO.N,Net-(R1-Pad2)*
X134100000Y-96750002D02*
X134100000Y-96740000D01*
X129705001Y-101145001D02*
X134100000Y-96750002D01*
G04 #@! TO.N,Net-(R2-Pad2)*
X135175001Y-97256001D02*
X135175001Y-92735001D01*
X135175001Y-92735001D02*
X134849999Y-92409999D01*
X134616001Y-97815001D02*
X135175001Y-97256001D01*
X133973997Y-97815001D02*
X134616001Y-97815001D01*
X133024999Y-98763999D02*
X133973997Y-97815001D01*
X133024999Y-100115003D02*
X133024999Y-98763999D01*
X134849999Y-92409999D02*
X134100000Y-91660000D01*
X129705001Y-103435001D02*
X133024999Y-100115003D01*
G04 #@! TD*
D23*
G04 #@! TO.N,GND*
G36*
X134051186Y-59500000D02*
X134060853Y-59548601D01*
X134088383Y-59589803D01*
X134129585Y-59617333D01*
X134178186Y-59627000D01*
X159178186Y-59627000D01*
X159226787Y-59617333D01*
X159267989Y-59589803D01*
X159295519Y-59548601D01*
X159305186Y-59500000D01*
X159305186Y-51127000D01*
X163373000Y-51127000D01*
X163373000Y-108873000D01*
X91627000Y-108873000D01*
X91627000Y-103875866D01*
X98505000Y-103875866D01*
X98505000Y-104924134D01*
X98906155Y-105892608D01*
X99647392Y-106633845D01*
X100615866Y-107035000D01*
X101664134Y-107035000D01*
X102632608Y-106633845D01*
X102909561Y-106356892D01*
X111018514Y-106356892D01*
X111264817Y-106881358D01*
X111693076Y-107271645D01*
X112103110Y-107441476D01*
X112333000Y-107320155D01*
X112333000Y-106127000D01*
X111139181Y-106127000D01*
X111018514Y-106356892D01*
X102909561Y-106356892D01*
X103373845Y-105892608D01*
X103477191Y-105643108D01*
X111018514Y-105643108D01*
X111139181Y-105873000D01*
X112333000Y-105873000D01*
X112333000Y-104679845D01*
X112587000Y-104679845D01*
X112587000Y-105873000D01*
X112607000Y-105873000D01*
X112607000Y-106127000D01*
X112587000Y-106127000D01*
X112587000Y-107320155D01*
X112816890Y-107441476D01*
X113226924Y-107271645D01*
X113531261Y-106994292D01*
X113551843Y-107097765D01*
X113692191Y-107307809D01*
X113902235Y-107448157D01*
X114150000Y-107497440D01*
X115850000Y-107497440D01*
X116097765Y-107448157D01*
X116307809Y-107307809D01*
X116448157Y-107097765D01*
X116490478Y-106885000D01*
X132715000Y-106885000D01*
X132715000Y-107175494D01*
X132925853Y-107684540D01*
X133315460Y-108074147D01*
X133824506Y-108285000D01*
X134375494Y-108285000D01*
X134884540Y-108074147D01*
X135274147Y-107684540D01*
X135485000Y-107175494D01*
X135485000Y-106624506D01*
X135274147Y-106115460D01*
X134884540Y-105725853D01*
X134653130Y-105630000D01*
X134884540Y-105534147D01*
X134886568Y-105532119D01*
X140193000Y-105532119D01*
X140193000Y-106087881D01*
X140405680Y-106601337D01*
X140798663Y-106994320D01*
X141312119Y-107207000D01*
X141867881Y-107207000D01*
X142381337Y-106994320D01*
X142774320Y-106601337D01*
X142987000Y-106087881D01*
X142987000Y-105532119D01*
X142774320Y-105018663D01*
X142381337Y-104625680D01*
X142350000Y-104612700D01*
X142350000Y-102760000D01*
X143370000Y-102760000D01*
X143370001Y-105884852D01*
X143414097Y-106106537D01*
X143582072Y-106357929D01*
X143833464Y-106525904D01*
X144130000Y-106584889D01*
X144426537Y-106525904D01*
X144677929Y-106357929D01*
X144845904Y-106106537D01*
X144890000Y-105884852D01*
X144890000Y-102760000D01*
X145085199Y-102760000D01*
X145910000Y-103584802D01*
X145910001Y-105884852D01*
X145954097Y-106106537D01*
X146122072Y-106357929D01*
X146373464Y-106525904D01*
X146670000Y-106584889D01*
X146966537Y-106525904D01*
X147217929Y-106357929D01*
X147385904Y-106106537D01*
X147430000Y-105884852D01*
X147430000Y-104030000D01*
X149284852Y-104030000D01*
X149506537Y-103985904D01*
X149757929Y-103817929D01*
X149925904Y-103566537D01*
X149984889Y-103270000D01*
X149925904Y-102973463D01*
X149757929Y-102722071D01*
X149506537Y-102554096D01*
X149284852Y-102510000D01*
X146984802Y-102510000D01*
X146160000Y-101685199D01*
X146160000Y-101044801D01*
X146984802Y-100220000D01*
X149282700Y-100220000D01*
X149295680Y-100251337D01*
X149688663Y-100644320D01*
X150202119Y-100857000D01*
X150757881Y-100857000D01*
X151271337Y-100644320D01*
X151664320Y-100251337D01*
X151877000Y-99737881D01*
X151877000Y-99182119D01*
X151664320Y-98668663D01*
X151271337Y-98275680D01*
X150757881Y-98063000D01*
X150202119Y-98063000D01*
X149688663Y-98275680D01*
X149295680Y-98668663D01*
X149282700Y-98700000D01*
X146744846Y-98700000D01*
X146669999Y-98685112D01*
X146595152Y-98700000D01*
X146595148Y-98700000D01*
X146373463Y-98744096D01*
X146122071Y-98912071D01*
X146079671Y-98975527D01*
X144915528Y-100139671D01*
X144852072Y-100182071D01*
X144809672Y-100245527D01*
X144809671Y-100245528D01*
X144684097Y-100433463D01*
X144625112Y-100730000D01*
X144640001Y-100804851D01*
X144640001Y-101240000D01*
X144204852Y-101240000D01*
X144130000Y-101225111D01*
X144055148Y-101240000D01*
X141664852Y-101240000D01*
X141590000Y-101225111D01*
X141515148Y-101240000D01*
X141293463Y-101284096D01*
X141042071Y-101452071D01*
X140874096Y-101703463D01*
X140815111Y-102000000D01*
X140830000Y-102074851D01*
X140830001Y-104612700D01*
X140798663Y-104625680D01*
X140405680Y-105018663D01*
X140193000Y-105532119D01*
X134886568Y-105532119D01*
X135274147Y-105144540D01*
X135485000Y-104635494D01*
X135485000Y-104084506D01*
X135274147Y-103575460D01*
X134884540Y-103185853D01*
X134653130Y-103090000D01*
X134884540Y-102994147D01*
X135274147Y-102604540D01*
X135485000Y-102095494D01*
X135485000Y-101544506D01*
X135274147Y-101035460D01*
X134884540Y-100645853D01*
X134653130Y-100550000D01*
X134884540Y-100454147D01*
X135274147Y-100064540D01*
X135485000Y-99555494D01*
X135485000Y-99004506D01*
X135274147Y-98495460D01*
X135150554Y-98371867D01*
X135163930Y-98362930D01*
X135206331Y-98299472D01*
X135659477Y-97846328D01*
X135722930Y-97803930D01*
X135765328Y-97740477D01*
X135765330Y-97740475D01*
X135890904Y-97552539D01*
X135890905Y-97552538D01*
X135935001Y-97330853D01*
X135935001Y-97330849D01*
X135949889Y-97256002D01*
X135935001Y-97181155D01*
X135935001Y-92809847D01*
X135949889Y-92735000D01*
X135935001Y-92660153D01*
X135935001Y-92660149D01*
X135890905Y-92438464D01*
X135722930Y-92187072D01*
X135659471Y-92144670D01*
X135474835Y-91960034D01*
X135485000Y-91935494D01*
X135485000Y-91384506D01*
X135274147Y-90875460D01*
X134884540Y-90485853D01*
X134653130Y-90390000D01*
X134884540Y-90294147D01*
X135274147Y-89904540D01*
X135485000Y-89395494D01*
X135485000Y-88844506D01*
X135274147Y-88335460D01*
X134884540Y-87945853D01*
X134653130Y-87850000D01*
X134884540Y-87754147D01*
X135274147Y-87364540D01*
X135485000Y-86855494D01*
X135485000Y-86304506D01*
X135274147Y-85795460D01*
X134884540Y-85405853D01*
X134653130Y-85310000D01*
X134884540Y-85214147D01*
X135274147Y-84824540D01*
X135485000Y-84315494D01*
X135485000Y-83764506D01*
X135274147Y-83255460D01*
X134884540Y-82865853D01*
X134653130Y-82770000D01*
X134884540Y-82674147D01*
X135274147Y-82284540D01*
X135485000Y-81775494D01*
X135485000Y-81224506D01*
X135274147Y-80715460D01*
X134884540Y-80325853D01*
X134653130Y-80230000D01*
X134884540Y-80134147D01*
X135274147Y-79744540D01*
X135485000Y-79235494D01*
X135485000Y-78684506D01*
X158115000Y-78684506D01*
X158115000Y-79235494D01*
X158325853Y-79744540D01*
X158715460Y-80134147D01*
X158946870Y-80230000D01*
X158715460Y-80325853D01*
X158325853Y-80715460D01*
X158115000Y-81224506D01*
X158115000Y-81775494D01*
X158325853Y-82284540D01*
X158715460Y-82674147D01*
X158946870Y-82770000D01*
X158715460Y-82865853D01*
X158325853Y-83255460D01*
X158115000Y-83764506D01*
X158115000Y-84315494D01*
X158325853Y-84824540D01*
X158715460Y-85214147D01*
X158946870Y-85310000D01*
X158715460Y-85405853D01*
X158325853Y-85795460D01*
X158115000Y-86304506D01*
X158115000Y-86855494D01*
X158325853Y-87364540D01*
X158715460Y-87754147D01*
X158946870Y-87850000D01*
X158715460Y-87945853D01*
X158325853Y-88335460D01*
X158115000Y-88844506D01*
X158115000Y-89395494D01*
X158325853Y-89904540D01*
X158715460Y-90294147D01*
X158946870Y-90390000D01*
X158715460Y-90485853D01*
X158325853Y-90875460D01*
X158115000Y-91384506D01*
X158115000Y-91935494D01*
X158325853Y-92444540D01*
X158715460Y-92834147D01*
X158946870Y-92930000D01*
X158715460Y-93025853D01*
X158325853Y-93415460D01*
X158115000Y-93924506D01*
X158115000Y-94475494D01*
X158325853Y-94984540D01*
X158715460Y-95374147D01*
X158946870Y-95470000D01*
X158715460Y-95565853D01*
X158325853Y-95955460D01*
X158115000Y-96464506D01*
X158115000Y-97015494D01*
X158325853Y-97524540D01*
X158715460Y-97914147D01*
X158946870Y-98010000D01*
X158715460Y-98105853D01*
X158325853Y-98495460D01*
X158115000Y-99004506D01*
X158115000Y-99555494D01*
X158325853Y-100064540D01*
X158715460Y-100454147D01*
X158946870Y-100550000D01*
X158715460Y-100645853D01*
X158325853Y-101035460D01*
X158115000Y-101544506D01*
X158115000Y-102095494D01*
X158325853Y-102604540D01*
X158715460Y-102994147D01*
X158946870Y-103090000D01*
X158715460Y-103185853D01*
X158325853Y-103575460D01*
X158115000Y-104084506D01*
X158115000Y-104635494D01*
X158325853Y-105144540D01*
X158715460Y-105534147D01*
X158946870Y-105630000D01*
X158715460Y-105725853D01*
X158325853Y-106115460D01*
X158115000Y-106624506D01*
X158115000Y-107175494D01*
X158325853Y-107684540D01*
X158715460Y-108074147D01*
X159224506Y-108285000D01*
X159775494Y-108285000D01*
X160284540Y-108074147D01*
X160674147Y-107684540D01*
X160885000Y-107175494D01*
X160885000Y-106624506D01*
X160674147Y-106115460D01*
X160284540Y-105725853D01*
X160053130Y-105630000D01*
X160284540Y-105534147D01*
X160674147Y-105144540D01*
X160885000Y-104635494D01*
X160885000Y-104084506D01*
X160674147Y-103575460D01*
X160284540Y-103185853D01*
X160053130Y-103090000D01*
X160284540Y-102994147D01*
X160674147Y-102604540D01*
X160885000Y-102095494D01*
X160885000Y-101544506D01*
X160674147Y-101035460D01*
X160284540Y-100645853D01*
X160053130Y-100550000D01*
X160284540Y-100454147D01*
X160674147Y-100064540D01*
X160885000Y-99555494D01*
X160885000Y-99004506D01*
X160674147Y-98495460D01*
X160284540Y-98105853D01*
X160053130Y-98010000D01*
X160284540Y-97914147D01*
X160674147Y-97524540D01*
X160885000Y-97015494D01*
X160885000Y-96464506D01*
X160674147Y-95955460D01*
X160284540Y-95565853D01*
X160053130Y-95470000D01*
X160284540Y-95374147D01*
X160674147Y-94984540D01*
X160885000Y-94475494D01*
X160885000Y-93924506D01*
X160674147Y-93415460D01*
X160284540Y-93025853D01*
X160053130Y-92930000D01*
X160284540Y-92834147D01*
X160674147Y-92444540D01*
X160885000Y-91935494D01*
X160885000Y-91384506D01*
X160674147Y-90875460D01*
X160284540Y-90485853D01*
X160053130Y-90390000D01*
X160284540Y-90294147D01*
X160674147Y-89904540D01*
X160885000Y-89395494D01*
X160885000Y-88844506D01*
X160674147Y-88335460D01*
X160284540Y-87945853D01*
X160053130Y-87850000D01*
X160284540Y-87754147D01*
X160674147Y-87364540D01*
X160885000Y-86855494D01*
X160885000Y-86304506D01*
X160674147Y-85795460D01*
X160284540Y-85405853D01*
X160053130Y-85310000D01*
X160284540Y-85214147D01*
X160674147Y-84824540D01*
X160885000Y-84315494D01*
X160885000Y-83764506D01*
X160674147Y-83255460D01*
X160284540Y-82865853D01*
X160053130Y-82770000D01*
X160284540Y-82674147D01*
X160674147Y-82284540D01*
X160885000Y-81775494D01*
X160885000Y-81224506D01*
X160674147Y-80715460D01*
X160284540Y-80325853D01*
X160053130Y-80230000D01*
X160284540Y-80134147D01*
X160674147Y-79744540D01*
X160885000Y-79235494D01*
X160885000Y-78684506D01*
X160674147Y-78175460D01*
X160284540Y-77785853D01*
X160069070Y-77696603D01*
X160223923Y-77632460D01*
X160291912Y-77391517D01*
X159500000Y-76599605D01*
X158708088Y-77391517D01*
X158776077Y-77632460D01*
X158942658Y-77691745D01*
X158715460Y-77785853D01*
X158325853Y-78175460D01*
X158115000Y-78684506D01*
X135485000Y-78684506D01*
X135274147Y-78175460D01*
X134884540Y-77785853D01*
X134653130Y-77690000D01*
X134884540Y-77594147D01*
X135274147Y-77204540D01*
X135485000Y-76695494D01*
X135485000Y-76215171D01*
X158102799Y-76215171D01*
X158130770Y-76765448D01*
X158287540Y-77143923D01*
X158528483Y-77211912D01*
X159320395Y-76420000D01*
X159679605Y-76420000D01*
X160471517Y-77211912D01*
X160712460Y-77143923D01*
X160897201Y-76624829D01*
X160869230Y-76074552D01*
X160712460Y-75696077D01*
X160471517Y-75628088D01*
X159679605Y-76420000D01*
X159320395Y-76420000D01*
X158528483Y-75628088D01*
X158287540Y-75696077D01*
X158102799Y-76215171D01*
X135485000Y-76215171D01*
X135485000Y-76144506D01*
X135274147Y-75635460D01*
X134884540Y-75245853D01*
X134653130Y-75150000D01*
X134884540Y-75054147D01*
X135274147Y-74664540D01*
X135485000Y-74155494D01*
X135485000Y-73604506D01*
X135274147Y-73095460D01*
X134884540Y-72705853D01*
X134653130Y-72610000D01*
X134884540Y-72514147D01*
X135274147Y-72124540D01*
X135485000Y-71615494D01*
X135485000Y-71064506D01*
X135274147Y-70555460D01*
X134884540Y-70165853D01*
X134653130Y-70070000D01*
X134884540Y-69974147D01*
X135274147Y-69584540D01*
X135485000Y-69075494D01*
X135485000Y-68524506D01*
X135274147Y-68015460D01*
X134884540Y-67625853D01*
X134653130Y-67530000D01*
X134884540Y-67434147D01*
X135274147Y-67044540D01*
X135485000Y-66535494D01*
X135485000Y-65984506D01*
X135274147Y-65475460D01*
X134884540Y-65085853D01*
X134653130Y-64990000D01*
X134884540Y-64894147D01*
X135274147Y-64504540D01*
X135485000Y-63995494D01*
X135485000Y-63444506D01*
X158115000Y-63444506D01*
X158115000Y-63995494D01*
X158325853Y-64504540D01*
X158715460Y-64894147D01*
X158946870Y-64990000D01*
X158715460Y-65085853D01*
X158325853Y-65475460D01*
X158115000Y-65984506D01*
X158115000Y-66535494D01*
X158325853Y-67044540D01*
X158715460Y-67434147D01*
X158946870Y-67530000D01*
X158715460Y-67625853D01*
X158325853Y-68015460D01*
X158115000Y-68524506D01*
X158115000Y-69075494D01*
X158325853Y-69584540D01*
X158715460Y-69974147D01*
X158946870Y-70070000D01*
X158715460Y-70165853D01*
X158325853Y-70555460D01*
X158115000Y-71064506D01*
X158115000Y-71615494D01*
X158325853Y-72124540D01*
X158715460Y-72514147D01*
X158946870Y-72610000D01*
X158715460Y-72705853D01*
X158325853Y-73095460D01*
X158115000Y-73604506D01*
X158115000Y-74155494D01*
X158325853Y-74664540D01*
X158715460Y-75054147D01*
X158930930Y-75143397D01*
X158776077Y-75207540D01*
X158708088Y-75448483D01*
X159500000Y-76240395D01*
X160291912Y-75448483D01*
X160223923Y-75207540D01*
X160057342Y-75148255D01*
X160284540Y-75054147D01*
X160674147Y-74664540D01*
X160885000Y-74155494D01*
X160885000Y-73604506D01*
X160674147Y-73095460D01*
X160284540Y-72705853D01*
X160053130Y-72610000D01*
X160284540Y-72514147D01*
X160674147Y-72124540D01*
X160885000Y-71615494D01*
X160885000Y-71064506D01*
X160674147Y-70555460D01*
X160284540Y-70165853D01*
X160053130Y-70070000D01*
X160284540Y-69974147D01*
X160674147Y-69584540D01*
X160885000Y-69075494D01*
X160885000Y-68524506D01*
X160674147Y-68015460D01*
X160284540Y-67625853D01*
X160053130Y-67530000D01*
X160284540Y-67434147D01*
X160674147Y-67044540D01*
X160885000Y-66535494D01*
X160885000Y-65984506D01*
X160674147Y-65475460D01*
X160284540Y-65085853D01*
X160053130Y-64990000D01*
X160284540Y-64894147D01*
X160674147Y-64504540D01*
X160885000Y-63995494D01*
X160885000Y-63444506D01*
X160674147Y-62935460D01*
X160284540Y-62545853D01*
X160069070Y-62456603D01*
X160223923Y-62392460D01*
X160291912Y-62151517D01*
X159500000Y-61359605D01*
X158708088Y-62151517D01*
X158776077Y-62392460D01*
X158942658Y-62451745D01*
X158715460Y-62545853D01*
X158325853Y-62935460D01*
X158115000Y-63444506D01*
X135485000Y-63444506D01*
X135274147Y-62935460D01*
X134884540Y-62545853D01*
X134653130Y-62450000D01*
X134884540Y-62354147D01*
X135274147Y-61964540D01*
X135485000Y-61455494D01*
X135485000Y-60975171D01*
X158102799Y-60975171D01*
X158130770Y-61525448D01*
X158287540Y-61903923D01*
X158528483Y-61971912D01*
X159320395Y-61180000D01*
X159679605Y-61180000D01*
X160471517Y-61971912D01*
X160712460Y-61903923D01*
X160897201Y-61384829D01*
X160869230Y-60834552D01*
X160712460Y-60456077D01*
X160471517Y-60388088D01*
X159679605Y-61180000D01*
X159320395Y-61180000D01*
X158528483Y-60388088D01*
X158287540Y-60456077D01*
X158102799Y-60975171D01*
X135485000Y-60975171D01*
X135485000Y-60904506D01*
X135274147Y-60395460D01*
X135087170Y-60208483D01*
X158708088Y-60208483D01*
X159500000Y-61000395D01*
X160291912Y-60208483D01*
X160223923Y-59967540D01*
X159704829Y-59782799D01*
X159154552Y-59810770D01*
X158776077Y-59967540D01*
X158708088Y-60208483D01*
X135087170Y-60208483D01*
X134884540Y-60005853D01*
X134375494Y-59795000D01*
X133824506Y-59795000D01*
X133315460Y-60005853D01*
X132925853Y-60395460D01*
X132715000Y-60904506D01*
X132715000Y-61455494D01*
X132925853Y-61964540D01*
X133315460Y-62354147D01*
X133546870Y-62450000D01*
X133315460Y-62545853D01*
X132925853Y-62935460D01*
X132715000Y-63444506D01*
X132715000Y-63995494D01*
X132925853Y-64504540D01*
X133315460Y-64894147D01*
X133546870Y-64990000D01*
X133315460Y-65085853D01*
X132925853Y-65475460D01*
X132715000Y-65984506D01*
X132715000Y-66535494D01*
X132925853Y-67044540D01*
X133315460Y-67434147D01*
X133546870Y-67530000D01*
X133315460Y-67625853D01*
X132925853Y-68015460D01*
X132715000Y-68524506D01*
X132715000Y-69075494D01*
X132925853Y-69584540D01*
X133315460Y-69974147D01*
X133546870Y-70070000D01*
X133315460Y-70165853D01*
X132925853Y-70555460D01*
X132715000Y-71064506D01*
X132715000Y-71615494D01*
X132925853Y-72124540D01*
X133315460Y-72514147D01*
X133546870Y-72610000D01*
X133315460Y-72705853D01*
X132925853Y-73095460D01*
X132715000Y-73604506D01*
X132715000Y-74155494D01*
X132925853Y-74664540D01*
X133315460Y-75054147D01*
X133546870Y-75150000D01*
X133315460Y-75245853D01*
X132925853Y-75635460D01*
X132715000Y-76144506D01*
X132715000Y-76695494D01*
X132925853Y-77204540D01*
X133315460Y-77594147D01*
X133546870Y-77690000D01*
X133315460Y-77785853D01*
X132925853Y-78175460D01*
X132715000Y-78684506D01*
X132715000Y-79235494D01*
X132925853Y-79744540D01*
X133315460Y-80134147D01*
X133546870Y-80230000D01*
X133315460Y-80325853D01*
X132925853Y-80715460D01*
X132715000Y-81224506D01*
X132715000Y-81775494D01*
X132925853Y-82284540D01*
X133315460Y-82674147D01*
X133546870Y-82770000D01*
X133315460Y-82865853D01*
X132925853Y-83255460D01*
X132715000Y-83764506D01*
X132715000Y-84315494D01*
X132925853Y-84824540D01*
X133315460Y-85214147D01*
X133546870Y-85310000D01*
X133315460Y-85405853D01*
X132925853Y-85795460D01*
X132715000Y-86304506D01*
X132715000Y-86855494D01*
X132925853Y-87364540D01*
X133315460Y-87754147D01*
X133546870Y-87850000D01*
X133315460Y-87945853D01*
X132925853Y-88335460D01*
X132715000Y-88844506D01*
X132715000Y-89395494D01*
X132925853Y-89904540D01*
X133315460Y-90294147D01*
X133546870Y-90390000D01*
X133315460Y-90485853D01*
X132925853Y-90875460D01*
X132715000Y-91384506D01*
X132715000Y-91935494D01*
X132925853Y-92444540D01*
X133315460Y-92834147D01*
X133530930Y-92923397D01*
X133376077Y-92987540D01*
X133308088Y-93228483D01*
X134100000Y-94020395D01*
X134114143Y-94006253D01*
X134293748Y-94185858D01*
X134279605Y-94200000D01*
X134293748Y-94214143D01*
X134114143Y-94393748D01*
X134100000Y-94379605D01*
X133308088Y-95171517D01*
X133376077Y-95412460D01*
X133542658Y-95471745D01*
X133315460Y-95565853D01*
X132925853Y-95955460D01*
X132715000Y-96464506D01*
X132715000Y-97015494D01*
X132728094Y-97047106D01*
X130140588Y-99634613D01*
X130080001Y-99622561D01*
X129330001Y-99622561D01*
X128986566Y-99690875D01*
X128695415Y-99885415D01*
X128500875Y-100176566D01*
X128432561Y-100520001D01*
X128432561Y-101770001D01*
X128500875Y-102113436D01*
X128618851Y-102290001D01*
X128500875Y-102466566D01*
X128432561Y-102810001D01*
X128432561Y-104060001D01*
X128500875Y-104403436D01*
X128695415Y-104694587D01*
X128986566Y-104889127D01*
X129330001Y-104957441D01*
X130080001Y-104957441D01*
X130423436Y-104889127D01*
X130714587Y-104694587D01*
X130909127Y-104403436D01*
X130977441Y-104060001D01*
X130977441Y-103237362D01*
X132746609Y-101468195D01*
X132715000Y-101544506D01*
X132715000Y-102095494D01*
X132925853Y-102604540D01*
X133315460Y-102994147D01*
X133546870Y-103090000D01*
X133315460Y-103185853D01*
X132925853Y-103575460D01*
X132715000Y-104084506D01*
X132715000Y-104635494D01*
X132913617Y-105115000D01*
X116490478Y-105115000D01*
X116448157Y-104902235D01*
X116307809Y-104692191D01*
X116097765Y-104551843D01*
X115850000Y-104502560D01*
X114150000Y-104502560D01*
X113902235Y-104551843D01*
X113692191Y-104692191D01*
X113551843Y-104902235D01*
X113531261Y-105005708D01*
X113226924Y-104728355D01*
X112816890Y-104558524D01*
X112587000Y-104679845D01*
X112333000Y-104679845D01*
X112103110Y-104558524D01*
X111693076Y-104728355D01*
X111264817Y-105118642D01*
X111018514Y-105643108D01*
X103477191Y-105643108D01*
X103775000Y-104924134D01*
X103775000Y-103875866D01*
X103373845Y-102907392D01*
X102632608Y-102166155D01*
X101664134Y-101765000D01*
X100615866Y-101765000D01*
X99647392Y-102166155D01*
X98906155Y-102907392D01*
X98505000Y-103875866D01*
X91627000Y-103875866D01*
X91627000Y-95000000D01*
X110296887Y-95000000D01*
X110408260Y-95559909D01*
X110725423Y-96034577D01*
X111200091Y-96351740D01*
X111618667Y-96435000D01*
X111901333Y-96435000D01*
X112319909Y-96351740D01*
X112794577Y-96034577D01*
X113111740Y-95559909D01*
X113223113Y-95000000D01*
X113111740Y-94440091D01*
X112794577Y-93965423D01*
X112410892Y-93709053D01*
X112615134Y-93612389D01*
X112991041Y-93197423D01*
X113151904Y-92809039D01*
X113029915Y-92587000D01*
X111887000Y-92587000D01*
X111887000Y-92607000D01*
X111633000Y-92607000D01*
X111633000Y-92587000D01*
X110490085Y-92587000D01*
X110368096Y-92809039D01*
X110528959Y-93197423D01*
X110904866Y-93612389D01*
X111109108Y-93709053D01*
X110725423Y-93965423D01*
X110408260Y-94440091D01*
X110296887Y-95000000D01*
X91627000Y-95000000D01*
X91627000Y-93860213D01*
X98199392Y-93860213D01*
X98268857Y-94102397D01*
X98792302Y-94289144D01*
X99347368Y-94261362D01*
X99731143Y-94102397D01*
X99800608Y-93860213D01*
X99000000Y-93059605D01*
X98199392Y-93860213D01*
X91627000Y-93860213D01*
X91627000Y-92672302D01*
X97590856Y-92672302D01*
X97618638Y-93227368D01*
X97777603Y-93611143D01*
X98019787Y-93680608D01*
X98820395Y-92880000D01*
X99179605Y-92880000D01*
X99980213Y-93680608D01*
X100222397Y-93611143D01*
X100409144Y-93087698D01*
X100381362Y-92532632D01*
X100222397Y-92148857D01*
X99980213Y-92079392D01*
X99179605Y-92880000D01*
X98820395Y-92880000D01*
X98019787Y-92079392D01*
X97777603Y-92148857D01*
X97590856Y-92672302D01*
X91627000Y-92672302D01*
X91627000Y-91700213D01*
X98199392Y-91700213D01*
X98228014Y-91800000D01*
X98199392Y-91899787D01*
X99000000Y-92700395D01*
X99800608Y-91899787D01*
X99771986Y-91800000D01*
X99800608Y-91700213D01*
X99000000Y-90899605D01*
X98199392Y-91700213D01*
X91627000Y-91700213D01*
X91627000Y-90512302D01*
X97590856Y-90512302D01*
X97618638Y-91067368D01*
X97777603Y-91451143D01*
X98019787Y-91520608D01*
X98820395Y-90720000D01*
X99179605Y-90720000D01*
X99980213Y-91520608D01*
X100222397Y-91451143D01*
X100409144Y-90927698D01*
X100381362Y-90372632D01*
X100222397Y-89988857D01*
X99980213Y-89919392D01*
X99179605Y-90720000D01*
X98820395Y-90720000D01*
X98019787Y-89919392D01*
X97777603Y-89988857D01*
X97590856Y-90512302D01*
X91627000Y-90512302D01*
X91627000Y-89540213D01*
X98199392Y-89540213D01*
X98228014Y-89640000D01*
X98199392Y-89739787D01*
X99000000Y-90540395D01*
X99800608Y-89739787D01*
X99771986Y-89640000D01*
X99800608Y-89540213D01*
X99000000Y-88739605D01*
X98199392Y-89540213D01*
X91627000Y-89540213D01*
X91627000Y-88352302D01*
X97590856Y-88352302D01*
X97618638Y-88907368D01*
X97777603Y-89291143D01*
X98019787Y-89360608D01*
X98820395Y-88560000D01*
X99179605Y-88560000D01*
X99980213Y-89360608D01*
X100222397Y-89291143D01*
X100409144Y-88767698D01*
X100381362Y-88212632D01*
X100222397Y-87828857D01*
X99980213Y-87759392D01*
X99179605Y-88560000D01*
X98820395Y-88560000D01*
X98019787Y-87759392D01*
X97777603Y-87828857D01*
X97590856Y-88352302D01*
X91627000Y-88352302D01*
X91627000Y-87380213D01*
X98199392Y-87380213D01*
X98228014Y-87480000D01*
X98199392Y-87579787D01*
X99000000Y-88380395D01*
X99800608Y-87579787D01*
X99771986Y-87480000D01*
X99800608Y-87380213D01*
X99000000Y-86579605D01*
X98199392Y-87380213D01*
X91627000Y-87380213D01*
X91627000Y-86192302D01*
X97590856Y-86192302D01*
X97618638Y-86747368D01*
X97777603Y-87131143D01*
X98019787Y-87200608D01*
X98820395Y-86400000D01*
X99179605Y-86400000D01*
X99980213Y-87200608D01*
X100222397Y-87131143D01*
X100409144Y-86607698D01*
X100381362Y-86052632D01*
X100222397Y-85668857D01*
X99980213Y-85599392D01*
X99179605Y-86400000D01*
X98820395Y-86400000D01*
X98019787Y-85599392D01*
X97777603Y-85668857D01*
X97590856Y-86192302D01*
X91627000Y-86192302D01*
X91627000Y-85220213D01*
X98199392Y-85220213D01*
X98228014Y-85320000D01*
X98199392Y-85419787D01*
X99000000Y-86220395D01*
X99800608Y-85419787D01*
X99771986Y-85320000D01*
X99800608Y-85220213D01*
X99000000Y-84419605D01*
X98199392Y-85220213D01*
X91627000Y-85220213D01*
X91627000Y-84032302D01*
X97590856Y-84032302D01*
X97618638Y-84587368D01*
X97777603Y-84971143D01*
X98019787Y-85040608D01*
X98820395Y-84240000D01*
X99179605Y-84240000D01*
X99980213Y-85040608D01*
X100222397Y-84971143D01*
X100409144Y-84447698D01*
X100381362Y-83892632D01*
X100222397Y-83508857D01*
X99980213Y-83439392D01*
X99179605Y-84240000D01*
X98820395Y-84240000D01*
X98019787Y-83439392D01*
X97777603Y-83508857D01*
X97590856Y-84032302D01*
X91627000Y-84032302D01*
X91627000Y-83060213D01*
X98199392Y-83060213D01*
X98228014Y-83160000D01*
X98199392Y-83259787D01*
X99000000Y-84060395D01*
X99800608Y-83259787D01*
X99771986Y-83160000D01*
X99800608Y-83060213D01*
X99000000Y-82259605D01*
X98199392Y-83060213D01*
X91627000Y-83060213D01*
X91627000Y-81872302D01*
X97590856Y-81872302D01*
X97618638Y-82427368D01*
X97777603Y-82811143D01*
X98019787Y-82880608D01*
X98820395Y-82080000D01*
X99179605Y-82080000D01*
X99980213Y-82880608D01*
X100222397Y-82811143D01*
X100409144Y-82287698D01*
X100381362Y-81732632D01*
X100222397Y-81348857D01*
X99980213Y-81279392D01*
X99179605Y-82080000D01*
X98820395Y-82080000D01*
X98019787Y-81279392D01*
X97777603Y-81348857D01*
X97590856Y-81872302D01*
X91627000Y-81872302D01*
X91627000Y-80900213D01*
X98199392Y-80900213D01*
X98228014Y-81000000D01*
X98199392Y-81099787D01*
X99000000Y-81900395D01*
X99800608Y-81099787D01*
X99771986Y-81000000D01*
X99800608Y-80900213D01*
X99000000Y-80099605D01*
X98199392Y-80900213D01*
X91627000Y-80900213D01*
X91627000Y-79712302D01*
X97590856Y-79712302D01*
X97618638Y-80267368D01*
X97777603Y-80651143D01*
X98019787Y-80720608D01*
X98820395Y-79920000D01*
X99179605Y-79920000D01*
X99980213Y-80720608D01*
X100222397Y-80651143D01*
X100409144Y-80127698D01*
X100381362Y-79572632D01*
X100222397Y-79188857D01*
X99980213Y-79119392D01*
X99179605Y-79920000D01*
X98820395Y-79920000D01*
X98019787Y-79119392D01*
X97777603Y-79188857D01*
X97590856Y-79712302D01*
X91627000Y-79712302D01*
X91627000Y-68842119D01*
X97603000Y-68842119D01*
X97603000Y-69397881D01*
X97815680Y-69911337D01*
X98104343Y-70200000D01*
X97815680Y-70488663D01*
X97603000Y-71002119D01*
X97603000Y-71557881D01*
X97815680Y-72071337D01*
X98104343Y-72360000D01*
X97815680Y-72648663D01*
X97603000Y-73162119D01*
X97603000Y-73717881D01*
X97815680Y-74231337D01*
X98104343Y-74520000D01*
X97815680Y-74808663D01*
X97603000Y-75322119D01*
X97603000Y-75877881D01*
X97815680Y-76391337D01*
X98104343Y-76680000D01*
X97815680Y-76968663D01*
X97603000Y-77482119D01*
X97603000Y-78037881D01*
X97815680Y-78551337D01*
X98200448Y-78936105D01*
X98199392Y-78939787D01*
X99000000Y-79740395D01*
X99800608Y-78939787D01*
X99799552Y-78936105D01*
X100184320Y-78551337D01*
X100397000Y-78037881D01*
X100397000Y-77482119D01*
X100184320Y-76968663D01*
X99895657Y-76680000D01*
X100184320Y-76391337D01*
X100397000Y-75877881D01*
X100397000Y-75322119D01*
X100184320Y-74808663D01*
X99895657Y-74520000D01*
X100184320Y-74231337D01*
X100397000Y-73717881D01*
X100397000Y-73162119D01*
X100184320Y-72648663D01*
X99895657Y-72360000D01*
X100184320Y-72071337D01*
X100397000Y-71557881D01*
X100397000Y-71002119D01*
X100184320Y-70488663D01*
X99895657Y-70200000D01*
X100184320Y-69911337D01*
X100397000Y-69397881D01*
X100397000Y-68842119D01*
X101893000Y-68842119D01*
X101893000Y-69397881D01*
X102105680Y-69911337D01*
X102394343Y-70200000D01*
X102105680Y-70488663D01*
X101893000Y-71002119D01*
X101893000Y-71557881D01*
X102105680Y-72071337D01*
X102394343Y-72360000D01*
X102105680Y-72648663D01*
X101893000Y-73162119D01*
X101893000Y-73717881D01*
X102105680Y-74231337D01*
X102394343Y-74520000D01*
X102105680Y-74808663D01*
X101893000Y-75322119D01*
X101893000Y-75877881D01*
X102105680Y-76391337D01*
X102394343Y-76680000D01*
X102105680Y-76968663D01*
X101893000Y-77482119D01*
X101893000Y-78037881D01*
X102105680Y-78551337D01*
X102394343Y-78840000D01*
X102105680Y-79128663D01*
X101893000Y-79642119D01*
X101893000Y-80197881D01*
X102105680Y-80711337D01*
X102394343Y-81000000D01*
X102105680Y-81288663D01*
X101893000Y-81802119D01*
X101893000Y-82357881D01*
X102105680Y-82871337D01*
X102394343Y-83160000D01*
X102105680Y-83448663D01*
X101893000Y-83962119D01*
X101893000Y-84517881D01*
X102105680Y-85031337D01*
X102394343Y-85320000D01*
X102105680Y-85608663D01*
X101893000Y-86122119D01*
X101893000Y-86677881D01*
X102105680Y-87191337D01*
X102394343Y-87480000D01*
X102105680Y-87768663D01*
X101893000Y-88282119D01*
X101893000Y-88837881D01*
X102105680Y-89351337D01*
X102394343Y-89640000D01*
X102105680Y-89928663D01*
X101893000Y-90442119D01*
X101893000Y-90997881D01*
X102105680Y-91511337D01*
X102394343Y-91800000D01*
X102105680Y-92088663D01*
X101893000Y-92602119D01*
X101893000Y-93157881D01*
X102105680Y-93671337D01*
X102498663Y-94064320D01*
X103012119Y-94277000D01*
X103567881Y-94277000D01*
X104081337Y-94064320D01*
X104474320Y-93671337D01*
X104687000Y-93157881D01*
X104687000Y-92602119D01*
X104474320Y-92088663D01*
X104185657Y-91800000D01*
X104474320Y-91511337D01*
X104687000Y-90997881D01*
X104687000Y-90718001D01*
X107727198Y-90718001D01*
X108538670Y-91529474D01*
X108581070Y-91592930D01*
X108832462Y-91760905D01*
X109054147Y-91805001D01*
X109054151Y-91805001D01*
X109128998Y-91819889D01*
X109203845Y-91805001D01*
X110494820Y-91805001D01*
X110368096Y-92110961D01*
X110490085Y-92333000D01*
X111633000Y-92333000D01*
X111633000Y-92313000D01*
X111887000Y-92313000D01*
X111887000Y-92333000D01*
X113029915Y-92333000D01*
X113151904Y-92110961D01*
X112991041Y-91722577D01*
X112858826Y-91576624D01*
X112890332Y-91529471D01*
X114649795Y-89770009D01*
X123391554Y-89770009D01*
X123466401Y-89784897D01*
X123541248Y-89770009D01*
X123541253Y-89770009D01*
X123762938Y-89725913D01*
X124014330Y-89557938D01*
X124056732Y-89494479D01*
X125670795Y-87880417D01*
X125768959Y-88117423D01*
X126144866Y-88532389D01*
X126349108Y-88629053D01*
X125965423Y-88885423D01*
X125648260Y-89360091D01*
X125536887Y-89920000D01*
X125648260Y-90479909D01*
X125965423Y-90954577D01*
X126317758Y-91190000D01*
X125965423Y-91425423D01*
X125648260Y-91900091D01*
X125536887Y-92460000D01*
X125601312Y-92783886D01*
X123015528Y-95369671D01*
X122952072Y-95412071D01*
X122909672Y-95475527D01*
X122909671Y-95475528D01*
X122784097Y-95663463D01*
X122725112Y-95960000D01*
X122740001Y-96034852D01*
X122740000Y-99955153D01*
X122725112Y-100030000D01*
X122740000Y-100104847D01*
X122740000Y-100104851D01*
X122784096Y-100326536D01*
X122952071Y-100577929D01*
X123015530Y-100620331D01*
X125632561Y-103237363D01*
X125632561Y-104060001D01*
X125700875Y-104403436D01*
X125895415Y-104694587D01*
X126186566Y-104889127D01*
X126530001Y-104957441D01*
X127280001Y-104957441D01*
X127623436Y-104889127D01*
X127914587Y-104694587D01*
X128109127Y-104403436D01*
X128177441Y-104060001D01*
X128177441Y-102810001D01*
X128109127Y-102466566D01*
X127991151Y-102290001D01*
X128109127Y-102113436D01*
X128177441Y-101770001D01*
X128177441Y-100520001D01*
X128109127Y-100176566D01*
X127914587Y-99885415D01*
X127665001Y-99718648D01*
X127665001Y-96447440D01*
X127800000Y-96447440D01*
X128047765Y-96398157D01*
X128257809Y-96257809D01*
X128398157Y-96047765D01*
X128447440Y-95800000D01*
X128447440Y-94200000D01*
X128406698Y-93995171D01*
X132702799Y-93995171D01*
X132730770Y-94545448D01*
X132887540Y-94923923D01*
X133128483Y-94991912D01*
X133920395Y-94200000D01*
X133128483Y-93408088D01*
X132887540Y-93476077D01*
X132702799Y-93995171D01*
X128406698Y-93995171D01*
X128398157Y-93952235D01*
X128257809Y-93742191D01*
X128047765Y-93601843D01*
X127913894Y-93575215D01*
X128034577Y-93494577D01*
X128351740Y-93019909D01*
X128463113Y-92460000D01*
X128351740Y-91900091D01*
X128034577Y-91425423D01*
X127682242Y-91190000D01*
X128034577Y-90954577D01*
X128351740Y-90479909D01*
X128463113Y-89920000D01*
X128351740Y-89360091D01*
X128034577Y-88885423D01*
X127650892Y-88629053D01*
X127855134Y-88532389D01*
X128231041Y-88117423D01*
X128391904Y-87729039D01*
X128269915Y-87507000D01*
X127127000Y-87507000D01*
X127127000Y-87527000D01*
X126873000Y-87527000D01*
X126873000Y-87507000D01*
X126853000Y-87507000D01*
X126853000Y-87253000D01*
X126873000Y-87253000D01*
X126873000Y-87233000D01*
X127127000Y-87233000D01*
X127127000Y-87253000D01*
X128269915Y-87253000D01*
X128391904Y-87030961D01*
X128231041Y-86642577D01*
X128098826Y-86496624D01*
X128130332Y-86449471D01*
X128609474Y-85970330D01*
X128672930Y-85927930D01*
X128840905Y-85676538D01*
X128885001Y-85454853D01*
X128885001Y-85454848D01*
X128899889Y-85380001D01*
X128885001Y-85305154D01*
X128885001Y-76199847D01*
X128899889Y-76125000D01*
X128885001Y-76050153D01*
X128885001Y-76050149D01*
X128840905Y-75828464D01*
X128760000Y-75707381D01*
X128760000Y-75637621D01*
X128840905Y-75516538D01*
X128885001Y-75294853D01*
X128885001Y-75294849D01*
X128899889Y-75220002D01*
X128885001Y-75145155D01*
X128885001Y-73339847D01*
X128899889Y-73265000D01*
X128885001Y-73190153D01*
X128885001Y-73190149D01*
X128840905Y-72968464D01*
X128672930Y-72717072D01*
X128609471Y-72674670D01*
X128398688Y-72463887D01*
X128463113Y-72140000D01*
X128351740Y-71580091D01*
X128034577Y-71105423D01*
X127682242Y-70870000D01*
X128034577Y-70634577D01*
X128351740Y-70159909D01*
X128463113Y-69600000D01*
X128351740Y-69040091D01*
X128034577Y-68565423D01*
X127682242Y-68330000D01*
X128034577Y-68094577D01*
X128351740Y-67619909D01*
X128463113Y-67060000D01*
X128351740Y-66500091D01*
X128034577Y-66025423D01*
X127682242Y-65790000D01*
X128034577Y-65554577D01*
X128351740Y-65079909D01*
X128463113Y-64520000D01*
X128351740Y-63960091D01*
X128034577Y-63485423D01*
X127682242Y-63250000D01*
X128034577Y-63014577D01*
X128351740Y-62539909D01*
X128463113Y-61980000D01*
X128351740Y-61420091D01*
X128034577Y-60945423D01*
X127682242Y-60710000D01*
X128034577Y-60474577D01*
X128351740Y-59999909D01*
X128463113Y-59440000D01*
X128351740Y-58880091D01*
X128034577Y-58405423D01*
X127559909Y-58088260D01*
X127141333Y-58005000D01*
X126858667Y-58005000D01*
X126440091Y-58088260D01*
X125965423Y-58405423D01*
X125648260Y-58880091D01*
X125536887Y-59440000D01*
X125601312Y-59763887D01*
X125390527Y-59974672D01*
X125327071Y-60017072D01*
X125284671Y-60080528D01*
X125284670Y-60080529D01*
X125159096Y-60268464D01*
X125100111Y-60565001D01*
X125115000Y-60639852D01*
X125114999Y-61915201D01*
X113030978Y-73999223D01*
X112794577Y-73645423D01*
X112442242Y-73410000D01*
X112794577Y-73174577D01*
X113111740Y-72699909D01*
X113223113Y-72140000D01*
X113111740Y-71580091D01*
X112794577Y-71105423D01*
X112442242Y-70870000D01*
X112794577Y-70634577D01*
X113111740Y-70159909D01*
X113223113Y-69600000D01*
X113111740Y-69040091D01*
X112794577Y-68565423D01*
X112442242Y-68330000D01*
X112794577Y-68094577D01*
X113111740Y-67619909D01*
X113223113Y-67060000D01*
X113111740Y-66500091D01*
X112794577Y-66025423D01*
X112442242Y-65790000D01*
X112794577Y-65554577D01*
X113111740Y-65079909D01*
X113223113Y-64520000D01*
X113111740Y-63960091D01*
X112794577Y-63485423D01*
X112442242Y-63250000D01*
X112794577Y-63014577D01*
X113111740Y-62539909D01*
X113223113Y-61980000D01*
X113111740Y-61420091D01*
X112794577Y-60945423D01*
X112442242Y-60710000D01*
X112794577Y-60474577D01*
X113111740Y-59999909D01*
X113223113Y-59440000D01*
X113111740Y-58880091D01*
X112794577Y-58405423D01*
X112319909Y-58088260D01*
X111901333Y-58005000D01*
X111618667Y-58005000D01*
X111200091Y-58088260D01*
X110725423Y-58405423D01*
X110408260Y-58880091D01*
X110296887Y-59440000D01*
X110408260Y-59999909D01*
X110725423Y-60474577D01*
X111077758Y-60710000D01*
X110725423Y-60945423D01*
X110408260Y-61420091D01*
X110296887Y-61980000D01*
X110408260Y-62539909D01*
X110725423Y-63014577D01*
X111077758Y-63250000D01*
X110725423Y-63485423D01*
X110408260Y-63960091D01*
X110296887Y-64520000D01*
X110408260Y-65079909D01*
X110725423Y-65554577D01*
X111077758Y-65790000D01*
X110725423Y-66025423D01*
X110541957Y-66300000D01*
X107014847Y-66300000D01*
X106940000Y-66285112D01*
X106865153Y-66300000D01*
X106865148Y-66300000D01*
X106643463Y-66344096D01*
X106392071Y-66512071D01*
X106349671Y-66575527D01*
X104565199Y-68360000D01*
X104487300Y-68360000D01*
X104474320Y-68328663D01*
X104081337Y-67935680D01*
X103567881Y-67723000D01*
X103012119Y-67723000D01*
X102498663Y-67935680D01*
X102105680Y-68328663D01*
X101893000Y-68842119D01*
X100397000Y-68842119D01*
X100184320Y-68328663D01*
X99791337Y-67935680D01*
X99277881Y-67723000D01*
X98722119Y-67723000D01*
X98208663Y-67935680D01*
X97815680Y-68328663D01*
X97603000Y-68842119D01*
X91627000Y-68842119D01*
X91627000Y-57075866D01*
X98505000Y-57075866D01*
X98505000Y-58124134D01*
X98906155Y-59092608D01*
X99647392Y-59833845D01*
X100615866Y-60235000D01*
X101664134Y-60235000D01*
X102632608Y-59833845D01*
X103373845Y-59092608D01*
X103775000Y-58124134D01*
X103775000Y-57075866D01*
X103373845Y-56107392D01*
X102632608Y-55366155D01*
X101664134Y-54965000D01*
X100615866Y-54965000D01*
X99647392Y-55366155D01*
X98906155Y-56107392D01*
X98505000Y-57075866D01*
X91627000Y-57075866D01*
X91627000Y-51127000D01*
X134051186Y-51127000D01*
X134051186Y-59500000D01*
X134051186Y-59500000D01*
G37*
X134051186Y-59500000D02*
X134060853Y-59548601D01*
X134088383Y-59589803D01*
X134129585Y-59617333D01*
X134178186Y-59627000D01*
X159178186Y-59627000D01*
X159226787Y-59617333D01*
X159267989Y-59589803D01*
X159295519Y-59548601D01*
X159305186Y-59500000D01*
X159305186Y-51127000D01*
X163373000Y-51127000D01*
X163373000Y-108873000D01*
X91627000Y-108873000D01*
X91627000Y-103875866D01*
X98505000Y-103875866D01*
X98505000Y-104924134D01*
X98906155Y-105892608D01*
X99647392Y-106633845D01*
X100615866Y-107035000D01*
X101664134Y-107035000D01*
X102632608Y-106633845D01*
X102909561Y-106356892D01*
X111018514Y-106356892D01*
X111264817Y-106881358D01*
X111693076Y-107271645D01*
X112103110Y-107441476D01*
X112333000Y-107320155D01*
X112333000Y-106127000D01*
X111139181Y-106127000D01*
X111018514Y-106356892D01*
X102909561Y-106356892D01*
X103373845Y-105892608D01*
X103477191Y-105643108D01*
X111018514Y-105643108D01*
X111139181Y-105873000D01*
X112333000Y-105873000D01*
X112333000Y-104679845D01*
X112587000Y-104679845D01*
X112587000Y-105873000D01*
X112607000Y-105873000D01*
X112607000Y-106127000D01*
X112587000Y-106127000D01*
X112587000Y-107320155D01*
X112816890Y-107441476D01*
X113226924Y-107271645D01*
X113531261Y-106994292D01*
X113551843Y-107097765D01*
X113692191Y-107307809D01*
X113902235Y-107448157D01*
X114150000Y-107497440D01*
X115850000Y-107497440D01*
X116097765Y-107448157D01*
X116307809Y-107307809D01*
X116448157Y-107097765D01*
X116490478Y-106885000D01*
X132715000Y-106885000D01*
X132715000Y-107175494D01*
X132925853Y-107684540D01*
X133315460Y-108074147D01*
X133824506Y-108285000D01*
X134375494Y-108285000D01*
X134884540Y-108074147D01*
X135274147Y-107684540D01*
X135485000Y-107175494D01*
X135485000Y-106624506D01*
X135274147Y-106115460D01*
X134884540Y-105725853D01*
X134653130Y-105630000D01*
X134884540Y-105534147D01*
X134886568Y-105532119D01*
X140193000Y-105532119D01*
X140193000Y-106087881D01*
X140405680Y-106601337D01*
X140798663Y-106994320D01*
X141312119Y-107207000D01*
X141867881Y-107207000D01*
X142381337Y-106994320D01*
X142774320Y-106601337D01*
X142987000Y-106087881D01*
X142987000Y-105532119D01*
X142774320Y-105018663D01*
X142381337Y-104625680D01*
X142350000Y-104612700D01*
X142350000Y-102760000D01*
X143370000Y-102760000D01*
X143370001Y-105884852D01*
X143414097Y-106106537D01*
X143582072Y-106357929D01*
X143833464Y-106525904D01*
X144130000Y-106584889D01*
X144426537Y-106525904D01*
X144677929Y-106357929D01*
X144845904Y-106106537D01*
X144890000Y-105884852D01*
X144890000Y-102760000D01*
X145085199Y-102760000D01*
X145910000Y-103584802D01*
X145910001Y-105884852D01*
X145954097Y-106106537D01*
X146122072Y-106357929D01*
X146373464Y-106525904D01*
X146670000Y-106584889D01*
X146966537Y-106525904D01*
X147217929Y-106357929D01*
X147385904Y-106106537D01*
X147430000Y-105884852D01*
X147430000Y-104030000D01*
X149284852Y-104030000D01*
X149506537Y-103985904D01*
X149757929Y-103817929D01*
X149925904Y-103566537D01*
X149984889Y-103270000D01*
X149925904Y-102973463D01*
X149757929Y-102722071D01*
X149506537Y-102554096D01*
X149284852Y-102510000D01*
X146984802Y-102510000D01*
X146160000Y-101685199D01*
X146160000Y-101044801D01*
X146984802Y-100220000D01*
X149282700Y-100220000D01*
X149295680Y-100251337D01*
X149688663Y-100644320D01*
X150202119Y-100857000D01*
X150757881Y-100857000D01*
X151271337Y-100644320D01*
X151664320Y-100251337D01*
X151877000Y-99737881D01*
X151877000Y-99182119D01*
X151664320Y-98668663D01*
X151271337Y-98275680D01*
X150757881Y-98063000D01*
X150202119Y-98063000D01*
X149688663Y-98275680D01*
X149295680Y-98668663D01*
X149282700Y-98700000D01*
X146744846Y-98700000D01*
X146669999Y-98685112D01*
X146595152Y-98700000D01*
X146595148Y-98700000D01*
X146373463Y-98744096D01*
X146122071Y-98912071D01*
X146079671Y-98975527D01*
X144915528Y-100139671D01*
X144852072Y-100182071D01*
X144809672Y-100245527D01*
X144809671Y-100245528D01*
X144684097Y-100433463D01*
X144625112Y-100730000D01*
X144640001Y-100804851D01*
X144640001Y-101240000D01*
X144204852Y-101240000D01*
X144130000Y-101225111D01*
X144055148Y-101240000D01*
X141664852Y-101240000D01*
X141590000Y-101225111D01*
X141515148Y-101240000D01*
X141293463Y-101284096D01*
X141042071Y-101452071D01*
X140874096Y-101703463D01*
X140815111Y-102000000D01*
X140830000Y-102074851D01*
X140830001Y-104612700D01*
X140798663Y-104625680D01*
X140405680Y-105018663D01*
X140193000Y-105532119D01*
X134886568Y-105532119D01*
X135274147Y-105144540D01*
X135485000Y-104635494D01*
X135485000Y-104084506D01*
X135274147Y-103575460D01*
X134884540Y-103185853D01*
X134653130Y-103090000D01*
X134884540Y-102994147D01*
X135274147Y-102604540D01*
X135485000Y-102095494D01*
X135485000Y-101544506D01*
X135274147Y-101035460D01*
X134884540Y-100645853D01*
X134653130Y-100550000D01*
X134884540Y-100454147D01*
X135274147Y-100064540D01*
X135485000Y-99555494D01*
X135485000Y-99004506D01*
X135274147Y-98495460D01*
X135150554Y-98371867D01*
X135163930Y-98362930D01*
X135206331Y-98299472D01*
X135659477Y-97846328D01*
X135722930Y-97803930D01*
X135765328Y-97740477D01*
X135765330Y-97740475D01*
X135890904Y-97552539D01*
X135890905Y-97552538D01*
X135935001Y-97330853D01*
X135935001Y-97330849D01*
X135949889Y-97256002D01*
X135935001Y-97181155D01*
X135935001Y-92809847D01*
X135949889Y-92735000D01*
X135935001Y-92660153D01*
X135935001Y-92660149D01*
X135890905Y-92438464D01*
X135722930Y-92187072D01*
X135659471Y-92144670D01*
X135474835Y-91960034D01*
X135485000Y-91935494D01*
X135485000Y-91384506D01*
X135274147Y-90875460D01*
X134884540Y-90485853D01*
X134653130Y-90390000D01*
X134884540Y-90294147D01*
X135274147Y-89904540D01*
X135485000Y-89395494D01*
X135485000Y-88844506D01*
X135274147Y-88335460D01*
X134884540Y-87945853D01*
X134653130Y-87850000D01*
X134884540Y-87754147D01*
X135274147Y-87364540D01*
X135485000Y-86855494D01*
X135485000Y-86304506D01*
X135274147Y-85795460D01*
X134884540Y-85405853D01*
X134653130Y-85310000D01*
X134884540Y-85214147D01*
X135274147Y-84824540D01*
X135485000Y-84315494D01*
X135485000Y-83764506D01*
X135274147Y-83255460D01*
X134884540Y-82865853D01*
X134653130Y-82770000D01*
X134884540Y-82674147D01*
X135274147Y-82284540D01*
X135485000Y-81775494D01*
X135485000Y-81224506D01*
X135274147Y-80715460D01*
X134884540Y-80325853D01*
X134653130Y-80230000D01*
X134884540Y-80134147D01*
X135274147Y-79744540D01*
X135485000Y-79235494D01*
X135485000Y-78684506D01*
X158115000Y-78684506D01*
X158115000Y-79235494D01*
X158325853Y-79744540D01*
X158715460Y-80134147D01*
X158946870Y-80230000D01*
X158715460Y-80325853D01*
X158325853Y-80715460D01*
X158115000Y-81224506D01*
X158115000Y-81775494D01*
X158325853Y-82284540D01*
X158715460Y-82674147D01*
X158946870Y-82770000D01*
X158715460Y-82865853D01*
X158325853Y-83255460D01*
X158115000Y-83764506D01*
X158115000Y-84315494D01*
X158325853Y-84824540D01*
X158715460Y-85214147D01*
X158946870Y-85310000D01*
X158715460Y-85405853D01*
X158325853Y-85795460D01*
X158115000Y-86304506D01*
X158115000Y-86855494D01*
X158325853Y-87364540D01*
X158715460Y-87754147D01*
X158946870Y-87850000D01*
X158715460Y-87945853D01*
X158325853Y-88335460D01*
X158115000Y-88844506D01*
X158115000Y-89395494D01*
X158325853Y-89904540D01*
X158715460Y-90294147D01*
X158946870Y-90390000D01*
X158715460Y-90485853D01*
X158325853Y-90875460D01*
X158115000Y-91384506D01*
X158115000Y-91935494D01*
X158325853Y-92444540D01*
X158715460Y-92834147D01*
X158946870Y-92930000D01*
X158715460Y-93025853D01*
X158325853Y-93415460D01*
X158115000Y-93924506D01*
X158115000Y-94475494D01*
X158325853Y-94984540D01*
X158715460Y-95374147D01*
X158946870Y-95470000D01*
X158715460Y-95565853D01*
X158325853Y-95955460D01*
X158115000Y-96464506D01*
X158115000Y-97015494D01*
X158325853Y-97524540D01*
X158715460Y-97914147D01*
X158946870Y-98010000D01*
X158715460Y-98105853D01*
X158325853Y-98495460D01*
X158115000Y-99004506D01*
X158115000Y-99555494D01*
X158325853Y-100064540D01*
X158715460Y-100454147D01*
X158946870Y-100550000D01*
X158715460Y-100645853D01*
X158325853Y-101035460D01*
X158115000Y-101544506D01*
X158115000Y-102095494D01*
X158325853Y-102604540D01*
X158715460Y-102994147D01*
X158946870Y-103090000D01*
X158715460Y-103185853D01*
X158325853Y-103575460D01*
X158115000Y-104084506D01*
X158115000Y-104635494D01*
X158325853Y-105144540D01*
X158715460Y-105534147D01*
X158946870Y-105630000D01*
X158715460Y-105725853D01*
X158325853Y-106115460D01*
X158115000Y-106624506D01*
X158115000Y-107175494D01*
X158325853Y-107684540D01*
X158715460Y-108074147D01*
X159224506Y-108285000D01*
X159775494Y-108285000D01*
X160284540Y-108074147D01*
X160674147Y-107684540D01*
X160885000Y-107175494D01*
X160885000Y-106624506D01*
X160674147Y-106115460D01*
X160284540Y-105725853D01*
X160053130Y-105630000D01*
X160284540Y-105534147D01*
X160674147Y-105144540D01*
X160885000Y-104635494D01*
X160885000Y-104084506D01*
X160674147Y-103575460D01*
X160284540Y-103185853D01*
X160053130Y-103090000D01*
X160284540Y-102994147D01*
X160674147Y-102604540D01*
X160885000Y-102095494D01*
X160885000Y-101544506D01*
X160674147Y-101035460D01*
X160284540Y-100645853D01*
X160053130Y-100550000D01*
X160284540Y-100454147D01*
X160674147Y-100064540D01*
X160885000Y-99555494D01*
X160885000Y-99004506D01*
X160674147Y-98495460D01*
X160284540Y-98105853D01*
X160053130Y-98010000D01*
X160284540Y-97914147D01*
X160674147Y-97524540D01*
X160885000Y-97015494D01*
X160885000Y-96464506D01*
X160674147Y-95955460D01*
X160284540Y-95565853D01*
X160053130Y-95470000D01*
X160284540Y-95374147D01*
X160674147Y-94984540D01*
X160885000Y-94475494D01*
X160885000Y-93924506D01*
X160674147Y-93415460D01*
X160284540Y-93025853D01*
X160053130Y-92930000D01*
X160284540Y-92834147D01*
X160674147Y-92444540D01*
X160885000Y-91935494D01*
X160885000Y-91384506D01*
X160674147Y-90875460D01*
X160284540Y-90485853D01*
X160053130Y-90390000D01*
X160284540Y-90294147D01*
X160674147Y-89904540D01*
X160885000Y-89395494D01*
X160885000Y-88844506D01*
X160674147Y-88335460D01*
X160284540Y-87945853D01*
X160053130Y-87850000D01*
X160284540Y-87754147D01*
X160674147Y-87364540D01*
X160885000Y-86855494D01*
X160885000Y-86304506D01*
X160674147Y-85795460D01*
X160284540Y-85405853D01*
X160053130Y-85310000D01*
X160284540Y-85214147D01*
X160674147Y-84824540D01*
X160885000Y-84315494D01*
X160885000Y-83764506D01*
X160674147Y-83255460D01*
X160284540Y-82865853D01*
X160053130Y-82770000D01*
X160284540Y-82674147D01*
X160674147Y-82284540D01*
X160885000Y-81775494D01*
X160885000Y-81224506D01*
X160674147Y-80715460D01*
X160284540Y-80325853D01*
X160053130Y-80230000D01*
X160284540Y-80134147D01*
X160674147Y-79744540D01*
X160885000Y-79235494D01*
X160885000Y-78684506D01*
X160674147Y-78175460D01*
X160284540Y-77785853D01*
X160069070Y-77696603D01*
X160223923Y-77632460D01*
X160291912Y-77391517D01*
X159500000Y-76599605D01*
X158708088Y-77391517D01*
X158776077Y-77632460D01*
X158942658Y-77691745D01*
X158715460Y-77785853D01*
X158325853Y-78175460D01*
X158115000Y-78684506D01*
X135485000Y-78684506D01*
X135274147Y-78175460D01*
X134884540Y-77785853D01*
X134653130Y-77690000D01*
X134884540Y-77594147D01*
X135274147Y-77204540D01*
X135485000Y-76695494D01*
X135485000Y-76215171D01*
X158102799Y-76215171D01*
X158130770Y-76765448D01*
X158287540Y-77143923D01*
X158528483Y-77211912D01*
X159320395Y-76420000D01*
X159679605Y-76420000D01*
X160471517Y-77211912D01*
X160712460Y-77143923D01*
X160897201Y-76624829D01*
X160869230Y-76074552D01*
X160712460Y-75696077D01*
X160471517Y-75628088D01*
X159679605Y-76420000D01*
X159320395Y-76420000D01*
X158528483Y-75628088D01*
X158287540Y-75696077D01*
X158102799Y-76215171D01*
X135485000Y-76215171D01*
X135485000Y-76144506D01*
X135274147Y-75635460D01*
X134884540Y-75245853D01*
X134653130Y-75150000D01*
X134884540Y-75054147D01*
X135274147Y-74664540D01*
X135485000Y-74155494D01*
X135485000Y-73604506D01*
X135274147Y-73095460D01*
X134884540Y-72705853D01*
X134653130Y-72610000D01*
X134884540Y-72514147D01*
X135274147Y-72124540D01*
X135485000Y-71615494D01*
X135485000Y-71064506D01*
X135274147Y-70555460D01*
X134884540Y-70165853D01*
X134653130Y-70070000D01*
X134884540Y-69974147D01*
X135274147Y-69584540D01*
X135485000Y-69075494D01*
X135485000Y-68524506D01*
X135274147Y-68015460D01*
X134884540Y-67625853D01*
X134653130Y-67530000D01*
X134884540Y-67434147D01*
X135274147Y-67044540D01*
X135485000Y-66535494D01*
X135485000Y-65984506D01*
X135274147Y-65475460D01*
X134884540Y-65085853D01*
X134653130Y-64990000D01*
X134884540Y-64894147D01*
X135274147Y-64504540D01*
X135485000Y-63995494D01*
X135485000Y-63444506D01*
X158115000Y-63444506D01*
X158115000Y-63995494D01*
X158325853Y-64504540D01*
X158715460Y-64894147D01*
X158946870Y-64990000D01*
X158715460Y-65085853D01*
X158325853Y-65475460D01*
X158115000Y-65984506D01*
X158115000Y-66535494D01*
X158325853Y-67044540D01*
X158715460Y-67434147D01*
X158946870Y-67530000D01*
X158715460Y-67625853D01*
X158325853Y-68015460D01*
X158115000Y-68524506D01*
X158115000Y-69075494D01*
X158325853Y-69584540D01*
X158715460Y-69974147D01*
X158946870Y-70070000D01*
X158715460Y-70165853D01*
X158325853Y-70555460D01*
X158115000Y-71064506D01*
X158115000Y-71615494D01*
X158325853Y-72124540D01*
X158715460Y-72514147D01*
X158946870Y-72610000D01*
X158715460Y-72705853D01*
X158325853Y-73095460D01*
X158115000Y-73604506D01*
X158115000Y-74155494D01*
X158325853Y-74664540D01*
X158715460Y-75054147D01*
X158930930Y-75143397D01*
X158776077Y-75207540D01*
X158708088Y-75448483D01*
X159500000Y-76240395D01*
X160291912Y-75448483D01*
X160223923Y-75207540D01*
X160057342Y-75148255D01*
X160284540Y-75054147D01*
X160674147Y-74664540D01*
X160885000Y-74155494D01*
X160885000Y-73604506D01*
X160674147Y-73095460D01*
X160284540Y-72705853D01*
X160053130Y-72610000D01*
X160284540Y-72514147D01*
X160674147Y-72124540D01*
X160885000Y-71615494D01*
X160885000Y-71064506D01*
X160674147Y-70555460D01*
X160284540Y-70165853D01*
X160053130Y-70070000D01*
X160284540Y-69974147D01*
X160674147Y-69584540D01*
X160885000Y-69075494D01*
X160885000Y-68524506D01*
X160674147Y-68015460D01*
X160284540Y-67625853D01*
X160053130Y-67530000D01*
X160284540Y-67434147D01*
X160674147Y-67044540D01*
X160885000Y-66535494D01*
X160885000Y-65984506D01*
X160674147Y-65475460D01*
X160284540Y-65085853D01*
X160053130Y-64990000D01*
X160284540Y-64894147D01*
X160674147Y-64504540D01*
X160885000Y-63995494D01*
X160885000Y-63444506D01*
X160674147Y-62935460D01*
X160284540Y-62545853D01*
X160069070Y-62456603D01*
X160223923Y-62392460D01*
X160291912Y-62151517D01*
X159500000Y-61359605D01*
X158708088Y-62151517D01*
X158776077Y-62392460D01*
X158942658Y-62451745D01*
X158715460Y-62545853D01*
X158325853Y-62935460D01*
X158115000Y-63444506D01*
X135485000Y-63444506D01*
X135274147Y-62935460D01*
X134884540Y-62545853D01*
X134653130Y-62450000D01*
X134884540Y-62354147D01*
X135274147Y-61964540D01*
X135485000Y-61455494D01*
X135485000Y-60975171D01*
X158102799Y-60975171D01*
X158130770Y-61525448D01*
X158287540Y-61903923D01*
X158528483Y-61971912D01*
X159320395Y-61180000D01*
X159679605Y-61180000D01*
X160471517Y-61971912D01*
X160712460Y-61903923D01*
X160897201Y-61384829D01*
X160869230Y-60834552D01*
X160712460Y-60456077D01*
X160471517Y-60388088D01*
X159679605Y-61180000D01*
X159320395Y-61180000D01*
X158528483Y-60388088D01*
X158287540Y-60456077D01*
X158102799Y-60975171D01*
X135485000Y-60975171D01*
X135485000Y-60904506D01*
X135274147Y-60395460D01*
X135087170Y-60208483D01*
X158708088Y-60208483D01*
X159500000Y-61000395D01*
X160291912Y-60208483D01*
X160223923Y-59967540D01*
X159704829Y-59782799D01*
X159154552Y-59810770D01*
X158776077Y-59967540D01*
X158708088Y-60208483D01*
X135087170Y-60208483D01*
X134884540Y-60005853D01*
X134375494Y-59795000D01*
X133824506Y-59795000D01*
X133315460Y-60005853D01*
X132925853Y-60395460D01*
X132715000Y-60904506D01*
X132715000Y-61455494D01*
X132925853Y-61964540D01*
X133315460Y-62354147D01*
X133546870Y-62450000D01*
X133315460Y-62545853D01*
X132925853Y-62935460D01*
X132715000Y-63444506D01*
X132715000Y-63995494D01*
X132925853Y-64504540D01*
X133315460Y-64894147D01*
X133546870Y-64990000D01*
X133315460Y-65085853D01*
X132925853Y-65475460D01*
X132715000Y-65984506D01*
X132715000Y-66535494D01*
X132925853Y-67044540D01*
X133315460Y-67434147D01*
X133546870Y-67530000D01*
X133315460Y-67625853D01*
X132925853Y-68015460D01*
X132715000Y-68524506D01*
X132715000Y-69075494D01*
X132925853Y-69584540D01*
X133315460Y-69974147D01*
X133546870Y-70070000D01*
X133315460Y-70165853D01*
X132925853Y-70555460D01*
X132715000Y-71064506D01*
X132715000Y-71615494D01*
X132925853Y-72124540D01*
X133315460Y-72514147D01*
X133546870Y-72610000D01*
X133315460Y-72705853D01*
X132925853Y-73095460D01*
X132715000Y-73604506D01*
X132715000Y-74155494D01*
X132925853Y-74664540D01*
X133315460Y-75054147D01*
X133546870Y-75150000D01*
X133315460Y-75245853D01*
X132925853Y-75635460D01*
X132715000Y-76144506D01*
X132715000Y-76695494D01*
X132925853Y-77204540D01*
X133315460Y-77594147D01*
X133546870Y-77690000D01*
X133315460Y-77785853D01*
X132925853Y-78175460D01*
X132715000Y-78684506D01*
X132715000Y-79235494D01*
X132925853Y-79744540D01*
X133315460Y-80134147D01*
X133546870Y-80230000D01*
X133315460Y-80325853D01*
X132925853Y-80715460D01*
X132715000Y-81224506D01*
X132715000Y-81775494D01*
X132925853Y-82284540D01*
X133315460Y-82674147D01*
X133546870Y-82770000D01*
X133315460Y-82865853D01*
X132925853Y-83255460D01*
X132715000Y-83764506D01*
X132715000Y-84315494D01*
X132925853Y-84824540D01*
X133315460Y-85214147D01*
X133546870Y-85310000D01*
X133315460Y-85405853D01*
X132925853Y-85795460D01*
X132715000Y-86304506D01*
X132715000Y-86855494D01*
X132925853Y-87364540D01*
X133315460Y-87754147D01*
X133546870Y-87850000D01*
X133315460Y-87945853D01*
X132925853Y-88335460D01*
X132715000Y-88844506D01*
X132715000Y-89395494D01*
X132925853Y-89904540D01*
X133315460Y-90294147D01*
X133546870Y-90390000D01*
X133315460Y-90485853D01*
X132925853Y-90875460D01*
X132715000Y-91384506D01*
X132715000Y-91935494D01*
X132925853Y-92444540D01*
X133315460Y-92834147D01*
X133530930Y-92923397D01*
X133376077Y-92987540D01*
X133308088Y-93228483D01*
X134100000Y-94020395D01*
X134114143Y-94006253D01*
X134293748Y-94185858D01*
X134279605Y-94200000D01*
X134293748Y-94214143D01*
X134114143Y-94393748D01*
X134100000Y-94379605D01*
X133308088Y-95171517D01*
X133376077Y-95412460D01*
X133542658Y-95471745D01*
X133315460Y-95565853D01*
X132925853Y-95955460D01*
X132715000Y-96464506D01*
X132715000Y-97015494D01*
X132728094Y-97047106D01*
X130140588Y-99634613D01*
X130080001Y-99622561D01*
X129330001Y-99622561D01*
X128986566Y-99690875D01*
X128695415Y-99885415D01*
X128500875Y-100176566D01*
X128432561Y-100520001D01*
X128432561Y-101770001D01*
X128500875Y-102113436D01*
X128618851Y-102290001D01*
X128500875Y-102466566D01*
X128432561Y-102810001D01*
X128432561Y-104060001D01*
X128500875Y-104403436D01*
X128695415Y-104694587D01*
X128986566Y-104889127D01*
X129330001Y-104957441D01*
X130080001Y-104957441D01*
X130423436Y-104889127D01*
X130714587Y-104694587D01*
X130909127Y-104403436D01*
X130977441Y-104060001D01*
X130977441Y-103237362D01*
X132746609Y-101468195D01*
X132715000Y-101544506D01*
X132715000Y-102095494D01*
X132925853Y-102604540D01*
X133315460Y-102994147D01*
X133546870Y-103090000D01*
X133315460Y-103185853D01*
X132925853Y-103575460D01*
X132715000Y-104084506D01*
X132715000Y-104635494D01*
X132913617Y-105115000D01*
X116490478Y-105115000D01*
X116448157Y-104902235D01*
X116307809Y-104692191D01*
X116097765Y-104551843D01*
X115850000Y-104502560D01*
X114150000Y-104502560D01*
X113902235Y-104551843D01*
X113692191Y-104692191D01*
X113551843Y-104902235D01*
X113531261Y-105005708D01*
X113226924Y-104728355D01*
X112816890Y-104558524D01*
X112587000Y-104679845D01*
X112333000Y-104679845D01*
X112103110Y-104558524D01*
X111693076Y-104728355D01*
X111264817Y-105118642D01*
X111018514Y-105643108D01*
X103477191Y-105643108D01*
X103775000Y-104924134D01*
X103775000Y-103875866D01*
X103373845Y-102907392D01*
X102632608Y-102166155D01*
X101664134Y-101765000D01*
X100615866Y-101765000D01*
X99647392Y-102166155D01*
X98906155Y-102907392D01*
X98505000Y-103875866D01*
X91627000Y-103875866D01*
X91627000Y-95000000D01*
X110296887Y-95000000D01*
X110408260Y-95559909D01*
X110725423Y-96034577D01*
X111200091Y-96351740D01*
X111618667Y-96435000D01*
X111901333Y-96435000D01*
X112319909Y-96351740D01*
X112794577Y-96034577D01*
X113111740Y-95559909D01*
X113223113Y-95000000D01*
X113111740Y-94440091D01*
X112794577Y-93965423D01*
X112410892Y-93709053D01*
X112615134Y-93612389D01*
X112991041Y-93197423D01*
X113151904Y-92809039D01*
X113029915Y-92587000D01*
X111887000Y-92587000D01*
X111887000Y-92607000D01*
X111633000Y-92607000D01*
X111633000Y-92587000D01*
X110490085Y-92587000D01*
X110368096Y-92809039D01*
X110528959Y-93197423D01*
X110904866Y-93612389D01*
X111109108Y-93709053D01*
X110725423Y-93965423D01*
X110408260Y-94440091D01*
X110296887Y-95000000D01*
X91627000Y-95000000D01*
X91627000Y-93860213D01*
X98199392Y-93860213D01*
X98268857Y-94102397D01*
X98792302Y-94289144D01*
X99347368Y-94261362D01*
X99731143Y-94102397D01*
X99800608Y-93860213D01*
X99000000Y-93059605D01*
X98199392Y-93860213D01*
X91627000Y-93860213D01*
X91627000Y-92672302D01*
X97590856Y-92672302D01*
X97618638Y-93227368D01*
X97777603Y-93611143D01*
X98019787Y-93680608D01*
X98820395Y-92880000D01*
X99179605Y-92880000D01*
X99980213Y-93680608D01*
X100222397Y-93611143D01*
X100409144Y-93087698D01*
X100381362Y-92532632D01*
X100222397Y-92148857D01*
X99980213Y-92079392D01*
X99179605Y-92880000D01*
X98820395Y-92880000D01*
X98019787Y-92079392D01*
X97777603Y-92148857D01*
X97590856Y-92672302D01*
X91627000Y-92672302D01*
X91627000Y-91700213D01*
X98199392Y-91700213D01*
X98228014Y-91800000D01*
X98199392Y-91899787D01*
X99000000Y-92700395D01*
X99800608Y-91899787D01*
X99771986Y-91800000D01*
X99800608Y-91700213D01*
X99000000Y-90899605D01*
X98199392Y-91700213D01*
X91627000Y-91700213D01*
X91627000Y-90512302D01*
X97590856Y-90512302D01*
X97618638Y-91067368D01*
X97777603Y-91451143D01*
X98019787Y-91520608D01*
X98820395Y-90720000D01*
X99179605Y-90720000D01*
X99980213Y-91520608D01*
X100222397Y-91451143D01*
X100409144Y-90927698D01*
X100381362Y-90372632D01*
X100222397Y-89988857D01*
X99980213Y-89919392D01*
X99179605Y-90720000D01*
X98820395Y-90720000D01*
X98019787Y-89919392D01*
X97777603Y-89988857D01*
X97590856Y-90512302D01*
X91627000Y-90512302D01*
X91627000Y-89540213D01*
X98199392Y-89540213D01*
X98228014Y-89640000D01*
X98199392Y-89739787D01*
X99000000Y-90540395D01*
X99800608Y-89739787D01*
X99771986Y-89640000D01*
X99800608Y-89540213D01*
X99000000Y-88739605D01*
X98199392Y-89540213D01*
X91627000Y-89540213D01*
X91627000Y-88352302D01*
X97590856Y-88352302D01*
X97618638Y-88907368D01*
X97777603Y-89291143D01*
X98019787Y-89360608D01*
X98820395Y-88560000D01*
X99179605Y-88560000D01*
X99980213Y-89360608D01*
X100222397Y-89291143D01*
X100409144Y-88767698D01*
X100381362Y-88212632D01*
X100222397Y-87828857D01*
X99980213Y-87759392D01*
X99179605Y-88560000D01*
X98820395Y-88560000D01*
X98019787Y-87759392D01*
X97777603Y-87828857D01*
X97590856Y-88352302D01*
X91627000Y-88352302D01*
X91627000Y-87380213D01*
X98199392Y-87380213D01*
X98228014Y-87480000D01*
X98199392Y-87579787D01*
X99000000Y-88380395D01*
X99800608Y-87579787D01*
X99771986Y-87480000D01*
X99800608Y-87380213D01*
X99000000Y-86579605D01*
X98199392Y-87380213D01*
X91627000Y-87380213D01*
X91627000Y-86192302D01*
X97590856Y-86192302D01*
X97618638Y-86747368D01*
X97777603Y-87131143D01*
X98019787Y-87200608D01*
X98820395Y-86400000D01*
X99179605Y-86400000D01*
X99980213Y-87200608D01*
X100222397Y-87131143D01*
X100409144Y-86607698D01*
X100381362Y-86052632D01*
X100222397Y-85668857D01*
X99980213Y-85599392D01*
X99179605Y-86400000D01*
X98820395Y-86400000D01*
X98019787Y-85599392D01*
X97777603Y-85668857D01*
X97590856Y-86192302D01*
X91627000Y-86192302D01*
X91627000Y-85220213D01*
X98199392Y-85220213D01*
X98228014Y-85320000D01*
X98199392Y-85419787D01*
X99000000Y-86220395D01*
X99800608Y-85419787D01*
X99771986Y-85320000D01*
X99800608Y-85220213D01*
X99000000Y-84419605D01*
X98199392Y-85220213D01*
X91627000Y-85220213D01*
X91627000Y-84032302D01*
X97590856Y-84032302D01*
X97618638Y-84587368D01*
X97777603Y-84971143D01*
X98019787Y-85040608D01*
X98820395Y-84240000D01*
X99179605Y-84240000D01*
X99980213Y-85040608D01*
X100222397Y-84971143D01*
X100409144Y-84447698D01*
X100381362Y-83892632D01*
X100222397Y-83508857D01*
X99980213Y-83439392D01*
X99179605Y-84240000D01*
X98820395Y-84240000D01*
X98019787Y-83439392D01*
X97777603Y-83508857D01*
X97590856Y-84032302D01*
X91627000Y-84032302D01*
X91627000Y-83060213D01*
X98199392Y-83060213D01*
X98228014Y-83160000D01*
X98199392Y-83259787D01*
X99000000Y-84060395D01*
X99800608Y-83259787D01*
X99771986Y-83160000D01*
X99800608Y-83060213D01*
X99000000Y-82259605D01*
X98199392Y-83060213D01*
X91627000Y-83060213D01*
X91627000Y-81872302D01*
X97590856Y-81872302D01*
X97618638Y-82427368D01*
X97777603Y-82811143D01*
X98019787Y-82880608D01*
X98820395Y-82080000D01*
X99179605Y-82080000D01*
X99980213Y-82880608D01*
X100222397Y-82811143D01*
X100409144Y-82287698D01*
X100381362Y-81732632D01*
X100222397Y-81348857D01*
X99980213Y-81279392D01*
X99179605Y-82080000D01*
X98820395Y-82080000D01*
X98019787Y-81279392D01*
X97777603Y-81348857D01*
X97590856Y-81872302D01*
X91627000Y-81872302D01*
X91627000Y-80900213D01*
X98199392Y-80900213D01*
X98228014Y-81000000D01*
X98199392Y-81099787D01*
X99000000Y-81900395D01*
X99800608Y-81099787D01*
X99771986Y-81000000D01*
X99800608Y-80900213D01*
X99000000Y-80099605D01*
X98199392Y-80900213D01*
X91627000Y-80900213D01*
X91627000Y-79712302D01*
X97590856Y-79712302D01*
X97618638Y-80267368D01*
X97777603Y-80651143D01*
X98019787Y-80720608D01*
X98820395Y-79920000D01*
X99179605Y-79920000D01*
X99980213Y-80720608D01*
X100222397Y-80651143D01*
X100409144Y-80127698D01*
X100381362Y-79572632D01*
X100222397Y-79188857D01*
X99980213Y-79119392D01*
X99179605Y-79920000D01*
X98820395Y-79920000D01*
X98019787Y-79119392D01*
X97777603Y-79188857D01*
X97590856Y-79712302D01*
X91627000Y-79712302D01*
X91627000Y-68842119D01*
X97603000Y-68842119D01*
X97603000Y-69397881D01*
X97815680Y-69911337D01*
X98104343Y-70200000D01*
X97815680Y-70488663D01*
X97603000Y-71002119D01*
X97603000Y-71557881D01*
X97815680Y-72071337D01*
X98104343Y-72360000D01*
X97815680Y-72648663D01*
X97603000Y-73162119D01*
X97603000Y-73717881D01*
X97815680Y-74231337D01*
X98104343Y-74520000D01*
X97815680Y-74808663D01*
X97603000Y-75322119D01*
X97603000Y-75877881D01*
X97815680Y-76391337D01*
X98104343Y-76680000D01*
X97815680Y-76968663D01*
X97603000Y-77482119D01*
X97603000Y-78037881D01*
X97815680Y-78551337D01*
X98200448Y-78936105D01*
X98199392Y-78939787D01*
X99000000Y-79740395D01*
X99800608Y-78939787D01*
X99799552Y-78936105D01*
X100184320Y-78551337D01*
X100397000Y-78037881D01*
X100397000Y-77482119D01*
X100184320Y-76968663D01*
X99895657Y-76680000D01*
X100184320Y-76391337D01*
X100397000Y-75877881D01*
X100397000Y-75322119D01*
X100184320Y-74808663D01*
X99895657Y-74520000D01*
X100184320Y-74231337D01*
X100397000Y-73717881D01*
X100397000Y-73162119D01*
X100184320Y-72648663D01*
X99895657Y-72360000D01*
X100184320Y-72071337D01*
X100397000Y-71557881D01*
X100397000Y-71002119D01*
X100184320Y-70488663D01*
X99895657Y-70200000D01*
X100184320Y-69911337D01*
X100397000Y-69397881D01*
X100397000Y-68842119D01*
X101893000Y-68842119D01*
X101893000Y-69397881D01*
X102105680Y-69911337D01*
X102394343Y-70200000D01*
X102105680Y-70488663D01*
X101893000Y-71002119D01*
X101893000Y-71557881D01*
X102105680Y-72071337D01*
X102394343Y-72360000D01*
X102105680Y-72648663D01*
X101893000Y-73162119D01*
X101893000Y-73717881D01*
X102105680Y-74231337D01*
X102394343Y-74520000D01*
X102105680Y-74808663D01*
X101893000Y-75322119D01*
X101893000Y-75877881D01*
X102105680Y-76391337D01*
X102394343Y-76680000D01*
X102105680Y-76968663D01*
X101893000Y-77482119D01*
X101893000Y-78037881D01*
X102105680Y-78551337D01*
X102394343Y-78840000D01*
X102105680Y-79128663D01*
X101893000Y-79642119D01*
X101893000Y-80197881D01*
X102105680Y-80711337D01*
X102394343Y-81000000D01*
X102105680Y-81288663D01*
X101893000Y-81802119D01*
X101893000Y-82357881D01*
X102105680Y-82871337D01*
X102394343Y-83160000D01*
X102105680Y-83448663D01*
X101893000Y-83962119D01*
X101893000Y-84517881D01*
X102105680Y-85031337D01*
X102394343Y-85320000D01*
X102105680Y-85608663D01*
X101893000Y-86122119D01*
X101893000Y-86677881D01*
X102105680Y-87191337D01*
X102394343Y-87480000D01*
X102105680Y-87768663D01*
X101893000Y-88282119D01*
X101893000Y-88837881D01*
X102105680Y-89351337D01*
X102394343Y-89640000D01*
X102105680Y-89928663D01*
X101893000Y-90442119D01*
X101893000Y-90997881D01*
X102105680Y-91511337D01*
X102394343Y-91800000D01*
X102105680Y-92088663D01*
X101893000Y-92602119D01*
X101893000Y-93157881D01*
X102105680Y-93671337D01*
X102498663Y-94064320D01*
X103012119Y-94277000D01*
X103567881Y-94277000D01*
X104081337Y-94064320D01*
X104474320Y-93671337D01*
X104687000Y-93157881D01*
X104687000Y-92602119D01*
X104474320Y-92088663D01*
X104185657Y-91800000D01*
X104474320Y-91511337D01*
X104687000Y-90997881D01*
X104687000Y-90718001D01*
X107727198Y-90718001D01*
X108538670Y-91529474D01*
X108581070Y-91592930D01*
X108832462Y-91760905D01*
X109054147Y-91805001D01*
X109054151Y-91805001D01*
X109128998Y-91819889D01*
X109203845Y-91805001D01*
X110494820Y-91805001D01*
X110368096Y-92110961D01*
X110490085Y-92333000D01*
X111633000Y-92333000D01*
X111633000Y-92313000D01*
X111887000Y-92313000D01*
X111887000Y-92333000D01*
X113029915Y-92333000D01*
X113151904Y-92110961D01*
X112991041Y-91722577D01*
X112858826Y-91576624D01*
X112890332Y-91529471D01*
X114649795Y-89770009D01*
X123391554Y-89770009D01*
X123466401Y-89784897D01*
X123541248Y-89770009D01*
X123541253Y-89770009D01*
X123762938Y-89725913D01*
X124014330Y-89557938D01*
X124056732Y-89494479D01*
X125670795Y-87880417D01*
X125768959Y-88117423D01*
X126144866Y-88532389D01*
X126349108Y-88629053D01*
X125965423Y-88885423D01*
X125648260Y-89360091D01*
X125536887Y-89920000D01*
X125648260Y-90479909D01*
X125965423Y-90954577D01*
X126317758Y-91190000D01*
X125965423Y-91425423D01*
X125648260Y-91900091D01*
X125536887Y-92460000D01*
X125601312Y-92783886D01*
X123015528Y-95369671D01*
X122952072Y-95412071D01*
X122909672Y-95475527D01*
X122909671Y-95475528D01*
X122784097Y-95663463D01*
X122725112Y-95960000D01*
X122740001Y-96034852D01*
X122740000Y-99955153D01*
X122725112Y-100030000D01*
X122740000Y-100104847D01*
X122740000Y-100104851D01*
X122784096Y-100326536D01*
X122952071Y-100577929D01*
X123015530Y-100620331D01*
X125632561Y-103237363D01*
X125632561Y-104060001D01*
X125700875Y-104403436D01*
X125895415Y-104694587D01*
X126186566Y-104889127D01*
X126530001Y-104957441D01*
X127280001Y-104957441D01*
X127623436Y-104889127D01*
X127914587Y-104694587D01*
X128109127Y-104403436D01*
X128177441Y-104060001D01*
X128177441Y-102810001D01*
X128109127Y-102466566D01*
X127991151Y-102290001D01*
X128109127Y-102113436D01*
X128177441Y-101770001D01*
X128177441Y-100520001D01*
X128109127Y-100176566D01*
X127914587Y-99885415D01*
X127665001Y-99718648D01*
X127665001Y-96447440D01*
X127800000Y-96447440D01*
X128047765Y-96398157D01*
X128257809Y-96257809D01*
X128398157Y-96047765D01*
X128447440Y-95800000D01*
X128447440Y-94200000D01*
X128406698Y-93995171D01*
X132702799Y-93995171D01*
X132730770Y-94545448D01*
X132887540Y-94923923D01*
X133128483Y-94991912D01*
X133920395Y-94200000D01*
X133128483Y-93408088D01*
X132887540Y-93476077D01*
X132702799Y-93995171D01*
X128406698Y-93995171D01*
X128398157Y-93952235D01*
X128257809Y-93742191D01*
X128047765Y-93601843D01*
X127913894Y-93575215D01*
X128034577Y-93494577D01*
X128351740Y-93019909D01*
X128463113Y-92460000D01*
X128351740Y-91900091D01*
X128034577Y-91425423D01*
X127682242Y-91190000D01*
X128034577Y-90954577D01*
X128351740Y-90479909D01*
X128463113Y-89920000D01*
X128351740Y-89360091D01*
X128034577Y-88885423D01*
X127650892Y-88629053D01*
X127855134Y-88532389D01*
X128231041Y-88117423D01*
X128391904Y-87729039D01*
X128269915Y-87507000D01*
X127127000Y-87507000D01*
X127127000Y-87527000D01*
X126873000Y-87527000D01*
X126873000Y-87507000D01*
X126853000Y-87507000D01*
X126853000Y-87253000D01*
X126873000Y-87253000D01*
X126873000Y-87233000D01*
X127127000Y-87233000D01*
X127127000Y-87253000D01*
X128269915Y-87253000D01*
X128391904Y-87030961D01*
X128231041Y-86642577D01*
X128098826Y-86496624D01*
X128130332Y-86449471D01*
X128609474Y-85970330D01*
X128672930Y-85927930D01*
X128840905Y-85676538D01*
X128885001Y-85454853D01*
X128885001Y-85454848D01*
X128899889Y-85380001D01*
X128885001Y-85305154D01*
X128885001Y-76199847D01*
X128899889Y-76125000D01*
X128885001Y-76050153D01*
X128885001Y-76050149D01*
X128840905Y-75828464D01*
X128760000Y-75707381D01*
X128760000Y-75637621D01*
X128840905Y-75516538D01*
X128885001Y-75294853D01*
X128885001Y-75294849D01*
X128899889Y-75220002D01*
X128885001Y-75145155D01*
X128885001Y-73339847D01*
X128899889Y-73265000D01*
X128885001Y-73190153D01*
X128885001Y-73190149D01*
X128840905Y-72968464D01*
X128672930Y-72717072D01*
X128609471Y-72674670D01*
X128398688Y-72463887D01*
X128463113Y-72140000D01*
X128351740Y-71580091D01*
X128034577Y-71105423D01*
X127682242Y-70870000D01*
X128034577Y-70634577D01*
X128351740Y-70159909D01*
X128463113Y-69600000D01*
X128351740Y-69040091D01*
X128034577Y-68565423D01*
X127682242Y-68330000D01*
X128034577Y-68094577D01*
X128351740Y-67619909D01*
X128463113Y-67060000D01*
X128351740Y-66500091D01*
X128034577Y-66025423D01*
X127682242Y-65790000D01*
X128034577Y-65554577D01*
X128351740Y-65079909D01*
X128463113Y-64520000D01*
X128351740Y-63960091D01*
X128034577Y-63485423D01*
X127682242Y-63250000D01*
X128034577Y-63014577D01*
X128351740Y-62539909D01*
X128463113Y-61980000D01*
X128351740Y-61420091D01*
X128034577Y-60945423D01*
X127682242Y-60710000D01*
X128034577Y-60474577D01*
X128351740Y-59999909D01*
X128463113Y-59440000D01*
X128351740Y-58880091D01*
X128034577Y-58405423D01*
X127559909Y-58088260D01*
X127141333Y-58005000D01*
X126858667Y-58005000D01*
X126440091Y-58088260D01*
X125965423Y-58405423D01*
X125648260Y-58880091D01*
X125536887Y-59440000D01*
X125601312Y-59763887D01*
X125390527Y-59974672D01*
X125327071Y-60017072D01*
X125284671Y-60080528D01*
X125284670Y-60080529D01*
X125159096Y-60268464D01*
X125100111Y-60565001D01*
X125115000Y-60639852D01*
X125114999Y-61915201D01*
X113030978Y-73999223D01*
X112794577Y-73645423D01*
X112442242Y-73410000D01*
X112794577Y-73174577D01*
X113111740Y-72699909D01*
X113223113Y-72140000D01*
X113111740Y-71580091D01*
X112794577Y-71105423D01*
X112442242Y-70870000D01*
X112794577Y-70634577D01*
X113111740Y-70159909D01*
X113223113Y-69600000D01*
X113111740Y-69040091D01*
X112794577Y-68565423D01*
X112442242Y-68330000D01*
X112794577Y-68094577D01*
X113111740Y-67619909D01*
X113223113Y-67060000D01*
X113111740Y-66500091D01*
X112794577Y-66025423D01*
X112442242Y-65790000D01*
X112794577Y-65554577D01*
X113111740Y-65079909D01*
X113223113Y-64520000D01*
X113111740Y-63960091D01*
X112794577Y-63485423D01*
X112442242Y-63250000D01*
X112794577Y-63014577D01*
X113111740Y-62539909D01*
X113223113Y-61980000D01*
X113111740Y-61420091D01*
X112794577Y-60945423D01*
X112442242Y-60710000D01*
X112794577Y-60474577D01*
X113111740Y-59999909D01*
X113223113Y-59440000D01*
X113111740Y-58880091D01*
X112794577Y-58405423D01*
X112319909Y-58088260D01*
X111901333Y-58005000D01*
X111618667Y-58005000D01*
X111200091Y-58088260D01*
X110725423Y-58405423D01*
X110408260Y-58880091D01*
X110296887Y-59440000D01*
X110408260Y-59999909D01*
X110725423Y-60474577D01*
X111077758Y-60710000D01*
X110725423Y-60945423D01*
X110408260Y-61420091D01*
X110296887Y-61980000D01*
X110408260Y-62539909D01*
X110725423Y-63014577D01*
X111077758Y-63250000D01*
X110725423Y-63485423D01*
X110408260Y-63960091D01*
X110296887Y-64520000D01*
X110408260Y-65079909D01*
X110725423Y-65554577D01*
X111077758Y-65790000D01*
X110725423Y-66025423D01*
X110541957Y-66300000D01*
X107014847Y-66300000D01*
X106940000Y-66285112D01*
X106865153Y-66300000D01*
X106865148Y-66300000D01*
X106643463Y-66344096D01*
X106392071Y-66512071D01*
X106349671Y-66575527D01*
X104565199Y-68360000D01*
X104487300Y-68360000D01*
X104474320Y-68328663D01*
X104081337Y-67935680D01*
X103567881Y-67723000D01*
X103012119Y-67723000D01*
X102498663Y-67935680D01*
X102105680Y-68328663D01*
X101893000Y-68842119D01*
X100397000Y-68842119D01*
X100184320Y-68328663D01*
X99791337Y-67935680D01*
X99277881Y-67723000D01*
X98722119Y-67723000D01*
X98208663Y-67935680D01*
X97815680Y-68328663D01*
X97603000Y-68842119D01*
X91627000Y-68842119D01*
X91627000Y-57075866D01*
X98505000Y-57075866D01*
X98505000Y-58124134D01*
X98906155Y-59092608D01*
X99647392Y-59833845D01*
X100615866Y-60235000D01*
X101664134Y-60235000D01*
X102632608Y-59833845D01*
X103373845Y-59092608D01*
X103775000Y-58124134D01*
X103775000Y-57075866D01*
X103373845Y-56107392D01*
X102632608Y-55366155D01*
X101664134Y-54965000D01*
X100615866Y-54965000D01*
X99647392Y-55366155D01*
X98906155Y-56107392D01*
X98505000Y-57075866D01*
X91627000Y-57075866D01*
X91627000Y-51127000D01*
X134051186Y-51127000D01*
X134051186Y-59500000D01*
G04 #@! TD*
M02*
