M48
;DRILL file {KiCad 5.0.2+dfsg1-1} date Thu 16 Apr 2020 16:35:56 NZST
;FORMAT={-:-/ absolute / inch / decimal}
FMAT,2
INCH,TZ
T1C0.0300
T2C0.0315
T3C0.0394
T4C0.0402
T5C0.1220
%
G90
G05
T1
X5.5744Y-4.1657
X5.9244Y-3.9157
T2
X4.4Y-2.3402
X4.4Y-2.4402
X4.4Y-2.5402
X4.4Y-2.6402
X4.4Y-2.7402
X4.4Y-2.8402
X4.4Y-2.9402
X4.4Y-3.0402
X4.4Y-3.1402
X4.4Y-3.2402
X4.4Y-3.3402
X4.4Y-3.4402
X4.4Y-3.5402
X4.4Y-3.6402
X4.4Y-3.7402
X5.Y-2.3402
X5.Y-2.4402
X5.Y-2.5402
X5.Y-2.6402
X5.Y-2.7402
X5.Y-2.8402
X5.Y-2.9402
X5.Y-3.0402
X5.Y-3.1402
X5.Y-3.2402
X5.Y-3.3402
X5.Y-3.4402
X5.Y-3.5402
X5.Y-3.6402
X5.Y-3.7402
T3
X4.4276Y-4.1732
X4.5276Y-4.1732
X3.8976Y-2.7213
X3.8976Y-2.8063
X3.8976Y-2.8913
X3.8976Y-2.9764
X3.8976Y-3.0614
X3.8976Y-3.1465
X3.8976Y-3.2315
X3.8976Y-3.3165
X3.8976Y-3.4016
X3.8976Y-3.4866
X3.8976Y-3.5717
X3.8976Y-3.6567
X4.0665Y-2.7213
X4.0665Y-2.8063
X4.0665Y-2.8913
X4.0665Y-2.9764
X4.0665Y-3.0614
X4.0665Y-3.1465
X4.0665Y-3.2315
X4.0665Y-3.3165
X4.0665Y-3.4016
X4.0665Y-3.4866
X4.0665Y-3.5717
X4.0665Y-3.6567
T4
X5.2795Y-2.4087
X5.2795Y-2.5087
X5.2795Y-2.6087
X5.2795Y-2.7087
X5.2795Y-2.8087
X5.2795Y-2.9087
X5.2795Y-3.0087
X5.2795Y-3.1087
X5.2795Y-3.2087
X5.2795Y-3.3087
X5.2795Y-3.4087
X5.2795Y-3.5087
X5.2795Y-3.6087
X5.2795Y-3.7087
X5.2795Y-3.8087
X5.2795Y-3.9087
X5.2795Y-4.0087
X5.2795Y-4.1087
X5.2795Y-4.2087
X6.2795Y-2.4087
X6.2795Y-2.5087
X6.2795Y-2.6087
X6.2795Y-2.7087
X6.2795Y-2.8087
X6.2795Y-2.9087
X6.2795Y-3.0087
X6.2795Y-3.1087
X6.2795Y-3.2087
X6.2795Y-3.3087
X6.2795Y-3.4087
X6.2795Y-3.5087
X6.2795Y-3.6087
X6.2795Y-3.7087
X6.2795Y-3.8087
X6.2795Y-3.9087
X6.2795Y-4.0087
X6.2795Y-4.1087
X6.2795Y-4.2087
T5
X3.9819Y-2.2677
X3.9819Y-4.1102
T0
M30
