G04 #@! TF.GenerationSoftware,KiCad,Pcbnew,5.0.2+dfsg1-1*
G04 #@! TF.CreationDate,2020-04-16T16:35:58+12:00*
G04 #@! TF.ProjectId,Wireless488,57697265-6c65-4737-9334-38382e6b6963,rev?*
G04 #@! TF.SameCoordinates,Original*
G04 #@! TF.FileFunction,Paste,Top*
G04 #@! TF.FilePolarity,Positive*
%FSLAX46Y46*%
G04 Gerber Fmt 4.6, Leading zero omitted, Abs format (unit mm)*
G04 Created by KiCad (PCBNEW 5.0.2+dfsg1-1) date Thu 16 Apr 2020 16:35:58 NZST*
%MOMM*%
%LPD*%
G01*
G04 APERTURE LIST*
%ADD10C,0.100000*%
%ADD11C,1.250000*%
G04 APERTURE END LIST*
D10*
G04 #@! TO.C,R2*
G36*
X130104505Y-102561205D02*
X130128774Y-102564805D01*
X130152572Y-102570766D01*
X130175672Y-102579031D01*
X130197850Y-102589521D01*
X130218894Y-102602134D01*
X130238599Y-102616748D01*
X130256778Y-102633224D01*
X130273254Y-102651403D01*
X130287868Y-102671108D01*
X130300481Y-102692152D01*
X130310971Y-102714330D01*
X130319236Y-102737430D01*
X130325197Y-102761228D01*
X130328797Y-102785497D01*
X130330001Y-102810001D01*
X130330001Y-104060001D01*
X130328797Y-104084505D01*
X130325197Y-104108774D01*
X130319236Y-104132572D01*
X130310971Y-104155672D01*
X130300481Y-104177850D01*
X130287868Y-104198894D01*
X130273254Y-104218599D01*
X130256778Y-104236778D01*
X130238599Y-104253254D01*
X130218894Y-104267868D01*
X130197850Y-104280481D01*
X130175672Y-104290971D01*
X130152572Y-104299236D01*
X130128774Y-104305197D01*
X130104505Y-104308797D01*
X130080001Y-104310001D01*
X129330001Y-104310001D01*
X129305497Y-104308797D01*
X129281228Y-104305197D01*
X129257430Y-104299236D01*
X129234330Y-104290971D01*
X129212152Y-104280481D01*
X129191108Y-104267868D01*
X129171403Y-104253254D01*
X129153224Y-104236778D01*
X129136748Y-104218599D01*
X129122134Y-104198894D01*
X129109521Y-104177850D01*
X129099031Y-104155672D01*
X129090766Y-104132572D01*
X129084805Y-104108774D01*
X129081205Y-104084505D01*
X129080001Y-104060001D01*
X129080001Y-102810001D01*
X129081205Y-102785497D01*
X129084805Y-102761228D01*
X129090766Y-102737430D01*
X129099031Y-102714330D01*
X129109521Y-102692152D01*
X129122134Y-102671108D01*
X129136748Y-102651403D01*
X129153224Y-102633224D01*
X129171403Y-102616748D01*
X129191108Y-102602134D01*
X129212152Y-102589521D01*
X129234330Y-102579031D01*
X129257430Y-102570766D01*
X129281228Y-102564805D01*
X129305497Y-102561205D01*
X129330001Y-102560001D01*
X130080001Y-102560001D01*
X130104505Y-102561205D01*
X130104505Y-102561205D01*
G37*
D11*
X129705001Y-103435001D03*
D10*
G36*
X127304505Y-102561205D02*
X127328774Y-102564805D01*
X127352572Y-102570766D01*
X127375672Y-102579031D01*
X127397850Y-102589521D01*
X127418894Y-102602134D01*
X127438599Y-102616748D01*
X127456778Y-102633224D01*
X127473254Y-102651403D01*
X127487868Y-102671108D01*
X127500481Y-102692152D01*
X127510971Y-102714330D01*
X127519236Y-102737430D01*
X127525197Y-102761228D01*
X127528797Y-102785497D01*
X127530001Y-102810001D01*
X127530001Y-104060001D01*
X127528797Y-104084505D01*
X127525197Y-104108774D01*
X127519236Y-104132572D01*
X127510971Y-104155672D01*
X127500481Y-104177850D01*
X127487868Y-104198894D01*
X127473254Y-104218599D01*
X127456778Y-104236778D01*
X127438599Y-104253254D01*
X127418894Y-104267868D01*
X127397850Y-104280481D01*
X127375672Y-104290971D01*
X127352572Y-104299236D01*
X127328774Y-104305197D01*
X127304505Y-104308797D01*
X127280001Y-104310001D01*
X126530001Y-104310001D01*
X126505497Y-104308797D01*
X126481228Y-104305197D01*
X126457430Y-104299236D01*
X126434330Y-104290971D01*
X126412152Y-104280481D01*
X126391108Y-104267868D01*
X126371403Y-104253254D01*
X126353224Y-104236778D01*
X126336748Y-104218599D01*
X126322134Y-104198894D01*
X126309521Y-104177850D01*
X126299031Y-104155672D01*
X126290766Y-104132572D01*
X126284805Y-104108774D01*
X126281205Y-104084505D01*
X126280001Y-104060001D01*
X126280001Y-102810001D01*
X126281205Y-102785497D01*
X126284805Y-102761228D01*
X126290766Y-102737430D01*
X126299031Y-102714330D01*
X126309521Y-102692152D01*
X126322134Y-102671108D01*
X126336748Y-102651403D01*
X126353224Y-102633224D01*
X126371403Y-102616748D01*
X126391108Y-102602134D01*
X126412152Y-102589521D01*
X126434330Y-102579031D01*
X126457430Y-102570766D01*
X126481228Y-102564805D01*
X126505497Y-102561205D01*
X126530001Y-102560001D01*
X127280001Y-102560001D01*
X127304505Y-102561205D01*
X127304505Y-102561205D01*
G37*
D11*
X126905001Y-103435001D03*
G04 #@! TD*
D10*
G04 #@! TO.C,R1*
G36*
X127304505Y-100271205D02*
X127328774Y-100274805D01*
X127352572Y-100280766D01*
X127375672Y-100289031D01*
X127397850Y-100299521D01*
X127418894Y-100312134D01*
X127438599Y-100326748D01*
X127456778Y-100343224D01*
X127473254Y-100361403D01*
X127487868Y-100381108D01*
X127500481Y-100402152D01*
X127510971Y-100424330D01*
X127519236Y-100447430D01*
X127525197Y-100471228D01*
X127528797Y-100495497D01*
X127530001Y-100520001D01*
X127530001Y-101770001D01*
X127528797Y-101794505D01*
X127525197Y-101818774D01*
X127519236Y-101842572D01*
X127510971Y-101865672D01*
X127500481Y-101887850D01*
X127487868Y-101908894D01*
X127473254Y-101928599D01*
X127456778Y-101946778D01*
X127438599Y-101963254D01*
X127418894Y-101977868D01*
X127397850Y-101990481D01*
X127375672Y-102000971D01*
X127352572Y-102009236D01*
X127328774Y-102015197D01*
X127304505Y-102018797D01*
X127280001Y-102020001D01*
X126530001Y-102020001D01*
X126505497Y-102018797D01*
X126481228Y-102015197D01*
X126457430Y-102009236D01*
X126434330Y-102000971D01*
X126412152Y-101990481D01*
X126391108Y-101977868D01*
X126371403Y-101963254D01*
X126353224Y-101946778D01*
X126336748Y-101928599D01*
X126322134Y-101908894D01*
X126309521Y-101887850D01*
X126299031Y-101865672D01*
X126290766Y-101842572D01*
X126284805Y-101818774D01*
X126281205Y-101794505D01*
X126280001Y-101770001D01*
X126280001Y-100520001D01*
X126281205Y-100495497D01*
X126284805Y-100471228D01*
X126290766Y-100447430D01*
X126299031Y-100424330D01*
X126309521Y-100402152D01*
X126322134Y-100381108D01*
X126336748Y-100361403D01*
X126353224Y-100343224D01*
X126371403Y-100326748D01*
X126391108Y-100312134D01*
X126412152Y-100299521D01*
X126434330Y-100289031D01*
X126457430Y-100280766D01*
X126481228Y-100274805D01*
X126505497Y-100271205D01*
X126530001Y-100270001D01*
X127280001Y-100270001D01*
X127304505Y-100271205D01*
X127304505Y-100271205D01*
G37*
D11*
X126905001Y-101145001D03*
D10*
G36*
X130104505Y-100271205D02*
X130128774Y-100274805D01*
X130152572Y-100280766D01*
X130175672Y-100289031D01*
X130197850Y-100299521D01*
X130218894Y-100312134D01*
X130238599Y-100326748D01*
X130256778Y-100343224D01*
X130273254Y-100361403D01*
X130287868Y-100381108D01*
X130300481Y-100402152D01*
X130310971Y-100424330D01*
X130319236Y-100447430D01*
X130325197Y-100471228D01*
X130328797Y-100495497D01*
X130330001Y-100520001D01*
X130330001Y-101770001D01*
X130328797Y-101794505D01*
X130325197Y-101818774D01*
X130319236Y-101842572D01*
X130310971Y-101865672D01*
X130300481Y-101887850D01*
X130287868Y-101908894D01*
X130273254Y-101928599D01*
X130256778Y-101946778D01*
X130238599Y-101963254D01*
X130218894Y-101977868D01*
X130197850Y-101990481D01*
X130175672Y-102000971D01*
X130152572Y-102009236D01*
X130128774Y-102015197D01*
X130104505Y-102018797D01*
X130080001Y-102020001D01*
X129330001Y-102020001D01*
X129305497Y-102018797D01*
X129281228Y-102015197D01*
X129257430Y-102009236D01*
X129234330Y-102000971D01*
X129212152Y-101990481D01*
X129191108Y-101977868D01*
X129171403Y-101963254D01*
X129153224Y-101946778D01*
X129136748Y-101928599D01*
X129122134Y-101908894D01*
X129109521Y-101887850D01*
X129099031Y-101865672D01*
X129090766Y-101842572D01*
X129084805Y-101818774D01*
X129081205Y-101794505D01*
X129080001Y-101770001D01*
X129080001Y-100520001D01*
X129081205Y-100495497D01*
X129084805Y-100471228D01*
X129090766Y-100447430D01*
X129099031Y-100424330D01*
X129109521Y-100402152D01*
X129122134Y-100381108D01*
X129136748Y-100361403D01*
X129153224Y-100343224D01*
X129171403Y-100326748D01*
X129191108Y-100312134D01*
X129212152Y-100299521D01*
X129234330Y-100289031D01*
X129257430Y-100280766D01*
X129281228Y-100274805D01*
X129305497Y-100271205D01*
X129330001Y-100270001D01*
X130080001Y-100270001D01*
X130104505Y-100271205D01*
X130104505Y-100271205D01*
G37*
D11*
X129705001Y-101145001D03*
G04 #@! TD*
M02*
