G04 #@! TF.GenerationSoftware,KiCad,Pcbnew,5.0.2-bee76a0~70~ubuntu18.04.1*
G04 #@! TF.CreationDate,2020-08-17T12:26:13+12:00*
G04 #@! TF.ProjectId,Wireless488,57697265-6c65-4737-9334-38382e6b6963,rev?*
G04 #@! TF.SameCoordinates,Original*
G04 #@! TF.FileFunction,Legend,Bot*
G04 #@! TF.FilePolarity,Positive*
%FSLAX46Y46*%
G04 Gerber Fmt 4.6, Leading zero omitted, Abs format (unit mm)*
G04 Created by KiCad (PCBNEW 5.0.2-bee76a0~70~ubuntu18.04.1) date Mon 17 Aug 2020 12:26:13 NZST*
%MOMM*%
%LPD*%
G01*
G04 APERTURE LIST*
%ADD10C,0.300000*%
G04 APERTURE END LIST*
D10*
X156157142Y-96678571D02*
X156157142Y-96178571D01*
X155371428Y-95964285D02*
X155371428Y-96678571D01*
X156871428Y-96678571D01*
X156871428Y-95964285D01*
X155442857Y-95392857D02*
X155371428Y-95178571D01*
X155371428Y-94821428D01*
X155442857Y-94678571D01*
X155514285Y-94607142D01*
X155657142Y-94535714D01*
X155800000Y-94535714D01*
X155942857Y-94607142D01*
X156014285Y-94678571D01*
X156085714Y-94821428D01*
X156157142Y-95107142D01*
X156228571Y-95250000D01*
X156300000Y-95321428D01*
X156442857Y-95392857D01*
X156585714Y-95392857D01*
X156728571Y-95321428D01*
X156800000Y-95250000D01*
X156871428Y-95107142D01*
X156871428Y-94750000D01*
X156800000Y-94535714D01*
X155371428Y-93892857D02*
X156871428Y-93892857D01*
X156871428Y-93321428D01*
X156800000Y-93178571D01*
X156728571Y-93107142D01*
X156585714Y-93035714D01*
X156371428Y-93035714D01*
X156228571Y-93107142D01*
X156157142Y-93178571D01*
X156085714Y-93321428D01*
X156085714Y-93892857D01*
X156871428Y-92535714D02*
X156871428Y-91607142D01*
X156300000Y-92107142D01*
X156300000Y-91892857D01*
X156228571Y-91750000D01*
X156157142Y-91678571D01*
X156014285Y-91607142D01*
X155657142Y-91607142D01*
X155514285Y-91678571D01*
X155442857Y-91750000D01*
X155371428Y-91892857D01*
X155371428Y-92321428D01*
X155442857Y-92464285D01*
X155514285Y-92535714D01*
X156728571Y-91035714D02*
X156800000Y-90964285D01*
X156871428Y-90821428D01*
X156871428Y-90464285D01*
X156800000Y-90321428D01*
X156728571Y-90250000D01*
X156585714Y-90178571D01*
X156442857Y-90178571D01*
X156228571Y-90250000D01*
X155371428Y-91107142D01*
X155371428Y-90178571D01*
X155371428Y-87750000D02*
X156157142Y-87750000D01*
X156300000Y-87821428D01*
X156371428Y-87964285D01*
X156371428Y-88250000D01*
X156300000Y-88392857D01*
X155442857Y-87750000D02*
X155371428Y-87892857D01*
X155371428Y-88250000D01*
X155442857Y-88392857D01*
X155585714Y-88464285D01*
X155728571Y-88464285D01*
X155871428Y-88392857D01*
X155942857Y-88250000D01*
X155942857Y-87892857D01*
X156014285Y-87750000D01*
X156371428Y-87035714D02*
X155371428Y-87035714D01*
X156228571Y-87035714D02*
X156300000Y-86964285D01*
X156371428Y-86821428D01*
X156371428Y-86607142D01*
X156300000Y-86464285D01*
X156157142Y-86392857D01*
X155371428Y-86392857D01*
X155371428Y-85035714D02*
X156871428Y-85035714D01*
X155442857Y-85035714D02*
X155371428Y-85178571D01*
X155371428Y-85464285D01*
X155442857Y-85607142D01*
X155514285Y-85678571D01*
X155657142Y-85750000D01*
X156085714Y-85750000D01*
X156228571Y-85678571D01*
X156300000Y-85607142D01*
X156371428Y-85464285D01*
X156371428Y-85178571D01*
X156300000Y-85035714D01*
X155800000Y-83250000D02*
X155800000Y-82535714D01*
X155371428Y-83392857D02*
X156871428Y-82892857D01*
X155371428Y-82392857D01*
X155371428Y-81892857D02*
X156371428Y-81892857D01*
X156085714Y-81892857D02*
X156228571Y-81821428D01*
X156300000Y-81750000D01*
X156371428Y-81607142D01*
X156371428Y-81464285D01*
X155371428Y-80321428D02*
X156871428Y-80321428D01*
X155442857Y-80321428D02*
X155371428Y-80464285D01*
X155371428Y-80750000D01*
X155442857Y-80892857D01*
X155514285Y-80964285D01*
X155657142Y-81035714D01*
X156085714Y-81035714D01*
X156228571Y-80964285D01*
X156300000Y-80892857D01*
X156371428Y-80750000D01*
X156371428Y-80464285D01*
X156300000Y-80321428D01*
X156371428Y-78964285D02*
X155371428Y-78964285D01*
X156371428Y-79607142D02*
X155585714Y-79607142D01*
X155442857Y-79535714D01*
X155371428Y-79392857D01*
X155371428Y-79178571D01*
X155442857Y-79035714D01*
X155514285Y-78964285D01*
X155371428Y-78250000D02*
X156371428Y-78250000D01*
X156871428Y-78250000D02*
X156800000Y-78321428D01*
X156728571Y-78250000D01*
X156800000Y-78178571D01*
X156871428Y-78250000D01*
X156728571Y-78250000D01*
X156371428Y-77535714D02*
X155371428Y-77535714D01*
X156228571Y-77535714D02*
X156300000Y-77464285D01*
X156371428Y-77321428D01*
X156371428Y-77107142D01*
X156300000Y-76964285D01*
X156157142Y-76892857D01*
X155371428Y-76892857D01*
X155371428Y-75964285D02*
X155442857Y-76107142D01*
X155514285Y-76178571D01*
X155657142Y-76250000D01*
X156085714Y-76250000D01*
X156228571Y-76178571D01*
X156300000Y-76107142D01*
X156371428Y-75964285D01*
X156371428Y-75750000D01*
X156300000Y-75607142D01*
X156228571Y-75535714D01*
X156085714Y-75464285D01*
X155657142Y-75464285D01*
X155514285Y-75535714D01*
X155442857Y-75607142D01*
X155371428Y-75750000D01*
X155371428Y-75964285D01*
X154800000Y-73250000D02*
X154871428Y-73321428D01*
X155085714Y-73464285D01*
X155228571Y-73535714D01*
X155442857Y-73607142D01*
X155800000Y-73678571D01*
X156085714Y-73678571D01*
X156442857Y-73607142D01*
X156657142Y-73535714D01*
X156800000Y-73464285D01*
X157014285Y-73321428D01*
X157085714Y-73250000D01*
X155800000Y-72750000D02*
X155800000Y-72035714D01*
X155371428Y-72892857D02*
X156871428Y-72392857D01*
X155371428Y-71892857D01*
X155371428Y-70535714D02*
X156085714Y-71035714D01*
X155371428Y-71392857D02*
X156871428Y-71392857D01*
X156871428Y-70821428D01*
X156800000Y-70678571D01*
X156728571Y-70607142D01*
X156585714Y-70535714D01*
X156371428Y-70535714D01*
X156228571Y-70607142D01*
X156157142Y-70678571D01*
X156085714Y-70821428D01*
X156085714Y-71392857D01*
X156371428Y-69250000D02*
X155371428Y-69250000D01*
X156942857Y-69607142D02*
X155871428Y-69964285D01*
X155871428Y-69035714D01*
X156228571Y-68250000D02*
X156300000Y-68392857D01*
X156371428Y-68464285D01*
X156514285Y-68535714D01*
X156585714Y-68535714D01*
X156728571Y-68464285D01*
X156800000Y-68392857D01*
X156871428Y-68250000D01*
X156871428Y-67964285D01*
X156800000Y-67821428D01*
X156728571Y-67750000D01*
X156585714Y-67678571D01*
X156514285Y-67678571D01*
X156371428Y-67750000D01*
X156300000Y-67821428D01*
X156228571Y-67964285D01*
X156228571Y-68250000D01*
X156157142Y-68392857D01*
X156085714Y-68464285D01*
X155942857Y-68535714D01*
X155657142Y-68535714D01*
X155514285Y-68464285D01*
X155442857Y-68392857D01*
X155371428Y-68250000D01*
X155371428Y-67964285D01*
X155442857Y-67821428D01*
X155514285Y-67750000D01*
X155657142Y-67678571D01*
X155942857Y-67678571D01*
X156085714Y-67750000D01*
X156157142Y-67821428D01*
X156228571Y-67964285D01*
X156228571Y-66821428D02*
X156300000Y-66964285D01*
X156371428Y-67035714D01*
X156514285Y-67107142D01*
X156585714Y-67107142D01*
X156728571Y-67035714D01*
X156800000Y-66964285D01*
X156871428Y-66821428D01*
X156871428Y-66535714D01*
X156800000Y-66392857D01*
X156728571Y-66321428D01*
X156585714Y-66250000D01*
X156514285Y-66250000D01*
X156371428Y-66321428D01*
X156300000Y-66392857D01*
X156228571Y-66535714D01*
X156228571Y-66821428D01*
X156157142Y-66964285D01*
X156085714Y-67035714D01*
X155942857Y-67107142D01*
X155657142Y-67107142D01*
X155514285Y-67035714D01*
X155442857Y-66964285D01*
X155371428Y-66821428D01*
X155371428Y-66535714D01*
X155442857Y-66392857D01*
X155514285Y-66321428D01*
X155657142Y-66250000D01*
X155942857Y-66250000D01*
X156085714Y-66321428D01*
X156157142Y-66392857D01*
X156228571Y-66535714D01*
X154800000Y-65750000D02*
X154871428Y-65678571D01*
X155085714Y-65535714D01*
X155228571Y-65464285D01*
X155442857Y-65392857D01*
X155800000Y-65321428D01*
X156085714Y-65321428D01*
X156442857Y-65392857D01*
X156657142Y-65464285D01*
X156800000Y-65535714D01*
X157014285Y-65678571D01*
X157085714Y-65750000D01*
X154250000Y-92285714D02*
X154321428Y-92428571D01*
X154321428Y-92642857D01*
X154250000Y-92857142D01*
X154107142Y-93000000D01*
X153964285Y-93071428D01*
X153678571Y-93142857D01*
X153464285Y-93142857D01*
X153178571Y-93071428D01*
X153035714Y-93000000D01*
X152892857Y-92857142D01*
X152821428Y-92642857D01*
X152821428Y-92500000D01*
X152892857Y-92285714D01*
X152964285Y-92214285D01*
X153464285Y-92214285D01*
X153464285Y-92500000D01*
X152821428Y-91571428D02*
X154321428Y-91571428D01*
X154321428Y-91000000D01*
X154250000Y-90857142D01*
X154178571Y-90785714D01*
X154035714Y-90714285D01*
X153821428Y-90714285D01*
X153678571Y-90785714D01*
X153607142Y-90857142D01*
X153535714Y-91000000D01*
X153535714Y-91571428D01*
X152821428Y-90071428D02*
X154321428Y-90071428D01*
X153607142Y-88857142D02*
X153535714Y-88642857D01*
X153464285Y-88571428D01*
X153321428Y-88500000D01*
X153107142Y-88500000D01*
X152964285Y-88571428D01*
X152892857Y-88642857D01*
X152821428Y-88785714D01*
X152821428Y-89357142D01*
X154321428Y-89357142D01*
X154321428Y-88857142D01*
X154250000Y-88714285D01*
X154178571Y-88642857D01*
X154035714Y-88571428D01*
X153892857Y-88571428D01*
X153750000Y-88642857D01*
X153678571Y-88714285D01*
X153607142Y-88857142D01*
X153607142Y-89357142D01*
X154392857Y-85642857D02*
X152464285Y-86928571D01*
X152821428Y-84000000D02*
X154321428Y-84000000D01*
X153607142Y-83285714D02*
X153607142Y-82785714D01*
X152821428Y-82571428D02*
X152821428Y-83285714D01*
X154321428Y-83285714D01*
X154321428Y-82571428D01*
X153607142Y-81928571D02*
X153607142Y-81428571D01*
X152821428Y-81214285D02*
X152821428Y-81928571D01*
X154321428Y-81928571D01*
X154321428Y-81214285D01*
X153607142Y-80571428D02*
X153607142Y-80071428D01*
X152821428Y-79857142D02*
X152821428Y-80571428D01*
X154321428Y-80571428D01*
X154321428Y-79857142D01*
X153821428Y-78571428D02*
X152821428Y-78571428D01*
X154392857Y-78928571D02*
X153321428Y-79285714D01*
X153321428Y-78357142D01*
X153678571Y-77571428D02*
X153750000Y-77714285D01*
X153821428Y-77785714D01*
X153964285Y-77857142D01*
X154035714Y-77857142D01*
X154178571Y-77785714D01*
X154250000Y-77714285D01*
X154321428Y-77571428D01*
X154321428Y-77285714D01*
X154250000Y-77142857D01*
X154178571Y-77071428D01*
X154035714Y-77000000D01*
X153964285Y-77000000D01*
X153821428Y-77071428D01*
X153750000Y-77142857D01*
X153678571Y-77285714D01*
X153678571Y-77571428D01*
X153607142Y-77714285D01*
X153535714Y-77785714D01*
X153392857Y-77857142D01*
X153107142Y-77857142D01*
X152964285Y-77785714D01*
X152892857Y-77714285D01*
X152821428Y-77571428D01*
X152821428Y-77285714D01*
X152892857Y-77142857D01*
X152964285Y-77071428D01*
X153107142Y-77000000D01*
X153392857Y-77000000D01*
X153535714Y-77071428D01*
X153607142Y-77142857D01*
X153678571Y-77285714D01*
X153678571Y-76142857D02*
X153750000Y-76285714D01*
X153821428Y-76357142D01*
X153964285Y-76428571D01*
X154035714Y-76428571D01*
X154178571Y-76357142D01*
X154250000Y-76285714D01*
X154321428Y-76142857D01*
X154321428Y-75857142D01*
X154250000Y-75714285D01*
X154178571Y-75642857D01*
X154035714Y-75571428D01*
X153964285Y-75571428D01*
X153821428Y-75642857D01*
X153750000Y-75714285D01*
X153678571Y-75857142D01*
X153678571Y-76142857D01*
X153607142Y-76285714D01*
X153535714Y-76357142D01*
X153392857Y-76428571D01*
X153107142Y-76428571D01*
X152964285Y-76357142D01*
X152892857Y-76285714D01*
X152821428Y-76142857D01*
X152821428Y-75857142D01*
X152892857Y-75714285D01*
X152964285Y-75642857D01*
X153107142Y-75571428D01*
X153392857Y-75571428D01*
X153535714Y-75642857D01*
X153607142Y-75714285D01*
X153678571Y-75857142D01*
X152821428Y-73785714D02*
X154321428Y-73785714D01*
X152821428Y-72928571D01*
X154321428Y-72928571D01*
X152821428Y-72000000D02*
X152892857Y-72142857D01*
X152964285Y-72214285D01*
X153107142Y-72285714D01*
X153535714Y-72285714D01*
X153678571Y-72214285D01*
X153750000Y-72142857D01*
X153821428Y-72000000D01*
X153821428Y-71785714D01*
X153750000Y-71642857D01*
X153678571Y-71571428D01*
X153535714Y-71500000D01*
X153107142Y-71500000D01*
X152964285Y-71571428D01*
X152892857Y-71642857D01*
X152821428Y-71785714D01*
X152821428Y-72000000D01*
X152821428Y-70214285D02*
X154321428Y-70214285D01*
X152892857Y-70214285D02*
X152821428Y-70357142D01*
X152821428Y-70642857D01*
X152892857Y-70785714D01*
X152964285Y-70857142D01*
X153107142Y-70928571D01*
X153535714Y-70928571D01*
X153678571Y-70857142D01*
X153750000Y-70785714D01*
X153821428Y-70642857D01*
X153821428Y-70357142D01*
X153750000Y-70214285D01*
X152892857Y-68928571D02*
X152821428Y-69071428D01*
X152821428Y-69357142D01*
X152892857Y-69500000D01*
X153035714Y-69571428D01*
X153607142Y-69571428D01*
X153750000Y-69500000D01*
X153821428Y-69357142D01*
X153821428Y-69071428D01*
X153750000Y-68928571D01*
X153607142Y-68857142D01*
X153464285Y-68857142D01*
X153321428Y-69571428D01*
X150271428Y-89250000D02*
X151771428Y-89250000D01*
X150271428Y-88392857D02*
X151128571Y-89035714D01*
X151771428Y-88392857D02*
X150914285Y-89250000D01*
X151271428Y-87750000D02*
X149985714Y-87750000D01*
X149842857Y-87821428D01*
X149771428Y-87964285D01*
X149771428Y-88035714D01*
X151771428Y-87750000D02*
X151700000Y-87821428D01*
X151628571Y-87750000D01*
X151700000Y-87678571D01*
X151771428Y-87750000D01*
X151628571Y-87750000D01*
X150271428Y-86392857D02*
X151057142Y-86392857D01*
X151200000Y-86464285D01*
X151271428Y-86607142D01*
X151271428Y-86892857D01*
X151200000Y-87035714D01*
X150342857Y-86392857D02*
X150271428Y-86535714D01*
X150271428Y-86892857D01*
X150342857Y-87035714D01*
X150485714Y-87107142D01*
X150628571Y-87107142D01*
X150771428Y-87035714D01*
X150842857Y-86892857D01*
X150842857Y-86535714D01*
X150914285Y-86392857D01*
X150342857Y-85107142D02*
X150271428Y-85250000D01*
X150271428Y-85535714D01*
X150342857Y-85678571D01*
X150485714Y-85750000D01*
X151057142Y-85750000D01*
X151200000Y-85678571D01*
X151271428Y-85535714D01*
X151271428Y-85250000D01*
X151200000Y-85107142D01*
X151057142Y-85035714D01*
X150914285Y-85035714D01*
X150771428Y-85750000D01*
X150271428Y-84392857D02*
X151271428Y-84392857D01*
X150985714Y-84392857D02*
X151128571Y-84321428D01*
X151200000Y-84250000D01*
X151271428Y-84107142D01*
X151271428Y-83964285D01*
X151271428Y-82821428D02*
X150057142Y-82821428D01*
X149914285Y-82892857D01*
X149842857Y-82964285D01*
X149771428Y-83107142D01*
X149771428Y-83321428D01*
X149842857Y-83464285D01*
X150342857Y-82821428D02*
X150271428Y-82964285D01*
X150271428Y-83250000D01*
X150342857Y-83392857D01*
X150414285Y-83464285D01*
X150557142Y-83535714D01*
X150985714Y-83535714D01*
X151128571Y-83464285D01*
X151200000Y-83392857D01*
X151271428Y-83250000D01*
X151271428Y-82964285D01*
X151200000Y-82821428D01*
X150271428Y-81464285D02*
X151057142Y-81464285D01*
X151200000Y-81535714D01*
X151271428Y-81678571D01*
X151271428Y-81964285D01*
X151200000Y-82107142D01*
X150342857Y-81464285D02*
X150271428Y-81607142D01*
X150271428Y-81964285D01*
X150342857Y-82107142D01*
X150485714Y-82178571D01*
X150628571Y-82178571D01*
X150771428Y-82107142D01*
X150842857Y-81964285D01*
X150842857Y-81607142D01*
X150914285Y-81464285D01*
X150271428Y-80107142D02*
X151057142Y-80107142D01*
X151200000Y-80178571D01*
X151271428Y-80321428D01*
X151271428Y-80607142D01*
X151200000Y-80750000D01*
X150342857Y-80107142D02*
X150271428Y-80250000D01*
X150271428Y-80607142D01*
X150342857Y-80750000D01*
X150485714Y-80821428D01*
X150628571Y-80821428D01*
X150771428Y-80750000D01*
X150842857Y-80607142D01*
X150842857Y-80250000D01*
X150914285Y-80107142D01*
X150271428Y-79392857D02*
X151271428Y-79392857D01*
X150985714Y-79392857D02*
X151128571Y-79321428D01*
X151200000Y-79250000D01*
X151271428Y-79107142D01*
X151271428Y-78964285D01*
X150271428Y-77821428D02*
X151771428Y-77821428D01*
X150342857Y-77821428D02*
X150271428Y-77964285D01*
X150271428Y-78250000D01*
X150342857Y-78392857D01*
X150414285Y-78464285D01*
X150557142Y-78535714D01*
X150985714Y-78535714D01*
X151128571Y-78464285D01*
X151200000Y-78392857D01*
X151271428Y-78250000D01*
X151271428Y-77964285D01*
X151200000Y-77821428D01*
X150271428Y-75250000D02*
X150271428Y-75964285D01*
X151771428Y-75964285D01*
X150271428Y-74107142D02*
X151057142Y-74107142D01*
X151200000Y-74178571D01*
X151271428Y-74321428D01*
X151271428Y-74607142D01*
X151200000Y-74750000D01*
X150342857Y-74107142D02*
X150271428Y-74250000D01*
X150271428Y-74607142D01*
X150342857Y-74750000D01*
X150485714Y-74821428D01*
X150628571Y-74821428D01*
X150771428Y-74750000D01*
X150842857Y-74607142D01*
X150842857Y-74250000D01*
X150914285Y-74107142D01*
X150271428Y-73392857D02*
X151771428Y-73392857D01*
X151200000Y-73392857D02*
X151271428Y-73250000D01*
X151271428Y-72964285D01*
X151200000Y-72821428D01*
X151128571Y-72750000D01*
X150985714Y-72678571D01*
X150557142Y-72678571D01*
X150414285Y-72750000D01*
X150342857Y-72821428D01*
X150271428Y-72964285D01*
X150271428Y-73250000D01*
X150342857Y-73392857D01*
M02*
