G04 #@! TF.GenerationSoftware,KiCad,Pcbnew,5.0.2+dfsg1-1*
G04 #@! TF.CreationDate,2020-04-16T16:35:58+12:00*
G04 #@! TF.ProjectId,Wireless488,57697265-6c65-4737-9334-38382e6b6963,rev?*
G04 #@! TF.SameCoordinates,Original*
G04 #@! TF.FileFunction,Soldermask,Top*
G04 #@! TF.FilePolarity,Negative*
%FSLAX46Y46*%
G04 Gerber Fmt 4.6, Leading zero omitted, Abs format (unit mm)*
G04 Created by KiCad (PCBNEW 5.0.2+dfsg1-1) date Thu 16 Apr 2020 16:35:58 NZST*
%MOMM*%
%LPD*%
G01*
G04 APERTURE LIST*
%ADD10C,0.100000*%
G04 APERTURE END LIST*
D10*
G36*
X159733643Y-106129781D02*
X159879415Y-106190162D01*
X160010611Y-106277824D01*
X160122176Y-106389389D01*
X160209838Y-106520585D01*
X160270219Y-106666357D01*
X160301000Y-106821107D01*
X160301000Y-106978893D01*
X160270219Y-107133643D01*
X160209838Y-107279415D01*
X160122176Y-107410611D01*
X160010611Y-107522176D01*
X159879415Y-107609838D01*
X159733643Y-107670219D01*
X159578893Y-107701000D01*
X159421107Y-107701000D01*
X159266357Y-107670219D01*
X159120585Y-107609838D01*
X158989389Y-107522176D01*
X158877824Y-107410611D01*
X158790162Y-107279415D01*
X158729781Y-107133643D01*
X158699000Y-106978893D01*
X158699000Y-106821107D01*
X158729781Y-106666357D01*
X158790162Y-106520585D01*
X158877824Y-106389389D01*
X158989389Y-106277824D01*
X159120585Y-106190162D01*
X159266357Y-106129781D01*
X159421107Y-106099000D01*
X159578893Y-106099000D01*
X159733643Y-106129781D01*
X159733643Y-106129781D01*
G37*
G36*
X134333643Y-106129781D02*
X134479415Y-106190162D01*
X134610611Y-106277824D01*
X134722176Y-106389389D01*
X134809838Y-106520585D01*
X134870219Y-106666357D01*
X134901000Y-106821107D01*
X134901000Y-106978893D01*
X134870219Y-107133643D01*
X134809838Y-107279415D01*
X134722176Y-107410611D01*
X134610611Y-107522176D01*
X134479415Y-107609838D01*
X134333643Y-107670219D01*
X134178893Y-107701000D01*
X134021107Y-107701000D01*
X133866357Y-107670219D01*
X133720585Y-107609838D01*
X133589389Y-107522176D01*
X133477824Y-107410611D01*
X133390162Y-107279415D01*
X133329781Y-107133643D01*
X133299000Y-106978893D01*
X133299000Y-106821107D01*
X133329781Y-106666357D01*
X133390162Y-106520585D01*
X133477824Y-106389389D01*
X133589389Y-106277824D01*
X133720585Y-106190162D01*
X133866357Y-106129781D01*
X134021107Y-106099000D01*
X134178893Y-106099000D01*
X134333643Y-106129781D01*
X134333643Y-106129781D01*
G37*
G36*
X112570442Y-105105518D02*
X112636627Y-105112037D01*
X112749853Y-105146384D01*
X112806467Y-105163557D01*
X112945087Y-105237652D01*
X112962991Y-105247222D01*
X112998729Y-105276552D01*
X113100186Y-105359814D01*
X113183448Y-105461271D01*
X113212778Y-105497009D01*
X113212779Y-105497011D01*
X113296443Y-105653533D01*
X113296443Y-105653534D01*
X113347963Y-105823373D01*
X113365359Y-106000000D01*
X113347963Y-106176627D01*
X113335542Y-106217572D01*
X113296443Y-106346467D01*
X113240568Y-106451000D01*
X113212778Y-106502991D01*
X113198339Y-106520585D01*
X113100186Y-106640186D01*
X112998729Y-106723448D01*
X112962991Y-106752778D01*
X112962989Y-106752779D01*
X112806467Y-106836443D01*
X112749853Y-106853616D01*
X112636627Y-106887963D01*
X112570443Y-106894481D01*
X112504260Y-106901000D01*
X112415740Y-106901000D01*
X112349557Y-106894481D01*
X112283373Y-106887963D01*
X112170147Y-106853616D01*
X112113533Y-106836443D01*
X111957011Y-106752779D01*
X111957009Y-106752778D01*
X111921271Y-106723448D01*
X111819814Y-106640186D01*
X111721661Y-106520585D01*
X111707222Y-106502991D01*
X111679432Y-106451000D01*
X111623557Y-106346467D01*
X111584458Y-106217572D01*
X111572037Y-106176627D01*
X111554641Y-106000000D01*
X111572037Y-105823373D01*
X111623557Y-105653534D01*
X111623557Y-105653533D01*
X111707221Y-105497011D01*
X111707222Y-105497009D01*
X111736552Y-105461271D01*
X111819814Y-105359814D01*
X111921271Y-105276552D01*
X111957009Y-105247222D01*
X111974913Y-105237652D01*
X112113533Y-105163557D01*
X112170147Y-105146384D01*
X112283373Y-105112037D01*
X112349557Y-105105519D01*
X112415740Y-105099000D01*
X112504260Y-105099000D01*
X112570442Y-105105518D01*
X112570442Y-105105518D01*
G37*
G36*
X115901000Y-106901000D02*
X114099000Y-106901000D01*
X114099000Y-105099000D01*
X115901000Y-105099000D01*
X115901000Y-106901000D01*
X115901000Y-106901000D01*
G37*
G36*
X101738252Y-102427818D02*
X101738254Y-102427819D01*
X101738255Y-102427819D01*
X102111513Y-102582427D01*
X102251439Y-102675923D01*
X102447439Y-102806886D01*
X102733114Y-103092561D01*
X102733116Y-103092564D01*
X102957573Y-103428487D01*
X103024383Y-103589782D01*
X103112182Y-103801748D01*
X103191000Y-104197993D01*
X103191000Y-104602007D01*
X103115380Y-104982176D01*
X103112181Y-104998255D01*
X102957573Y-105371513D01*
X102957572Y-105371514D01*
X102733114Y-105707439D01*
X102447439Y-105993114D01*
X102447436Y-105993116D01*
X102111513Y-106217573D01*
X101738255Y-106372181D01*
X101738254Y-106372181D01*
X101738252Y-106372182D01*
X101342007Y-106451000D01*
X100937993Y-106451000D01*
X100541748Y-106372182D01*
X100541746Y-106372181D01*
X100541745Y-106372181D01*
X100168487Y-106217573D01*
X99832564Y-105993116D01*
X99832561Y-105993114D01*
X99546886Y-105707439D01*
X99322428Y-105371514D01*
X99322427Y-105371513D01*
X99167819Y-104998255D01*
X99164621Y-104982176D01*
X99089000Y-104602007D01*
X99089000Y-104197993D01*
X99167818Y-103801748D01*
X99255617Y-103589782D01*
X99322427Y-103428487D01*
X99546884Y-103092564D01*
X99546886Y-103092561D01*
X99832561Y-102806886D01*
X100028561Y-102675923D01*
X100168487Y-102582427D01*
X100541745Y-102427819D01*
X100541746Y-102427819D01*
X100541748Y-102427818D01*
X100937993Y-102349000D01*
X101342007Y-102349000D01*
X101738252Y-102427818D01*
X101738252Y-102427818D01*
G37*
G36*
X159733643Y-103589781D02*
X159879415Y-103650162D01*
X160010611Y-103737824D01*
X160122176Y-103849389D01*
X160209838Y-103980585D01*
X160270219Y-104126357D01*
X160301000Y-104281107D01*
X160301000Y-104438893D01*
X160270219Y-104593643D01*
X160209838Y-104739415D01*
X160122176Y-104870611D01*
X160010611Y-104982176D01*
X159879415Y-105069838D01*
X159733643Y-105130219D01*
X159578893Y-105161000D01*
X159421107Y-105161000D01*
X159266357Y-105130219D01*
X159120585Y-105069838D01*
X158989389Y-104982176D01*
X158877824Y-104870611D01*
X158790162Y-104739415D01*
X158729781Y-104593643D01*
X158699000Y-104438893D01*
X158699000Y-104281107D01*
X158729781Y-104126357D01*
X158790162Y-103980585D01*
X158877824Y-103849389D01*
X158989389Y-103737824D01*
X159120585Y-103650162D01*
X159266357Y-103589781D01*
X159421107Y-103559000D01*
X159578893Y-103559000D01*
X159733643Y-103589781D01*
X159733643Y-103589781D01*
G37*
G36*
X134333643Y-103589781D02*
X134479415Y-103650162D01*
X134610611Y-103737824D01*
X134722176Y-103849389D01*
X134809838Y-103980585D01*
X134870219Y-104126357D01*
X134901000Y-104281107D01*
X134901000Y-104438893D01*
X134870219Y-104593643D01*
X134809838Y-104739415D01*
X134722176Y-104870611D01*
X134610611Y-104982176D01*
X134479415Y-105069838D01*
X134333643Y-105130219D01*
X134178893Y-105161000D01*
X134021107Y-105161000D01*
X133866357Y-105130219D01*
X133720585Y-105069838D01*
X133589389Y-104982176D01*
X133477824Y-104870611D01*
X133390162Y-104739415D01*
X133329781Y-104593643D01*
X133299000Y-104438893D01*
X133299000Y-104281107D01*
X133329781Y-104126357D01*
X133390162Y-103980585D01*
X133477824Y-103849389D01*
X133589389Y-103737824D01*
X133720585Y-103650162D01*
X133866357Y-103589781D01*
X134021107Y-103559000D01*
X134178893Y-103559000D01*
X134333643Y-103589781D01*
X134333643Y-103589781D01*
G37*
G36*
X130223605Y-102513348D02*
X130260146Y-102524433D01*
X130293821Y-102542432D01*
X130323342Y-102566660D01*
X130347570Y-102596181D01*
X130365569Y-102629856D01*
X130376654Y-102666397D01*
X130381001Y-102710539D01*
X130381001Y-104159463D01*
X130376654Y-104203605D01*
X130365569Y-104240146D01*
X130347570Y-104273821D01*
X130323342Y-104303342D01*
X130293821Y-104327570D01*
X130260146Y-104345569D01*
X130223605Y-104356654D01*
X130179463Y-104361001D01*
X129230539Y-104361001D01*
X129186397Y-104356654D01*
X129149856Y-104345569D01*
X129116181Y-104327570D01*
X129086660Y-104303342D01*
X129062432Y-104273821D01*
X129044433Y-104240146D01*
X129033348Y-104203605D01*
X129029001Y-104159463D01*
X129029001Y-102710539D01*
X129033348Y-102666397D01*
X129044433Y-102629856D01*
X129062432Y-102596181D01*
X129086660Y-102566660D01*
X129116181Y-102542432D01*
X129149856Y-102524433D01*
X129186397Y-102513348D01*
X129230539Y-102509001D01*
X130179463Y-102509001D01*
X130223605Y-102513348D01*
X130223605Y-102513348D01*
G37*
G36*
X127423605Y-102513348D02*
X127460146Y-102524433D01*
X127493821Y-102542432D01*
X127523342Y-102566660D01*
X127547570Y-102596181D01*
X127565569Y-102629856D01*
X127576654Y-102666397D01*
X127581001Y-102710539D01*
X127581001Y-104159463D01*
X127576654Y-104203605D01*
X127565569Y-104240146D01*
X127547570Y-104273821D01*
X127523342Y-104303342D01*
X127493821Y-104327570D01*
X127460146Y-104345569D01*
X127423605Y-104356654D01*
X127379463Y-104361001D01*
X126430539Y-104361001D01*
X126386397Y-104356654D01*
X126349856Y-104345569D01*
X126316181Y-104327570D01*
X126286660Y-104303342D01*
X126262432Y-104273821D01*
X126244433Y-104240146D01*
X126233348Y-104203605D01*
X126229001Y-104159463D01*
X126229001Y-102710539D01*
X126233348Y-102666397D01*
X126244433Y-102629856D01*
X126262432Y-102596181D01*
X126286660Y-102566660D01*
X126316181Y-102542432D01*
X126349856Y-102524433D01*
X126386397Y-102513348D01*
X126430539Y-102509001D01*
X127379463Y-102509001D01*
X127423605Y-102513348D01*
X127423605Y-102513348D01*
G37*
G36*
X159733643Y-101049781D02*
X159879415Y-101110162D01*
X160010611Y-101197824D01*
X160122176Y-101309389D01*
X160209838Y-101440585D01*
X160270219Y-101586357D01*
X160301000Y-101741107D01*
X160301000Y-101898893D01*
X160270219Y-102053643D01*
X160209838Y-102199415D01*
X160122176Y-102330611D01*
X160010611Y-102442176D01*
X159879415Y-102529838D01*
X159733643Y-102590219D01*
X159578893Y-102621000D01*
X159421107Y-102621000D01*
X159266357Y-102590219D01*
X159120585Y-102529838D01*
X158989389Y-102442176D01*
X158877824Y-102330611D01*
X158790162Y-102199415D01*
X158729781Y-102053643D01*
X158699000Y-101898893D01*
X158699000Y-101741107D01*
X158729781Y-101586357D01*
X158790162Y-101440585D01*
X158877824Y-101309389D01*
X158989389Y-101197824D01*
X159120585Y-101110162D01*
X159266357Y-101049781D01*
X159421107Y-101019000D01*
X159578893Y-101019000D01*
X159733643Y-101049781D01*
X159733643Y-101049781D01*
G37*
G36*
X134333643Y-101049781D02*
X134479415Y-101110162D01*
X134610611Y-101197824D01*
X134722176Y-101309389D01*
X134809838Y-101440585D01*
X134870219Y-101586357D01*
X134901000Y-101741107D01*
X134901000Y-101898893D01*
X134870219Y-102053643D01*
X134809838Y-102199415D01*
X134722176Y-102330611D01*
X134610611Y-102442176D01*
X134479415Y-102529838D01*
X134333643Y-102590219D01*
X134178893Y-102621000D01*
X134021107Y-102621000D01*
X133866357Y-102590219D01*
X133720585Y-102529838D01*
X133589389Y-102442176D01*
X133477824Y-102330611D01*
X133390162Y-102199415D01*
X133329781Y-102053643D01*
X133299000Y-101898893D01*
X133299000Y-101741107D01*
X133329781Y-101586357D01*
X133390162Y-101440585D01*
X133477824Y-101309389D01*
X133589389Y-101197824D01*
X133720585Y-101110162D01*
X133866357Y-101049781D01*
X134021107Y-101019000D01*
X134178893Y-101019000D01*
X134333643Y-101049781D01*
X134333643Y-101049781D01*
G37*
G36*
X127423605Y-100223348D02*
X127460146Y-100234433D01*
X127493821Y-100252432D01*
X127523342Y-100276660D01*
X127547570Y-100306181D01*
X127565569Y-100339856D01*
X127576654Y-100376397D01*
X127581001Y-100420539D01*
X127581001Y-101869463D01*
X127576654Y-101913605D01*
X127565569Y-101950146D01*
X127547570Y-101983821D01*
X127523342Y-102013342D01*
X127493821Y-102037570D01*
X127460146Y-102055569D01*
X127423605Y-102066654D01*
X127379463Y-102071001D01*
X126430539Y-102071001D01*
X126386397Y-102066654D01*
X126349856Y-102055569D01*
X126316181Y-102037570D01*
X126286660Y-102013342D01*
X126262432Y-101983821D01*
X126244433Y-101950146D01*
X126233348Y-101913605D01*
X126229001Y-101869463D01*
X126229001Y-100420539D01*
X126233348Y-100376397D01*
X126244433Y-100339856D01*
X126262432Y-100306181D01*
X126286660Y-100276660D01*
X126316181Y-100252432D01*
X126349856Y-100234433D01*
X126386397Y-100223348D01*
X126430539Y-100219001D01*
X127379463Y-100219001D01*
X127423605Y-100223348D01*
X127423605Y-100223348D01*
G37*
G36*
X130223605Y-100223348D02*
X130260146Y-100234433D01*
X130293821Y-100252432D01*
X130323342Y-100276660D01*
X130347570Y-100306181D01*
X130365569Y-100339856D01*
X130376654Y-100376397D01*
X130381001Y-100420539D01*
X130381001Y-101869463D01*
X130376654Y-101913605D01*
X130365569Y-101950146D01*
X130347570Y-101983821D01*
X130323342Y-102013342D01*
X130293821Y-102037570D01*
X130260146Y-102055569D01*
X130223605Y-102066654D01*
X130179463Y-102071001D01*
X129230539Y-102071001D01*
X129186397Y-102066654D01*
X129149856Y-102055569D01*
X129116181Y-102037570D01*
X129086660Y-102013342D01*
X129062432Y-101983821D01*
X129044433Y-101950146D01*
X129033348Y-101913605D01*
X129029001Y-101869463D01*
X129029001Y-100420539D01*
X129033348Y-100376397D01*
X129044433Y-100339856D01*
X129062432Y-100306181D01*
X129086660Y-100276660D01*
X129116181Y-100252432D01*
X129149856Y-100234433D01*
X129186397Y-100223348D01*
X129230539Y-100219001D01*
X130179463Y-100219001D01*
X130223605Y-100223348D01*
X130223605Y-100223348D01*
G37*
G36*
X134333643Y-98509781D02*
X134479415Y-98570162D01*
X134610611Y-98657824D01*
X134722176Y-98769389D01*
X134809838Y-98900585D01*
X134870219Y-99046357D01*
X134901000Y-99201107D01*
X134901000Y-99358893D01*
X134870219Y-99513643D01*
X134809838Y-99659415D01*
X134722176Y-99790611D01*
X134610611Y-99902176D01*
X134479415Y-99989838D01*
X134333643Y-100050219D01*
X134178893Y-100081000D01*
X134021107Y-100081000D01*
X133866357Y-100050219D01*
X133720585Y-99989838D01*
X133589389Y-99902176D01*
X133477824Y-99790611D01*
X133390162Y-99659415D01*
X133329781Y-99513643D01*
X133299000Y-99358893D01*
X133299000Y-99201107D01*
X133329781Y-99046357D01*
X133390162Y-98900585D01*
X133477824Y-98769389D01*
X133589389Y-98657824D01*
X133720585Y-98570162D01*
X133866357Y-98509781D01*
X134021107Y-98479000D01*
X134178893Y-98479000D01*
X134333643Y-98509781D01*
X134333643Y-98509781D01*
G37*
G36*
X159733643Y-98509781D02*
X159879415Y-98570162D01*
X160010611Y-98657824D01*
X160122176Y-98769389D01*
X160209838Y-98900585D01*
X160270219Y-99046357D01*
X160301000Y-99201107D01*
X160301000Y-99358893D01*
X160270219Y-99513643D01*
X160209838Y-99659415D01*
X160122176Y-99790611D01*
X160010611Y-99902176D01*
X159879415Y-99989838D01*
X159733643Y-100050219D01*
X159578893Y-100081000D01*
X159421107Y-100081000D01*
X159266357Y-100050219D01*
X159120585Y-99989838D01*
X158989389Y-99902176D01*
X158877824Y-99790611D01*
X158790162Y-99659415D01*
X158729781Y-99513643D01*
X158699000Y-99358893D01*
X158699000Y-99201107D01*
X158729781Y-99046357D01*
X158790162Y-98900585D01*
X158877824Y-98769389D01*
X158989389Y-98657824D01*
X159120585Y-98570162D01*
X159266357Y-98509781D01*
X159421107Y-98479000D01*
X159578893Y-98479000D01*
X159733643Y-98509781D01*
X159733643Y-98509781D01*
G37*
G36*
X134333643Y-95969781D02*
X134479415Y-96030162D01*
X134610611Y-96117824D01*
X134722176Y-96229389D01*
X134809838Y-96360585D01*
X134870219Y-96506357D01*
X134901000Y-96661107D01*
X134901000Y-96818893D01*
X134870219Y-96973643D01*
X134809838Y-97119415D01*
X134722176Y-97250611D01*
X134610611Y-97362176D01*
X134479415Y-97449838D01*
X134333643Y-97510219D01*
X134178893Y-97541000D01*
X134021107Y-97541000D01*
X133866357Y-97510219D01*
X133720585Y-97449838D01*
X133589389Y-97362176D01*
X133477824Y-97250611D01*
X133390162Y-97119415D01*
X133329781Y-96973643D01*
X133299000Y-96818893D01*
X133299000Y-96661107D01*
X133329781Y-96506357D01*
X133390162Y-96360585D01*
X133477824Y-96229389D01*
X133589389Y-96117824D01*
X133720585Y-96030162D01*
X133866357Y-95969781D01*
X134021107Y-95939000D01*
X134178893Y-95939000D01*
X134333643Y-95969781D01*
X134333643Y-95969781D01*
G37*
G36*
X159733643Y-95969781D02*
X159879415Y-96030162D01*
X160010611Y-96117824D01*
X160122176Y-96229389D01*
X160209838Y-96360585D01*
X160270219Y-96506357D01*
X160301000Y-96661107D01*
X160301000Y-96818893D01*
X160270219Y-96973643D01*
X160209838Y-97119415D01*
X160122176Y-97250611D01*
X160010611Y-97362176D01*
X159879415Y-97449838D01*
X159733643Y-97510219D01*
X159578893Y-97541000D01*
X159421107Y-97541000D01*
X159266357Y-97510219D01*
X159120585Y-97449838D01*
X158989389Y-97362176D01*
X158877824Y-97250611D01*
X158790162Y-97119415D01*
X158729781Y-96973643D01*
X158699000Y-96818893D01*
X158699000Y-96661107D01*
X158729781Y-96506357D01*
X158790162Y-96360585D01*
X158877824Y-96229389D01*
X158989389Y-96117824D01*
X159120585Y-96030162D01*
X159266357Y-95969781D01*
X159421107Y-95939000D01*
X159578893Y-95939000D01*
X159733643Y-95969781D01*
X159733643Y-95969781D01*
G37*
G36*
X127851000Y-95851000D02*
X126149000Y-95851000D01*
X126149000Y-94149000D01*
X127851000Y-94149000D01*
X127851000Y-95851000D01*
X127851000Y-95851000D01*
G37*
G36*
X111926821Y-94161313D02*
X111926824Y-94161314D01*
X111926825Y-94161314D01*
X112087239Y-94209975D01*
X112087241Y-94209976D01*
X112087244Y-94209977D01*
X112235078Y-94288995D01*
X112364659Y-94395341D01*
X112471005Y-94524922D01*
X112550023Y-94672756D01*
X112550024Y-94672759D01*
X112550025Y-94672761D01*
X112595349Y-94822176D01*
X112598687Y-94833179D01*
X112615117Y-95000000D01*
X112598687Y-95166821D01*
X112550023Y-95327244D01*
X112471005Y-95475078D01*
X112364659Y-95604659D01*
X112235078Y-95711005D01*
X112087244Y-95790023D01*
X112087241Y-95790024D01*
X112087239Y-95790025D01*
X111926825Y-95838686D01*
X111926824Y-95838686D01*
X111926821Y-95838687D01*
X111801804Y-95851000D01*
X111718196Y-95851000D01*
X111593179Y-95838687D01*
X111593176Y-95838686D01*
X111593175Y-95838686D01*
X111432761Y-95790025D01*
X111432759Y-95790024D01*
X111432756Y-95790023D01*
X111284922Y-95711005D01*
X111155341Y-95604659D01*
X111048995Y-95475078D01*
X110969977Y-95327244D01*
X110921313Y-95166821D01*
X110904883Y-95000000D01*
X110921313Y-94833179D01*
X110924651Y-94822176D01*
X110969975Y-94672761D01*
X110969976Y-94672759D01*
X110969977Y-94672756D01*
X111048995Y-94524922D01*
X111155341Y-94395341D01*
X111284922Y-94288995D01*
X111432756Y-94209977D01*
X111432759Y-94209976D01*
X111432761Y-94209975D01*
X111593175Y-94161314D01*
X111593176Y-94161314D01*
X111593179Y-94161313D01*
X111718196Y-94149000D01*
X111801804Y-94149000D01*
X111926821Y-94161313D01*
X111926821Y-94161313D01*
G37*
G36*
X159733643Y-93429781D02*
X159879415Y-93490162D01*
X160010611Y-93577824D01*
X160122176Y-93689389D01*
X160209838Y-93820585D01*
X160270219Y-93966357D01*
X160301000Y-94121107D01*
X160301000Y-94278893D01*
X160270219Y-94433643D01*
X160209838Y-94579415D01*
X160122176Y-94710611D01*
X160010611Y-94822176D01*
X159879415Y-94909838D01*
X159733643Y-94970219D01*
X159578893Y-95001000D01*
X159421107Y-95001000D01*
X159266357Y-94970219D01*
X159120585Y-94909838D01*
X158989389Y-94822176D01*
X158877824Y-94710611D01*
X158790162Y-94579415D01*
X158729781Y-94433643D01*
X158699000Y-94278893D01*
X158699000Y-94121107D01*
X158729781Y-93966357D01*
X158790162Y-93820585D01*
X158877824Y-93689389D01*
X158989389Y-93577824D01*
X159120585Y-93490162D01*
X159266357Y-93429781D01*
X159421107Y-93399000D01*
X159578893Y-93399000D01*
X159733643Y-93429781D01*
X159733643Y-93429781D01*
G37*
G36*
X134333643Y-93429781D02*
X134479415Y-93490162D01*
X134610611Y-93577824D01*
X134722176Y-93689389D01*
X134809838Y-93820585D01*
X134870219Y-93966357D01*
X134901000Y-94121107D01*
X134901000Y-94278893D01*
X134870219Y-94433643D01*
X134809838Y-94579415D01*
X134722176Y-94710611D01*
X134610611Y-94822176D01*
X134479415Y-94909838D01*
X134333643Y-94970219D01*
X134178893Y-95001000D01*
X134021107Y-95001000D01*
X133866357Y-94970219D01*
X133720585Y-94909838D01*
X133589389Y-94822176D01*
X133477824Y-94710611D01*
X133390162Y-94579415D01*
X133329781Y-94433643D01*
X133299000Y-94278893D01*
X133299000Y-94121107D01*
X133329781Y-93966357D01*
X133390162Y-93820585D01*
X133477824Y-93689389D01*
X133589389Y-93577824D01*
X133720585Y-93490162D01*
X133866357Y-93429781D01*
X134021107Y-93399000D01*
X134178893Y-93399000D01*
X134333643Y-93429781D01*
X134333643Y-93429781D01*
G37*
G36*
X99237142Y-92098242D02*
X99385102Y-92159530D01*
X99518258Y-92248502D01*
X99631498Y-92361742D01*
X99720470Y-92494898D01*
X99781758Y-92642858D01*
X99813000Y-92799925D01*
X99813000Y-92960075D01*
X99781758Y-93117142D01*
X99720470Y-93265102D01*
X99631498Y-93398258D01*
X99518258Y-93511498D01*
X99385102Y-93600470D01*
X99237142Y-93661758D01*
X99080075Y-93693000D01*
X98919925Y-93693000D01*
X98762858Y-93661758D01*
X98614898Y-93600470D01*
X98481742Y-93511498D01*
X98368502Y-93398258D01*
X98279530Y-93265102D01*
X98218242Y-93117142D01*
X98187000Y-92960075D01*
X98187000Y-92799925D01*
X98218242Y-92642858D01*
X98279530Y-92494898D01*
X98368502Y-92361742D01*
X98481742Y-92248502D01*
X98614898Y-92159530D01*
X98762858Y-92098242D01*
X98919925Y-92067000D01*
X99080075Y-92067000D01*
X99237142Y-92098242D01*
X99237142Y-92098242D01*
G37*
G36*
X103527142Y-92098242D02*
X103675102Y-92159530D01*
X103808258Y-92248502D01*
X103921498Y-92361742D01*
X104010470Y-92494898D01*
X104071758Y-92642858D01*
X104103000Y-92799925D01*
X104103000Y-92960075D01*
X104071758Y-93117142D01*
X104010470Y-93265102D01*
X103921498Y-93398258D01*
X103808258Y-93511498D01*
X103675102Y-93600470D01*
X103527142Y-93661758D01*
X103370075Y-93693000D01*
X103209925Y-93693000D01*
X103052858Y-93661758D01*
X102904898Y-93600470D01*
X102771742Y-93511498D01*
X102658502Y-93398258D01*
X102569530Y-93265102D01*
X102508242Y-93117142D01*
X102477000Y-92960075D01*
X102477000Y-92799925D01*
X102508242Y-92642858D01*
X102569530Y-92494898D01*
X102658502Y-92361742D01*
X102771742Y-92248502D01*
X102904898Y-92159530D01*
X103052858Y-92098242D01*
X103209925Y-92067000D01*
X103370075Y-92067000D01*
X103527142Y-92098242D01*
X103527142Y-92098242D01*
G37*
G36*
X111926821Y-91621313D02*
X111926824Y-91621314D01*
X111926825Y-91621314D01*
X112087239Y-91669975D01*
X112087241Y-91669976D01*
X112087244Y-91669977D01*
X112235078Y-91748995D01*
X112364659Y-91855341D01*
X112471005Y-91984922D01*
X112550023Y-92132756D01*
X112550024Y-92132759D01*
X112550025Y-92132761D01*
X112595349Y-92282176D01*
X112598687Y-92293179D01*
X112615117Y-92460000D01*
X112598687Y-92626821D01*
X112550023Y-92787244D01*
X112471005Y-92935078D01*
X112364659Y-93064659D01*
X112235078Y-93171005D01*
X112087244Y-93250023D01*
X112087241Y-93250024D01*
X112087239Y-93250025D01*
X111926825Y-93298686D01*
X111926824Y-93298686D01*
X111926821Y-93298687D01*
X111801804Y-93311000D01*
X111718196Y-93311000D01*
X111593179Y-93298687D01*
X111593176Y-93298686D01*
X111593175Y-93298686D01*
X111432761Y-93250025D01*
X111432759Y-93250024D01*
X111432756Y-93250023D01*
X111284922Y-93171005D01*
X111155341Y-93064659D01*
X111048995Y-92935078D01*
X110969977Y-92787244D01*
X110921313Y-92626821D01*
X110904883Y-92460000D01*
X110921313Y-92293179D01*
X110924651Y-92282176D01*
X110969975Y-92132761D01*
X110969976Y-92132759D01*
X110969977Y-92132756D01*
X111048995Y-91984922D01*
X111155341Y-91855341D01*
X111284922Y-91748995D01*
X111432756Y-91669977D01*
X111432759Y-91669976D01*
X111432761Y-91669975D01*
X111593175Y-91621314D01*
X111593176Y-91621314D01*
X111593179Y-91621313D01*
X111718196Y-91609000D01*
X111801804Y-91609000D01*
X111926821Y-91621313D01*
X111926821Y-91621313D01*
G37*
G36*
X127166821Y-91621313D02*
X127166824Y-91621314D01*
X127166825Y-91621314D01*
X127327239Y-91669975D01*
X127327241Y-91669976D01*
X127327244Y-91669977D01*
X127475078Y-91748995D01*
X127604659Y-91855341D01*
X127711005Y-91984922D01*
X127790023Y-92132756D01*
X127790024Y-92132759D01*
X127790025Y-92132761D01*
X127835349Y-92282176D01*
X127838687Y-92293179D01*
X127855117Y-92460000D01*
X127838687Y-92626821D01*
X127790023Y-92787244D01*
X127711005Y-92935078D01*
X127604659Y-93064659D01*
X127475078Y-93171005D01*
X127327244Y-93250023D01*
X127327241Y-93250024D01*
X127327239Y-93250025D01*
X127166825Y-93298686D01*
X127166824Y-93298686D01*
X127166821Y-93298687D01*
X127041804Y-93311000D01*
X126958196Y-93311000D01*
X126833179Y-93298687D01*
X126833176Y-93298686D01*
X126833175Y-93298686D01*
X126672761Y-93250025D01*
X126672759Y-93250024D01*
X126672756Y-93250023D01*
X126524922Y-93171005D01*
X126395341Y-93064659D01*
X126288995Y-92935078D01*
X126209977Y-92787244D01*
X126161313Y-92626821D01*
X126144883Y-92460000D01*
X126161313Y-92293179D01*
X126164651Y-92282176D01*
X126209975Y-92132761D01*
X126209976Y-92132759D01*
X126209977Y-92132756D01*
X126288995Y-91984922D01*
X126395341Y-91855341D01*
X126524922Y-91748995D01*
X126672756Y-91669977D01*
X126672759Y-91669976D01*
X126672761Y-91669975D01*
X126833175Y-91621314D01*
X126833176Y-91621314D01*
X126833179Y-91621313D01*
X126958196Y-91609000D01*
X127041804Y-91609000D01*
X127166821Y-91621313D01*
X127166821Y-91621313D01*
G37*
G36*
X134333643Y-90889781D02*
X134479415Y-90950162D01*
X134610611Y-91037824D01*
X134722176Y-91149389D01*
X134809838Y-91280585D01*
X134870219Y-91426357D01*
X134901000Y-91581107D01*
X134901000Y-91738893D01*
X134870219Y-91893643D01*
X134809838Y-92039415D01*
X134722176Y-92170611D01*
X134610611Y-92282176D01*
X134479415Y-92369838D01*
X134333643Y-92430219D01*
X134178893Y-92461000D01*
X134021107Y-92461000D01*
X133866357Y-92430219D01*
X133720585Y-92369838D01*
X133589389Y-92282176D01*
X133477824Y-92170611D01*
X133390162Y-92039415D01*
X133329781Y-91893643D01*
X133299000Y-91738893D01*
X133299000Y-91581107D01*
X133329781Y-91426357D01*
X133390162Y-91280585D01*
X133477824Y-91149389D01*
X133589389Y-91037824D01*
X133720585Y-90950162D01*
X133866357Y-90889781D01*
X134021107Y-90859000D01*
X134178893Y-90859000D01*
X134333643Y-90889781D01*
X134333643Y-90889781D01*
G37*
G36*
X159733643Y-90889781D02*
X159879415Y-90950162D01*
X160010611Y-91037824D01*
X160122176Y-91149389D01*
X160209838Y-91280585D01*
X160270219Y-91426357D01*
X160301000Y-91581107D01*
X160301000Y-91738893D01*
X160270219Y-91893643D01*
X160209838Y-92039415D01*
X160122176Y-92170611D01*
X160010611Y-92282176D01*
X159879415Y-92369838D01*
X159733643Y-92430219D01*
X159578893Y-92461000D01*
X159421107Y-92461000D01*
X159266357Y-92430219D01*
X159120585Y-92369838D01*
X158989389Y-92282176D01*
X158877824Y-92170611D01*
X158790162Y-92039415D01*
X158729781Y-91893643D01*
X158699000Y-91738893D01*
X158699000Y-91581107D01*
X158729781Y-91426357D01*
X158790162Y-91280585D01*
X158877824Y-91149389D01*
X158989389Y-91037824D01*
X159120585Y-90950162D01*
X159266357Y-90889781D01*
X159421107Y-90859000D01*
X159578893Y-90859000D01*
X159733643Y-90889781D01*
X159733643Y-90889781D01*
G37*
G36*
X99237142Y-89938242D02*
X99385102Y-89999530D01*
X99452130Y-90044317D01*
X99518257Y-90088501D01*
X99631499Y-90201743D01*
X99675683Y-90267870D01*
X99720470Y-90334898D01*
X99781758Y-90482858D01*
X99813000Y-90639925D01*
X99813000Y-90800075D01*
X99781758Y-90957142D01*
X99720470Y-91105102D01*
X99631498Y-91238258D01*
X99518258Y-91351498D01*
X99385102Y-91440470D01*
X99237142Y-91501758D01*
X99080075Y-91533000D01*
X98919925Y-91533000D01*
X98762858Y-91501758D01*
X98614898Y-91440470D01*
X98481742Y-91351498D01*
X98368502Y-91238258D01*
X98279530Y-91105102D01*
X98218242Y-90957142D01*
X98187000Y-90800075D01*
X98187000Y-90639925D01*
X98218242Y-90482858D01*
X98279530Y-90334898D01*
X98324317Y-90267870D01*
X98368501Y-90201743D01*
X98481743Y-90088501D01*
X98547870Y-90044317D01*
X98614898Y-89999530D01*
X98762858Y-89938242D01*
X98919925Y-89907000D01*
X99080075Y-89907000D01*
X99237142Y-89938242D01*
X99237142Y-89938242D01*
G37*
G36*
X103527142Y-89938242D02*
X103675102Y-89999530D01*
X103742130Y-90044317D01*
X103808257Y-90088501D01*
X103921499Y-90201743D01*
X103965683Y-90267870D01*
X104010470Y-90334898D01*
X104071758Y-90482858D01*
X104103000Y-90639925D01*
X104103000Y-90800075D01*
X104071758Y-90957142D01*
X104010470Y-91105102D01*
X103921498Y-91238258D01*
X103808258Y-91351498D01*
X103675102Y-91440470D01*
X103527142Y-91501758D01*
X103370075Y-91533000D01*
X103209925Y-91533000D01*
X103052858Y-91501758D01*
X102904898Y-91440470D01*
X102771742Y-91351498D01*
X102658502Y-91238258D01*
X102569530Y-91105102D01*
X102508242Y-90957142D01*
X102477000Y-90800075D01*
X102477000Y-90639925D01*
X102508242Y-90482858D01*
X102569530Y-90334898D01*
X102614317Y-90267870D01*
X102658501Y-90201743D01*
X102771743Y-90088501D01*
X102837870Y-90044317D01*
X102904898Y-89999530D01*
X103052858Y-89938242D01*
X103209925Y-89907000D01*
X103370075Y-89907000D01*
X103527142Y-89938242D01*
X103527142Y-89938242D01*
G37*
G36*
X111926821Y-89081313D02*
X111926824Y-89081314D01*
X111926825Y-89081314D01*
X112087239Y-89129975D01*
X112087241Y-89129976D01*
X112087244Y-89129977D01*
X112235078Y-89208995D01*
X112364659Y-89315341D01*
X112471005Y-89444922D01*
X112550023Y-89592756D01*
X112550024Y-89592759D01*
X112550025Y-89592761D01*
X112595349Y-89742176D01*
X112598687Y-89753179D01*
X112615117Y-89920000D01*
X112598687Y-90086821D01*
X112598686Y-90086824D01*
X112598686Y-90086825D01*
X112598178Y-90088501D01*
X112550023Y-90247244D01*
X112471005Y-90395078D01*
X112364659Y-90524659D01*
X112235078Y-90631005D01*
X112087244Y-90710023D01*
X112087241Y-90710024D01*
X112087239Y-90710025D01*
X111926825Y-90758686D01*
X111926824Y-90758686D01*
X111926821Y-90758687D01*
X111801804Y-90771000D01*
X111718196Y-90771000D01*
X111593179Y-90758687D01*
X111593176Y-90758686D01*
X111593175Y-90758686D01*
X111432761Y-90710025D01*
X111432759Y-90710024D01*
X111432756Y-90710023D01*
X111284922Y-90631005D01*
X111155341Y-90524659D01*
X111048995Y-90395078D01*
X110969977Y-90247244D01*
X110921823Y-90088501D01*
X110921314Y-90086825D01*
X110921314Y-90086824D01*
X110921313Y-90086821D01*
X110904883Y-89920000D01*
X110921313Y-89753179D01*
X110924651Y-89742176D01*
X110969975Y-89592761D01*
X110969976Y-89592759D01*
X110969977Y-89592756D01*
X111048995Y-89444922D01*
X111155341Y-89315341D01*
X111284922Y-89208995D01*
X111432756Y-89129977D01*
X111432759Y-89129976D01*
X111432761Y-89129975D01*
X111593175Y-89081314D01*
X111593176Y-89081314D01*
X111593179Y-89081313D01*
X111718196Y-89069000D01*
X111801804Y-89069000D01*
X111926821Y-89081313D01*
X111926821Y-89081313D01*
G37*
G36*
X127166821Y-89081313D02*
X127166824Y-89081314D01*
X127166825Y-89081314D01*
X127327239Y-89129975D01*
X127327241Y-89129976D01*
X127327244Y-89129977D01*
X127475078Y-89208995D01*
X127604659Y-89315341D01*
X127711005Y-89444922D01*
X127790023Y-89592756D01*
X127790024Y-89592759D01*
X127790025Y-89592761D01*
X127835349Y-89742176D01*
X127838687Y-89753179D01*
X127855117Y-89920000D01*
X127838687Y-90086821D01*
X127838686Y-90086824D01*
X127838686Y-90086825D01*
X127838178Y-90088501D01*
X127790023Y-90247244D01*
X127711005Y-90395078D01*
X127604659Y-90524659D01*
X127475078Y-90631005D01*
X127327244Y-90710023D01*
X127327241Y-90710024D01*
X127327239Y-90710025D01*
X127166825Y-90758686D01*
X127166824Y-90758686D01*
X127166821Y-90758687D01*
X127041804Y-90771000D01*
X126958196Y-90771000D01*
X126833179Y-90758687D01*
X126833176Y-90758686D01*
X126833175Y-90758686D01*
X126672761Y-90710025D01*
X126672759Y-90710024D01*
X126672756Y-90710023D01*
X126524922Y-90631005D01*
X126395341Y-90524659D01*
X126288995Y-90395078D01*
X126209977Y-90247244D01*
X126161823Y-90088501D01*
X126161314Y-90086825D01*
X126161314Y-90086824D01*
X126161313Y-90086821D01*
X126144883Y-89920000D01*
X126161313Y-89753179D01*
X126164651Y-89742176D01*
X126209975Y-89592761D01*
X126209976Y-89592759D01*
X126209977Y-89592756D01*
X126288995Y-89444922D01*
X126395341Y-89315341D01*
X126524922Y-89208995D01*
X126672756Y-89129977D01*
X126672759Y-89129976D01*
X126672761Y-89129975D01*
X126833175Y-89081314D01*
X126833176Y-89081314D01*
X126833179Y-89081313D01*
X126958196Y-89069000D01*
X127041804Y-89069000D01*
X127166821Y-89081313D01*
X127166821Y-89081313D01*
G37*
G36*
X134333643Y-88349781D02*
X134479415Y-88410162D01*
X134610611Y-88497824D01*
X134722176Y-88609389D01*
X134809838Y-88740585D01*
X134870219Y-88886357D01*
X134901000Y-89041107D01*
X134901000Y-89198893D01*
X134870219Y-89353643D01*
X134809838Y-89499415D01*
X134722176Y-89630611D01*
X134610611Y-89742176D01*
X134479415Y-89829838D01*
X134333643Y-89890219D01*
X134178893Y-89921000D01*
X134021107Y-89921000D01*
X133866357Y-89890219D01*
X133720585Y-89829838D01*
X133589389Y-89742176D01*
X133477824Y-89630611D01*
X133390162Y-89499415D01*
X133329781Y-89353643D01*
X133299000Y-89198893D01*
X133299000Y-89041107D01*
X133329781Y-88886357D01*
X133390162Y-88740585D01*
X133477824Y-88609389D01*
X133589389Y-88497824D01*
X133720585Y-88410162D01*
X133866357Y-88349781D01*
X134021107Y-88319000D01*
X134178893Y-88319000D01*
X134333643Y-88349781D01*
X134333643Y-88349781D01*
G37*
G36*
X159733643Y-88349781D02*
X159879415Y-88410162D01*
X160010611Y-88497824D01*
X160122176Y-88609389D01*
X160209838Y-88740585D01*
X160270219Y-88886357D01*
X160301000Y-89041107D01*
X160301000Y-89198893D01*
X160270219Y-89353643D01*
X160209838Y-89499415D01*
X160122176Y-89630611D01*
X160010611Y-89742176D01*
X159879415Y-89829838D01*
X159733643Y-89890219D01*
X159578893Y-89921000D01*
X159421107Y-89921000D01*
X159266357Y-89890219D01*
X159120585Y-89829838D01*
X158989389Y-89742176D01*
X158877824Y-89630611D01*
X158790162Y-89499415D01*
X158729781Y-89353643D01*
X158699000Y-89198893D01*
X158699000Y-89041107D01*
X158729781Y-88886357D01*
X158790162Y-88740585D01*
X158877824Y-88609389D01*
X158989389Y-88497824D01*
X159120585Y-88410162D01*
X159266357Y-88349781D01*
X159421107Y-88319000D01*
X159578893Y-88319000D01*
X159733643Y-88349781D01*
X159733643Y-88349781D01*
G37*
G36*
X103527142Y-87778242D02*
X103675102Y-87839530D01*
X103698371Y-87855078D01*
X103808257Y-87928501D01*
X103921499Y-88041743D01*
X103965683Y-88107870D01*
X104010470Y-88174898D01*
X104071758Y-88322858D01*
X104103000Y-88479925D01*
X104103000Y-88640075D01*
X104071758Y-88797142D01*
X104034803Y-88886357D01*
X104010471Y-88945100D01*
X103921499Y-89078257D01*
X103808257Y-89191499D01*
X103742130Y-89235683D01*
X103675102Y-89280470D01*
X103527142Y-89341758D01*
X103370075Y-89373000D01*
X103209925Y-89373000D01*
X103052858Y-89341758D01*
X102904898Y-89280470D01*
X102837870Y-89235683D01*
X102771743Y-89191499D01*
X102658501Y-89078257D01*
X102569529Y-88945100D01*
X102545197Y-88886357D01*
X102508242Y-88797142D01*
X102477000Y-88640075D01*
X102477000Y-88479925D01*
X102508242Y-88322858D01*
X102569530Y-88174898D01*
X102614317Y-88107870D01*
X102658501Y-88041743D01*
X102771743Y-87928501D01*
X102881629Y-87855078D01*
X102904898Y-87839530D01*
X103052858Y-87778242D01*
X103209925Y-87747000D01*
X103370075Y-87747000D01*
X103527142Y-87778242D01*
X103527142Y-87778242D01*
G37*
G36*
X99237142Y-87778242D02*
X99385102Y-87839530D01*
X99408371Y-87855078D01*
X99518257Y-87928501D01*
X99631499Y-88041743D01*
X99675683Y-88107870D01*
X99720470Y-88174898D01*
X99781758Y-88322858D01*
X99813000Y-88479925D01*
X99813000Y-88640075D01*
X99781758Y-88797142D01*
X99744803Y-88886357D01*
X99720471Y-88945100D01*
X99631499Y-89078257D01*
X99518257Y-89191499D01*
X99452130Y-89235683D01*
X99385102Y-89280470D01*
X99237142Y-89341758D01*
X99080075Y-89373000D01*
X98919925Y-89373000D01*
X98762858Y-89341758D01*
X98614898Y-89280470D01*
X98547870Y-89235683D01*
X98481743Y-89191499D01*
X98368501Y-89078257D01*
X98279529Y-88945100D01*
X98255197Y-88886357D01*
X98218242Y-88797142D01*
X98187000Y-88640075D01*
X98187000Y-88479925D01*
X98218242Y-88322858D01*
X98279530Y-88174898D01*
X98324317Y-88107870D01*
X98368501Y-88041743D01*
X98481743Y-87928501D01*
X98591629Y-87855078D01*
X98614898Y-87839530D01*
X98762858Y-87778242D01*
X98919925Y-87747000D01*
X99080075Y-87747000D01*
X99237142Y-87778242D01*
X99237142Y-87778242D01*
G37*
G36*
X127166821Y-86541313D02*
X127166824Y-86541314D01*
X127166825Y-86541314D01*
X127327239Y-86589975D01*
X127327241Y-86589976D01*
X127327244Y-86589977D01*
X127475078Y-86668995D01*
X127604659Y-86775341D01*
X127711005Y-86904922D01*
X127790023Y-87052756D01*
X127790024Y-87052759D01*
X127790025Y-87052761D01*
X127829155Y-87181757D01*
X127838687Y-87213179D01*
X127855117Y-87380000D01*
X127838687Y-87546821D01*
X127790023Y-87707244D01*
X127711005Y-87855078D01*
X127604659Y-87984659D01*
X127475078Y-88091005D01*
X127327244Y-88170023D01*
X127327241Y-88170024D01*
X127327239Y-88170025D01*
X127166825Y-88218686D01*
X127166824Y-88218686D01*
X127166821Y-88218687D01*
X127041804Y-88231000D01*
X126958196Y-88231000D01*
X126833179Y-88218687D01*
X126833176Y-88218686D01*
X126833175Y-88218686D01*
X126672761Y-88170025D01*
X126672759Y-88170024D01*
X126672756Y-88170023D01*
X126524922Y-88091005D01*
X126395341Y-87984659D01*
X126288995Y-87855078D01*
X126209977Y-87707244D01*
X126161313Y-87546821D01*
X126144883Y-87380000D01*
X126161313Y-87213179D01*
X126170845Y-87181757D01*
X126209975Y-87052761D01*
X126209976Y-87052759D01*
X126209977Y-87052756D01*
X126288995Y-86904922D01*
X126395341Y-86775341D01*
X126524922Y-86668995D01*
X126672756Y-86589977D01*
X126672759Y-86589976D01*
X126672761Y-86589975D01*
X126833175Y-86541314D01*
X126833176Y-86541314D01*
X126833179Y-86541313D01*
X126958196Y-86529000D01*
X127041804Y-86529000D01*
X127166821Y-86541313D01*
X127166821Y-86541313D01*
G37*
G36*
X111926821Y-86541313D02*
X111926824Y-86541314D01*
X111926825Y-86541314D01*
X112087239Y-86589975D01*
X112087241Y-86589976D01*
X112087244Y-86589977D01*
X112235078Y-86668995D01*
X112364659Y-86775341D01*
X112471005Y-86904922D01*
X112550023Y-87052756D01*
X112550024Y-87052759D01*
X112550025Y-87052761D01*
X112589155Y-87181757D01*
X112598687Y-87213179D01*
X112615117Y-87380000D01*
X112598687Y-87546821D01*
X112550023Y-87707244D01*
X112471005Y-87855078D01*
X112364659Y-87984659D01*
X112235078Y-88091005D01*
X112087244Y-88170023D01*
X112087241Y-88170024D01*
X112087239Y-88170025D01*
X111926825Y-88218686D01*
X111926824Y-88218686D01*
X111926821Y-88218687D01*
X111801804Y-88231000D01*
X111718196Y-88231000D01*
X111593179Y-88218687D01*
X111593176Y-88218686D01*
X111593175Y-88218686D01*
X111432761Y-88170025D01*
X111432759Y-88170024D01*
X111432756Y-88170023D01*
X111284922Y-88091005D01*
X111155341Y-87984659D01*
X111048995Y-87855078D01*
X110969977Y-87707244D01*
X110921313Y-87546821D01*
X110904883Y-87380000D01*
X110921313Y-87213179D01*
X110930845Y-87181757D01*
X110969975Y-87052761D01*
X110969976Y-87052759D01*
X110969977Y-87052756D01*
X111048995Y-86904922D01*
X111155341Y-86775341D01*
X111284922Y-86668995D01*
X111432756Y-86589977D01*
X111432759Y-86589976D01*
X111432761Y-86589975D01*
X111593175Y-86541314D01*
X111593176Y-86541314D01*
X111593179Y-86541313D01*
X111718196Y-86529000D01*
X111801804Y-86529000D01*
X111926821Y-86541313D01*
X111926821Y-86541313D01*
G37*
G36*
X159733643Y-85809781D02*
X159879415Y-85870162D01*
X160010611Y-85957824D01*
X160122176Y-86069389D01*
X160209838Y-86200585D01*
X160270219Y-86346357D01*
X160301000Y-86501107D01*
X160301000Y-86658893D01*
X160270219Y-86813643D01*
X160209838Y-86959415D01*
X160122176Y-87090611D01*
X160010611Y-87202176D01*
X159879415Y-87289838D01*
X159733643Y-87350219D01*
X159578893Y-87381000D01*
X159421107Y-87381000D01*
X159266357Y-87350219D01*
X159120585Y-87289838D01*
X158989389Y-87202176D01*
X158877824Y-87090611D01*
X158790162Y-86959415D01*
X158729781Y-86813643D01*
X158699000Y-86658893D01*
X158699000Y-86501107D01*
X158729781Y-86346357D01*
X158790162Y-86200585D01*
X158877824Y-86069389D01*
X158989389Y-85957824D01*
X159120585Y-85870162D01*
X159266357Y-85809781D01*
X159421107Y-85779000D01*
X159578893Y-85779000D01*
X159733643Y-85809781D01*
X159733643Y-85809781D01*
G37*
G36*
X134333643Y-85809781D02*
X134479415Y-85870162D01*
X134610611Y-85957824D01*
X134722176Y-86069389D01*
X134809838Y-86200585D01*
X134870219Y-86346357D01*
X134901000Y-86501107D01*
X134901000Y-86658893D01*
X134870219Y-86813643D01*
X134809838Y-86959415D01*
X134722176Y-87090611D01*
X134610611Y-87202176D01*
X134479415Y-87289838D01*
X134333643Y-87350219D01*
X134178893Y-87381000D01*
X134021107Y-87381000D01*
X133866357Y-87350219D01*
X133720585Y-87289838D01*
X133589389Y-87202176D01*
X133477824Y-87090611D01*
X133390162Y-86959415D01*
X133329781Y-86813643D01*
X133299000Y-86658893D01*
X133299000Y-86501107D01*
X133329781Y-86346357D01*
X133390162Y-86200585D01*
X133477824Y-86069389D01*
X133589389Y-85957824D01*
X133720585Y-85870162D01*
X133866357Y-85809781D01*
X134021107Y-85779000D01*
X134178893Y-85779000D01*
X134333643Y-85809781D01*
X134333643Y-85809781D01*
G37*
G36*
X99237142Y-85618242D02*
X99351583Y-85665646D01*
X99383065Y-85678686D01*
X99385102Y-85679530D01*
X99518258Y-85768502D01*
X99631498Y-85881742D01*
X99720470Y-86014898D01*
X99781758Y-86162858D01*
X99813000Y-86319925D01*
X99813000Y-86480075D01*
X99781758Y-86637142D01*
X99720470Y-86785102D01*
X99631498Y-86918258D01*
X99518258Y-87031498D01*
X99385102Y-87120470D01*
X99237142Y-87181758D01*
X99080075Y-87213000D01*
X98919925Y-87213000D01*
X98762858Y-87181758D01*
X98614898Y-87120470D01*
X98481742Y-87031498D01*
X98368502Y-86918258D01*
X98279530Y-86785102D01*
X98218242Y-86637142D01*
X98187000Y-86480075D01*
X98187000Y-86319925D01*
X98218242Y-86162858D01*
X98279530Y-86014898D01*
X98368502Y-85881742D01*
X98481742Y-85768502D01*
X98614898Y-85679530D01*
X98616936Y-85678686D01*
X98648417Y-85665646D01*
X98762858Y-85618242D01*
X98919925Y-85587000D01*
X99080075Y-85587000D01*
X99237142Y-85618242D01*
X99237142Y-85618242D01*
G37*
G36*
X103527142Y-85618242D02*
X103641583Y-85665646D01*
X103673065Y-85678686D01*
X103675102Y-85679530D01*
X103808258Y-85768502D01*
X103921498Y-85881742D01*
X104010470Y-86014898D01*
X104071758Y-86162858D01*
X104103000Y-86319925D01*
X104103000Y-86480075D01*
X104071758Y-86637142D01*
X104010470Y-86785102D01*
X103921498Y-86918258D01*
X103808258Y-87031498D01*
X103675102Y-87120470D01*
X103527142Y-87181758D01*
X103370075Y-87213000D01*
X103209925Y-87213000D01*
X103052858Y-87181758D01*
X102904898Y-87120470D01*
X102771742Y-87031498D01*
X102658502Y-86918258D01*
X102569530Y-86785102D01*
X102508242Y-86637142D01*
X102477000Y-86480075D01*
X102477000Y-86319925D01*
X102508242Y-86162858D01*
X102569530Y-86014898D01*
X102658502Y-85881742D01*
X102771742Y-85768502D01*
X102904898Y-85679530D01*
X102906936Y-85678686D01*
X102938417Y-85665646D01*
X103052858Y-85618242D01*
X103209925Y-85587000D01*
X103370075Y-85587000D01*
X103527142Y-85618242D01*
X103527142Y-85618242D01*
G37*
G36*
X111926821Y-84001313D02*
X111926824Y-84001314D01*
X111926825Y-84001314D01*
X112087239Y-84049975D01*
X112087241Y-84049976D01*
X112087244Y-84049977D01*
X112235078Y-84128995D01*
X112364659Y-84235341D01*
X112471005Y-84364922D01*
X112550023Y-84512756D01*
X112550024Y-84512759D01*
X112550025Y-84512761D01*
X112584103Y-84625102D01*
X112598687Y-84673179D01*
X112615117Y-84840000D01*
X112598687Y-85006821D01*
X112550023Y-85167244D01*
X112471005Y-85315078D01*
X112364659Y-85444659D01*
X112235078Y-85551005D01*
X112087244Y-85630023D01*
X112087241Y-85630024D01*
X112087239Y-85630025D01*
X111926825Y-85678686D01*
X111926824Y-85678686D01*
X111926821Y-85678687D01*
X111801804Y-85691000D01*
X111718196Y-85691000D01*
X111593179Y-85678687D01*
X111593176Y-85678686D01*
X111593175Y-85678686D01*
X111432761Y-85630025D01*
X111432759Y-85630024D01*
X111432756Y-85630023D01*
X111284922Y-85551005D01*
X111155341Y-85444659D01*
X111048995Y-85315078D01*
X110969977Y-85167244D01*
X110921313Y-85006821D01*
X110904883Y-84840000D01*
X110921313Y-84673179D01*
X110935897Y-84625102D01*
X110969975Y-84512761D01*
X110969976Y-84512759D01*
X110969977Y-84512756D01*
X111048995Y-84364922D01*
X111155341Y-84235341D01*
X111284922Y-84128995D01*
X111432756Y-84049977D01*
X111432759Y-84049976D01*
X111432761Y-84049975D01*
X111593175Y-84001314D01*
X111593176Y-84001314D01*
X111593179Y-84001313D01*
X111718196Y-83989000D01*
X111801804Y-83989000D01*
X111926821Y-84001313D01*
X111926821Y-84001313D01*
G37*
G36*
X127166821Y-84001313D02*
X127166824Y-84001314D01*
X127166825Y-84001314D01*
X127327239Y-84049975D01*
X127327241Y-84049976D01*
X127327244Y-84049977D01*
X127475078Y-84128995D01*
X127604659Y-84235341D01*
X127711005Y-84364922D01*
X127790023Y-84512756D01*
X127790024Y-84512759D01*
X127790025Y-84512761D01*
X127824103Y-84625102D01*
X127838687Y-84673179D01*
X127855117Y-84840000D01*
X127838687Y-85006821D01*
X127790023Y-85167244D01*
X127711005Y-85315078D01*
X127604659Y-85444659D01*
X127475078Y-85551005D01*
X127327244Y-85630023D01*
X127327241Y-85630024D01*
X127327239Y-85630025D01*
X127166825Y-85678686D01*
X127166824Y-85678686D01*
X127166821Y-85678687D01*
X127041804Y-85691000D01*
X126958196Y-85691000D01*
X126833179Y-85678687D01*
X126833176Y-85678686D01*
X126833175Y-85678686D01*
X126672761Y-85630025D01*
X126672759Y-85630024D01*
X126672756Y-85630023D01*
X126524922Y-85551005D01*
X126395341Y-85444659D01*
X126288995Y-85315078D01*
X126209977Y-85167244D01*
X126161313Y-85006821D01*
X126144883Y-84840000D01*
X126161313Y-84673179D01*
X126175897Y-84625102D01*
X126209975Y-84512761D01*
X126209976Y-84512759D01*
X126209977Y-84512756D01*
X126288995Y-84364922D01*
X126395341Y-84235341D01*
X126524922Y-84128995D01*
X126672756Y-84049977D01*
X126672759Y-84049976D01*
X126672761Y-84049975D01*
X126833175Y-84001314D01*
X126833176Y-84001314D01*
X126833179Y-84001313D01*
X126958196Y-83989000D01*
X127041804Y-83989000D01*
X127166821Y-84001313D01*
X127166821Y-84001313D01*
G37*
G36*
X99237142Y-83458242D02*
X99385102Y-83519530D01*
X99518258Y-83608502D01*
X99631498Y-83721742D01*
X99720470Y-83854898D01*
X99781758Y-84002858D01*
X99813000Y-84159925D01*
X99813000Y-84320075D01*
X99781758Y-84477142D01*
X99720470Y-84625102D01*
X99631498Y-84758258D01*
X99518258Y-84871498D01*
X99385102Y-84960470D01*
X99237142Y-85021758D01*
X99080075Y-85053000D01*
X98919925Y-85053000D01*
X98762858Y-85021758D01*
X98614898Y-84960470D01*
X98481742Y-84871498D01*
X98368502Y-84758258D01*
X98279530Y-84625102D01*
X98218242Y-84477142D01*
X98187000Y-84320075D01*
X98187000Y-84159925D01*
X98218242Y-84002858D01*
X98279530Y-83854898D01*
X98368502Y-83721742D01*
X98481742Y-83608502D01*
X98614898Y-83519530D01*
X98762858Y-83458242D01*
X98919925Y-83427000D01*
X99080075Y-83427000D01*
X99237142Y-83458242D01*
X99237142Y-83458242D01*
G37*
G36*
X103527142Y-83458242D02*
X103675102Y-83519530D01*
X103808258Y-83608502D01*
X103921498Y-83721742D01*
X104010470Y-83854898D01*
X104071758Y-84002858D01*
X104103000Y-84159925D01*
X104103000Y-84320075D01*
X104071758Y-84477142D01*
X104010470Y-84625102D01*
X103921498Y-84758258D01*
X103808258Y-84871498D01*
X103675102Y-84960470D01*
X103527142Y-85021758D01*
X103370075Y-85053000D01*
X103209925Y-85053000D01*
X103052858Y-85021758D01*
X102904898Y-84960470D01*
X102771742Y-84871498D01*
X102658502Y-84758258D01*
X102569530Y-84625102D01*
X102508242Y-84477142D01*
X102477000Y-84320075D01*
X102477000Y-84159925D01*
X102508242Y-84002858D01*
X102569530Y-83854898D01*
X102658502Y-83721742D01*
X102771742Y-83608502D01*
X102904898Y-83519530D01*
X103052858Y-83458242D01*
X103209925Y-83427000D01*
X103370075Y-83427000D01*
X103527142Y-83458242D01*
X103527142Y-83458242D01*
G37*
G36*
X134333643Y-83269781D02*
X134479415Y-83330162D01*
X134610611Y-83417824D01*
X134722176Y-83529389D01*
X134809838Y-83660585D01*
X134870219Y-83806357D01*
X134901000Y-83961107D01*
X134901000Y-84118893D01*
X134870219Y-84273643D01*
X134809838Y-84419415D01*
X134722176Y-84550611D01*
X134610611Y-84662176D01*
X134479415Y-84749838D01*
X134333643Y-84810219D01*
X134178893Y-84841000D01*
X134021107Y-84841000D01*
X133866357Y-84810219D01*
X133720585Y-84749838D01*
X133589389Y-84662176D01*
X133477824Y-84550611D01*
X133390162Y-84419415D01*
X133329781Y-84273643D01*
X133299000Y-84118893D01*
X133299000Y-83961107D01*
X133329781Y-83806357D01*
X133390162Y-83660585D01*
X133477824Y-83529389D01*
X133589389Y-83417824D01*
X133720585Y-83330162D01*
X133866357Y-83269781D01*
X134021107Y-83239000D01*
X134178893Y-83239000D01*
X134333643Y-83269781D01*
X134333643Y-83269781D01*
G37*
G36*
X159733643Y-83269781D02*
X159879415Y-83330162D01*
X160010611Y-83417824D01*
X160122176Y-83529389D01*
X160209838Y-83660585D01*
X160270219Y-83806357D01*
X160301000Y-83961107D01*
X160301000Y-84118893D01*
X160270219Y-84273643D01*
X160209838Y-84419415D01*
X160122176Y-84550611D01*
X160010611Y-84662176D01*
X159879415Y-84749838D01*
X159733643Y-84810219D01*
X159578893Y-84841000D01*
X159421107Y-84841000D01*
X159266357Y-84810219D01*
X159120585Y-84749838D01*
X158989389Y-84662176D01*
X158877824Y-84550611D01*
X158790162Y-84419415D01*
X158729781Y-84273643D01*
X158699000Y-84118893D01*
X158699000Y-83961107D01*
X158729781Y-83806357D01*
X158790162Y-83660585D01*
X158877824Y-83529389D01*
X158989389Y-83417824D01*
X159120585Y-83330162D01*
X159266357Y-83269781D01*
X159421107Y-83239000D01*
X159578893Y-83239000D01*
X159733643Y-83269781D01*
X159733643Y-83269781D01*
G37*
G36*
X127166821Y-81461313D02*
X127166824Y-81461314D01*
X127166825Y-81461314D01*
X127327239Y-81509975D01*
X127327241Y-81509976D01*
X127327244Y-81509977D01*
X127475078Y-81588995D01*
X127604659Y-81695341D01*
X127711005Y-81824922D01*
X127790023Y-81972756D01*
X127790024Y-81972759D01*
X127790025Y-81972761D01*
X127835349Y-82122176D01*
X127838687Y-82133179D01*
X127855117Y-82300000D01*
X127838687Y-82466821D01*
X127838686Y-82466824D01*
X127838686Y-82466825D01*
X127798817Y-82598257D01*
X127790023Y-82627244D01*
X127711005Y-82775078D01*
X127604659Y-82904659D01*
X127475078Y-83011005D01*
X127327244Y-83090023D01*
X127327241Y-83090024D01*
X127327239Y-83090025D01*
X127166825Y-83138686D01*
X127166824Y-83138686D01*
X127166821Y-83138687D01*
X127041804Y-83151000D01*
X126958196Y-83151000D01*
X126833179Y-83138687D01*
X126833176Y-83138686D01*
X126833175Y-83138686D01*
X126672761Y-83090025D01*
X126672759Y-83090024D01*
X126672756Y-83090023D01*
X126524922Y-83011005D01*
X126395341Y-82904659D01*
X126288995Y-82775078D01*
X126209977Y-82627244D01*
X126201184Y-82598257D01*
X126161314Y-82466825D01*
X126161314Y-82466824D01*
X126161313Y-82466821D01*
X126144883Y-82300000D01*
X126161313Y-82133179D01*
X126164651Y-82122176D01*
X126209975Y-81972761D01*
X126209976Y-81972759D01*
X126209977Y-81972756D01*
X126288995Y-81824922D01*
X126395341Y-81695341D01*
X126524922Y-81588995D01*
X126672756Y-81509977D01*
X126672759Y-81509976D01*
X126672761Y-81509975D01*
X126833175Y-81461314D01*
X126833176Y-81461314D01*
X126833179Y-81461313D01*
X126958196Y-81449000D01*
X127041804Y-81449000D01*
X127166821Y-81461313D01*
X127166821Y-81461313D01*
G37*
G36*
X111926821Y-81461313D02*
X111926824Y-81461314D01*
X111926825Y-81461314D01*
X112087239Y-81509975D01*
X112087241Y-81509976D01*
X112087244Y-81509977D01*
X112235078Y-81588995D01*
X112364659Y-81695341D01*
X112471005Y-81824922D01*
X112550023Y-81972756D01*
X112550024Y-81972759D01*
X112550025Y-81972761D01*
X112595349Y-82122176D01*
X112598687Y-82133179D01*
X112615117Y-82300000D01*
X112598687Y-82466821D01*
X112598686Y-82466824D01*
X112598686Y-82466825D01*
X112558817Y-82598257D01*
X112550023Y-82627244D01*
X112471005Y-82775078D01*
X112364659Y-82904659D01*
X112235078Y-83011005D01*
X112087244Y-83090023D01*
X112087241Y-83090024D01*
X112087239Y-83090025D01*
X111926825Y-83138686D01*
X111926824Y-83138686D01*
X111926821Y-83138687D01*
X111801804Y-83151000D01*
X111718196Y-83151000D01*
X111593179Y-83138687D01*
X111593176Y-83138686D01*
X111593175Y-83138686D01*
X111432761Y-83090025D01*
X111432759Y-83090024D01*
X111432756Y-83090023D01*
X111284922Y-83011005D01*
X111155341Y-82904659D01*
X111048995Y-82775078D01*
X110969977Y-82627244D01*
X110961184Y-82598257D01*
X110921314Y-82466825D01*
X110921314Y-82466824D01*
X110921313Y-82466821D01*
X110904883Y-82300000D01*
X110921313Y-82133179D01*
X110924651Y-82122176D01*
X110969975Y-81972761D01*
X110969976Y-81972759D01*
X110969977Y-81972756D01*
X111048995Y-81824922D01*
X111155341Y-81695341D01*
X111284922Y-81588995D01*
X111432756Y-81509977D01*
X111432759Y-81509976D01*
X111432761Y-81509975D01*
X111593175Y-81461314D01*
X111593176Y-81461314D01*
X111593179Y-81461313D01*
X111718196Y-81449000D01*
X111801804Y-81449000D01*
X111926821Y-81461313D01*
X111926821Y-81461313D01*
G37*
G36*
X99237142Y-81298242D02*
X99385102Y-81359530D01*
X99452130Y-81404317D01*
X99518257Y-81448501D01*
X99631499Y-81561743D01*
X99720471Y-81694900D01*
X99734354Y-81728417D01*
X99781758Y-81842858D01*
X99813000Y-81999925D01*
X99813000Y-82160075D01*
X99781758Y-82317142D01*
X99720470Y-82465102D01*
X99631498Y-82598258D01*
X99518258Y-82711498D01*
X99385102Y-82800470D01*
X99237142Y-82861758D01*
X99080075Y-82893000D01*
X98919925Y-82893000D01*
X98762858Y-82861758D01*
X98614898Y-82800470D01*
X98481742Y-82711498D01*
X98368502Y-82598258D01*
X98279530Y-82465102D01*
X98218242Y-82317142D01*
X98187000Y-82160075D01*
X98187000Y-81999925D01*
X98218242Y-81842858D01*
X98265646Y-81728417D01*
X98279529Y-81694900D01*
X98368501Y-81561743D01*
X98481743Y-81448501D01*
X98547870Y-81404317D01*
X98614898Y-81359530D01*
X98762858Y-81298242D01*
X98919925Y-81267000D01*
X99080075Y-81267000D01*
X99237142Y-81298242D01*
X99237142Y-81298242D01*
G37*
G36*
X103527142Y-81298242D02*
X103675102Y-81359530D01*
X103742130Y-81404317D01*
X103808257Y-81448501D01*
X103921499Y-81561743D01*
X104010471Y-81694900D01*
X104024354Y-81728417D01*
X104071758Y-81842858D01*
X104103000Y-81999925D01*
X104103000Y-82160075D01*
X104071758Y-82317142D01*
X104010470Y-82465102D01*
X103921498Y-82598258D01*
X103808258Y-82711498D01*
X103675102Y-82800470D01*
X103527142Y-82861758D01*
X103370075Y-82893000D01*
X103209925Y-82893000D01*
X103052858Y-82861758D01*
X102904898Y-82800470D01*
X102771742Y-82711498D01*
X102658502Y-82598258D01*
X102569530Y-82465102D01*
X102508242Y-82317142D01*
X102477000Y-82160075D01*
X102477000Y-81999925D01*
X102508242Y-81842858D01*
X102555646Y-81728417D01*
X102569529Y-81694900D01*
X102658501Y-81561743D01*
X102771743Y-81448501D01*
X102837870Y-81404317D01*
X102904898Y-81359530D01*
X103052858Y-81298242D01*
X103209925Y-81267000D01*
X103370075Y-81267000D01*
X103527142Y-81298242D01*
X103527142Y-81298242D01*
G37*
G36*
X134333643Y-80729781D02*
X134479415Y-80790162D01*
X134610611Y-80877824D01*
X134722176Y-80989389D01*
X134809838Y-81120585D01*
X134870219Y-81266357D01*
X134901000Y-81421107D01*
X134901000Y-81578893D01*
X134870219Y-81733643D01*
X134809838Y-81879415D01*
X134722176Y-82010611D01*
X134610611Y-82122176D01*
X134479415Y-82209838D01*
X134333643Y-82270219D01*
X134178893Y-82301000D01*
X134021107Y-82301000D01*
X133866357Y-82270219D01*
X133720585Y-82209838D01*
X133589389Y-82122176D01*
X133477824Y-82010611D01*
X133390162Y-81879415D01*
X133329781Y-81733643D01*
X133299000Y-81578893D01*
X133299000Y-81421107D01*
X133329781Y-81266357D01*
X133390162Y-81120585D01*
X133477824Y-80989389D01*
X133589389Y-80877824D01*
X133720585Y-80790162D01*
X133866357Y-80729781D01*
X134021107Y-80699000D01*
X134178893Y-80699000D01*
X134333643Y-80729781D01*
X134333643Y-80729781D01*
G37*
G36*
X159733643Y-80729781D02*
X159879415Y-80790162D01*
X160010611Y-80877824D01*
X160122176Y-80989389D01*
X160209838Y-81120585D01*
X160270219Y-81266357D01*
X160301000Y-81421107D01*
X160301000Y-81578893D01*
X160270219Y-81733643D01*
X160209838Y-81879415D01*
X160122176Y-82010611D01*
X160010611Y-82122176D01*
X159879415Y-82209838D01*
X159733643Y-82270219D01*
X159578893Y-82301000D01*
X159421107Y-82301000D01*
X159266357Y-82270219D01*
X159120585Y-82209838D01*
X158989389Y-82122176D01*
X158877824Y-82010611D01*
X158790162Y-81879415D01*
X158729781Y-81733643D01*
X158699000Y-81578893D01*
X158699000Y-81421107D01*
X158729781Y-81266357D01*
X158790162Y-81120585D01*
X158877824Y-80989389D01*
X158989389Y-80877824D01*
X159120585Y-80790162D01*
X159266357Y-80729781D01*
X159421107Y-80699000D01*
X159578893Y-80699000D01*
X159733643Y-80729781D01*
X159733643Y-80729781D01*
G37*
G36*
X99237142Y-79138242D02*
X99385102Y-79199530D01*
X99452130Y-79244317D01*
X99512901Y-79284922D01*
X99518258Y-79288502D01*
X99631498Y-79401742D01*
X99720470Y-79534898D01*
X99781758Y-79682858D01*
X99813000Y-79839925D01*
X99813000Y-80000075D01*
X99781758Y-80157142D01*
X99720470Y-80305102D01*
X99631498Y-80438258D01*
X99518258Y-80551498D01*
X99385102Y-80640470D01*
X99237142Y-80701758D01*
X99080075Y-80733000D01*
X98919925Y-80733000D01*
X98762858Y-80701758D01*
X98614898Y-80640470D01*
X98481742Y-80551498D01*
X98368502Y-80438258D01*
X98279530Y-80305102D01*
X98218242Y-80157142D01*
X98187000Y-80000075D01*
X98187000Y-79839925D01*
X98218242Y-79682858D01*
X98279530Y-79534898D01*
X98368502Y-79401742D01*
X98481742Y-79288502D01*
X98487100Y-79284922D01*
X98547870Y-79244317D01*
X98614898Y-79199530D01*
X98762858Y-79138242D01*
X98919925Y-79107000D01*
X99080075Y-79107000D01*
X99237142Y-79138242D01*
X99237142Y-79138242D01*
G37*
G36*
X103527142Y-79138242D02*
X103675102Y-79199530D01*
X103742130Y-79244317D01*
X103802901Y-79284922D01*
X103808258Y-79288502D01*
X103921498Y-79401742D01*
X104010470Y-79534898D01*
X104071758Y-79682858D01*
X104103000Y-79839925D01*
X104103000Y-80000075D01*
X104071758Y-80157142D01*
X104010470Y-80305102D01*
X103921498Y-80438258D01*
X103808258Y-80551498D01*
X103675102Y-80640470D01*
X103527142Y-80701758D01*
X103370075Y-80733000D01*
X103209925Y-80733000D01*
X103052858Y-80701758D01*
X102904898Y-80640470D01*
X102771742Y-80551498D01*
X102658502Y-80438258D01*
X102569530Y-80305102D01*
X102508242Y-80157142D01*
X102477000Y-80000075D01*
X102477000Y-79839925D01*
X102508242Y-79682858D01*
X102569530Y-79534898D01*
X102658502Y-79401742D01*
X102771742Y-79288502D01*
X102777100Y-79284922D01*
X102837870Y-79244317D01*
X102904898Y-79199530D01*
X103052858Y-79138242D01*
X103209925Y-79107000D01*
X103370075Y-79107000D01*
X103527142Y-79138242D01*
X103527142Y-79138242D01*
G37*
G36*
X111926821Y-78921313D02*
X111926824Y-78921314D01*
X111926825Y-78921314D01*
X112087239Y-78969975D01*
X112087241Y-78969976D01*
X112087244Y-78969977D01*
X112235078Y-79048995D01*
X112364659Y-79155341D01*
X112471005Y-79284922D01*
X112550023Y-79432756D01*
X112550024Y-79432759D01*
X112550025Y-79432761D01*
X112581008Y-79534898D01*
X112598687Y-79593179D01*
X112615117Y-79760000D01*
X112598687Y-79926821D01*
X112550023Y-80087244D01*
X112471005Y-80235078D01*
X112364659Y-80364659D01*
X112235078Y-80471005D01*
X112087244Y-80550023D01*
X112087241Y-80550024D01*
X112087239Y-80550025D01*
X111926825Y-80598686D01*
X111926824Y-80598686D01*
X111926821Y-80598687D01*
X111801804Y-80611000D01*
X111718196Y-80611000D01*
X111593179Y-80598687D01*
X111593176Y-80598686D01*
X111593175Y-80598686D01*
X111432761Y-80550025D01*
X111432759Y-80550024D01*
X111432756Y-80550023D01*
X111284922Y-80471005D01*
X111155341Y-80364659D01*
X111048995Y-80235078D01*
X110969977Y-80087244D01*
X110921313Y-79926821D01*
X110904883Y-79760000D01*
X110921313Y-79593179D01*
X110938992Y-79534898D01*
X110969975Y-79432761D01*
X110969976Y-79432759D01*
X110969977Y-79432756D01*
X111048995Y-79284922D01*
X111155341Y-79155341D01*
X111284922Y-79048995D01*
X111432756Y-78969977D01*
X111432759Y-78969976D01*
X111432761Y-78969975D01*
X111593175Y-78921314D01*
X111593176Y-78921314D01*
X111593179Y-78921313D01*
X111718196Y-78909000D01*
X111801804Y-78909000D01*
X111926821Y-78921313D01*
X111926821Y-78921313D01*
G37*
G36*
X127166821Y-78921313D02*
X127166824Y-78921314D01*
X127166825Y-78921314D01*
X127327239Y-78969975D01*
X127327241Y-78969976D01*
X127327244Y-78969977D01*
X127475078Y-79048995D01*
X127604659Y-79155341D01*
X127711005Y-79284922D01*
X127790023Y-79432756D01*
X127790024Y-79432759D01*
X127790025Y-79432761D01*
X127821008Y-79534898D01*
X127838687Y-79593179D01*
X127855117Y-79760000D01*
X127838687Y-79926821D01*
X127790023Y-80087244D01*
X127711005Y-80235078D01*
X127604659Y-80364659D01*
X127475078Y-80471005D01*
X127327244Y-80550023D01*
X127327241Y-80550024D01*
X127327239Y-80550025D01*
X127166825Y-80598686D01*
X127166824Y-80598686D01*
X127166821Y-80598687D01*
X127041804Y-80611000D01*
X126958196Y-80611000D01*
X126833179Y-80598687D01*
X126833176Y-80598686D01*
X126833175Y-80598686D01*
X126672761Y-80550025D01*
X126672759Y-80550024D01*
X126672756Y-80550023D01*
X126524922Y-80471005D01*
X126395341Y-80364659D01*
X126288995Y-80235078D01*
X126209977Y-80087244D01*
X126161313Y-79926821D01*
X126144883Y-79760000D01*
X126161313Y-79593179D01*
X126178992Y-79534898D01*
X126209975Y-79432761D01*
X126209976Y-79432759D01*
X126209977Y-79432756D01*
X126288995Y-79284922D01*
X126395341Y-79155341D01*
X126524922Y-79048995D01*
X126672756Y-78969977D01*
X126672759Y-78969976D01*
X126672761Y-78969975D01*
X126833175Y-78921314D01*
X126833176Y-78921314D01*
X126833179Y-78921313D01*
X126958196Y-78909000D01*
X127041804Y-78909000D01*
X127166821Y-78921313D01*
X127166821Y-78921313D01*
G37*
G36*
X159733643Y-78189781D02*
X159879415Y-78250162D01*
X160010611Y-78337824D01*
X160122176Y-78449389D01*
X160209838Y-78580585D01*
X160270219Y-78726357D01*
X160301000Y-78881107D01*
X160301000Y-79038893D01*
X160270219Y-79193643D01*
X160209838Y-79339415D01*
X160122176Y-79470611D01*
X160010611Y-79582176D01*
X159879415Y-79669838D01*
X159733643Y-79730219D01*
X159578893Y-79761000D01*
X159421107Y-79761000D01*
X159266357Y-79730219D01*
X159120585Y-79669838D01*
X158989389Y-79582176D01*
X158877824Y-79470611D01*
X158790162Y-79339415D01*
X158729781Y-79193643D01*
X158699000Y-79038893D01*
X158699000Y-78881107D01*
X158729781Y-78726357D01*
X158790162Y-78580585D01*
X158877824Y-78449389D01*
X158989389Y-78337824D01*
X159120585Y-78250162D01*
X159266357Y-78189781D01*
X159421107Y-78159000D01*
X159578893Y-78159000D01*
X159733643Y-78189781D01*
X159733643Y-78189781D01*
G37*
G36*
X134333643Y-78189781D02*
X134479415Y-78250162D01*
X134610611Y-78337824D01*
X134722176Y-78449389D01*
X134809838Y-78580585D01*
X134870219Y-78726357D01*
X134901000Y-78881107D01*
X134901000Y-79038893D01*
X134870219Y-79193643D01*
X134809838Y-79339415D01*
X134722176Y-79470611D01*
X134610611Y-79582176D01*
X134479415Y-79669838D01*
X134333643Y-79730219D01*
X134178893Y-79761000D01*
X134021107Y-79761000D01*
X133866357Y-79730219D01*
X133720585Y-79669838D01*
X133589389Y-79582176D01*
X133477824Y-79470611D01*
X133390162Y-79339415D01*
X133329781Y-79193643D01*
X133299000Y-79038893D01*
X133299000Y-78881107D01*
X133329781Y-78726357D01*
X133390162Y-78580585D01*
X133477824Y-78449389D01*
X133589389Y-78337824D01*
X133720585Y-78250162D01*
X133866357Y-78189781D01*
X134021107Y-78159000D01*
X134178893Y-78159000D01*
X134333643Y-78189781D01*
X134333643Y-78189781D01*
G37*
G36*
X99237142Y-76978242D02*
X99385102Y-77039530D01*
X99389062Y-77042176D01*
X99518257Y-77128501D01*
X99631499Y-77241743D01*
X99720471Y-77374900D01*
X99734354Y-77408417D01*
X99781758Y-77522858D01*
X99813000Y-77679925D01*
X99813000Y-77840075D01*
X99781758Y-77997142D01*
X99720470Y-78145102D01*
X99690616Y-78189781D01*
X99650271Y-78250163D01*
X99631498Y-78278258D01*
X99518258Y-78391498D01*
X99385102Y-78480470D01*
X99237142Y-78541758D01*
X99080075Y-78573000D01*
X98919925Y-78573000D01*
X98762858Y-78541758D01*
X98614898Y-78480470D01*
X98481742Y-78391498D01*
X98368502Y-78278258D01*
X98349730Y-78250163D01*
X98309384Y-78189781D01*
X98279530Y-78145102D01*
X98218242Y-77997142D01*
X98187000Y-77840075D01*
X98187000Y-77679925D01*
X98218242Y-77522858D01*
X98265646Y-77408417D01*
X98279529Y-77374900D01*
X98368501Y-77241743D01*
X98481743Y-77128501D01*
X98610938Y-77042176D01*
X98614898Y-77039530D01*
X98762858Y-76978242D01*
X98919925Y-76947000D01*
X99080075Y-76947000D01*
X99237142Y-76978242D01*
X99237142Y-76978242D01*
G37*
G36*
X103527142Y-76978242D02*
X103675102Y-77039530D01*
X103679062Y-77042176D01*
X103808257Y-77128501D01*
X103921499Y-77241743D01*
X104010471Y-77374900D01*
X104024354Y-77408417D01*
X104071758Y-77522858D01*
X104103000Y-77679925D01*
X104103000Y-77840075D01*
X104071758Y-77997142D01*
X104010470Y-78145102D01*
X103980616Y-78189781D01*
X103940271Y-78250163D01*
X103921498Y-78278258D01*
X103808258Y-78391498D01*
X103675102Y-78480470D01*
X103527142Y-78541758D01*
X103370075Y-78573000D01*
X103209925Y-78573000D01*
X103052858Y-78541758D01*
X102904898Y-78480470D01*
X102771742Y-78391498D01*
X102658502Y-78278258D01*
X102639730Y-78250163D01*
X102599384Y-78189781D01*
X102569530Y-78145102D01*
X102508242Y-77997142D01*
X102477000Y-77840075D01*
X102477000Y-77679925D01*
X102508242Y-77522858D01*
X102555646Y-77408417D01*
X102569529Y-77374900D01*
X102658501Y-77241743D01*
X102771743Y-77128501D01*
X102900938Y-77042176D01*
X102904898Y-77039530D01*
X103052858Y-76978242D01*
X103209925Y-76947000D01*
X103370075Y-76947000D01*
X103527142Y-76978242D01*
X103527142Y-76978242D01*
G37*
G36*
X111926821Y-76381313D02*
X111926824Y-76381314D01*
X111926825Y-76381314D01*
X112087239Y-76429975D01*
X112087241Y-76429976D01*
X112087244Y-76429977D01*
X112235078Y-76508995D01*
X112364659Y-76615341D01*
X112471005Y-76744922D01*
X112550023Y-76892756D01*
X112550024Y-76892759D01*
X112550025Y-76892761D01*
X112594547Y-77039530D01*
X112598687Y-77053179D01*
X112615117Y-77220000D01*
X112598687Y-77386821D01*
X112598686Y-77386824D01*
X112598686Y-77386825D01*
X112557421Y-77522858D01*
X112550023Y-77547244D01*
X112471005Y-77695078D01*
X112364659Y-77824659D01*
X112235078Y-77931005D01*
X112087244Y-78010023D01*
X112087241Y-78010024D01*
X112087239Y-78010025D01*
X111926825Y-78058686D01*
X111926824Y-78058686D01*
X111926821Y-78058687D01*
X111801804Y-78071000D01*
X111718196Y-78071000D01*
X111593179Y-78058687D01*
X111593176Y-78058686D01*
X111593175Y-78058686D01*
X111432761Y-78010025D01*
X111432759Y-78010024D01*
X111432756Y-78010023D01*
X111284922Y-77931005D01*
X111155341Y-77824659D01*
X111048995Y-77695078D01*
X110969977Y-77547244D01*
X110962580Y-77522858D01*
X110921314Y-77386825D01*
X110921314Y-77386824D01*
X110921313Y-77386821D01*
X110904883Y-77220000D01*
X110921313Y-77053179D01*
X110925453Y-77039530D01*
X110969975Y-76892761D01*
X110969976Y-76892759D01*
X110969977Y-76892756D01*
X111048995Y-76744922D01*
X111155341Y-76615341D01*
X111284922Y-76508995D01*
X111432756Y-76429977D01*
X111432759Y-76429976D01*
X111432761Y-76429975D01*
X111593175Y-76381314D01*
X111593176Y-76381314D01*
X111593179Y-76381313D01*
X111718196Y-76369000D01*
X111801804Y-76369000D01*
X111926821Y-76381313D01*
X111926821Y-76381313D01*
G37*
G36*
X127166821Y-76381313D02*
X127166824Y-76381314D01*
X127166825Y-76381314D01*
X127327239Y-76429975D01*
X127327241Y-76429976D01*
X127327244Y-76429977D01*
X127475078Y-76508995D01*
X127604659Y-76615341D01*
X127711005Y-76744922D01*
X127790023Y-76892756D01*
X127790024Y-76892759D01*
X127790025Y-76892761D01*
X127834547Y-77039530D01*
X127838687Y-77053179D01*
X127855117Y-77220000D01*
X127838687Y-77386821D01*
X127838686Y-77386824D01*
X127838686Y-77386825D01*
X127797421Y-77522858D01*
X127790023Y-77547244D01*
X127711005Y-77695078D01*
X127604659Y-77824659D01*
X127475078Y-77931005D01*
X127327244Y-78010023D01*
X127327241Y-78010024D01*
X127327239Y-78010025D01*
X127166825Y-78058686D01*
X127166824Y-78058686D01*
X127166821Y-78058687D01*
X127041804Y-78071000D01*
X126958196Y-78071000D01*
X126833179Y-78058687D01*
X126833176Y-78058686D01*
X126833175Y-78058686D01*
X126672761Y-78010025D01*
X126672759Y-78010024D01*
X126672756Y-78010023D01*
X126524922Y-77931005D01*
X126395341Y-77824659D01*
X126288995Y-77695078D01*
X126209977Y-77547244D01*
X126202580Y-77522858D01*
X126161314Y-77386825D01*
X126161314Y-77386824D01*
X126161313Y-77386821D01*
X126144883Y-77220000D01*
X126161313Y-77053179D01*
X126165453Y-77039530D01*
X126209975Y-76892761D01*
X126209976Y-76892759D01*
X126209977Y-76892756D01*
X126288995Y-76744922D01*
X126395341Y-76615341D01*
X126524922Y-76508995D01*
X126672756Y-76429977D01*
X126672759Y-76429976D01*
X126672761Y-76429975D01*
X126833175Y-76381314D01*
X126833176Y-76381314D01*
X126833179Y-76381313D01*
X126958196Y-76369000D01*
X127041804Y-76369000D01*
X127166821Y-76381313D01*
X127166821Y-76381313D01*
G37*
G36*
X159733643Y-75649781D02*
X159879415Y-75710162D01*
X160010611Y-75797824D01*
X160122176Y-75909389D01*
X160209838Y-76040585D01*
X160270219Y-76186357D01*
X160301000Y-76341107D01*
X160301000Y-76498893D01*
X160270219Y-76653643D01*
X160209838Y-76799415D01*
X160122176Y-76930611D01*
X160010611Y-77042176D01*
X159879415Y-77129838D01*
X159733643Y-77190219D01*
X159578893Y-77221000D01*
X159421107Y-77221000D01*
X159266357Y-77190219D01*
X159120585Y-77129838D01*
X158989389Y-77042176D01*
X158877824Y-76930611D01*
X158790162Y-76799415D01*
X158729781Y-76653643D01*
X158699000Y-76498893D01*
X158699000Y-76341107D01*
X158729781Y-76186357D01*
X158790162Y-76040585D01*
X158877824Y-75909389D01*
X158989389Y-75797824D01*
X159120585Y-75710162D01*
X159266357Y-75649781D01*
X159421107Y-75619000D01*
X159578893Y-75619000D01*
X159733643Y-75649781D01*
X159733643Y-75649781D01*
G37*
G36*
X134333643Y-75649781D02*
X134479415Y-75710162D01*
X134610611Y-75797824D01*
X134722176Y-75909389D01*
X134809838Y-76040585D01*
X134870219Y-76186357D01*
X134901000Y-76341107D01*
X134901000Y-76498893D01*
X134870219Y-76653643D01*
X134809838Y-76799415D01*
X134722176Y-76930611D01*
X134610611Y-77042176D01*
X134479415Y-77129838D01*
X134333643Y-77190219D01*
X134178893Y-77221000D01*
X134021107Y-77221000D01*
X133866357Y-77190219D01*
X133720585Y-77129838D01*
X133589389Y-77042176D01*
X133477824Y-76930611D01*
X133390162Y-76799415D01*
X133329781Y-76653643D01*
X133299000Y-76498893D01*
X133299000Y-76341107D01*
X133329781Y-76186357D01*
X133390162Y-76040585D01*
X133477824Y-75909389D01*
X133589389Y-75797824D01*
X133720585Y-75710162D01*
X133866357Y-75649781D01*
X134021107Y-75619000D01*
X134178893Y-75619000D01*
X134333643Y-75649781D01*
X134333643Y-75649781D01*
G37*
G36*
X103527142Y-74818242D02*
X103675102Y-74879530D01*
X103808258Y-74968502D01*
X103921498Y-75081742D01*
X104010470Y-75214898D01*
X104071758Y-75362858D01*
X104103000Y-75519925D01*
X104103000Y-75680075D01*
X104071758Y-75837142D01*
X104010470Y-75985102D01*
X103921498Y-76118258D01*
X103808258Y-76231498D01*
X103675102Y-76320470D01*
X103527142Y-76381758D01*
X103370075Y-76413000D01*
X103209925Y-76413000D01*
X103052858Y-76381758D01*
X102904898Y-76320470D01*
X102771742Y-76231498D01*
X102658502Y-76118258D01*
X102569530Y-75985102D01*
X102508242Y-75837142D01*
X102477000Y-75680075D01*
X102477000Y-75519925D01*
X102508242Y-75362858D01*
X102569530Y-75214898D01*
X102658502Y-75081742D01*
X102771742Y-74968502D01*
X102904898Y-74879530D01*
X103052858Y-74818242D01*
X103209925Y-74787000D01*
X103370075Y-74787000D01*
X103527142Y-74818242D01*
X103527142Y-74818242D01*
G37*
G36*
X99237142Y-74818242D02*
X99385102Y-74879530D01*
X99518258Y-74968502D01*
X99631498Y-75081742D01*
X99720470Y-75214898D01*
X99781758Y-75362858D01*
X99813000Y-75519925D01*
X99813000Y-75680075D01*
X99781758Y-75837142D01*
X99720470Y-75985102D01*
X99631498Y-76118258D01*
X99518258Y-76231498D01*
X99385102Y-76320470D01*
X99237142Y-76381758D01*
X99080075Y-76413000D01*
X98919925Y-76413000D01*
X98762858Y-76381758D01*
X98614898Y-76320470D01*
X98481742Y-76231498D01*
X98368502Y-76118258D01*
X98279530Y-75985102D01*
X98218242Y-75837142D01*
X98187000Y-75680075D01*
X98187000Y-75519925D01*
X98218242Y-75362858D01*
X98279530Y-75214898D01*
X98368502Y-75081742D01*
X98481742Y-74968502D01*
X98614898Y-74879530D01*
X98762858Y-74818242D01*
X98919925Y-74787000D01*
X99080075Y-74787000D01*
X99237142Y-74818242D01*
X99237142Y-74818242D01*
G37*
G36*
X127166821Y-73841313D02*
X127166824Y-73841314D01*
X127166825Y-73841314D01*
X127327239Y-73889975D01*
X127327241Y-73889976D01*
X127327244Y-73889977D01*
X127475078Y-73968995D01*
X127604659Y-74075341D01*
X127711005Y-74204922D01*
X127790023Y-74352756D01*
X127790024Y-74352759D01*
X127790025Y-74352761D01*
X127835349Y-74502176D01*
X127838687Y-74513179D01*
X127855117Y-74680000D01*
X127838687Y-74846821D01*
X127838686Y-74846824D01*
X127838686Y-74846825D01*
X127801776Y-74968502D01*
X127790023Y-75007244D01*
X127711005Y-75155078D01*
X127604659Y-75284659D01*
X127475078Y-75391005D01*
X127327244Y-75470023D01*
X127327241Y-75470024D01*
X127327239Y-75470025D01*
X127166825Y-75518686D01*
X127166824Y-75518686D01*
X127166821Y-75518687D01*
X127041804Y-75531000D01*
X126958196Y-75531000D01*
X126833179Y-75518687D01*
X126833176Y-75518686D01*
X126833175Y-75518686D01*
X126672761Y-75470025D01*
X126672759Y-75470024D01*
X126672756Y-75470023D01*
X126524922Y-75391005D01*
X126395341Y-75284659D01*
X126288995Y-75155078D01*
X126209977Y-75007244D01*
X126198225Y-74968502D01*
X126161314Y-74846825D01*
X126161314Y-74846824D01*
X126161313Y-74846821D01*
X126144883Y-74680000D01*
X126161313Y-74513179D01*
X126164651Y-74502176D01*
X126209975Y-74352761D01*
X126209976Y-74352759D01*
X126209977Y-74352756D01*
X126288995Y-74204922D01*
X126395341Y-74075341D01*
X126524922Y-73968995D01*
X126672756Y-73889977D01*
X126672759Y-73889976D01*
X126672761Y-73889975D01*
X126833175Y-73841314D01*
X126833176Y-73841314D01*
X126833179Y-73841313D01*
X126958196Y-73829000D01*
X127041804Y-73829000D01*
X127166821Y-73841313D01*
X127166821Y-73841313D01*
G37*
G36*
X111926821Y-73841313D02*
X111926824Y-73841314D01*
X111926825Y-73841314D01*
X112087239Y-73889975D01*
X112087241Y-73889976D01*
X112087244Y-73889977D01*
X112235078Y-73968995D01*
X112364659Y-74075341D01*
X112471005Y-74204922D01*
X112550023Y-74352756D01*
X112550024Y-74352759D01*
X112550025Y-74352761D01*
X112595349Y-74502176D01*
X112598687Y-74513179D01*
X112615117Y-74680000D01*
X112598687Y-74846821D01*
X112598686Y-74846824D01*
X112598686Y-74846825D01*
X112561776Y-74968502D01*
X112550023Y-75007244D01*
X112471005Y-75155078D01*
X112364659Y-75284659D01*
X112235078Y-75391005D01*
X112087244Y-75470023D01*
X112087241Y-75470024D01*
X112087239Y-75470025D01*
X111926825Y-75518686D01*
X111926824Y-75518686D01*
X111926821Y-75518687D01*
X111801804Y-75531000D01*
X111718196Y-75531000D01*
X111593179Y-75518687D01*
X111593176Y-75518686D01*
X111593175Y-75518686D01*
X111432761Y-75470025D01*
X111432759Y-75470024D01*
X111432756Y-75470023D01*
X111284922Y-75391005D01*
X111155341Y-75284659D01*
X111048995Y-75155078D01*
X110969977Y-75007244D01*
X110958225Y-74968502D01*
X110921314Y-74846825D01*
X110921314Y-74846824D01*
X110921313Y-74846821D01*
X110904883Y-74680000D01*
X110921313Y-74513179D01*
X110924651Y-74502176D01*
X110969975Y-74352761D01*
X110969976Y-74352759D01*
X110969977Y-74352756D01*
X111048995Y-74204922D01*
X111155341Y-74075341D01*
X111284922Y-73968995D01*
X111432756Y-73889977D01*
X111432759Y-73889976D01*
X111432761Y-73889975D01*
X111593175Y-73841314D01*
X111593176Y-73841314D01*
X111593179Y-73841313D01*
X111718196Y-73829000D01*
X111801804Y-73829000D01*
X111926821Y-73841313D01*
X111926821Y-73841313D01*
G37*
G36*
X134333643Y-73109781D02*
X134479415Y-73170162D01*
X134610611Y-73257824D01*
X134722176Y-73369389D01*
X134809838Y-73500585D01*
X134870219Y-73646357D01*
X134901000Y-73801107D01*
X134901000Y-73958893D01*
X134870219Y-74113643D01*
X134809838Y-74259415D01*
X134722176Y-74390611D01*
X134610611Y-74502176D01*
X134479415Y-74589838D01*
X134333643Y-74650219D01*
X134178893Y-74681000D01*
X134021107Y-74681000D01*
X133866357Y-74650219D01*
X133720585Y-74589838D01*
X133589389Y-74502176D01*
X133477824Y-74390611D01*
X133390162Y-74259415D01*
X133329781Y-74113643D01*
X133299000Y-73958893D01*
X133299000Y-73801107D01*
X133329781Y-73646357D01*
X133390162Y-73500585D01*
X133477824Y-73369389D01*
X133589389Y-73257824D01*
X133720585Y-73170162D01*
X133866357Y-73109781D01*
X134021107Y-73079000D01*
X134178893Y-73079000D01*
X134333643Y-73109781D01*
X134333643Y-73109781D01*
G37*
G36*
X159733643Y-73109781D02*
X159879415Y-73170162D01*
X160010611Y-73257824D01*
X160122176Y-73369389D01*
X160209838Y-73500585D01*
X160270219Y-73646357D01*
X160301000Y-73801107D01*
X160301000Y-73958893D01*
X160270219Y-74113643D01*
X160209838Y-74259415D01*
X160122176Y-74390611D01*
X160010611Y-74502176D01*
X159879415Y-74589838D01*
X159733643Y-74650219D01*
X159578893Y-74681000D01*
X159421107Y-74681000D01*
X159266357Y-74650219D01*
X159120585Y-74589838D01*
X158989389Y-74502176D01*
X158877824Y-74390611D01*
X158790162Y-74259415D01*
X158729781Y-74113643D01*
X158699000Y-73958893D01*
X158699000Y-73801107D01*
X158729781Y-73646357D01*
X158790162Y-73500585D01*
X158877824Y-73369389D01*
X158989389Y-73257824D01*
X159120585Y-73170162D01*
X159266357Y-73109781D01*
X159421107Y-73079000D01*
X159578893Y-73079000D01*
X159733643Y-73109781D01*
X159733643Y-73109781D01*
G37*
G36*
X103527142Y-72658242D02*
X103675102Y-72719530D01*
X103808258Y-72808502D01*
X103921498Y-72921742D01*
X104010470Y-73054898D01*
X104071758Y-73202858D01*
X104103000Y-73359925D01*
X104103000Y-73520075D01*
X104071758Y-73677142D01*
X104010470Y-73825102D01*
X103921498Y-73958258D01*
X103808258Y-74071498D01*
X103675102Y-74160470D01*
X103527142Y-74221758D01*
X103370075Y-74253000D01*
X103209925Y-74253000D01*
X103052858Y-74221758D01*
X102904898Y-74160470D01*
X102771742Y-74071498D01*
X102658502Y-73958258D01*
X102569530Y-73825102D01*
X102508242Y-73677142D01*
X102477000Y-73520075D01*
X102477000Y-73359925D01*
X102508242Y-73202858D01*
X102569530Y-73054898D01*
X102658502Y-72921742D01*
X102771742Y-72808502D01*
X102904898Y-72719530D01*
X103052858Y-72658242D01*
X103209925Y-72627000D01*
X103370075Y-72627000D01*
X103527142Y-72658242D01*
X103527142Y-72658242D01*
G37*
G36*
X99237142Y-72658242D02*
X99385102Y-72719530D01*
X99518258Y-72808502D01*
X99631498Y-72921742D01*
X99720470Y-73054898D01*
X99781758Y-73202858D01*
X99813000Y-73359925D01*
X99813000Y-73520075D01*
X99781758Y-73677142D01*
X99720470Y-73825102D01*
X99631498Y-73958258D01*
X99518258Y-74071498D01*
X99385102Y-74160470D01*
X99237142Y-74221758D01*
X99080075Y-74253000D01*
X98919925Y-74253000D01*
X98762858Y-74221758D01*
X98614898Y-74160470D01*
X98481742Y-74071498D01*
X98368502Y-73958258D01*
X98279530Y-73825102D01*
X98218242Y-73677142D01*
X98187000Y-73520075D01*
X98187000Y-73359925D01*
X98218242Y-73202858D01*
X98279530Y-73054898D01*
X98368502Y-72921742D01*
X98481742Y-72808502D01*
X98614898Y-72719530D01*
X98762858Y-72658242D01*
X98919925Y-72627000D01*
X99080075Y-72627000D01*
X99237142Y-72658242D01*
X99237142Y-72658242D01*
G37*
G36*
X127166821Y-71301313D02*
X127166824Y-71301314D01*
X127166825Y-71301314D01*
X127327239Y-71349975D01*
X127327241Y-71349976D01*
X127327244Y-71349977D01*
X127475078Y-71428995D01*
X127604659Y-71535341D01*
X127711005Y-71664922D01*
X127790023Y-71812756D01*
X127790024Y-71812759D01*
X127790025Y-71812761D01*
X127835349Y-71962176D01*
X127838687Y-71973179D01*
X127855117Y-72140000D01*
X127838687Y-72306821D01*
X127790023Y-72467244D01*
X127711005Y-72615078D01*
X127604659Y-72744659D01*
X127475078Y-72851005D01*
X127327244Y-72930023D01*
X127327241Y-72930024D01*
X127327239Y-72930025D01*
X127166825Y-72978686D01*
X127166824Y-72978686D01*
X127166821Y-72978687D01*
X127041804Y-72991000D01*
X126958196Y-72991000D01*
X126833179Y-72978687D01*
X126833176Y-72978686D01*
X126833175Y-72978686D01*
X126672761Y-72930025D01*
X126672759Y-72930024D01*
X126672756Y-72930023D01*
X126524922Y-72851005D01*
X126395341Y-72744659D01*
X126288995Y-72615078D01*
X126209977Y-72467244D01*
X126161313Y-72306821D01*
X126144883Y-72140000D01*
X126161313Y-71973179D01*
X126164651Y-71962176D01*
X126209975Y-71812761D01*
X126209976Y-71812759D01*
X126209977Y-71812756D01*
X126288995Y-71664922D01*
X126395341Y-71535341D01*
X126524922Y-71428995D01*
X126672756Y-71349977D01*
X126672759Y-71349976D01*
X126672761Y-71349975D01*
X126833175Y-71301314D01*
X126833176Y-71301314D01*
X126833179Y-71301313D01*
X126958196Y-71289000D01*
X127041804Y-71289000D01*
X127166821Y-71301313D01*
X127166821Y-71301313D01*
G37*
G36*
X111926821Y-71301313D02*
X111926824Y-71301314D01*
X111926825Y-71301314D01*
X112087239Y-71349975D01*
X112087241Y-71349976D01*
X112087244Y-71349977D01*
X112235078Y-71428995D01*
X112364659Y-71535341D01*
X112471005Y-71664922D01*
X112550023Y-71812756D01*
X112550024Y-71812759D01*
X112550025Y-71812761D01*
X112595349Y-71962176D01*
X112598687Y-71973179D01*
X112615117Y-72140000D01*
X112598687Y-72306821D01*
X112550023Y-72467244D01*
X112471005Y-72615078D01*
X112364659Y-72744659D01*
X112235078Y-72851005D01*
X112087244Y-72930023D01*
X112087241Y-72930024D01*
X112087239Y-72930025D01*
X111926825Y-72978686D01*
X111926824Y-72978686D01*
X111926821Y-72978687D01*
X111801804Y-72991000D01*
X111718196Y-72991000D01*
X111593179Y-72978687D01*
X111593176Y-72978686D01*
X111593175Y-72978686D01*
X111432761Y-72930025D01*
X111432759Y-72930024D01*
X111432756Y-72930023D01*
X111284922Y-72851005D01*
X111155341Y-72744659D01*
X111048995Y-72615078D01*
X110969977Y-72467244D01*
X110921313Y-72306821D01*
X110904883Y-72140000D01*
X110921313Y-71973179D01*
X110924651Y-71962176D01*
X110969975Y-71812761D01*
X110969976Y-71812759D01*
X110969977Y-71812756D01*
X111048995Y-71664922D01*
X111155341Y-71535341D01*
X111284922Y-71428995D01*
X111432756Y-71349977D01*
X111432759Y-71349976D01*
X111432761Y-71349975D01*
X111593175Y-71301314D01*
X111593176Y-71301314D01*
X111593179Y-71301313D01*
X111718196Y-71289000D01*
X111801804Y-71289000D01*
X111926821Y-71301313D01*
X111926821Y-71301313D01*
G37*
G36*
X134333643Y-70569781D02*
X134479415Y-70630162D01*
X134610611Y-70717824D01*
X134722176Y-70829389D01*
X134809838Y-70960585D01*
X134870219Y-71106357D01*
X134901000Y-71261107D01*
X134901000Y-71418893D01*
X134870219Y-71573643D01*
X134809838Y-71719415D01*
X134722176Y-71850611D01*
X134610611Y-71962176D01*
X134479415Y-72049838D01*
X134333643Y-72110219D01*
X134178893Y-72141000D01*
X134021107Y-72141000D01*
X133866357Y-72110219D01*
X133720585Y-72049838D01*
X133589389Y-71962176D01*
X133477824Y-71850611D01*
X133390162Y-71719415D01*
X133329781Y-71573643D01*
X133299000Y-71418893D01*
X133299000Y-71261107D01*
X133329781Y-71106357D01*
X133390162Y-70960585D01*
X133477824Y-70829389D01*
X133589389Y-70717824D01*
X133720585Y-70630162D01*
X133866357Y-70569781D01*
X134021107Y-70539000D01*
X134178893Y-70539000D01*
X134333643Y-70569781D01*
X134333643Y-70569781D01*
G37*
G36*
X159733643Y-70569781D02*
X159879415Y-70630162D01*
X160010611Y-70717824D01*
X160122176Y-70829389D01*
X160209838Y-70960585D01*
X160270219Y-71106357D01*
X160301000Y-71261107D01*
X160301000Y-71418893D01*
X160270219Y-71573643D01*
X160209838Y-71719415D01*
X160122176Y-71850611D01*
X160010611Y-71962176D01*
X159879415Y-72049838D01*
X159733643Y-72110219D01*
X159578893Y-72141000D01*
X159421107Y-72141000D01*
X159266357Y-72110219D01*
X159120585Y-72049838D01*
X158989389Y-71962176D01*
X158877824Y-71850611D01*
X158790162Y-71719415D01*
X158729781Y-71573643D01*
X158699000Y-71418893D01*
X158699000Y-71261107D01*
X158729781Y-71106357D01*
X158790162Y-70960585D01*
X158877824Y-70829389D01*
X158989389Y-70717824D01*
X159120585Y-70630162D01*
X159266357Y-70569781D01*
X159421107Y-70539000D01*
X159578893Y-70539000D01*
X159733643Y-70569781D01*
X159733643Y-70569781D01*
G37*
G36*
X103527142Y-70498242D02*
X103675102Y-70559530D01*
X103690445Y-70569782D01*
X103780811Y-70630162D01*
X103808258Y-70648502D01*
X103921498Y-70761742D01*
X104010470Y-70894898D01*
X104071758Y-71042858D01*
X104103000Y-71199925D01*
X104103000Y-71360075D01*
X104071758Y-71517142D01*
X104010470Y-71665102D01*
X103921498Y-71798258D01*
X103808258Y-71911498D01*
X103675102Y-72000470D01*
X103527142Y-72061758D01*
X103370075Y-72093000D01*
X103209925Y-72093000D01*
X103052858Y-72061758D01*
X102904898Y-72000470D01*
X102771742Y-71911498D01*
X102658502Y-71798258D01*
X102569530Y-71665102D01*
X102508242Y-71517142D01*
X102477000Y-71360075D01*
X102477000Y-71199925D01*
X102508242Y-71042858D01*
X102569530Y-70894898D01*
X102658502Y-70761742D01*
X102771742Y-70648502D01*
X102799190Y-70630162D01*
X102889555Y-70569782D01*
X102904898Y-70559530D01*
X103052858Y-70498242D01*
X103209925Y-70467000D01*
X103370075Y-70467000D01*
X103527142Y-70498242D01*
X103527142Y-70498242D01*
G37*
G36*
X99237142Y-70498242D02*
X99385102Y-70559530D01*
X99400445Y-70569782D01*
X99490811Y-70630162D01*
X99518258Y-70648502D01*
X99631498Y-70761742D01*
X99720470Y-70894898D01*
X99781758Y-71042858D01*
X99813000Y-71199925D01*
X99813000Y-71360075D01*
X99781758Y-71517142D01*
X99720470Y-71665102D01*
X99631498Y-71798258D01*
X99518258Y-71911498D01*
X99385102Y-72000470D01*
X99237142Y-72061758D01*
X99080075Y-72093000D01*
X98919925Y-72093000D01*
X98762858Y-72061758D01*
X98614898Y-72000470D01*
X98481742Y-71911498D01*
X98368502Y-71798258D01*
X98279530Y-71665102D01*
X98218242Y-71517142D01*
X98187000Y-71360075D01*
X98187000Y-71199925D01*
X98218242Y-71042858D01*
X98279530Y-70894898D01*
X98368502Y-70761742D01*
X98481742Y-70648502D01*
X98509190Y-70630162D01*
X98599555Y-70569782D01*
X98614898Y-70559530D01*
X98762858Y-70498242D01*
X98919925Y-70467000D01*
X99080075Y-70467000D01*
X99237142Y-70498242D01*
X99237142Y-70498242D01*
G37*
G36*
X111926821Y-68761313D02*
X111926824Y-68761314D01*
X111926825Y-68761314D01*
X112087239Y-68809975D01*
X112087241Y-68809976D01*
X112087244Y-68809977D01*
X112235078Y-68888995D01*
X112364659Y-68995341D01*
X112471005Y-69124922D01*
X112550023Y-69272756D01*
X112550024Y-69272759D01*
X112550025Y-69272761D01*
X112575622Y-69357143D01*
X112598687Y-69433179D01*
X112615117Y-69600000D01*
X112598687Y-69766821D01*
X112598686Y-69766824D01*
X112598686Y-69766825D01*
X112557755Y-69901758D01*
X112550023Y-69927244D01*
X112471005Y-70075078D01*
X112364659Y-70204659D01*
X112235078Y-70311005D01*
X112087244Y-70390023D01*
X112087241Y-70390024D01*
X112087239Y-70390025D01*
X111926825Y-70438686D01*
X111926824Y-70438686D01*
X111926821Y-70438687D01*
X111801804Y-70451000D01*
X111718196Y-70451000D01*
X111593179Y-70438687D01*
X111593176Y-70438686D01*
X111593175Y-70438686D01*
X111432761Y-70390025D01*
X111432759Y-70390024D01*
X111432756Y-70390023D01*
X111284922Y-70311005D01*
X111155341Y-70204659D01*
X111048995Y-70075078D01*
X110969977Y-69927244D01*
X110962246Y-69901758D01*
X110921314Y-69766825D01*
X110921314Y-69766824D01*
X110921313Y-69766821D01*
X110904883Y-69600000D01*
X110921313Y-69433179D01*
X110944378Y-69357143D01*
X110969975Y-69272761D01*
X110969976Y-69272759D01*
X110969977Y-69272756D01*
X111048995Y-69124922D01*
X111155341Y-68995341D01*
X111284922Y-68888995D01*
X111432756Y-68809977D01*
X111432759Y-68809976D01*
X111432761Y-68809975D01*
X111593175Y-68761314D01*
X111593176Y-68761314D01*
X111593179Y-68761313D01*
X111718196Y-68749000D01*
X111801804Y-68749000D01*
X111926821Y-68761313D01*
X111926821Y-68761313D01*
G37*
G36*
X127166821Y-68761313D02*
X127166824Y-68761314D01*
X127166825Y-68761314D01*
X127327239Y-68809975D01*
X127327241Y-68809976D01*
X127327244Y-68809977D01*
X127475078Y-68888995D01*
X127604659Y-68995341D01*
X127711005Y-69124922D01*
X127790023Y-69272756D01*
X127790024Y-69272759D01*
X127790025Y-69272761D01*
X127815622Y-69357143D01*
X127838687Y-69433179D01*
X127855117Y-69600000D01*
X127838687Y-69766821D01*
X127838686Y-69766824D01*
X127838686Y-69766825D01*
X127797755Y-69901758D01*
X127790023Y-69927244D01*
X127711005Y-70075078D01*
X127604659Y-70204659D01*
X127475078Y-70311005D01*
X127327244Y-70390023D01*
X127327241Y-70390024D01*
X127327239Y-70390025D01*
X127166825Y-70438686D01*
X127166824Y-70438686D01*
X127166821Y-70438687D01*
X127041804Y-70451000D01*
X126958196Y-70451000D01*
X126833179Y-70438687D01*
X126833176Y-70438686D01*
X126833175Y-70438686D01*
X126672761Y-70390025D01*
X126672759Y-70390024D01*
X126672756Y-70390023D01*
X126524922Y-70311005D01*
X126395341Y-70204659D01*
X126288995Y-70075078D01*
X126209977Y-69927244D01*
X126202246Y-69901758D01*
X126161314Y-69766825D01*
X126161314Y-69766824D01*
X126161313Y-69766821D01*
X126144883Y-69600000D01*
X126161313Y-69433179D01*
X126184378Y-69357143D01*
X126209975Y-69272761D01*
X126209976Y-69272759D01*
X126209977Y-69272756D01*
X126288995Y-69124922D01*
X126395341Y-68995341D01*
X126524922Y-68888995D01*
X126672756Y-68809977D01*
X126672759Y-68809976D01*
X126672761Y-68809975D01*
X126833175Y-68761314D01*
X126833176Y-68761314D01*
X126833179Y-68761313D01*
X126958196Y-68749000D01*
X127041804Y-68749000D01*
X127166821Y-68761313D01*
X127166821Y-68761313D01*
G37*
G36*
X103527142Y-68338242D02*
X103675102Y-68399530D01*
X103808258Y-68488502D01*
X103921498Y-68601742D01*
X104010470Y-68734898D01*
X104071758Y-68882858D01*
X104103000Y-69039925D01*
X104103000Y-69200075D01*
X104071758Y-69357142D01*
X104010470Y-69505102D01*
X103921498Y-69638258D01*
X103808258Y-69751498D01*
X103675102Y-69840470D01*
X103527142Y-69901758D01*
X103370075Y-69933000D01*
X103209925Y-69933000D01*
X103052858Y-69901758D01*
X102904898Y-69840470D01*
X102771742Y-69751498D01*
X102658502Y-69638258D01*
X102569530Y-69505102D01*
X102508242Y-69357142D01*
X102477000Y-69200075D01*
X102477000Y-69039925D01*
X102508242Y-68882858D01*
X102569530Y-68734898D01*
X102658502Y-68601742D01*
X102771742Y-68488502D01*
X102904898Y-68399530D01*
X103052858Y-68338242D01*
X103209925Y-68307000D01*
X103370075Y-68307000D01*
X103527142Y-68338242D01*
X103527142Y-68338242D01*
G37*
G36*
X99237142Y-68338242D02*
X99385102Y-68399530D01*
X99518258Y-68488502D01*
X99631498Y-68601742D01*
X99720470Y-68734898D01*
X99781758Y-68882858D01*
X99813000Y-69039925D01*
X99813000Y-69200075D01*
X99781758Y-69357142D01*
X99720470Y-69505102D01*
X99631498Y-69638258D01*
X99518258Y-69751498D01*
X99385102Y-69840470D01*
X99237142Y-69901758D01*
X99080075Y-69933000D01*
X98919925Y-69933000D01*
X98762858Y-69901758D01*
X98614898Y-69840470D01*
X98481742Y-69751498D01*
X98368502Y-69638258D01*
X98279530Y-69505102D01*
X98218242Y-69357142D01*
X98187000Y-69200075D01*
X98187000Y-69039925D01*
X98218242Y-68882858D01*
X98279530Y-68734898D01*
X98368502Y-68601742D01*
X98481742Y-68488502D01*
X98614898Y-68399530D01*
X98762858Y-68338242D01*
X98919925Y-68307000D01*
X99080075Y-68307000D01*
X99237142Y-68338242D01*
X99237142Y-68338242D01*
G37*
G36*
X159733643Y-68029781D02*
X159879415Y-68090162D01*
X160010611Y-68177824D01*
X160122176Y-68289389D01*
X160209838Y-68420585D01*
X160270219Y-68566357D01*
X160301000Y-68721107D01*
X160301000Y-68878893D01*
X160270219Y-69033643D01*
X160209838Y-69179415D01*
X160122176Y-69310611D01*
X160010611Y-69422176D01*
X159879415Y-69509838D01*
X159733643Y-69570219D01*
X159578893Y-69601000D01*
X159421107Y-69601000D01*
X159266357Y-69570219D01*
X159120585Y-69509838D01*
X158989389Y-69422176D01*
X158877824Y-69310611D01*
X158790162Y-69179415D01*
X158729781Y-69033643D01*
X158699000Y-68878893D01*
X158699000Y-68721107D01*
X158729781Y-68566357D01*
X158790162Y-68420585D01*
X158877824Y-68289389D01*
X158989389Y-68177824D01*
X159120585Y-68090162D01*
X159266357Y-68029781D01*
X159421107Y-67999000D01*
X159578893Y-67999000D01*
X159733643Y-68029781D01*
X159733643Y-68029781D01*
G37*
G36*
X134333643Y-68029781D02*
X134479415Y-68090162D01*
X134610611Y-68177824D01*
X134722176Y-68289389D01*
X134809838Y-68420585D01*
X134870219Y-68566357D01*
X134901000Y-68721107D01*
X134901000Y-68878893D01*
X134870219Y-69033643D01*
X134809838Y-69179415D01*
X134722176Y-69310611D01*
X134610611Y-69422176D01*
X134479415Y-69509838D01*
X134333643Y-69570219D01*
X134178893Y-69601000D01*
X134021107Y-69601000D01*
X133866357Y-69570219D01*
X133720585Y-69509838D01*
X133589389Y-69422176D01*
X133477824Y-69310611D01*
X133390162Y-69179415D01*
X133329781Y-69033643D01*
X133299000Y-68878893D01*
X133299000Y-68721107D01*
X133329781Y-68566357D01*
X133390162Y-68420585D01*
X133477824Y-68289389D01*
X133589389Y-68177824D01*
X133720585Y-68090162D01*
X133866357Y-68029781D01*
X134021107Y-67999000D01*
X134178893Y-67999000D01*
X134333643Y-68029781D01*
X134333643Y-68029781D01*
G37*
G36*
X127166821Y-66221313D02*
X127166824Y-66221314D01*
X127166825Y-66221314D01*
X127327239Y-66269975D01*
X127327241Y-66269976D01*
X127327244Y-66269977D01*
X127475078Y-66348995D01*
X127604659Y-66455341D01*
X127711005Y-66584922D01*
X127790023Y-66732756D01*
X127790024Y-66732759D01*
X127790025Y-66732761D01*
X127835349Y-66882176D01*
X127838687Y-66893179D01*
X127855117Y-67060000D01*
X127838687Y-67226821D01*
X127790023Y-67387244D01*
X127711005Y-67535078D01*
X127604659Y-67664659D01*
X127475078Y-67771005D01*
X127327244Y-67850023D01*
X127327241Y-67850024D01*
X127327239Y-67850025D01*
X127166825Y-67898686D01*
X127166824Y-67898686D01*
X127166821Y-67898687D01*
X127041804Y-67911000D01*
X126958196Y-67911000D01*
X126833179Y-67898687D01*
X126833176Y-67898686D01*
X126833175Y-67898686D01*
X126672761Y-67850025D01*
X126672759Y-67850024D01*
X126672756Y-67850023D01*
X126524922Y-67771005D01*
X126395341Y-67664659D01*
X126288995Y-67535078D01*
X126209977Y-67387244D01*
X126161313Y-67226821D01*
X126144883Y-67060000D01*
X126161313Y-66893179D01*
X126164651Y-66882176D01*
X126209975Y-66732761D01*
X126209976Y-66732759D01*
X126209977Y-66732756D01*
X126288995Y-66584922D01*
X126395341Y-66455341D01*
X126524922Y-66348995D01*
X126672756Y-66269977D01*
X126672759Y-66269976D01*
X126672761Y-66269975D01*
X126833175Y-66221314D01*
X126833176Y-66221314D01*
X126833179Y-66221313D01*
X126958196Y-66209000D01*
X127041804Y-66209000D01*
X127166821Y-66221313D01*
X127166821Y-66221313D01*
G37*
G36*
X111926821Y-66221313D02*
X111926824Y-66221314D01*
X111926825Y-66221314D01*
X112087239Y-66269975D01*
X112087241Y-66269976D01*
X112087244Y-66269977D01*
X112235078Y-66348995D01*
X112364659Y-66455341D01*
X112471005Y-66584922D01*
X112550023Y-66732756D01*
X112550024Y-66732759D01*
X112550025Y-66732761D01*
X112595349Y-66882176D01*
X112598687Y-66893179D01*
X112615117Y-67060000D01*
X112598687Y-67226821D01*
X112550023Y-67387244D01*
X112471005Y-67535078D01*
X112364659Y-67664659D01*
X112235078Y-67771005D01*
X112087244Y-67850023D01*
X112087241Y-67850024D01*
X112087239Y-67850025D01*
X111926825Y-67898686D01*
X111926824Y-67898686D01*
X111926821Y-67898687D01*
X111801804Y-67911000D01*
X111718196Y-67911000D01*
X111593179Y-67898687D01*
X111593176Y-67898686D01*
X111593175Y-67898686D01*
X111432761Y-67850025D01*
X111432759Y-67850024D01*
X111432756Y-67850023D01*
X111284922Y-67771005D01*
X111155341Y-67664659D01*
X111048995Y-67535078D01*
X110969977Y-67387244D01*
X110921313Y-67226821D01*
X110904883Y-67060000D01*
X110921313Y-66893179D01*
X110924651Y-66882176D01*
X110969975Y-66732761D01*
X110969976Y-66732759D01*
X110969977Y-66732756D01*
X111048995Y-66584922D01*
X111155341Y-66455341D01*
X111284922Y-66348995D01*
X111432756Y-66269977D01*
X111432759Y-66269976D01*
X111432761Y-66269975D01*
X111593175Y-66221314D01*
X111593176Y-66221314D01*
X111593179Y-66221313D01*
X111718196Y-66209000D01*
X111801804Y-66209000D01*
X111926821Y-66221313D01*
X111926821Y-66221313D01*
G37*
G36*
X159733643Y-65489781D02*
X159879415Y-65550162D01*
X160010611Y-65637824D01*
X160122176Y-65749389D01*
X160209838Y-65880585D01*
X160270219Y-66026357D01*
X160301000Y-66181107D01*
X160301000Y-66338893D01*
X160270219Y-66493643D01*
X160209838Y-66639415D01*
X160122176Y-66770611D01*
X160010611Y-66882176D01*
X159879415Y-66969838D01*
X159733643Y-67030219D01*
X159578893Y-67061000D01*
X159421107Y-67061000D01*
X159266357Y-67030219D01*
X159120585Y-66969838D01*
X158989389Y-66882176D01*
X158877824Y-66770611D01*
X158790162Y-66639415D01*
X158729781Y-66493643D01*
X158699000Y-66338893D01*
X158699000Y-66181107D01*
X158729781Y-66026357D01*
X158790162Y-65880585D01*
X158877824Y-65749389D01*
X158989389Y-65637824D01*
X159120585Y-65550162D01*
X159266357Y-65489781D01*
X159421107Y-65459000D01*
X159578893Y-65459000D01*
X159733643Y-65489781D01*
X159733643Y-65489781D01*
G37*
G36*
X134333643Y-65489781D02*
X134479415Y-65550162D01*
X134610611Y-65637824D01*
X134722176Y-65749389D01*
X134809838Y-65880585D01*
X134870219Y-66026357D01*
X134901000Y-66181107D01*
X134901000Y-66338893D01*
X134870219Y-66493643D01*
X134809838Y-66639415D01*
X134722176Y-66770611D01*
X134610611Y-66882176D01*
X134479415Y-66969838D01*
X134333643Y-67030219D01*
X134178893Y-67061000D01*
X134021107Y-67061000D01*
X133866357Y-67030219D01*
X133720585Y-66969838D01*
X133589389Y-66882176D01*
X133477824Y-66770611D01*
X133390162Y-66639415D01*
X133329781Y-66493643D01*
X133299000Y-66338893D01*
X133299000Y-66181107D01*
X133329781Y-66026357D01*
X133390162Y-65880585D01*
X133477824Y-65749389D01*
X133589389Y-65637824D01*
X133720585Y-65550162D01*
X133866357Y-65489781D01*
X134021107Y-65459000D01*
X134178893Y-65459000D01*
X134333643Y-65489781D01*
X134333643Y-65489781D01*
G37*
G36*
X127166821Y-63681313D02*
X127166824Y-63681314D01*
X127166825Y-63681314D01*
X127327239Y-63729975D01*
X127327241Y-63729976D01*
X127327244Y-63729977D01*
X127475078Y-63808995D01*
X127604659Y-63915341D01*
X127711005Y-64044922D01*
X127790023Y-64192756D01*
X127790024Y-64192759D01*
X127790025Y-64192761D01*
X127835349Y-64342176D01*
X127838687Y-64353179D01*
X127855117Y-64520000D01*
X127838687Y-64686821D01*
X127790023Y-64847244D01*
X127711005Y-64995078D01*
X127604659Y-65124659D01*
X127475078Y-65231005D01*
X127327244Y-65310023D01*
X127327241Y-65310024D01*
X127327239Y-65310025D01*
X127166825Y-65358686D01*
X127166824Y-65358686D01*
X127166821Y-65358687D01*
X127041804Y-65371000D01*
X126958196Y-65371000D01*
X126833179Y-65358687D01*
X126833176Y-65358686D01*
X126833175Y-65358686D01*
X126672761Y-65310025D01*
X126672759Y-65310024D01*
X126672756Y-65310023D01*
X126524922Y-65231005D01*
X126395341Y-65124659D01*
X126288995Y-64995078D01*
X126209977Y-64847244D01*
X126161313Y-64686821D01*
X126144883Y-64520000D01*
X126161313Y-64353179D01*
X126164651Y-64342176D01*
X126209975Y-64192761D01*
X126209976Y-64192759D01*
X126209977Y-64192756D01*
X126288995Y-64044922D01*
X126395341Y-63915341D01*
X126524922Y-63808995D01*
X126672756Y-63729977D01*
X126672759Y-63729976D01*
X126672761Y-63729975D01*
X126833175Y-63681314D01*
X126833176Y-63681314D01*
X126833179Y-63681313D01*
X126958196Y-63669000D01*
X127041804Y-63669000D01*
X127166821Y-63681313D01*
X127166821Y-63681313D01*
G37*
G36*
X111926821Y-63681313D02*
X111926824Y-63681314D01*
X111926825Y-63681314D01*
X112087239Y-63729975D01*
X112087241Y-63729976D01*
X112087244Y-63729977D01*
X112235078Y-63808995D01*
X112364659Y-63915341D01*
X112471005Y-64044922D01*
X112550023Y-64192756D01*
X112550024Y-64192759D01*
X112550025Y-64192761D01*
X112595349Y-64342176D01*
X112598687Y-64353179D01*
X112615117Y-64520000D01*
X112598687Y-64686821D01*
X112550023Y-64847244D01*
X112471005Y-64995078D01*
X112364659Y-65124659D01*
X112235078Y-65231005D01*
X112087244Y-65310023D01*
X112087241Y-65310024D01*
X112087239Y-65310025D01*
X111926825Y-65358686D01*
X111926824Y-65358686D01*
X111926821Y-65358687D01*
X111801804Y-65371000D01*
X111718196Y-65371000D01*
X111593179Y-65358687D01*
X111593176Y-65358686D01*
X111593175Y-65358686D01*
X111432761Y-65310025D01*
X111432759Y-65310024D01*
X111432756Y-65310023D01*
X111284922Y-65231005D01*
X111155341Y-65124659D01*
X111048995Y-64995078D01*
X110969977Y-64847244D01*
X110921313Y-64686821D01*
X110904883Y-64520000D01*
X110921313Y-64353179D01*
X110924651Y-64342176D01*
X110969975Y-64192761D01*
X110969976Y-64192759D01*
X110969977Y-64192756D01*
X111048995Y-64044922D01*
X111155341Y-63915341D01*
X111284922Y-63808995D01*
X111432756Y-63729977D01*
X111432759Y-63729976D01*
X111432761Y-63729975D01*
X111593175Y-63681314D01*
X111593176Y-63681314D01*
X111593179Y-63681313D01*
X111718196Y-63669000D01*
X111801804Y-63669000D01*
X111926821Y-63681313D01*
X111926821Y-63681313D01*
G37*
G36*
X159733643Y-62949781D02*
X159879415Y-63010162D01*
X160010611Y-63097824D01*
X160122176Y-63209389D01*
X160209838Y-63340585D01*
X160270219Y-63486357D01*
X160301000Y-63641107D01*
X160301000Y-63798893D01*
X160270219Y-63953643D01*
X160209838Y-64099415D01*
X160122176Y-64230611D01*
X160010611Y-64342176D01*
X159879415Y-64429838D01*
X159733643Y-64490219D01*
X159578893Y-64521000D01*
X159421107Y-64521000D01*
X159266357Y-64490219D01*
X159120585Y-64429838D01*
X158989389Y-64342176D01*
X158877824Y-64230611D01*
X158790162Y-64099415D01*
X158729781Y-63953643D01*
X158699000Y-63798893D01*
X158699000Y-63641107D01*
X158729781Y-63486357D01*
X158790162Y-63340585D01*
X158877824Y-63209389D01*
X158989389Y-63097824D01*
X159120585Y-63010162D01*
X159266357Y-62949781D01*
X159421107Y-62919000D01*
X159578893Y-62919000D01*
X159733643Y-62949781D01*
X159733643Y-62949781D01*
G37*
G36*
X134333643Y-62949781D02*
X134479415Y-63010162D01*
X134610611Y-63097824D01*
X134722176Y-63209389D01*
X134809838Y-63340585D01*
X134870219Y-63486357D01*
X134901000Y-63641107D01*
X134901000Y-63798893D01*
X134870219Y-63953643D01*
X134809838Y-64099415D01*
X134722176Y-64230611D01*
X134610611Y-64342176D01*
X134479415Y-64429838D01*
X134333643Y-64490219D01*
X134178893Y-64521000D01*
X134021107Y-64521000D01*
X133866357Y-64490219D01*
X133720585Y-64429838D01*
X133589389Y-64342176D01*
X133477824Y-64230611D01*
X133390162Y-64099415D01*
X133329781Y-63953643D01*
X133299000Y-63798893D01*
X133299000Y-63641107D01*
X133329781Y-63486357D01*
X133390162Y-63340585D01*
X133477824Y-63209389D01*
X133589389Y-63097824D01*
X133720585Y-63010162D01*
X133866357Y-62949781D01*
X134021107Y-62919000D01*
X134178893Y-62919000D01*
X134333643Y-62949781D01*
X134333643Y-62949781D01*
G37*
G36*
X127166821Y-61141313D02*
X127166824Y-61141314D01*
X127166825Y-61141314D01*
X127327239Y-61189975D01*
X127327241Y-61189976D01*
X127327244Y-61189977D01*
X127475078Y-61268995D01*
X127604659Y-61375341D01*
X127711005Y-61504922D01*
X127790023Y-61652756D01*
X127790024Y-61652759D01*
X127790025Y-61652761D01*
X127835349Y-61802176D01*
X127838687Y-61813179D01*
X127855117Y-61980000D01*
X127838687Y-62146821D01*
X127790023Y-62307244D01*
X127711005Y-62455078D01*
X127604659Y-62584659D01*
X127475078Y-62691005D01*
X127327244Y-62770023D01*
X127327241Y-62770024D01*
X127327239Y-62770025D01*
X127166825Y-62818686D01*
X127166824Y-62818686D01*
X127166821Y-62818687D01*
X127041804Y-62831000D01*
X126958196Y-62831000D01*
X126833179Y-62818687D01*
X126833176Y-62818686D01*
X126833175Y-62818686D01*
X126672761Y-62770025D01*
X126672759Y-62770024D01*
X126672756Y-62770023D01*
X126524922Y-62691005D01*
X126395341Y-62584659D01*
X126288995Y-62455078D01*
X126209977Y-62307244D01*
X126161313Y-62146821D01*
X126144883Y-61980000D01*
X126161313Y-61813179D01*
X126164651Y-61802176D01*
X126209975Y-61652761D01*
X126209976Y-61652759D01*
X126209977Y-61652756D01*
X126288995Y-61504922D01*
X126395341Y-61375341D01*
X126524922Y-61268995D01*
X126672756Y-61189977D01*
X126672759Y-61189976D01*
X126672761Y-61189975D01*
X126833175Y-61141314D01*
X126833176Y-61141314D01*
X126833179Y-61141313D01*
X126958196Y-61129000D01*
X127041804Y-61129000D01*
X127166821Y-61141313D01*
X127166821Y-61141313D01*
G37*
G36*
X111926821Y-61141313D02*
X111926824Y-61141314D01*
X111926825Y-61141314D01*
X112087239Y-61189975D01*
X112087241Y-61189976D01*
X112087244Y-61189977D01*
X112235078Y-61268995D01*
X112364659Y-61375341D01*
X112471005Y-61504922D01*
X112550023Y-61652756D01*
X112550024Y-61652759D01*
X112550025Y-61652761D01*
X112595349Y-61802176D01*
X112598687Y-61813179D01*
X112615117Y-61980000D01*
X112598687Y-62146821D01*
X112550023Y-62307244D01*
X112471005Y-62455078D01*
X112364659Y-62584659D01*
X112235078Y-62691005D01*
X112087244Y-62770023D01*
X112087241Y-62770024D01*
X112087239Y-62770025D01*
X111926825Y-62818686D01*
X111926824Y-62818686D01*
X111926821Y-62818687D01*
X111801804Y-62831000D01*
X111718196Y-62831000D01*
X111593179Y-62818687D01*
X111593176Y-62818686D01*
X111593175Y-62818686D01*
X111432761Y-62770025D01*
X111432759Y-62770024D01*
X111432756Y-62770023D01*
X111284922Y-62691005D01*
X111155341Y-62584659D01*
X111048995Y-62455078D01*
X110969977Y-62307244D01*
X110921313Y-62146821D01*
X110904883Y-61980000D01*
X110921313Y-61813179D01*
X110924651Y-61802176D01*
X110969975Y-61652761D01*
X110969976Y-61652759D01*
X110969977Y-61652756D01*
X111048995Y-61504922D01*
X111155341Y-61375341D01*
X111284922Y-61268995D01*
X111432756Y-61189977D01*
X111432759Y-61189976D01*
X111432761Y-61189975D01*
X111593175Y-61141314D01*
X111593176Y-61141314D01*
X111593179Y-61141313D01*
X111718196Y-61129000D01*
X111801804Y-61129000D01*
X111926821Y-61141313D01*
X111926821Y-61141313D01*
G37*
G36*
X159733643Y-60409781D02*
X159879415Y-60470162D01*
X160010611Y-60557824D01*
X160122176Y-60669389D01*
X160209838Y-60800585D01*
X160270219Y-60946357D01*
X160301000Y-61101107D01*
X160301000Y-61258893D01*
X160270219Y-61413643D01*
X160209838Y-61559415D01*
X160122176Y-61690611D01*
X160010611Y-61802176D01*
X159879415Y-61889838D01*
X159733643Y-61950219D01*
X159578893Y-61981000D01*
X159421107Y-61981000D01*
X159266357Y-61950219D01*
X159120585Y-61889838D01*
X158989389Y-61802176D01*
X158877824Y-61690611D01*
X158790162Y-61559415D01*
X158729781Y-61413643D01*
X158699000Y-61258893D01*
X158699000Y-61101107D01*
X158729781Y-60946357D01*
X158790162Y-60800585D01*
X158877824Y-60669389D01*
X158989389Y-60557824D01*
X159120585Y-60470162D01*
X159266357Y-60409781D01*
X159421107Y-60379000D01*
X159578893Y-60379000D01*
X159733643Y-60409781D01*
X159733643Y-60409781D01*
G37*
G36*
X134333643Y-60409781D02*
X134479415Y-60470162D01*
X134610611Y-60557824D01*
X134722176Y-60669389D01*
X134809838Y-60800585D01*
X134870219Y-60946357D01*
X134901000Y-61101107D01*
X134901000Y-61258893D01*
X134870219Y-61413643D01*
X134809838Y-61559415D01*
X134722176Y-61690611D01*
X134610611Y-61802176D01*
X134479415Y-61889838D01*
X134333643Y-61950219D01*
X134178893Y-61981000D01*
X134021107Y-61981000D01*
X133866357Y-61950219D01*
X133720585Y-61889838D01*
X133589389Y-61802176D01*
X133477824Y-61690611D01*
X133390162Y-61559415D01*
X133329781Y-61413643D01*
X133299000Y-61258893D01*
X133299000Y-61101107D01*
X133329781Y-60946357D01*
X133390162Y-60800585D01*
X133477824Y-60669389D01*
X133589389Y-60557824D01*
X133720585Y-60470162D01*
X133866357Y-60409781D01*
X134021107Y-60379000D01*
X134178893Y-60379000D01*
X134333643Y-60409781D01*
X134333643Y-60409781D01*
G37*
G36*
X111926821Y-58601313D02*
X111926824Y-58601314D01*
X111926825Y-58601314D01*
X112087239Y-58649975D01*
X112087241Y-58649976D01*
X112087244Y-58649977D01*
X112235078Y-58728995D01*
X112364659Y-58835341D01*
X112471005Y-58964922D01*
X112550023Y-59112756D01*
X112550024Y-59112759D01*
X112550025Y-59112761D01*
X112574400Y-59193116D01*
X112598687Y-59273179D01*
X112615117Y-59440000D01*
X112598687Y-59606821D01*
X112598686Y-59606824D01*
X112598686Y-59606825D01*
X112585286Y-59651000D01*
X112550023Y-59767244D01*
X112471005Y-59915078D01*
X112364659Y-60044659D01*
X112235078Y-60151005D01*
X112087244Y-60230023D01*
X112087241Y-60230024D01*
X112087239Y-60230025D01*
X111926825Y-60278686D01*
X111926824Y-60278686D01*
X111926821Y-60278687D01*
X111801804Y-60291000D01*
X111718196Y-60291000D01*
X111593179Y-60278687D01*
X111593176Y-60278686D01*
X111593175Y-60278686D01*
X111432761Y-60230025D01*
X111432759Y-60230024D01*
X111432756Y-60230023D01*
X111284922Y-60151005D01*
X111155341Y-60044659D01*
X111048995Y-59915078D01*
X110969977Y-59767244D01*
X110934715Y-59651000D01*
X110921314Y-59606825D01*
X110921314Y-59606824D01*
X110921313Y-59606821D01*
X110904883Y-59440000D01*
X110921313Y-59273179D01*
X110945600Y-59193116D01*
X110969975Y-59112761D01*
X110969976Y-59112759D01*
X110969977Y-59112756D01*
X111048995Y-58964922D01*
X111155341Y-58835341D01*
X111284922Y-58728995D01*
X111432756Y-58649977D01*
X111432759Y-58649976D01*
X111432761Y-58649975D01*
X111593175Y-58601314D01*
X111593176Y-58601314D01*
X111593179Y-58601313D01*
X111718196Y-58589000D01*
X111801804Y-58589000D01*
X111926821Y-58601313D01*
X111926821Y-58601313D01*
G37*
G36*
X127166821Y-58601313D02*
X127166824Y-58601314D01*
X127166825Y-58601314D01*
X127327239Y-58649975D01*
X127327241Y-58649976D01*
X127327244Y-58649977D01*
X127475078Y-58728995D01*
X127604659Y-58835341D01*
X127711005Y-58964922D01*
X127790023Y-59112756D01*
X127790024Y-59112759D01*
X127790025Y-59112761D01*
X127814400Y-59193116D01*
X127838687Y-59273179D01*
X127855117Y-59440000D01*
X127838687Y-59606821D01*
X127838686Y-59606824D01*
X127838686Y-59606825D01*
X127825286Y-59651000D01*
X127790023Y-59767244D01*
X127711005Y-59915078D01*
X127604659Y-60044659D01*
X127475078Y-60151005D01*
X127327244Y-60230023D01*
X127327241Y-60230024D01*
X127327239Y-60230025D01*
X127166825Y-60278686D01*
X127166824Y-60278686D01*
X127166821Y-60278687D01*
X127041804Y-60291000D01*
X126958196Y-60291000D01*
X126833179Y-60278687D01*
X126833176Y-60278686D01*
X126833175Y-60278686D01*
X126672761Y-60230025D01*
X126672759Y-60230024D01*
X126672756Y-60230023D01*
X126524922Y-60151005D01*
X126395341Y-60044659D01*
X126288995Y-59915078D01*
X126209977Y-59767244D01*
X126174715Y-59651000D01*
X126161314Y-59606825D01*
X126161314Y-59606824D01*
X126161313Y-59606821D01*
X126144883Y-59440000D01*
X126161313Y-59273179D01*
X126185600Y-59193116D01*
X126209975Y-59112761D01*
X126209976Y-59112759D01*
X126209977Y-59112756D01*
X126288995Y-58964922D01*
X126395341Y-58835341D01*
X126524922Y-58728995D01*
X126672756Y-58649977D01*
X126672759Y-58649976D01*
X126672761Y-58649975D01*
X126833175Y-58601314D01*
X126833176Y-58601314D01*
X126833179Y-58601313D01*
X126958196Y-58589000D01*
X127041804Y-58589000D01*
X127166821Y-58601313D01*
X127166821Y-58601313D01*
G37*
G36*
X101738252Y-55627818D02*
X101738254Y-55627819D01*
X101738255Y-55627819D01*
X102111513Y-55782427D01*
X102111514Y-55782428D01*
X102447439Y-56006886D01*
X102733114Y-56292561D01*
X102733116Y-56292564D01*
X102957573Y-56628487D01*
X103112181Y-57001745D01*
X103191000Y-57397994D01*
X103191000Y-57802006D01*
X103112181Y-58198255D01*
X102957573Y-58571513D01*
X102905146Y-58649975D01*
X102733114Y-58907439D01*
X102447439Y-59193114D01*
X102447436Y-59193116D01*
X102111513Y-59417573D01*
X101738255Y-59572181D01*
X101738254Y-59572181D01*
X101738252Y-59572182D01*
X101342007Y-59651000D01*
X100937993Y-59651000D01*
X100541748Y-59572182D01*
X100541746Y-59572181D01*
X100541745Y-59572181D01*
X100168487Y-59417573D01*
X99832564Y-59193116D01*
X99832561Y-59193114D01*
X99546886Y-58907439D01*
X99374854Y-58649975D01*
X99322427Y-58571513D01*
X99167819Y-58198255D01*
X99089000Y-57802006D01*
X99089000Y-57397994D01*
X99167819Y-57001745D01*
X99322427Y-56628487D01*
X99546884Y-56292564D01*
X99546886Y-56292561D01*
X99832561Y-56006886D01*
X100168486Y-55782428D01*
X100168487Y-55782427D01*
X100541745Y-55627819D01*
X100541746Y-55627819D01*
X100541748Y-55627818D01*
X100937993Y-55549000D01*
X101342007Y-55549000D01*
X101738252Y-55627818D01*
X101738252Y-55627818D01*
G37*
M02*
