M48
;DRILL file {KiCad 5.0.2-bee76a0~70~ubuntu18.04.1} date Mon 17 Aug 2020 12:26:08 NZST
;FORMAT={-:-/ absolute / metric / decimal}
FMAT,2
METRIC,TZ
T1C0.762
T2C0.800
T3C1.000
T4C1.020
T5C3.100
%
G90
G05
T1
X141.59Y-105.81
X150.48Y-99.46
T2
X111.76Y-59.44
X111.76Y-61.98
X111.76Y-64.52
X111.76Y-67.06
X111.76Y-69.6
X111.76Y-72.14
X111.76Y-74.68
X111.76Y-77.22
X111.76Y-79.76
X111.76Y-82.3
X111.76Y-84.84
X111.76Y-87.38
X111.76Y-89.92
X111.76Y-92.46
X111.76Y-95.
X127.Y-59.44
X127.Y-61.98
X127.Y-64.52
X127.Y-67.06
X127.Y-69.6
X127.Y-72.14
X127.Y-74.68
X127.Y-77.22
X127.Y-79.76
X127.Y-82.3
X127.Y-84.84
X127.Y-87.38
X127.Y-89.92
X127.Y-92.46
X127.Y-95.
T3
X112.46Y-106.
X115.Y-106.
X99.Y-69.12
X99.Y-71.28
X99.Y-73.44
X99.Y-75.6
X99.Y-77.76
X99.Y-79.92
X99.Y-82.08
X99.Y-84.24
X99.Y-86.4
X99.Y-88.56
X99.Y-90.72
X99.Y-92.88
X103.29Y-69.12
X103.29Y-71.28
X103.29Y-73.44
X103.29Y-75.6
X103.29Y-77.76
X103.29Y-79.92
X103.29Y-82.08
X103.29Y-84.24
X103.29Y-86.4
X103.29Y-88.56
X103.29Y-90.72
X103.29Y-92.88
T4
X134.1Y-61.18
X134.1Y-63.72
X134.1Y-66.26
X134.1Y-68.8
X134.1Y-71.34
X134.1Y-73.88
X134.1Y-76.42
X134.1Y-78.96
X134.1Y-81.5
X134.1Y-84.04
X134.1Y-86.58
X134.1Y-89.12
X134.1Y-91.66
X134.1Y-94.2
X134.1Y-96.74
X134.1Y-99.28
X134.1Y-101.82
X134.1Y-104.36
X134.1Y-106.9
X159.5Y-61.18
X159.5Y-63.72
X159.5Y-66.26
X159.5Y-68.8
X159.5Y-71.34
X159.5Y-73.88
X159.5Y-76.42
X159.5Y-78.96
X159.5Y-81.5
X159.5Y-84.04
X159.5Y-86.58
X159.5Y-89.12
X159.5Y-91.66
X159.5Y-94.2
X159.5Y-96.74
X159.5Y-99.28
X159.5Y-101.82
X159.5Y-104.36
X159.5Y-106.9
T5
X101.14Y-57.6
X101.14Y-104.4
T0
M30
