G04 #@! TF.GenerationSoftware,KiCad,Pcbnew,5.0.2+dfsg1-1*
G04 #@! TF.CreationDate,2020-04-16T16:50:33+12:00*
G04 #@! TF.ProjectId,Wireless232,57697265-6c65-4737-9332-33322e6b6963,rev?*
G04 #@! TF.SameCoordinates,Original*
G04 #@! TF.FileFunction,Soldermask,Bot*
G04 #@! TF.FilePolarity,Negative*
%FSLAX46Y46*%
G04 Gerber Fmt 4.6, Leading zero omitted, Abs format (unit mm)*
G04 Created by KiCad (PCBNEW 5.0.2+dfsg1-1) date Thu 16 Apr 2020 16:50:33 NZST*
%MOMM*%
%LPD*%
G01*
G04 APERTURE LIST*
%ADD10C,0.100000*%
G04 APERTURE END LIST*
D10*
G36*
X137933643Y-108129781D02*
X138079415Y-108190162D01*
X138210611Y-108277824D01*
X138322176Y-108389389D01*
X138409838Y-108520585D01*
X138470219Y-108666357D01*
X138501000Y-108821107D01*
X138501000Y-108978893D01*
X138470219Y-109133643D01*
X138409838Y-109279415D01*
X138322176Y-109410611D01*
X138210611Y-109522176D01*
X138079415Y-109609838D01*
X137933643Y-109670219D01*
X137778893Y-109701000D01*
X137621107Y-109701000D01*
X137466357Y-109670219D01*
X137320585Y-109609838D01*
X137189389Y-109522176D01*
X137077824Y-109410611D01*
X136990162Y-109279415D01*
X136929781Y-109133643D01*
X136899000Y-108978893D01*
X136899000Y-108821107D01*
X136929781Y-108666357D01*
X136990162Y-108520585D01*
X137077824Y-108389389D01*
X137189389Y-108277824D01*
X137320585Y-108190162D01*
X137466357Y-108129781D01*
X137621107Y-108099000D01*
X137778893Y-108099000D01*
X137933643Y-108129781D01*
X137933643Y-108129781D01*
G37*
G36*
X112533643Y-108129781D02*
X112679415Y-108190162D01*
X112810611Y-108277824D01*
X112922176Y-108389389D01*
X113009838Y-108520585D01*
X113070219Y-108666357D01*
X113101000Y-108821107D01*
X113101000Y-108978893D01*
X113070219Y-109133643D01*
X113009838Y-109279415D01*
X112922176Y-109410611D01*
X112810611Y-109522176D01*
X112679415Y-109609838D01*
X112533643Y-109670219D01*
X112378893Y-109701000D01*
X112221107Y-109701000D01*
X112066357Y-109670219D01*
X111920585Y-109609838D01*
X111789389Y-109522176D01*
X111677824Y-109410611D01*
X111590162Y-109279415D01*
X111529781Y-109133643D01*
X111499000Y-108978893D01*
X111499000Y-108821107D01*
X111529781Y-108666357D01*
X111590162Y-108520585D01*
X111677824Y-108389389D01*
X111789389Y-108277824D01*
X111920585Y-108190162D01*
X112066357Y-108129781D01*
X112221107Y-108099000D01*
X112378893Y-108099000D01*
X112533643Y-108129781D01*
X112533643Y-108129781D01*
G37*
G36*
X147018252Y-104067818D02*
X147018254Y-104067819D01*
X147018255Y-104067819D01*
X147391513Y-104222427D01*
X147391514Y-104222428D01*
X147727439Y-104446886D01*
X148013114Y-104732561D01*
X148013116Y-104732564D01*
X148237573Y-105068487D01*
X148385659Y-105426000D01*
X148392182Y-105441748D01*
X148471000Y-105837993D01*
X148471000Y-106242007D01*
X148463223Y-106281107D01*
X148392181Y-106638255D01*
X148237573Y-107011513D01*
X148158256Y-107130219D01*
X148013114Y-107347439D01*
X147727439Y-107633114D01*
X147727436Y-107633116D01*
X147391513Y-107857573D01*
X147018255Y-108012181D01*
X147018254Y-108012181D01*
X147018252Y-108012182D01*
X146622007Y-108091000D01*
X146217993Y-108091000D01*
X145821748Y-108012182D01*
X145821746Y-108012181D01*
X145821745Y-108012181D01*
X145448487Y-107857573D01*
X145112564Y-107633116D01*
X145112561Y-107633114D01*
X144826886Y-107347439D01*
X144681744Y-107130219D01*
X144602427Y-107011513D01*
X144447819Y-106638255D01*
X144376778Y-106281107D01*
X144369000Y-106242007D01*
X144369000Y-105837993D01*
X144447818Y-105441748D01*
X144454341Y-105426000D01*
X144602427Y-105068487D01*
X144826884Y-104732564D01*
X144826886Y-104732561D01*
X145112561Y-104446886D01*
X145448486Y-104222428D01*
X145448487Y-104222427D01*
X145821745Y-104067819D01*
X145821746Y-104067819D01*
X145821748Y-104067818D01*
X146217993Y-103989000D01*
X146622007Y-103989000D01*
X147018252Y-104067818D01*
X147018252Y-104067818D01*
G37*
G36*
X104178252Y-104067818D02*
X104178254Y-104067819D01*
X104178255Y-104067819D01*
X104551513Y-104222427D01*
X104551514Y-104222428D01*
X104887439Y-104446886D01*
X105173114Y-104732561D01*
X105173116Y-104732564D01*
X105397573Y-105068487D01*
X105545659Y-105426000D01*
X105552182Y-105441748D01*
X105631000Y-105837993D01*
X105631000Y-106242007D01*
X105623223Y-106281107D01*
X105552181Y-106638255D01*
X105397573Y-107011513D01*
X105318256Y-107130219D01*
X105173114Y-107347439D01*
X104887439Y-107633114D01*
X104887436Y-107633116D01*
X104551513Y-107857573D01*
X104178255Y-108012181D01*
X104178254Y-108012181D01*
X104178252Y-108012182D01*
X103782007Y-108091000D01*
X103377993Y-108091000D01*
X102981748Y-108012182D01*
X102981746Y-108012181D01*
X102981745Y-108012181D01*
X102608487Y-107857573D01*
X102272564Y-107633116D01*
X102272561Y-107633114D01*
X101986886Y-107347439D01*
X101841744Y-107130219D01*
X101762427Y-107011513D01*
X101607819Y-106638255D01*
X101536778Y-106281107D01*
X101529000Y-106242007D01*
X101529000Y-105837993D01*
X101607818Y-105441748D01*
X101614341Y-105426000D01*
X101762427Y-105068487D01*
X101986884Y-104732564D01*
X101986886Y-104732561D01*
X102272561Y-104446886D01*
X102608486Y-104222428D01*
X102608487Y-104222427D01*
X102981745Y-104067819D01*
X102981746Y-104067819D01*
X102981748Y-104067818D01*
X103377993Y-103989000D01*
X103782007Y-103989000D01*
X104178252Y-104067818D01*
X104178252Y-104067818D01*
G37*
G36*
X125718604Y-106078347D02*
X125755145Y-106089432D01*
X125788820Y-106107431D01*
X125818341Y-106131659D01*
X125842569Y-106161180D01*
X125860568Y-106194855D01*
X125871653Y-106231396D01*
X125876000Y-106275538D01*
X125876000Y-107724462D01*
X125871653Y-107768604D01*
X125860568Y-107805145D01*
X125842569Y-107838820D01*
X125818341Y-107868341D01*
X125788820Y-107892569D01*
X125755145Y-107910568D01*
X125718604Y-107921653D01*
X125674462Y-107926000D01*
X124725538Y-107926000D01*
X124681396Y-107921653D01*
X124644855Y-107910568D01*
X124611180Y-107892569D01*
X124581659Y-107868341D01*
X124557431Y-107838820D01*
X124539432Y-107805145D01*
X124528347Y-107768604D01*
X124524000Y-107724462D01*
X124524000Y-106275538D01*
X124528347Y-106231396D01*
X124539432Y-106194855D01*
X124557431Y-106161180D01*
X124581659Y-106131659D01*
X124611180Y-106107431D01*
X124644855Y-106089432D01*
X124681396Y-106078347D01*
X124725538Y-106074000D01*
X125674462Y-106074000D01*
X125718604Y-106078347D01*
X125718604Y-106078347D01*
G37*
G36*
X122918604Y-106078347D02*
X122955145Y-106089432D01*
X122988820Y-106107431D01*
X123018341Y-106131659D01*
X123042569Y-106161180D01*
X123060568Y-106194855D01*
X123071653Y-106231396D01*
X123076000Y-106275538D01*
X123076000Y-107724462D01*
X123071653Y-107768604D01*
X123060568Y-107805145D01*
X123042569Y-107838820D01*
X123018341Y-107868341D01*
X122988820Y-107892569D01*
X122955145Y-107910568D01*
X122918604Y-107921653D01*
X122874462Y-107926000D01*
X121925538Y-107926000D01*
X121881396Y-107921653D01*
X121844855Y-107910568D01*
X121811180Y-107892569D01*
X121781659Y-107868341D01*
X121757431Y-107838820D01*
X121739432Y-107805145D01*
X121728347Y-107768604D01*
X121724000Y-107724462D01*
X121724000Y-106275538D01*
X121728347Y-106231396D01*
X121739432Y-106194855D01*
X121757431Y-106161180D01*
X121781659Y-106131659D01*
X121811180Y-106107431D01*
X121844855Y-106089432D01*
X121881396Y-106078347D01*
X121925538Y-106074000D01*
X122874462Y-106074000D01*
X122918604Y-106078347D01*
X122918604Y-106078347D01*
G37*
G36*
X112533643Y-105589781D02*
X112679415Y-105650162D01*
X112810611Y-105737824D01*
X112922176Y-105849389D01*
X113009838Y-105980585D01*
X113070219Y-106126357D01*
X113101000Y-106281107D01*
X113101000Y-106438893D01*
X113070219Y-106593643D01*
X113009838Y-106739415D01*
X112922176Y-106870611D01*
X112810611Y-106982176D01*
X112679415Y-107069838D01*
X112533643Y-107130219D01*
X112378893Y-107161000D01*
X112221107Y-107161000D01*
X112066357Y-107130219D01*
X111920585Y-107069838D01*
X111789389Y-106982176D01*
X111677824Y-106870611D01*
X111590162Y-106739415D01*
X111529781Y-106593643D01*
X111499000Y-106438893D01*
X111499000Y-106281107D01*
X111529781Y-106126357D01*
X111590162Y-105980585D01*
X111677824Y-105849389D01*
X111789389Y-105737824D01*
X111920585Y-105650162D01*
X112066357Y-105589781D01*
X112221107Y-105559000D01*
X112378893Y-105559000D01*
X112533643Y-105589781D01*
X112533643Y-105589781D01*
G37*
G36*
X137933643Y-105589781D02*
X138079415Y-105650162D01*
X138210611Y-105737824D01*
X138322176Y-105849389D01*
X138409838Y-105980585D01*
X138470219Y-106126357D01*
X138501000Y-106281107D01*
X138501000Y-106438893D01*
X138470219Y-106593643D01*
X138409838Y-106739415D01*
X138322176Y-106870611D01*
X138210611Y-106982176D01*
X138079415Y-107069838D01*
X137933643Y-107130219D01*
X137778893Y-107161000D01*
X137621107Y-107161000D01*
X137466357Y-107130219D01*
X137320585Y-107069838D01*
X137189389Y-106982176D01*
X137077824Y-106870611D01*
X136990162Y-106739415D01*
X136929781Y-106593643D01*
X136899000Y-106438893D01*
X136899000Y-106281107D01*
X136929781Y-106126357D01*
X136990162Y-105980585D01*
X137077824Y-105849389D01*
X137189389Y-105737824D01*
X137320585Y-105650162D01*
X137466357Y-105589781D01*
X137621107Y-105559000D01*
X137778893Y-105559000D01*
X137933643Y-105589781D01*
X137933643Y-105589781D01*
G37*
G36*
X122918604Y-103578347D02*
X122955145Y-103589432D01*
X122988820Y-103607431D01*
X123018341Y-103631659D01*
X123042569Y-103661180D01*
X123060568Y-103694855D01*
X123071653Y-103731396D01*
X123076000Y-103775538D01*
X123076000Y-105224462D01*
X123071653Y-105268604D01*
X123060568Y-105305145D01*
X123042569Y-105338820D01*
X123018341Y-105368341D01*
X122988820Y-105392569D01*
X122955145Y-105410568D01*
X122918604Y-105421653D01*
X122874462Y-105426000D01*
X121925538Y-105426000D01*
X121881396Y-105421653D01*
X121844855Y-105410568D01*
X121811180Y-105392569D01*
X121781659Y-105368341D01*
X121757431Y-105338820D01*
X121739432Y-105305145D01*
X121728347Y-105268604D01*
X121724000Y-105224462D01*
X121724000Y-103775538D01*
X121728347Y-103731396D01*
X121739432Y-103694855D01*
X121757431Y-103661180D01*
X121781659Y-103631659D01*
X121811180Y-103607431D01*
X121844855Y-103589432D01*
X121881396Y-103578347D01*
X121925538Y-103574000D01*
X122874462Y-103574000D01*
X122918604Y-103578347D01*
X122918604Y-103578347D01*
G37*
G36*
X125718604Y-103578347D02*
X125755145Y-103589432D01*
X125788820Y-103607431D01*
X125818341Y-103631659D01*
X125842569Y-103661180D01*
X125860568Y-103694855D01*
X125871653Y-103731396D01*
X125876000Y-103775538D01*
X125876000Y-105224462D01*
X125871653Y-105268604D01*
X125860568Y-105305145D01*
X125842569Y-105338820D01*
X125818341Y-105368341D01*
X125788820Y-105392569D01*
X125755145Y-105410568D01*
X125718604Y-105421653D01*
X125674462Y-105426000D01*
X124725538Y-105426000D01*
X124681396Y-105421653D01*
X124644855Y-105410568D01*
X124611180Y-105392569D01*
X124581659Y-105368341D01*
X124557431Y-105338820D01*
X124539432Y-105305145D01*
X124528347Y-105268604D01*
X124524000Y-105224462D01*
X124524000Y-103775538D01*
X124528347Y-103731396D01*
X124539432Y-103694855D01*
X124557431Y-103661180D01*
X124581659Y-103631659D01*
X124611180Y-103607431D01*
X124644855Y-103589432D01*
X124681396Y-103578347D01*
X124725538Y-103574000D01*
X125674462Y-103574000D01*
X125718604Y-103578347D01*
X125718604Y-103578347D01*
G37*
G36*
X137933643Y-103049781D02*
X138079415Y-103110162D01*
X138210611Y-103197824D01*
X138322176Y-103309389D01*
X138409838Y-103440585D01*
X138470219Y-103586357D01*
X138501000Y-103741107D01*
X138501000Y-103898893D01*
X138470219Y-104053643D01*
X138409838Y-104199415D01*
X138322176Y-104330611D01*
X138210611Y-104442176D01*
X138079415Y-104529838D01*
X137933643Y-104590219D01*
X137778893Y-104621000D01*
X137621107Y-104621000D01*
X137466357Y-104590219D01*
X137320585Y-104529838D01*
X137189389Y-104442176D01*
X137077824Y-104330611D01*
X136990162Y-104199415D01*
X136929781Y-104053643D01*
X136899000Y-103898893D01*
X136899000Y-103741107D01*
X136929781Y-103586357D01*
X136990162Y-103440585D01*
X137077824Y-103309389D01*
X137189389Y-103197824D01*
X137320585Y-103110162D01*
X137466357Y-103049781D01*
X137621107Y-103019000D01*
X137778893Y-103019000D01*
X137933643Y-103049781D01*
X137933643Y-103049781D01*
G37*
G36*
X112533643Y-103049781D02*
X112679415Y-103110162D01*
X112810611Y-103197824D01*
X112922176Y-103309389D01*
X113009838Y-103440585D01*
X113070219Y-103586357D01*
X113101000Y-103741107D01*
X113101000Y-103898893D01*
X113070219Y-104053643D01*
X113009838Y-104199415D01*
X112922176Y-104330611D01*
X112810611Y-104442176D01*
X112679415Y-104529838D01*
X112533643Y-104590219D01*
X112378893Y-104621000D01*
X112221107Y-104621000D01*
X112066357Y-104590219D01*
X111920585Y-104529838D01*
X111789389Y-104442176D01*
X111677824Y-104330611D01*
X111590162Y-104199415D01*
X111529781Y-104053643D01*
X111499000Y-103898893D01*
X111499000Y-103741107D01*
X111529781Y-103586357D01*
X111590162Y-103440585D01*
X111677824Y-103309389D01*
X111789389Y-103197824D01*
X111920585Y-103110162D01*
X112066357Y-103049781D01*
X112221107Y-103019000D01*
X112378893Y-103019000D01*
X112533643Y-103049781D01*
X112533643Y-103049781D01*
G37*
G36*
X125618604Y-100878347D02*
X125655145Y-100889432D01*
X125688820Y-100907431D01*
X125718341Y-100931659D01*
X125742569Y-100961180D01*
X125760568Y-100994855D01*
X125771653Y-101031396D01*
X125776000Y-101075538D01*
X125776000Y-102524462D01*
X125771653Y-102568604D01*
X125760568Y-102605145D01*
X125742569Y-102638820D01*
X125718341Y-102668341D01*
X125688820Y-102692569D01*
X125655145Y-102710568D01*
X125618604Y-102721653D01*
X125574462Y-102726000D01*
X124625538Y-102726000D01*
X124581396Y-102721653D01*
X124544855Y-102710568D01*
X124511180Y-102692569D01*
X124481659Y-102668341D01*
X124457431Y-102638820D01*
X124439432Y-102605145D01*
X124428347Y-102568604D01*
X124424000Y-102524462D01*
X124424000Y-101075538D01*
X124428347Y-101031396D01*
X124439432Y-100994855D01*
X124457431Y-100961180D01*
X124481659Y-100931659D01*
X124511180Y-100907431D01*
X124544855Y-100889432D01*
X124581396Y-100878347D01*
X124625538Y-100874000D01*
X125574462Y-100874000D01*
X125618604Y-100878347D01*
X125618604Y-100878347D01*
G37*
G36*
X122818604Y-100878347D02*
X122855145Y-100889432D01*
X122888820Y-100907431D01*
X122918341Y-100931659D01*
X122942569Y-100961180D01*
X122960568Y-100994855D01*
X122971653Y-101031396D01*
X122976000Y-101075538D01*
X122976000Y-102524462D01*
X122971653Y-102568604D01*
X122960568Y-102605145D01*
X122942569Y-102638820D01*
X122918341Y-102668341D01*
X122888820Y-102692569D01*
X122855145Y-102710568D01*
X122818604Y-102721653D01*
X122774462Y-102726000D01*
X121825538Y-102726000D01*
X121781396Y-102721653D01*
X121744855Y-102710568D01*
X121711180Y-102692569D01*
X121681659Y-102668341D01*
X121657431Y-102638820D01*
X121639432Y-102605145D01*
X121628347Y-102568604D01*
X121624000Y-102524462D01*
X121624000Y-101075538D01*
X121628347Y-101031396D01*
X121639432Y-100994855D01*
X121657431Y-100961180D01*
X121681659Y-100931659D01*
X121711180Y-100907431D01*
X121744855Y-100889432D01*
X121781396Y-100878347D01*
X121825538Y-100874000D01*
X122774462Y-100874000D01*
X122818604Y-100878347D01*
X122818604Y-100878347D01*
G37*
G36*
X112533643Y-100509781D02*
X112679415Y-100570162D01*
X112810611Y-100657824D01*
X112922176Y-100769389D01*
X113009838Y-100900585D01*
X113070219Y-101046357D01*
X113101000Y-101201107D01*
X113101000Y-101358893D01*
X113070219Y-101513643D01*
X113009838Y-101659415D01*
X112922176Y-101790611D01*
X112810611Y-101902176D01*
X112679415Y-101989838D01*
X112533643Y-102050219D01*
X112378893Y-102081000D01*
X112221107Y-102081000D01*
X112066357Y-102050219D01*
X111920585Y-101989838D01*
X111789389Y-101902176D01*
X111677824Y-101790611D01*
X111590162Y-101659415D01*
X111529781Y-101513643D01*
X111499000Y-101358893D01*
X111499000Y-101201107D01*
X111529781Y-101046357D01*
X111590162Y-100900585D01*
X111677824Y-100769389D01*
X111789389Y-100657824D01*
X111920585Y-100570162D01*
X112066357Y-100509781D01*
X112221107Y-100479000D01*
X112378893Y-100479000D01*
X112533643Y-100509781D01*
X112533643Y-100509781D01*
G37*
G36*
X137933643Y-100509781D02*
X138079415Y-100570162D01*
X138210611Y-100657824D01*
X138322176Y-100769389D01*
X138409838Y-100900585D01*
X138470219Y-101046357D01*
X138501000Y-101201107D01*
X138501000Y-101358893D01*
X138470219Y-101513643D01*
X138409838Y-101659415D01*
X138322176Y-101790611D01*
X138210611Y-101902176D01*
X138079415Y-101989838D01*
X137933643Y-102050219D01*
X137778893Y-102081000D01*
X137621107Y-102081000D01*
X137466357Y-102050219D01*
X137320585Y-101989838D01*
X137189389Y-101902176D01*
X137077824Y-101790611D01*
X136990162Y-101659415D01*
X136929781Y-101513643D01*
X136899000Y-101358893D01*
X136899000Y-101201107D01*
X136929781Y-101046357D01*
X136990162Y-100900585D01*
X137077824Y-100769389D01*
X137189389Y-100657824D01*
X137320585Y-100570162D01*
X137466357Y-100509781D01*
X137621107Y-100479000D01*
X137778893Y-100479000D01*
X137933643Y-100509781D01*
X137933643Y-100509781D01*
G37*
G36*
X125718604Y-98378347D02*
X125755145Y-98389432D01*
X125788820Y-98407431D01*
X125818341Y-98431659D01*
X125842569Y-98461180D01*
X125860568Y-98494855D01*
X125871653Y-98531396D01*
X125876000Y-98575538D01*
X125876000Y-100024462D01*
X125871653Y-100068604D01*
X125860568Y-100105145D01*
X125842569Y-100138820D01*
X125818341Y-100168341D01*
X125788820Y-100192569D01*
X125755145Y-100210568D01*
X125718604Y-100221653D01*
X125674462Y-100226000D01*
X124725538Y-100226000D01*
X124681396Y-100221653D01*
X124644855Y-100210568D01*
X124611180Y-100192569D01*
X124581659Y-100168341D01*
X124557431Y-100138820D01*
X124539432Y-100105145D01*
X124528347Y-100068604D01*
X124524000Y-100024462D01*
X124524000Y-98575538D01*
X124528347Y-98531396D01*
X124539432Y-98494855D01*
X124557431Y-98461180D01*
X124581659Y-98431659D01*
X124611180Y-98407431D01*
X124644855Y-98389432D01*
X124681396Y-98378347D01*
X124725538Y-98374000D01*
X125674462Y-98374000D01*
X125718604Y-98378347D01*
X125718604Y-98378347D01*
G37*
G36*
X122918604Y-98378347D02*
X122955145Y-98389432D01*
X122988820Y-98407431D01*
X123018341Y-98431659D01*
X123042569Y-98461180D01*
X123060568Y-98494855D01*
X123071653Y-98531396D01*
X123076000Y-98575538D01*
X123076000Y-100024462D01*
X123071653Y-100068604D01*
X123060568Y-100105145D01*
X123042569Y-100138820D01*
X123018341Y-100168341D01*
X122988820Y-100192569D01*
X122955145Y-100210568D01*
X122918604Y-100221653D01*
X122874462Y-100226000D01*
X121925538Y-100226000D01*
X121881396Y-100221653D01*
X121844855Y-100210568D01*
X121811180Y-100192569D01*
X121781659Y-100168341D01*
X121757431Y-100138820D01*
X121739432Y-100105145D01*
X121728347Y-100068604D01*
X121724000Y-100024462D01*
X121724000Y-98575538D01*
X121728347Y-98531396D01*
X121739432Y-98494855D01*
X121757431Y-98461180D01*
X121781659Y-98431659D01*
X121811180Y-98407431D01*
X121844855Y-98389432D01*
X121881396Y-98378347D01*
X121925538Y-98374000D01*
X122874462Y-98374000D01*
X122918604Y-98378347D01*
X122918604Y-98378347D01*
G37*
G36*
X105248228Y-98261703D02*
X105403100Y-98325853D01*
X105542481Y-98418985D01*
X105661015Y-98537519D01*
X105754147Y-98676900D01*
X105818297Y-98831772D01*
X105851000Y-98996184D01*
X105851000Y-99163816D01*
X105818297Y-99328228D01*
X105754147Y-99483100D01*
X105661015Y-99622481D01*
X105542481Y-99741015D01*
X105403100Y-99834147D01*
X105248228Y-99898297D01*
X105083816Y-99931000D01*
X104916184Y-99931000D01*
X104751772Y-99898297D01*
X104596900Y-99834147D01*
X104457519Y-99741015D01*
X104338985Y-99622481D01*
X104245853Y-99483100D01*
X104181703Y-99328228D01*
X104149000Y-99163816D01*
X104149000Y-98996184D01*
X104181703Y-98831772D01*
X104245853Y-98676900D01*
X104338985Y-98537519D01*
X104457519Y-98418985D01*
X104596900Y-98325853D01*
X104751772Y-98261703D01*
X104916184Y-98229000D01*
X105083816Y-98229000D01*
X105248228Y-98261703D01*
X105248228Y-98261703D01*
G37*
G36*
X145248228Y-98261703D02*
X145403100Y-98325853D01*
X145542481Y-98418985D01*
X145661015Y-98537519D01*
X145754147Y-98676900D01*
X145818297Y-98831772D01*
X145851000Y-98996184D01*
X145851000Y-99163816D01*
X145818297Y-99328228D01*
X145754147Y-99483100D01*
X145661015Y-99622481D01*
X145542481Y-99741015D01*
X145403100Y-99834147D01*
X145248228Y-99898297D01*
X145083816Y-99931000D01*
X144916184Y-99931000D01*
X144751772Y-99898297D01*
X144596900Y-99834147D01*
X144457519Y-99741015D01*
X144338985Y-99622481D01*
X144245853Y-99483100D01*
X144181703Y-99328228D01*
X144149000Y-99163816D01*
X144149000Y-98996184D01*
X144181703Y-98831772D01*
X144245853Y-98676900D01*
X144338985Y-98537519D01*
X144457519Y-98418985D01*
X144596900Y-98325853D01*
X144751772Y-98261703D01*
X144916184Y-98229000D01*
X145083816Y-98229000D01*
X145248228Y-98261703D01*
X145248228Y-98261703D01*
G37*
G36*
X112533643Y-97969781D02*
X112679415Y-98030162D01*
X112810611Y-98117824D01*
X112922176Y-98229389D01*
X113009838Y-98360585D01*
X113070219Y-98506357D01*
X113101000Y-98661107D01*
X113101000Y-98818893D01*
X113070219Y-98973643D01*
X113009838Y-99119415D01*
X112922176Y-99250611D01*
X112810611Y-99362176D01*
X112679415Y-99449838D01*
X112533643Y-99510219D01*
X112378893Y-99541000D01*
X112221107Y-99541000D01*
X112066357Y-99510219D01*
X111920585Y-99449838D01*
X111789389Y-99362176D01*
X111677824Y-99250611D01*
X111590162Y-99119415D01*
X111529781Y-98973643D01*
X111499000Y-98818893D01*
X111499000Y-98661107D01*
X111529781Y-98506357D01*
X111590162Y-98360585D01*
X111677824Y-98229389D01*
X111789389Y-98117824D01*
X111920585Y-98030162D01*
X112066357Y-97969781D01*
X112221107Y-97939000D01*
X112378893Y-97939000D01*
X112533643Y-97969781D01*
X112533643Y-97969781D01*
G37*
G36*
X137933643Y-97969781D02*
X138079415Y-98030162D01*
X138210611Y-98117824D01*
X138322176Y-98229389D01*
X138409838Y-98360585D01*
X138470219Y-98506357D01*
X138501000Y-98661107D01*
X138501000Y-98818893D01*
X138470219Y-98973643D01*
X138409838Y-99119415D01*
X138322176Y-99250611D01*
X138210611Y-99362176D01*
X138079415Y-99449838D01*
X137933643Y-99510219D01*
X137778893Y-99541000D01*
X137621107Y-99541000D01*
X137466357Y-99510219D01*
X137320585Y-99449838D01*
X137189389Y-99362176D01*
X137077824Y-99250611D01*
X136990162Y-99119415D01*
X136929781Y-98973643D01*
X136899000Y-98818893D01*
X136899000Y-98661107D01*
X136929781Y-98506357D01*
X136990162Y-98360585D01*
X137077824Y-98229389D01*
X137189389Y-98117824D01*
X137320585Y-98030162D01*
X137466357Y-97969781D01*
X137621107Y-97939000D01*
X137778893Y-97939000D01*
X137933643Y-97969781D01*
X137933643Y-97969781D01*
G37*
G36*
X148088228Y-96876703D02*
X148243100Y-96940853D01*
X148382481Y-97033985D01*
X148501015Y-97152519D01*
X148594147Y-97291900D01*
X148658297Y-97446772D01*
X148691000Y-97611184D01*
X148691000Y-97778816D01*
X148658297Y-97943228D01*
X148594147Y-98098100D01*
X148501015Y-98237481D01*
X148382481Y-98356015D01*
X148243100Y-98449147D01*
X148088228Y-98513297D01*
X147923816Y-98546000D01*
X147756184Y-98546000D01*
X147591772Y-98513297D01*
X147436900Y-98449147D01*
X147297519Y-98356015D01*
X147178985Y-98237481D01*
X147085853Y-98098100D01*
X147021703Y-97943228D01*
X146989000Y-97778816D01*
X146989000Y-97611184D01*
X147021703Y-97446772D01*
X147085853Y-97291900D01*
X147178985Y-97152519D01*
X147297519Y-97033985D01*
X147436900Y-96940853D01*
X147591772Y-96876703D01*
X147756184Y-96844000D01*
X147923816Y-96844000D01*
X148088228Y-96876703D01*
X148088228Y-96876703D01*
G37*
G36*
X102408228Y-96876703D02*
X102563100Y-96940853D01*
X102702481Y-97033985D01*
X102821015Y-97152519D01*
X102914147Y-97291900D01*
X102978297Y-97446772D01*
X103011000Y-97611184D01*
X103011000Y-97778816D01*
X102978297Y-97943228D01*
X102914147Y-98098100D01*
X102821015Y-98237481D01*
X102702481Y-98356015D01*
X102563100Y-98449147D01*
X102408228Y-98513297D01*
X102243816Y-98546000D01*
X102076184Y-98546000D01*
X101911772Y-98513297D01*
X101756900Y-98449147D01*
X101617519Y-98356015D01*
X101498985Y-98237481D01*
X101405853Y-98098100D01*
X101341703Y-97943228D01*
X101309000Y-97778816D01*
X101309000Y-97611184D01*
X101341703Y-97446772D01*
X101405853Y-97291900D01*
X101498985Y-97152519D01*
X101617519Y-97033985D01*
X101756900Y-96940853D01*
X101911772Y-96876703D01*
X102076184Y-96844000D01*
X102243816Y-96844000D01*
X102408228Y-96876703D01*
X102408228Y-96876703D01*
G37*
G36*
X145248228Y-95491703D02*
X145403100Y-95555853D01*
X145542481Y-95648985D01*
X145661015Y-95767519D01*
X145754147Y-95906900D01*
X145818297Y-96061772D01*
X145851000Y-96226184D01*
X145851000Y-96393816D01*
X145818297Y-96558228D01*
X145754147Y-96713100D01*
X145661015Y-96852481D01*
X145542481Y-96971015D01*
X145403100Y-97064147D01*
X145248228Y-97128297D01*
X145083816Y-97161000D01*
X144916184Y-97161000D01*
X144751772Y-97128297D01*
X144596900Y-97064147D01*
X144457519Y-96971015D01*
X144338985Y-96852481D01*
X144245853Y-96713100D01*
X144181703Y-96558228D01*
X144149000Y-96393816D01*
X144149000Y-96226184D01*
X144181703Y-96061772D01*
X144245853Y-95906900D01*
X144338985Y-95767519D01*
X144457519Y-95648985D01*
X144596900Y-95555853D01*
X144751772Y-95491703D01*
X144916184Y-95459000D01*
X145083816Y-95459000D01*
X145248228Y-95491703D01*
X145248228Y-95491703D01*
G37*
G36*
X105248228Y-95491703D02*
X105403100Y-95555853D01*
X105542481Y-95648985D01*
X105661015Y-95767519D01*
X105754147Y-95906900D01*
X105818297Y-96061772D01*
X105851000Y-96226184D01*
X105851000Y-96393816D01*
X105818297Y-96558228D01*
X105754147Y-96713100D01*
X105661015Y-96852481D01*
X105542481Y-96971015D01*
X105403100Y-97064147D01*
X105248228Y-97128297D01*
X105083816Y-97161000D01*
X104916184Y-97161000D01*
X104751772Y-97128297D01*
X104596900Y-97064147D01*
X104457519Y-96971015D01*
X104338985Y-96852481D01*
X104245853Y-96713100D01*
X104181703Y-96558228D01*
X104149000Y-96393816D01*
X104149000Y-96226184D01*
X104181703Y-96061772D01*
X104245853Y-95906900D01*
X104338985Y-95767519D01*
X104457519Y-95648985D01*
X104596900Y-95555853D01*
X104751772Y-95491703D01*
X104916184Y-95459000D01*
X105083816Y-95459000D01*
X105248228Y-95491703D01*
X105248228Y-95491703D01*
G37*
G36*
X137933643Y-95429781D02*
X138079415Y-95490162D01*
X138210611Y-95577824D01*
X138322176Y-95689389D01*
X138409838Y-95820585D01*
X138470219Y-95966357D01*
X138501000Y-96121107D01*
X138501000Y-96278893D01*
X138470219Y-96433643D01*
X138409838Y-96579415D01*
X138322176Y-96710611D01*
X138210611Y-96822176D01*
X138079415Y-96909838D01*
X137933643Y-96970219D01*
X137778893Y-97001000D01*
X137621107Y-97001000D01*
X137466357Y-96970219D01*
X137320585Y-96909838D01*
X137189389Y-96822176D01*
X137077824Y-96710611D01*
X136990162Y-96579415D01*
X136929781Y-96433643D01*
X136899000Y-96278893D01*
X136899000Y-96121107D01*
X136929781Y-95966357D01*
X136990162Y-95820585D01*
X137077824Y-95689389D01*
X137189389Y-95577824D01*
X137320585Y-95490162D01*
X137466357Y-95429781D01*
X137621107Y-95399000D01*
X137778893Y-95399000D01*
X137933643Y-95429781D01*
X137933643Y-95429781D01*
G37*
G36*
X112533643Y-95429781D02*
X112679415Y-95490162D01*
X112810611Y-95577824D01*
X112922176Y-95689389D01*
X113009838Y-95820585D01*
X113070219Y-95966357D01*
X113101000Y-96121107D01*
X113101000Y-96278893D01*
X113070219Y-96433643D01*
X113009838Y-96579415D01*
X112922176Y-96710611D01*
X112810611Y-96822176D01*
X112679415Y-96909838D01*
X112533643Y-96970219D01*
X112378893Y-97001000D01*
X112221107Y-97001000D01*
X112066357Y-96970219D01*
X111920585Y-96909838D01*
X111789389Y-96822176D01*
X111677824Y-96710611D01*
X111590162Y-96579415D01*
X111529781Y-96433643D01*
X111499000Y-96278893D01*
X111499000Y-96121107D01*
X111529781Y-95966357D01*
X111590162Y-95820585D01*
X111677824Y-95689389D01*
X111789389Y-95577824D01*
X111920585Y-95490162D01*
X112066357Y-95429781D01*
X112221107Y-95399000D01*
X112378893Y-95399000D01*
X112533643Y-95429781D01*
X112533643Y-95429781D01*
G37*
G36*
X122518604Y-92078347D02*
X122555145Y-92089432D01*
X122588820Y-92107431D01*
X122618341Y-92131659D01*
X122642569Y-92161180D01*
X122660568Y-92194855D01*
X122671653Y-92231396D01*
X122676000Y-92275538D01*
X122676000Y-93724462D01*
X122671653Y-93768604D01*
X122660568Y-93805145D01*
X122642569Y-93838820D01*
X122618341Y-93868341D01*
X122584217Y-93896346D01*
X122573699Y-93903374D01*
X122556372Y-93920701D01*
X122542758Y-93941075D01*
X122533380Y-93963714D01*
X122528600Y-93987748D01*
X122528600Y-94012252D01*
X122533380Y-94036286D01*
X122542758Y-94058925D01*
X122556372Y-94079299D01*
X122573699Y-94096626D01*
X122584217Y-94103654D01*
X122618341Y-94131659D01*
X122642569Y-94161180D01*
X122660568Y-94194855D01*
X122671653Y-94231396D01*
X122676000Y-94275538D01*
X122676000Y-95724462D01*
X122671653Y-95768604D01*
X122660568Y-95805145D01*
X122642569Y-95838820D01*
X122618341Y-95868341D01*
X122588820Y-95892569D01*
X122555145Y-95910568D01*
X122518604Y-95921653D01*
X122474462Y-95926000D01*
X121525538Y-95926000D01*
X121481396Y-95921653D01*
X121444855Y-95910568D01*
X121411180Y-95892569D01*
X121381659Y-95868341D01*
X121357431Y-95838820D01*
X121339432Y-95805145D01*
X121328347Y-95768604D01*
X121324000Y-95724462D01*
X121324000Y-94275538D01*
X121328347Y-94231396D01*
X121339432Y-94194855D01*
X121357431Y-94161180D01*
X121381659Y-94131659D01*
X121415783Y-94103654D01*
X121426301Y-94096626D01*
X121443628Y-94079299D01*
X121457242Y-94058925D01*
X121466620Y-94036286D01*
X121471400Y-94012252D01*
X121471400Y-93987748D01*
X121466620Y-93963714D01*
X121457242Y-93941075D01*
X121443628Y-93920701D01*
X121426301Y-93903374D01*
X121415783Y-93896346D01*
X121381659Y-93868341D01*
X121357431Y-93838820D01*
X121339432Y-93805145D01*
X121328347Y-93768604D01*
X121324000Y-93724462D01*
X121324000Y-92275538D01*
X121328347Y-92231396D01*
X121339432Y-92194855D01*
X121357431Y-92161180D01*
X121381659Y-92131659D01*
X121411180Y-92107431D01*
X121444855Y-92089432D01*
X121481396Y-92078347D01*
X121525538Y-92074000D01*
X122474462Y-92074000D01*
X122518604Y-92078347D01*
X122518604Y-92078347D01*
G37*
G36*
X119718604Y-92078347D02*
X119755145Y-92089432D01*
X119788820Y-92107431D01*
X119818341Y-92131659D01*
X119842569Y-92161180D01*
X119860568Y-92194855D01*
X119871653Y-92231396D01*
X119876000Y-92275538D01*
X119876000Y-93724462D01*
X119871653Y-93768604D01*
X119860568Y-93805145D01*
X119842569Y-93838820D01*
X119818341Y-93868341D01*
X119784217Y-93896346D01*
X119773699Y-93903374D01*
X119756372Y-93920701D01*
X119742758Y-93941075D01*
X119733380Y-93963714D01*
X119728600Y-93987748D01*
X119728600Y-94012252D01*
X119733380Y-94036286D01*
X119742758Y-94058925D01*
X119756372Y-94079299D01*
X119773699Y-94096626D01*
X119784217Y-94103654D01*
X119818341Y-94131659D01*
X119842569Y-94161180D01*
X119860568Y-94194855D01*
X119871653Y-94231396D01*
X119876000Y-94275538D01*
X119876000Y-95724462D01*
X119871653Y-95768604D01*
X119860568Y-95805145D01*
X119842569Y-95838820D01*
X119818341Y-95868341D01*
X119788820Y-95892569D01*
X119755145Y-95910568D01*
X119718604Y-95921653D01*
X119674462Y-95926000D01*
X118725538Y-95926000D01*
X118681396Y-95921653D01*
X118644855Y-95910568D01*
X118611180Y-95892569D01*
X118581659Y-95868341D01*
X118557431Y-95838820D01*
X118539432Y-95805145D01*
X118528347Y-95768604D01*
X118524000Y-95724462D01*
X118524000Y-94275538D01*
X118528347Y-94231396D01*
X118539432Y-94194855D01*
X118557431Y-94161180D01*
X118581659Y-94131659D01*
X118615783Y-94103654D01*
X118626301Y-94096626D01*
X118643628Y-94079299D01*
X118657242Y-94058925D01*
X118666620Y-94036286D01*
X118671400Y-94012252D01*
X118671400Y-93987748D01*
X118666620Y-93963714D01*
X118657242Y-93941075D01*
X118643628Y-93920701D01*
X118626301Y-93903374D01*
X118615783Y-93896346D01*
X118581659Y-93868341D01*
X118557431Y-93838820D01*
X118539432Y-93805145D01*
X118528347Y-93768604D01*
X118524000Y-93724462D01*
X118524000Y-92275538D01*
X118528347Y-92231396D01*
X118539432Y-92194855D01*
X118557431Y-92161180D01*
X118581659Y-92131659D01*
X118611180Y-92107431D01*
X118644855Y-92089432D01*
X118681396Y-92078347D01*
X118725538Y-92074000D01*
X119674462Y-92074000D01*
X119718604Y-92078347D01*
X119718604Y-92078347D01*
G37*
G36*
X102408228Y-94106703D02*
X102563100Y-94170853D01*
X102702481Y-94263985D01*
X102821015Y-94382519D01*
X102914147Y-94521900D01*
X102978297Y-94676772D01*
X103011000Y-94841184D01*
X103011000Y-95008816D01*
X102978297Y-95173228D01*
X102914147Y-95328100D01*
X102821015Y-95467481D01*
X102702481Y-95586015D01*
X102563100Y-95679147D01*
X102408228Y-95743297D01*
X102243816Y-95776000D01*
X102076184Y-95776000D01*
X101911772Y-95743297D01*
X101756900Y-95679147D01*
X101617519Y-95586015D01*
X101498985Y-95467481D01*
X101405853Y-95328100D01*
X101341703Y-95173228D01*
X101309000Y-95008816D01*
X101309000Y-94841184D01*
X101341703Y-94676772D01*
X101405853Y-94521900D01*
X101498985Y-94382519D01*
X101617519Y-94263985D01*
X101756900Y-94170853D01*
X101911772Y-94106703D01*
X102076184Y-94074000D01*
X102243816Y-94074000D01*
X102408228Y-94106703D01*
X102408228Y-94106703D01*
G37*
G36*
X148088228Y-94106703D02*
X148243100Y-94170853D01*
X148382481Y-94263985D01*
X148501015Y-94382519D01*
X148594147Y-94521900D01*
X148658297Y-94676772D01*
X148691000Y-94841184D01*
X148691000Y-95008816D01*
X148658297Y-95173228D01*
X148594147Y-95328100D01*
X148501015Y-95467481D01*
X148382481Y-95586015D01*
X148243100Y-95679147D01*
X148088228Y-95743297D01*
X147923816Y-95776000D01*
X147756184Y-95776000D01*
X147591772Y-95743297D01*
X147436900Y-95679147D01*
X147297519Y-95586015D01*
X147178985Y-95467481D01*
X147085853Y-95328100D01*
X147021703Y-95173228D01*
X146989000Y-95008816D01*
X146989000Y-94841184D01*
X147021703Y-94676772D01*
X147085853Y-94521900D01*
X147178985Y-94382519D01*
X147297519Y-94263985D01*
X147436900Y-94170853D01*
X147591772Y-94106703D01*
X147756184Y-94074000D01*
X147923816Y-94074000D01*
X148088228Y-94106703D01*
X148088228Y-94106703D01*
G37*
G36*
X112533643Y-92889781D02*
X112679415Y-92950162D01*
X112810611Y-93037824D01*
X112922176Y-93149389D01*
X113009838Y-93280585D01*
X113070219Y-93426357D01*
X113101000Y-93581107D01*
X113101000Y-93738893D01*
X113070219Y-93893643D01*
X113009838Y-94039415D01*
X112922176Y-94170611D01*
X112810611Y-94282176D01*
X112679415Y-94369838D01*
X112533643Y-94430219D01*
X112378893Y-94461000D01*
X112221107Y-94461000D01*
X112066357Y-94430219D01*
X111920585Y-94369838D01*
X111789389Y-94282176D01*
X111677824Y-94170611D01*
X111590162Y-94039415D01*
X111529781Y-93893643D01*
X111499000Y-93738893D01*
X111499000Y-93581107D01*
X111529781Y-93426357D01*
X111590162Y-93280585D01*
X111677824Y-93149389D01*
X111789389Y-93037824D01*
X111920585Y-92950162D01*
X112066357Y-92889781D01*
X112221107Y-92859000D01*
X112378893Y-92859000D01*
X112533643Y-92889781D01*
X112533643Y-92889781D01*
G37*
G36*
X137933643Y-92889781D02*
X138079415Y-92950162D01*
X138210611Y-93037824D01*
X138322176Y-93149389D01*
X138409838Y-93280585D01*
X138470219Y-93426357D01*
X138501000Y-93581107D01*
X138501000Y-93738893D01*
X138470219Y-93893643D01*
X138409838Y-94039415D01*
X138322176Y-94170611D01*
X138210611Y-94282176D01*
X138079415Y-94369838D01*
X137933643Y-94430219D01*
X137778893Y-94461000D01*
X137621107Y-94461000D01*
X137466357Y-94430219D01*
X137320585Y-94369838D01*
X137189389Y-94282176D01*
X137077824Y-94170611D01*
X136990162Y-94039415D01*
X136929781Y-93893643D01*
X136899000Y-93738893D01*
X136899000Y-93581107D01*
X136929781Y-93426357D01*
X136990162Y-93280585D01*
X137077824Y-93149389D01*
X137189389Y-93037824D01*
X137320585Y-92950162D01*
X137466357Y-92889781D01*
X137621107Y-92859000D01*
X137778893Y-92859000D01*
X137933643Y-92889781D01*
X137933643Y-92889781D01*
G37*
G36*
X105248228Y-92721703D02*
X105403100Y-92785853D01*
X105542481Y-92878985D01*
X105661015Y-92997519D01*
X105754147Y-93136900D01*
X105818297Y-93291772D01*
X105851000Y-93456184D01*
X105851000Y-93623816D01*
X105818297Y-93788228D01*
X105754147Y-93943100D01*
X105661015Y-94082481D01*
X105542481Y-94201015D01*
X105403100Y-94294147D01*
X105248228Y-94358297D01*
X105083816Y-94391000D01*
X104916184Y-94391000D01*
X104751772Y-94358297D01*
X104596900Y-94294147D01*
X104457519Y-94201015D01*
X104338985Y-94082481D01*
X104245853Y-93943100D01*
X104181703Y-93788228D01*
X104149000Y-93623816D01*
X104149000Y-93456184D01*
X104181703Y-93291772D01*
X104245853Y-93136900D01*
X104338985Y-92997519D01*
X104457519Y-92878985D01*
X104596900Y-92785853D01*
X104751772Y-92721703D01*
X104916184Y-92689000D01*
X105083816Y-92689000D01*
X105248228Y-92721703D01*
X105248228Y-92721703D01*
G37*
G36*
X145248228Y-92721703D02*
X145403100Y-92785853D01*
X145542481Y-92878985D01*
X145661015Y-92997519D01*
X145754147Y-93136900D01*
X145818297Y-93291772D01*
X145851000Y-93456184D01*
X145851000Y-93623816D01*
X145818297Y-93788228D01*
X145754147Y-93943100D01*
X145661015Y-94082481D01*
X145542481Y-94201015D01*
X145403100Y-94294147D01*
X145248228Y-94358297D01*
X145083816Y-94391000D01*
X144916184Y-94391000D01*
X144751772Y-94358297D01*
X144596900Y-94294147D01*
X144457519Y-94201015D01*
X144338985Y-94082481D01*
X144245853Y-93943100D01*
X144181703Y-93788228D01*
X144149000Y-93623816D01*
X144149000Y-93456184D01*
X144181703Y-93291772D01*
X144245853Y-93136900D01*
X144338985Y-92997519D01*
X144457519Y-92878985D01*
X144596900Y-92785853D01*
X144751772Y-92721703D01*
X144916184Y-92689000D01*
X145083816Y-92689000D01*
X145248228Y-92721703D01*
X145248228Y-92721703D01*
G37*
G36*
X148088228Y-91336703D02*
X148243100Y-91400853D01*
X148382481Y-91493985D01*
X148501015Y-91612519D01*
X148594147Y-91751900D01*
X148658297Y-91906772D01*
X148691000Y-92071184D01*
X148691000Y-92238816D01*
X148658297Y-92403228D01*
X148594147Y-92558100D01*
X148501015Y-92697481D01*
X148382481Y-92816015D01*
X148243100Y-92909147D01*
X148088228Y-92973297D01*
X147923816Y-93006000D01*
X147756184Y-93006000D01*
X147591772Y-92973297D01*
X147436900Y-92909147D01*
X147297519Y-92816015D01*
X147178985Y-92697481D01*
X147085853Y-92558100D01*
X147021703Y-92403228D01*
X146989000Y-92238816D01*
X146989000Y-92071184D01*
X147021703Y-91906772D01*
X147085853Y-91751900D01*
X147178985Y-91612519D01*
X147297519Y-91493985D01*
X147436900Y-91400853D01*
X147591772Y-91336703D01*
X147756184Y-91304000D01*
X147923816Y-91304000D01*
X148088228Y-91336703D01*
X148088228Y-91336703D01*
G37*
G36*
X102408228Y-91336703D02*
X102563100Y-91400853D01*
X102702481Y-91493985D01*
X102821015Y-91612519D01*
X102914147Y-91751900D01*
X102978297Y-91906772D01*
X103011000Y-92071184D01*
X103011000Y-92238816D01*
X102978297Y-92403228D01*
X102914147Y-92558100D01*
X102821015Y-92697481D01*
X102702481Y-92816015D01*
X102563100Y-92909147D01*
X102408228Y-92973297D01*
X102243816Y-93006000D01*
X102076184Y-93006000D01*
X101911772Y-92973297D01*
X101756900Y-92909147D01*
X101617519Y-92816015D01*
X101498985Y-92697481D01*
X101405853Y-92558100D01*
X101341703Y-92403228D01*
X101309000Y-92238816D01*
X101309000Y-92071184D01*
X101341703Y-91906772D01*
X101405853Y-91751900D01*
X101498985Y-91612519D01*
X101617519Y-91493985D01*
X101756900Y-91400853D01*
X101911772Y-91336703D01*
X102076184Y-91304000D01*
X102243816Y-91304000D01*
X102408228Y-91336703D01*
X102408228Y-91336703D01*
G37*
G36*
X137933643Y-90349781D02*
X138079415Y-90410162D01*
X138210611Y-90497824D01*
X138322176Y-90609389D01*
X138409838Y-90740585D01*
X138470219Y-90886357D01*
X138501000Y-91041107D01*
X138501000Y-91198893D01*
X138470219Y-91353643D01*
X138409838Y-91499415D01*
X138322176Y-91630611D01*
X138210611Y-91742176D01*
X138079415Y-91829838D01*
X137933643Y-91890219D01*
X137778893Y-91921000D01*
X137621107Y-91921000D01*
X137466357Y-91890219D01*
X137320585Y-91829838D01*
X137189389Y-91742176D01*
X137077824Y-91630611D01*
X136990162Y-91499415D01*
X136929781Y-91353643D01*
X136899000Y-91198893D01*
X136899000Y-91041107D01*
X136929781Y-90886357D01*
X136990162Y-90740585D01*
X137077824Y-90609389D01*
X137189389Y-90497824D01*
X137320585Y-90410162D01*
X137466357Y-90349781D01*
X137621107Y-90319000D01*
X137778893Y-90319000D01*
X137933643Y-90349781D01*
X137933643Y-90349781D01*
G37*
G36*
X112533643Y-90349781D02*
X112679415Y-90410162D01*
X112810611Y-90497824D01*
X112922176Y-90609389D01*
X113009838Y-90740585D01*
X113070219Y-90886357D01*
X113101000Y-91041107D01*
X113101000Y-91198893D01*
X113070219Y-91353643D01*
X113009838Y-91499415D01*
X112922176Y-91630611D01*
X112810611Y-91742176D01*
X112679415Y-91829838D01*
X112533643Y-91890219D01*
X112378893Y-91921000D01*
X112221107Y-91921000D01*
X112066357Y-91890219D01*
X111920585Y-91829838D01*
X111789389Y-91742176D01*
X111677824Y-91630611D01*
X111590162Y-91499415D01*
X111529781Y-91353643D01*
X111499000Y-91198893D01*
X111499000Y-91041107D01*
X111529781Y-90886357D01*
X111590162Y-90740585D01*
X111677824Y-90609389D01*
X111789389Y-90497824D01*
X111920585Y-90410162D01*
X112066357Y-90349781D01*
X112221107Y-90319000D01*
X112378893Y-90319000D01*
X112533643Y-90349781D01*
X112533643Y-90349781D01*
G37*
G36*
X145248228Y-89951703D02*
X145403100Y-90015853D01*
X145542481Y-90108985D01*
X145661015Y-90227519D01*
X145754147Y-90366900D01*
X145818297Y-90521772D01*
X145851000Y-90686184D01*
X145851000Y-90853816D01*
X145818297Y-91018228D01*
X145754147Y-91173100D01*
X145661015Y-91312481D01*
X145542481Y-91431015D01*
X145403100Y-91524147D01*
X145248228Y-91588297D01*
X145083816Y-91621000D01*
X144916184Y-91621000D01*
X144751772Y-91588297D01*
X144596900Y-91524147D01*
X144457519Y-91431015D01*
X144338985Y-91312481D01*
X144245853Y-91173100D01*
X144181703Y-91018228D01*
X144149000Y-90853816D01*
X144149000Y-90686184D01*
X144181703Y-90521772D01*
X144245853Y-90366900D01*
X144338985Y-90227519D01*
X144457519Y-90108985D01*
X144596900Y-90015853D01*
X144751772Y-89951703D01*
X144916184Y-89919000D01*
X145083816Y-89919000D01*
X145248228Y-89951703D01*
X145248228Y-89951703D01*
G37*
G36*
X105248228Y-89951703D02*
X105403100Y-90015853D01*
X105542481Y-90108985D01*
X105661015Y-90227519D01*
X105754147Y-90366900D01*
X105818297Y-90521772D01*
X105851000Y-90686184D01*
X105851000Y-90853816D01*
X105818297Y-91018228D01*
X105754147Y-91173100D01*
X105661015Y-91312481D01*
X105542481Y-91431015D01*
X105403100Y-91524147D01*
X105248228Y-91588297D01*
X105083816Y-91621000D01*
X104916184Y-91621000D01*
X104751772Y-91588297D01*
X104596900Y-91524147D01*
X104457519Y-91431015D01*
X104338985Y-91312481D01*
X104245853Y-91173100D01*
X104181703Y-91018228D01*
X104149000Y-90853816D01*
X104149000Y-90686184D01*
X104181703Y-90521772D01*
X104245853Y-90366900D01*
X104338985Y-90227519D01*
X104457519Y-90108985D01*
X104596900Y-90015853D01*
X104751772Y-89951703D01*
X104916184Y-89919000D01*
X105083816Y-89919000D01*
X105248228Y-89951703D01*
X105248228Y-89951703D01*
G37*
G36*
X121906000Y-90501000D02*
X121204000Y-90501000D01*
X121204000Y-88899000D01*
X121906000Y-88899000D01*
X121906000Y-90501000D01*
X121906000Y-90501000D01*
G37*
G36*
X123176000Y-90501000D02*
X122474000Y-90501000D01*
X122474000Y-88899000D01*
X123176000Y-88899000D01*
X123176000Y-90501000D01*
X123176000Y-90501000D01*
G37*
G36*
X124446000Y-90501000D02*
X123744000Y-90501000D01*
X123744000Y-88899000D01*
X124446000Y-88899000D01*
X124446000Y-90501000D01*
X124446000Y-90501000D01*
G37*
G36*
X125716000Y-90501000D02*
X125014000Y-90501000D01*
X125014000Y-88899000D01*
X125716000Y-88899000D01*
X125716000Y-90501000D01*
X125716000Y-90501000D01*
G37*
G36*
X128256000Y-90501000D02*
X127554000Y-90501000D01*
X127554000Y-88899000D01*
X128256000Y-88899000D01*
X128256000Y-90501000D01*
X128256000Y-90501000D01*
G37*
G36*
X126986000Y-90501000D02*
X126284000Y-90501000D01*
X126284000Y-88899000D01*
X126986000Y-88899000D01*
X126986000Y-90501000D01*
X126986000Y-90501000D01*
G37*
G36*
X130796000Y-90501000D02*
X130094000Y-90501000D01*
X130094000Y-88899000D01*
X130796000Y-88899000D01*
X130796000Y-90501000D01*
X130796000Y-90501000D01*
G37*
G36*
X129526000Y-90501000D02*
X128824000Y-90501000D01*
X128824000Y-88899000D01*
X129526000Y-88899000D01*
X129526000Y-90501000D01*
X129526000Y-90501000D01*
G37*
G36*
X148088228Y-88566703D02*
X148243100Y-88630853D01*
X148382481Y-88723985D01*
X148501015Y-88842519D01*
X148594147Y-88981900D01*
X148658297Y-89136772D01*
X148691000Y-89301184D01*
X148691000Y-89468816D01*
X148658297Y-89633228D01*
X148594147Y-89788100D01*
X148501015Y-89927481D01*
X148382481Y-90046015D01*
X148243100Y-90139147D01*
X148088228Y-90203297D01*
X147923816Y-90236000D01*
X147756184Y-90236000D01*
X147591772Y-90203297D01*
X147436900Y-90139147D01*
X147297519Y-90046015D01*
X147178985Y-89927481D01*
X147085853Y-89788100D01*
X147021703Y-89633228D01*
X146989000Y-89468816D01*
X146989000Y-89301184D01*
X147021703Y-89136772D01*
X147085853Y-88981900D01*
X147178985Y-88842519D01*
X147297519Y-88723985D01*
X147436900Y-88630853D01*
X147591772Y-88566703D01*
X147756184Y-88534000D01*
X147923816Y-88534000D01*
X148088228Y-88566703D01*
X148088228Y-88566703D01*
G37*
G36*
X102408228Y-88566703D02*
X102563100Y-88630853D01*
X102702481Y-88723985D01*
X102821015Y-88842519D01*
X102914147Y-88981900D01*
X102978297Y-89136772D01*
X103011000Y-89301184D01*
X103011000Y-89468816D01*
X102978297Y-89633228D01*
X102914147Y-89788100D01*
X102821015Y-89927481D01*
X102702481Y-90046015D01*
X102563100Y-90139147D01*
X102408228Y-90203297D01*
X102243816Y-90236000D01*
X102076184Y-90236000D01*
X101911772Y-90203297D01*
X101756900Y-90139147D01*
X101617519Y-90046015D01*
X101498985Y-89927481D01*
X101405853Y-89788100D01*
X101341703Y-89633228D01*
X101309000Y-89468816D01*
X101309000Y-89301184D01*
X101341703Y-89136772D01*
X101405853Y-88981900D01*
X101498985Y-88842519D01*
X101617519Y-88723985D01*
X101756900Y-88630853D01*
X101911772Y-88566703D01*
X102076184Y-88534000D01*
X102243816Y-88534000D01*
X102408228Y-88566703D01*
X102408228Y-88566703D01*
G37*
G36*
X137933643Y-87809781D02*
X138079415Y-87870162D01*
X138210611Y-87957824D01*
X138322176Y-88069389D01*
X138409838Y-88200585D01*
X138470219Y-88346357D01*
X138501000Y-88501107D01*
X138501000Y-88658893D01*
X138470219Y-88813643D01*
X138409838Y-88959415D01*
X138322176Y-89090611D01*
X138210611Y-89202176D01*
X138079415Y-89289838D01*
X137933643Y-89350219D01*
X137778893Y-89381000D01*
X137621107Y-89381000D01*
X137466357Y-89350219D01*
X137320585Y-89289838D01*
X137189389Y-89202176D01*
X137077824Y-89090611D01*
X136990162Y-88959415D01*
X136929781Y-88813643D01*
X136899000Y-88658893D01*
X136899000Y-88501107D01*
X136929781Y-88346357D01*
X136990162Y-88200585D01*
X137077824Y-88069389D01*
X137189389Y-87957824D01*
X137320585Y-87870162D01*
X137466357Y-87809781D01*
X137621107Y-87779000D01*
X137778893Y-87779000D01*
X137933643Y-87809781D01*
X137933643Y-87809781D01*
G37*
G36*
X112533643Y-87809781D02*
X112679415Y-87870162D01*
X112810611Y-87957824D01*
X112922176Y-88069389D01*
X113009838Y-88200585D01*
X113070219Y-88346357D01*
X113101000Y-88501107D01*
X113101000Y-88658893D01*
X113070219Y-88813643D01*
X113009838Y-88959415D01*
X112922176Y-89090611D01*
X112810611Y-89202176D01*
X112679415Y-89289838D01*
X112533643Y-89350219D01*
X112378893Y-89381000D01*
X112221107Y-89381000D01*
X112066357Y-89350219D01*
X111920585Y-89289838D01*
X111789389Y-89202176D01*
X111677824Y-89090611D01*
X111590162Y-88959415D01*
X111529781Y-88813643D01*
X111499000Y-88658893D01*
X111499000Y-88501107D01*
X111529781Y-88346357D01*
X111590162Y-88200585D01*
X111677824Y-88069389D01*
X111789389Y-87957824D01*
X111920585Y-87870162D01*
X112066357Y-87809781D01*
X112221107Y-87779000D01*
X112378893Y-87779000D01*
X112533643Y-87809781D01*
X112533643Y-87809781D01*
G37*
G36*
X105851000Y-88851000D02*
X104149000Y-88851000D01*
X104149000Y-87149000D01*
X105851000Y-87149000D01*
X105851000Y-88851000D01*
X105851000Y-88851000D01*
G37*
G36*
X145851000Y-88851000D02*
X144149000Y-88851000D01*
X144149000Y-87149000D01*
X145851000Y-87149000D01*
X145851000Y-88851000D01*
X145851000Y-88851000D01*
G37*
G36*
X119768604Y-85728347D02*
X119805145Y-85739432D01*
X119838820Y-85757431D01*
X119868341Y-85781659D01*
X119892569Y-85811180D01*
X119910568Y-85844855D01*
X119921653Y-85881396D01*
X119926000Y-85925538D01*
X119926000Y-86874462D01*
X119921653Y-86918604D01*
X119910568Y-86955145D01*
X119892569Y-86988820D01*
X119868341Y-87018341D01*
X119838820Y-87042569D01*
X119805145Y-87060568D01*
X119768604Y-87071653D01*
X119724462Y-87076000D01*
X118275538Y-87076000D01*
X118231396Y-87071653D01*
X118194855Y-87060568D01*
X118161180Y-87042569D01*
X118131659Y-87018341D01*
X118107431Y-86988820D01*
X118089432Y-86955145D01*
X118078347Y-86918604D01*
X118074000Y-86874462D01*
X118074000Y-85925538D01*
X118078347Y-85881396D01*
X118089432Y-85844855D01*
X118107431Y-85811180D01*
X118131659Y-85781659D01*
X118161180Y-85757431D01*
X118194855Y-85739432D01*
X118231396Y-85728347D01*
X118275538Y-85724000D01*
X119724462Y-85724000D01*
X119768604Y-85728347D01*
X119768604Y-85728347D01*
G37*
G36*
X137933643Y-85269781D02*
X138079415Y-85330162D01*
X138210611Y-85417824D01*
X138322176Y-85529389D01*
X138409838Y-85660585D01*
X138470219Y-85806357D01*
X138501000Y-85961107D01*
X138501000Y-86118893D01*
X138470219Y-86273643D01*
X138409838Y-86419415D01*
X138322176Y-86550611D01*
X138210611Y-86662176D01*
X138079415Y-86749838D01*
X137933643Y-86810219D01*
X137778893Y-86841000D01*
X137621107Y-86841000D01*
X137466357Y-86810219D01*
X137320585Y-86749838D01*
X137189389Y-86662176D01*
X137077824Y-86550611D01*
X136990162Y-86419415D01*
X136929781Y-86273643D01*
X136899000Y-86118893D01*
X136899000Y-85961107D01*
X136929781Y-85806357D01*
X136990162Y-85660585D01*
X137077824Y-85529389D01*
X137189389Y-85417824D01*
X137320585Y-85330162D01*
X137466357Y-85269781D01*
X137621107Y-85239000D01*
X137778893Y-85239000D01*
X137933643Y-85269781D01*
X137933643Y-85269781D01*
G37*
G36*
X112533643Y-85269781D02*
X112679415Y-85330162D01*
X112810611Y-85417824D01*
X112922176Y-85529389D01*
X113009838Y-85660585D01*
X113070219Y-85806357D01*
X113101000Y-85961107D01*
X113101000Y-86118893D01*
X113070219Y-86273643D01*
X113009838Y-86419415D01*
X112922176Y-86550611D01*
X112810611Y-86662176D01*
X112679415Y-86749838D01*
X112533643Y-86810219D01*
X112378893Y-86841000D01*
X112221107Y-86841000D01*
X112066357Y-86810219D01*
X111920585Y-86749838D01*
X111789389Y-86662176D01*
X111677824Y-86550611D01*
X111590162Y-86419415D01*
X111529781Y-86273643D01*
X111499000Y-86118893D01*
X111499000Y-85961107D01*
X111529781Y-85806357D01*
X111590162Y-85660585D01*
X111677824Y-85529389D01*
X111789389Y-85417824D01*
X111920585Y-85330162D01*
X112066357Y-85269781D01*
X112221107Y-85239000D01*
X112378893Y-85239000D01*
X112533643Y-85269781D01*
X112533643Y-85269781D01*
G37*
G36*
X129526000Y-85101000D02*
X128824000Y-85101000D01*
X128824000Y-83499000D01*
X129526000Y-83499000D01*
X129526000Y-85101000D01*
X129526000Y-85101000D01*
G37*
G36*
X121906000Y-85101000D02*
X121204000Y-85101000D01*
X121204000Y-83499000D01*
X121906000Y-83499000D01*
X121906000Y-85101000D01*
X121906000Y-85101000D01*
G37*
G36*
X125716000Y-85101000D02*
X125014000Y-85101000D01*
X125014000Y-83499000D01*
X125716000Y-83499000D01*
X125716000Y-85101000D01*
X125716000Y-85101000D01*
G37*
G36*
X126986000Y-85101000D02*
X126284000Y-85101000D01*
X126284000Y-83499000D01*
X126986000Y-83499000D01*
X126986000Y-85101000D01*
X126986000Y-85101000D01*
G37*
G36*
X124446000Y-85101000D02*
X123744000Y-85101000D01*
X123744000Y-83499000D01*
X124446000Y-83499000D01*
X124446000Y-85101000D01*
X124446000Y-85101000D01*
G37*
G36*
X123176000Y-85101000D02*
X122474000Y-85101000D01*
X122474000Y-83499000D01*
X123176000Y-83499000D01*
X123176000Y-85101000D01*
X123176000Y-85101000D01*
G37*
G36*
X128256000Y-85101000D02*
X127554000Y-85101000D01*
X127554000Y-83499000D01*
X128256000Y-83499000D01*
X128256000Y-85101000D01*
X128256000Y-85101000D01*
G37*
G36*
X130796000Y-85101000D02*
X130094000Y-85101000D01*
X130094000Y-83499000D01*
X130796000Y-83499000D01*
X130796000Y-85101000D01*
X130796000Y-85101000D01*
G37*
G36*
X112533643Y-82729781D02*
X112679415Y-82790162D01*
X112810611Y-82877824D01*
X112922176Y-82989389D01*
X113009838Y-83120585D01*
X113070219Y-83266357D01*
X113101000Y-83421107D01*
X113101000Y-83578893D01*
X113070219Y-83733643D01*
X113009838Y-83879415D01*
X112922176Y-84010611D01*
X112810611Y-84122176D01*
X112679415Y-84209838D01*
X112533643Y-84270219D01*
X112378893Y-84301000D01*
X112221107Y-84301000D01*
X112066357Y-84270219D01*
X111920585Y-84209838D01*
X111789389Y-84122176D01*
X111677824Y-84010611D01*
X111590162Y-83879415D01*
X111529781Y-83733643D01*
X111499000Y-83578893D01*
X111499000Y-83421107D01*
X111529781Y-83266357D01*
X111590162Y-83120585D01*
X111677824Y-82989389D01*
X111789389Y-82877824D01*
X111920585Y-82790162D01*
X112066357Y-82729781D01*
X112221107Y-82699000D01*
X112378893Y-82699000D01*
X112533643Y-82729781D01*
X112533643Y-82729781D01*
G37*
G36*
X137933643Y-82729781D02*
X138079415Y-82790162D01*
X138210611Y-82877824D01*
X138322176Y-82989389D01*
X138409838Y-83120585D01*
X138470219Y-83266357D01*
X138501000Y-83421107D01*
X138501000Y-83578893D01*
X138470219Y-83733643D01*
X138409838Y-83879415D01*
X138322176Y-84010611D01*
X138210611Y-84122176D01*
X138079415Y-84209838D01*
X137933643Y-84270219D01*
X137778893Y-84301000D01*
X137621107Y-84301000D01*
X137466357Y-84270219D01*
X137320585Y-84209838D01*
X137189389Y-84122176D01*
X137077824Y-84010611D01*
X136990162Y-83879415D01*
X136929781Y-83733643D01*
X136899000Y-83578893D01*
X136899000Y-83421107D01*
X136929781Y-83266357D01*
X136990162Y-83120585D01*
X137077824Y-82989389D01*
X137189389Y-82877824D01*
X137320585Y-82790162D01*
X137466357Y-82729781D01*
X137621107Y-82699000D01*
X137778893Y-82699000D01*
X137933643Y-82729781D01*
X137933643Y-82729781D01*
G37*
G36*
X119768604Y-82928347D02*
X119805145Y-82939432D01*
X119838820Y-82957431D01*
X119868341Y-82981659D01*
X119892569Y-83011180D01*
X119910568Y-83044855D01*
X119921653Y-83081396D01*
X119926000Y-83125538D01*
X119926000Y-84074462D01*
X119921653Y-84118604D01*
X119910568Y-84155145D01*
X119892569Y-84188820D01*
X119868341Y-84218341D01*
X119838820Y-84242569D01*
X119805145Y-84260568D01*
X119768604Y-84271653D01*
X119724462Y-84276000D01*
X118275538Y-84276000D01*
X118231396Y-84271653D01*
X118194855Y-84260568D01*
X118161180Y-84242569D01*
X118131659Y-84218341D01*
X118107431Y-84188820D01*
X118089432Y-84155145D01*
X118078347Y-84118604D01*
X118074000Y-84074462D01*
X118074000Y-83125538D01*
X118078347Y-83081396D01*
X118089432Y-83044855D01*
X118107431Y-83011180D01*
X118131659Y-82981659D01*
X118161180Y-82957431D01*
X118194855Y-82939432D01*
X118231396Y-82928347D01*
X118275538Y-82924000D01*
X119724462Y-82924000D01*
X119768604Y-82928347D01*
X119768604Y-82928347D01*
G37*
G36*
X147018252Y-79067818D02*
X147018254Y-79067819D01*
X147018255Y-79067819D01*
X147391513Y-79222427D01*
X147722905Y-79443857D01*
X147727439Y-79446886D01*
X148013114Y-79732561D01*
X148013116Y-79732564D01*
X148237573Y-80068487D01*
X148392181Y-80441745D01*
X148392182Y-80441748D01*
X148471000Y-80837993D01*
X148471000Y-81242007D01*
X148403336Y-81582178D01*
X148392181Y-81638255D01*
X148237573Y-82011513D01*
X148194484Y-82076000D01*
X148013114Y-82347439D01*
X147727439Y-82633114D01*
X147727436Y-82633116D01*
X147391513Y-82857573D01*
X147018255Y-83012181D01*
X147018254Y-83012181D01*
X147018252Y-83012182D01*
X146622007Y-83091000D01*
X146217993Y-83091000D01*
X145821748Y-83012182D01*
X145821746Y-83012181D01*
X145821745Y-83012181D01*
X145448487Y-82857573D01*
X145112564Y-82633116D01*
X145112561Y-82633114D01*
X144826886Y-82347439D01*
X144645516Y-82076000D01*
X144602427Y-82011513D01*
X144447819Y-81638255D01*
X144436665Y-81582178D01*
X144369000Y-81242007D01*
X144369000Y-80837993D01*
X144447818Y-80441748D01*
X144447819Y-80441745D01*
X144602427Y-80068487D01*
X144826884Y-79732564D01*
X144826886Y-79732561D01*
X145112561Y-79446886D01*
X145117095Y-79443857D01*
X145448487Y-79222427D01*
X145821745Y-79067819D01*
X145821746Y-79067819D01*
X145821748Y-79067818D01*
X146217993Y-78989000D01*
X146622007Y-78989000D01*
X147018252Y-79067818D01*
X147018252Y-79067818D01*
G37*
G36*
X104178252Y-79067818D02*
X104178254Y-79067819D01*
X104178255Y-79067819D01*
X104551513Y-79222427D01*
X104882905Y-79443857D01*
X104887439Y-79446886D01*
X105173114Y-79732561D01*
X105173116Y-79732564D01*
X105397573Y-80068487D01*
X105552181Y-80441745D01*
X105552182Y-80441748D01*
X105631000Y-80837993D01*
X105631000Y-81242007D01*
X105563336Y-81582178D01*
X105552181Y-81638255D01*
X105397573Y-82011513D01*
X105354484Y-82076000D01*
X105173114Y-82347439D01*
X104887439Y-82633114D01*
X104887436Y-82633116D01*
X104551513Y-82857573D01*
X104178255Y-83012181D01*
X104178254Y-83012181D01*
X104178252Y-83012182D01*
X103782007Y-83091000D01*
X103377993Y-83091000D01*
X102981748Y-83012182D01*
X102981746Y-83012181D01*
X102981745Y-83012181D01*
X102608487Y-82857573D01*
X102272564Y-82633116D01*
X102272561Y-82633114D01*
X101986886Y-82347439D01*
X101805516Y-82076000D01*
X101762427Y-82011513D01*
X101607819Y-81638255D01*
X101596665Y-81582178D01*
X101529000Y-81242007D01*
X101529000Y-80837993D01*
X101607818Y-80441748D01*
X101607819Y-80441745D01*
X101762427Y-80068487D01*
X101986884Y-79732564D01*
X101986886Y-79732561D01*
X102272561Y-79446886D01*
X102277095Y-79443857D01*
X102608487Y-79222427D01*
X102981745Y-79067819D01*
X102981746Y-79067819D01*
X102981748Y-79067818D01*
X103377993Y-78989000D01*
X103782007Y-78989000D01*
X104178252Y-79067818D01*
X104178252Y-79067818D01*
G37*
G36*
X128768604Y-80728347D02*
X128805145Y-80739432D01*
X128838820Y-80757431D01*
X128868341Y-80781659D01*
X128892569Y-80811180D01*
X128910568Y-80844855D01*
X128921653Y-80881396D01*
X128926000Y-80925538D01*
X128926000Y-81874462D01*
X128921653Y-81918604D01*
X128910568Y-81955145D01*
X128892569Y-81988820D01*
X128868341Y-82018341D01*
X128838820Y-82042569D01*
X128805145Y-82060568D01*
X128768604Y-82071653D01*
X128724462Y-82076000D01*
X127275538Y-82076000D01*
X127231396Y-82071653D01*
X127194855Y-82060568D01*
X127161180Y-82042569D01*
X127131659Y-82018341D01*
X127107431Y-81988820D01*
X127089432Y-81955145D01*
X127078347Y-81918604D01*
X127074000Y-81874462D01*
X127074000Y-80925538D01*
X127078347Y-80881396D01*
X127089432Y-80844855D01*
X127107431Y-80811180D01*
X127131659Y-80781659D01*
X127161180Y-80757431D01*
X127194855Y-80739432D01*
X127231396Y-80728347D01*
X127275538Y-80724000D01*
X128724462Y-80724000D01*
X128768604Y-80728347D01*
X128768604Y-80728347D01*
G37*
G36*
X125768604Y-80728347D02*
X125805145Y-80739432D01*
X125838820Y-80757431D01*
X125868341Y-80781659D01*
X125892569Y-80811180D01*
X125910568Y-80844855D01*
X125921653Y-80881396D01*
X125926000Y-80925538D01*
X125926000Y-81874462D01*
X125921653Y-81918604D01*
X125910568Y-81955145D01*
X125892569Y-81988820D01*
X125868341Y-82018341D01*
X125838820Y-82042569D01*
X125805145Y-82060568D01*
X125768604Y-82071653D01*
X125724462Y-82076000D01*
X124275538Y-82076000D01*
X124231396Y-82071653D01*
X124194855Y-82060568D01*
X124161180Y-82042569D01*
X124131659Y-82018341D01*
X124107431Y-81988820D01*
X124089432Y-81955145D01*
X124078347Y-81918604D01*
X124074000Y-81874462D01*
X124074000Y-80925538D01*
X124078347Y-80881396D01*
X124089432Y-80844855D01*
X124107431Y-80811180D01*
X124131659Y-80781659D01*
X124161180Y-80757431D01*
X124194855Y-80739432D01*
X124231396Y-80728347D01*
X124275538Y-80724000D01*
X125724462Y-80724000D01*
X125768604Y-80728347D01*
X125768604Y-80728347D01*
G37*
G36*
X122768604Y-80728347D02*
X122805145Y-80739432D01*
X122838820Y-80757431D01*
X122868341Y-80781659D01*
X122892569Y-80811180D01*
X122910568Y-80844855D01*
X122921653Y-80881396D01*
X122926000Y-80925538D01*
X122926000Y-81874462D01*
X122921653Y-81918604D01*
X122910568Y-81955145D01*
X122892569Y-81988820D01*
X122868341Y-82018341D01*
X122838820Y-82042569D01*
X122805145Y-82060568D01*
X122768604Y-82071653D01*
X122724462Y-82076000D01*
X121275538Y-82076000D01*
X121231396Y-82071653D01*
X121194855Y-82060568D01*
X121161180Y-82042569D01*
X121131659Y-82018341D01*
X121107431Y-81988820D01*
X121089432Y-81955145D01*
X121078347Y-81918604D01*
X121074000Y-81874462D01*
X121074000Y-80925538D01*
X121078347Y-80881396D01*
X121089432Y-80844855D01*
X121107431Y-80811180D01*
X121131659Y-80781659D01*
X121161180Y-80757431D01*
X121194855Y-80739432D01*
X121231396Y-80728347D01*
X121275538Y-80724000D01*
X122724462Y-80724000D01*
X122768604Y-80728347D01*
X122768604Y-80728347D01*
G37*
G36*
X112533643Y-80189781D02*
X112679415Y-80250162D01*
X112810611Y-80337824D01*
X112922176Y-80449389D01*
X113009838Y-80580585D01*
X113070219Y-80726357D01*
X113101000Y-80881107D01*
X113101000Y-81038893D01*
X113070219Y-81193643D01*
X113009838Y-81339415D01*
X112922176Y-81470611D01*
X112810611Y-81582176D01*
X112679415Y-81669838D01*
X112533643Y-81730219D01*
X112378893Y-81761000D01*
X112221107Y-81761000D01*
X112066357Y-81730219D01*
X111920585Y-81669838D01*
X111789389Y-81582176D01*
X111677824Y-81470611D01*
X111590162Y-81339415D01*
X111529781Y-81193643D01*
X111499000Y-81038893D01*
X111499000Y-80881107D01*
X111529781Y-80726357D01*
X111590162Y-80580585D01*
X111677824Y-80449389D01*
X111789389Y-80337824D01*
X111920585Y-80250162D01*
X112066357Y-80189781D01*
X112221107Y-80159000D01*
X112378893Y-80159000D01*
X112533643Y-80189781D01*
X112533643Y-80189781D01*
G37*
G36*
X137933643Y-80189781D02*
X138079415Y-80250162D01*
X138210611Y-80337824D01*
X138322176Y-80449389D01*
X138409838Y-80580585D01*
X138470219Y-80726357D01*
X138501000Y-80881107D01*
X138501000Y-81038893D01*
X138470219Y-81193643D01*
X138409838Y-81339415D01*
X138322176Y-81470611D01*
X138210611Y-81582176D01*
X138079415Y-81669838D01*
X137933643Y-81730219D01*
X137778893Y-81761000D01*
X137621107Y-81761000D01*
X137466357Y-81730219D01*
X137320585Y-81669838D01*
X137189389Y-81582176D01*
X137077824Y-81470611D01*
X136990162Y-81339415D01*
X136929781Y-81193643D01*
X136899000Y-81038893D01*
X136899000Y-80881107D01*
X136929781Y-80726357D01*
X136990162Y-80580585D01*
X137077824Y-80449389D01*
X137189389Y-80337824D01*
X137320585Y-80250162D01*
X137466357Y-80189781D01*
X137621107Y-80159000D01*
X137778893Y-80159000D01*
X137933643Y-80189781D01*
X137933643Y-80189781D01*
G37*
G36*
X122768604Y-77928347D02*
X122805145Y-77939432D01*
X122838820Y-77957431D01*
X122868341Y-77981659D01*
X122892569Y-78011180D01*
X122910568Y-78044855D01*
X122921653Y-78081396D01*
X122926000Y-78125538D01*
X122926000Y-79074462D01*
X122921653Y-79118604D01*
X122910568Y-79155145D01*
X122892569Y-79188820D01*
X122868341Y-79218341D01*
X122838820Y-79242569D01*
X122805145Y-79260568D01*
X122768604Y-79271653D01*
X122724462Y-79276000D01*
X121275538Y-79276000D01*
X121231396Y-79271653D01*
X121194855Y-79260568D01*
X121161180Y-79242569D01*
X121131659Y-79218341D01*
X121107431Y-79188820D01*
X121089432Y-79155145D01*
X121078347Y-79118604D01*
X121074000Y-79074462D01*
X121074000Y-78125538D01*
X121078347Y-78081396D01*
X121089432Y-78044855D01*
X121107431Y-78011180D01*
X121131659Y-77981659D01*
X121161180Y-77957431D01*
X121194855Y-77939432D01*
X121231396Y-77928347D01*
X121275538Y-77924000D01*
X122724462Y-77924000D01*
X122768604Y-77928347D01*
X122768604Y-77928347D01*
G37*
G36*
X125768604Y-77928347D02*
X125805145Y-77939432D01*
X125838820Y-77957431D01*
X125868341Y-77981659D01*
X125892569Y-78011180D01*
X125910568Y-78044855D01*
X125921653Y-78081396D01*
X125926000Y-78125538D01*
X125926000Y-79074462D01*
X125921653Y-79118604D01*
X125910568Y-79155145D01*
X125892569Y-79188820D01*
X125868341Y-79218341D01*
X125838820Y-79242569D01*
X125805145Y-79260568D01*
X125768604Y-79271653D01*
X125724462Y-79276000D01*
X124275538Y-79276000D01*
X124231396Y-79271653D01*
X124194855Y-79260568D01*
X124161180Y-79242569D01*
X124131659Y-79218341D01*
X124107431Y-79188820D01*
X124089432Y-79155145D01*
X124078347Y-79118604D01*
X124074000Y-79074462D01*
X124074000Y-78125538D01*
X124078347Y-78081396D01*
X124089432Y-78044855D01*
X124107431Y-78011180D01*
X124131659Y-77981659D01*
X124161180Y-77957431D01*
X124194855Y-77939432D01*
X124231396Y-77928347D01*
X124275538Y-77924000D01*
X125724462Y-77924000D01*
X125768604Y-77928347D01*
X125768604Y-77928347D01*
G37*
G36*
X128768604Y-77928347D02*
X128805145Y-77939432D01*
X128838820Y-77957431D01*
X128868341Y-77981659D01*
X128892569Y-78011180D01*
X128910568Y-78044855D01*
X128921653Y-78081396D01*
X128926000Y-78125538D01*
X128926000Y-79074462D01*
X128921653Y-79118604D01*
X128910568Y-79155145D01*
X128892569Y-79188820D01*
X128868341Y-79218341D01*
X128838820Y-79242569D01*
X128805145Y-79260568D01*
X128768604Y-79271653D01*
X128724462Y-79276000D01*
X127275538Y-79276000D01*
X127231396Y-79271653D01*
X127194855Y-79260568D01*
X127161180Y-79242569D01*
X127131659Y-79218341D01*
X127107431Y-79188820D01*
X127089432Y-79155145D01*
X127078347Y-79118604D01*
X127074000Y-79074462D01*
X127074000Y-78125538D01*
X127078347Y-78081396D01*
X127089432Y-78044855D01*
X127107431Y-78011180D01*
X127131659Y-77981659D01*
X127161180Y-77957431D01*
X127194855Y-77939432D01*
X127231396Y-77928347D01*
X127275538Y-77924000D01*
X128724462Y-77924000D01*
X128768604Y-77928347D01*
X128768604Y-77928347D01*
G37*
G36*
X137933643Y-77649781D02*
X138079415Y-77710162D01*
X138210611Y-77797824D01*
X138322176Y-77909389D01*
X138409838Y-78040585D01*
X138470219Y-78186357D01*
X138501000Y-78341107D01*
X138501000Y-78498893D01*
X138470219Y-78653643D01*
X138409838Y-78799415D01*
X138322176Y-78930611D01*
X138210611Y-79042176D01*
X138079415Y-79129838D01*
X137933643Y-79190219D01*
X137778893Y-79221000D01*
X137621107Y-79221000D01*
X137466357Y-79190219D01*
X137320585Y-79129838D01*
X137189389Y-79042176D01*
X137077824Y-78930611D01*
X136990162Y-78799415D01*
X136929781Y-78653643D01*
X136899000Y-78498893D01*
X136899000Y-78341107D01*
X136929781Y-78186357D01*
X136990162Y-78040585D01*
X137077824Y-77909389D01*
X137189389Y-77797824D01*
X137320585Y-77710162D01*
X137466357Y-77649781D01*
X137621107Y-77619000D01*
X137778893Y-77619000D01*
X137933643Y-77649781D01*
X137933643Y-77649781D01*
G37*
G36*
X112533643Y-77649781D02*
X112679415Y-77710162D01*
X112810611Y-77797824D01*
X112922176Y-77909389D01*
X113009838Y-78040585D01*
X113070219Y-78186357D01*
X113101000Y-78341107D01*
X113101000Y-78498893D01*
X113070219Y-78653643D01*
X113009838Y-78799415D01*
X112922176Y-78930611D01*
X112810611Y-79042176D01*
X112679415Y-79129838D01*
X112533643Y-79190219D01*
X112378893Y-79221000D01*
X112221107Y-79221000D01*
X112066357Y-79190219D01*
X111920585Y-79129838D01*
X111789389Y-79042176D01*
X111677824Y-78930611D01*
X111590162Y-78799415D01*
X111529781Y-78653643D01*
X111499000Y-78498893D01*
X111499000Y-78341107D01*
X111529781Y-78186357D01*
X111590162Y-78040585D01*
X111677824Y-77909389D01*
X111789389Y-77797824D01*
X111920585Y-77710162D01*
X112066357Y-77649781D01*
X112221107Y-77619000D01*
X112378893Y-77619000D01*
X112533643Y-77649781D01*
X112533643Y-77649781D01*
G37*
G36*
X112533643Y-75109781D02*
X112679415Y-75170162D01*
X112810611Y-75257824D01*
X112922176Y-75369389D01*
X113009838Y-75500585D01*
X113070219Y-75646357D01*
X113101000Y-75801107D01*
X113101000Y-75958893D01*
X113070219Y-76113643D01*
X113009838Y-76259415D01*
X112922176Y-76390611D01*
X112810611Y-76502176D01*
X112679415Y-76589838D01*
X112533643Y-76650219D01*
X112378893Y-76681000D01*
X112221107Y-76681000D01*
X112066357Y-76650219D01*
X111920585Y-76589838D01*
X111789389Y-76502176D01*
X111677824Y-76390611D01*
X111590162Y-76259415D01*
X111529781Y-76113643D01*
X111499000Y-75958893D01*
X111499000Y-75801107D01*
X111529781Y-75646357D01*
X111590162Y-75500585D01*
X111677824Y-75369389D01*
X111789389Y-75257824D01*
X111920585Y-75170162D01*
X112066357Y-75109781D01*
X112221107Y-75079000D01*
X112378893Y-75079000D01*
X112533643Y-75109781D01*
X112533643Y-75109781D01*
G37*
G36*
X137933643Y-75109781D02*
X138079415Y-75170162D01*
X138210611Y-75257824D01*
X138322176Y-75369389D01*
X138409838Y-75500585D01*
X138470219Y-75646357D01*
X138501000Y-75801107D01*
X138501000Y-75958893D01*
X138470219Y-76113643D01*
X138409838Y-76259415D01*
X138322176Y-76390611D01*
X138210611Y-76502176D01*
X138079415Y-76589838D01*
X137933643Y-76650219D01*
X137778893Y-76681000D01*
X137621107Y-76681000D01*
X137466357Y-76650219D01*
X137320585Y-76589838D01*
X137189389Y-76502176D01*
X137077824Y-76390611D01*
X136990162Y-76259415D01*
X136929781Y-76113643D01*
X136899000Y-75958893D01*
X136899000Y-75801107D01*
X136929781Y-75646357D01*
X136990162Y-75500585D01*
X137077824Y-75369389D01*
X137189389Y-75257824D01*
X137320585Y-75170162D01*
X137466357Y-75109781D01*
X137621107Y-75079000D01*
X137778893Y-75079000D01*
X137933643Y-75109781D01*
X137933643Y-75109781D01*
G37*
G36*
X137933643Y-72569781D02*
X138079415Y-72630162D01*
X138210611Y-72717824D01*
X138322176Y-72829389D01*
X138409838Y-72960585D01*
X138470219Y-73106357D01*
X138501000Y-73261107D01*
X138501000Y-73418893D01*
X138470219Y-73573643D01*
X138409838Y-73719415D01*
X138322176Y-73850611D01*
X138210611Y-73962176D01*
X138079415Y-74049838D01*
X137933643Y-74110219D01*
X137778893Y-74141000D01*
X137621107Y-74141000D01*
X137466357Y-74110219D01*
X137320585Y-74049838D01*
X137189389Y-73962176D01*
X137077824Y-73850611D01*
X136990162Y-73719415D01*
X136929781Y-73573643D01*
X136899000Y-73418893D01*
X136899000Y-73261107D01*
X136929781Y-73106357D01*
X136990162Y-72960585D01*
X137077824Y-72829389D01*
X137189389Y-72717824D01*
X137320585Y-72630162D01*
X137466357Y-72569781D01*
X137621107Y-72539000D01*
X137778893Y-72539000D01*
X137933643Y-72569781D01*
X137933643Y-72569781D01*
G37*
G36*
X112533643Y-72569781D02*
X112679415Y-72630162D01*
X112810611Y-72717824D01*
X112922176Y-72829389D01*
X113009838Y-72960585D01*
X113070219Y-73106357D01*
X113101000Y-73261107D01*
X113101000Y-73418893D01*
X113070219Y-73573643D01*
X113009838Y-73719415D01*
X112922176Y-73850611D01*
X112810611Y-73962176D01*
X112679415Y-74049838D01*
X112533643Y-74110219D01*
X112378893Y-74141000D01*
X112221107Y-74141000D01*
X112066357Y-74110219D01*
X111920585Y-74049838D01*
X111789389Y-73962176D01*
X111677824Y-73850611D01*
X111590162Y-73719415D01*
X111529781Y-73573643D01*
X111499000Y-73418893D01*
X111499000Y-73261107D01*
X111529781Y-73106357D01*
X111590162Y-72960585D01*
X111677824Y-72829389D01*
X111789389Y-72717824D01*
X111920585Y-72630162D01*
X112066357Y-72569781D01*
X112221107Y-72539000D01*
X112378893Y-72539000D01*
X112533643Y-72569781D01*
X112533643Y-72569781D01*
G37*
G36*
X112533643Y-70029781D02*
X112679415Y-70090162D01*
X112810611Y-70177824D01*
X112922176Y-70289389D01*
X113009838Y-70420585D01*
X113070219Y-70566357D01*
X113101000Y-70721107D01*
X113101000Y-70878893D01*
X113070219Y-71033643D01*
X113009838Y-71179415D01*
X112922176Y-71310611D01*
X112810611Y-71422176D01*
X112679415Y-71509838D01*
X112533643Y-71570219D01*
X112378893Y-71601000D01*
X112221107Y-71601000D01*
X112066357Y-71570219D01*
X111920585Y-71509838D01*
X111789389Y-71422176D01*
X111677824Y-71310611D01*
X111590162Y-71179415D01*
X111529781Y-71033643D01*
X111499000Y-70878893D01*
X111499000Y-70721107D01*
X111529781Y-70566357D01*
X111590162Y-70420585D01*
X111677824Y-70289389D01*
X111789389Y-70177824D01*
X111920585Y-70090162D01*
X112066357Y-70029781D01*
X112221107Y-69999000D01*
X112378893Y-69999000D01*
X112533643Y-70029781D01*
X112533643Y-70029781D01*
G37*
G36*
X137933643Y-70029781D02*
X138079415Y-70090162D01*
X138210611Y-70177824D01*
X138322176Y-70289389D01*
X138409838Y-70420585D01*
X138470219Y-70566357D01*
X138501000Y-70721107D01*
X138501000Y-70878893D01*
X138470219Y-71033643D01*
X138409838Y-71179415D01*
X138322176Y-71310611D01*
X138210611Y-71422176D01*
X138079415Y-71509838D01*
X137933643Y-71570219D01*
X137778893Y-71601000D01*
X137621107Y-71601000D01*
X137466357Y-71570219D01*
X137320585Y-71509838D01*
X137189389Y-71422176D01*
X137077824Y-71310611D01*
X136990162Y-71179415D01*
X136929781Y-71033643D01*
X136899000Y-70878893D01*
X136899000Y-70721107D01*
X136929781Y-70566357D01*
X136990162Y-70420585D01*
X137077824Y-70289389D01*
X137189389Y-70177824D01*
X137320585Y-70090162D01*
X137466357Y-70029781D01*
X137621107Y-69999000D01*
X137778893Y-69999000D01*
X137933643Y-70029781D01*
X137933643Y-70029781D01*
G37*
G36*
X98610443Y-67645519D02*
X98676627Y-67652037D01*
X98789853Y-67686384D01*
X98846467Y-67703557D01*
X98932211Y-67749389D01*
X99002991Y-67787222D01*
X99038729Y-67816552D01*
X99140186Y-67899814D01*
X99223448Y-68001271D01*
X99252778Y-68037009D01*
X99252779Y-68037011D01*
X99336443Y-68193533D01*
X99336443Y-68193534D01*
X99387963Y-68363373D01*
X99405359Y-68540000D01*
X99387963Y-68716627D01*
X99371588Y-68770608D01*
X99336443Y-68886467D01*
X99262348Y-69025087D01*
X99252778Y-69042991D01*
X99237998Y-69061000D01*
X99140186Y-69180186D01*
X99038729Y-69263448D01*
X99002991Y-69292778D01*
X99002989Y-69292779D01*
X98846467Y-69376443D01*
X98789853Y-69393616D01*
X98676627Y-69427963D01*
X98610443Y-69434481D01*
X98544260Y-69441000D01*
X98455740Y-69441000D01*
X98389557Y-69434481D01*
X98323373Y-69427963D01*
X98210147Y-69393616D01*
X98153533Y-69376443D01*
X97997011Y-69292779D01*
X97997009Y-69292778D01*
X97961271Y-69263448D01*
X97859814Y-69180186D01*
X97762002Y-69061000D01*
X97747222Y-69042991D01*
X97737652Y-69025087D01*
X97663557Y-68886467D01*
X97628412Y-68770608D01*
X97612037Y-68716627D01*
X97594641Y-68540000D01*
X97612037Y-68363373D01*
X97663557Y-68193534D01*
X97663557Y-68193533D01*
X97747221Y-68037011D01*
X97747222Y-68037009D01*
X97776552Y-68001271D01*
X97859814Y-67899814D01*
X97961271Y-67816552D01*
X97997009Y-67787222D01*
X98067789Y-67749389D01*
X98153533Y-67703557D01*
X98210147Y-67686384D01*
X98323373Y-67652037D01*
X98389557Y-67645519D01*
X98455740Y-67639000D01*
X98544260Y-67639000D01*
X98610443Y-67645519D01*
X98610443Y-67645519D01*
G37*
G36*
X137933643Y-67489781D02*
X138079415Y-67550162D01*
X138210611Y-67637824D01*
X138322176Y-67749389D01*
X138409838Y-67880585D01*
X138470219Y-68026357D01*
X138501000Y-68181107D01*
X138501000Y-68338893D01*
X138470219Y-68493643D01*
X138409838Y-68639415D01*
X138322176Y-68770611D01*
X138210611Y-68882176D01*
X138079415Y-68969838D01*
X137933643Y-69030219D01*
X137778893Y-69061000D01*
X137621107Y-69061000D01*
X137466357Y-69030219D01*
X137320585Y-68969838D01*
X137189389Y-68882176D01*
X137077824Y-68770611D01*
X136990162Y-68639415D01*
X136929781Y-68493643D01*
X136899000Y-68338893D01*
X136899000Y-68181107D01*
X136929781Y-68026357D01*
X136990162Y-67880585D01*
X137077824Y-67749389D01*
X137189389Y-67637824D01*
X137320585Y-67550162D01*
X137466357Y-67489781D01*
X137621107Y-67459000D01*
X137778893Y-67459000D01*
X137933643Y-67489781D01*
X137933643Y-67489781D01*
G37*
G36*
X112533643Y-67489781D02*
X112679415Y-67550162D01*
X112810611Y-67637824D01*
X112922176Y-67749389D01*
X113009838Y-67880585D01*
X113070219Y-68026357D01*
X113101000Y-68181107D01*
X113101000Y-68338893D01*
X113070219Y-68493643D01*
X113009838Y-68639415D01*
X112922176Y-68770611D01*
X112810611Y-68882176D01*
X112679415Y-68969838D01*
X112533643Y-69030219D01*
X112378893Y-69061000D01*
X112221107Y-69061000D01*
X112066357Y-69030219D01*
X111920585Y-68969838D01*
X111789389Y-68882176D01*
X111677824Y-68770611D01*
X111590162Y-68639415D01*
X111529781Y-68493643D01*
X111499000Y-68338893D01*
X111499000Y-68181107D01*
X111529781Y-68026357D01*
X111590162Y-67880585D01*
X111677824Y-67749389D01*
X111789389Y-67637824D01*
X111920585Y-67550162D01*
X112066357Y-67489781D01*
X112221107Y-67459000D01*
X112378893Y-67459000D01*
X112533643Y-67489781D01*
X112533643Y-67489781D01*
G37*
G36*
X99401000Y-66901000D02*
X97599000Y-66901000D01*
X97599000Y-65099000D01*
X99401000Y-65099000D01*
X99401000Y-66901000D01*
X99401000Y-66901000D01*
G37*
G36*
X137933643Y-64949781D02*
X138079415Y-65010162D01*
X138210611Y-65097824D01*
X138322176Y-65209389D01*
X138409838Y-65340585D01*
X138470219Y-65486357D01*
X138501000Y-65641107D01*
X138501000Y-65798893D01*
X138470219Y-65953643D01*
X138409838Y-66099415D01*
X138322176Y-66230611D01*
X138210611Y-66342176D01*
X138079415Y-66429838D01*
X137933643Y-66490219D01*
X137778893Y-66521000D01*
X137621107Y-66521000D01*
X137466357Y-66490219D01*
X137320585Y-66429838D01*
X137189389Y-66342176D01*
X137077824Y-66230611D01*
X136990162Y-66099415D01*
X136929781Y-65953643D01*
X136899000Y-65798893D01*
X136899000Y-65641107D01*
X136929781Y-65486357D01*
X136990162Y-65340585D01*
X137077824Y-65209389D01*
X137189389Y-65097824D01*
X137320585Y-65010162D01*
X137466357Y-64949781D01*
X137621107Y-64919000D01*
X137778893Y-64919000D01*
X137933643Y-64949781D01*
X137933643Y-64949781D01*
G37*
G36*
X112533643Y-64949781D02*
X112679415Y-65010162D01*
X112810611Y-65097824D01*
X112922176Y-65209389D01*
X113009838Y-65340585D01*
X113070219Y-65486357D01*
X113101000Y-65641107D01*
X113101000Y-65798893D01*
X113070219Y-65953643D01*
X113009838Y-66099415D01*
X112922176Y-66230611D01*
X112810611Y-66342176D01*
X112679415Y-66429838D01*
X112533643Y-66490219D01*
X112378893Y-66521000D01*
X112221107Y-66521000D01*
X112066357Y-66490219D01*
X111920585Y-66429838D01*
X111789389Y-66342176D01*
X111677824Y-66230611D01*
X111590162Y-66099415D01*
X111529781Y-65953643D01*
X111499000Y-65798893D01*
X111499000Y-65641107D01*
X111529781Y-65486357D01*
X111590162Y-65340585D01*
X111677824Y-65209389D01*
X111789389Y-65097824D01*
X111920585Y-65010162D01*
X112066357Y-64949781D01*
X112221107Y-64919000D01*
X112378893Y-64919000D01*
X112533643Y-64949781D01*
X112533643Y-64949781D01*
G37*
G36*
X137933643Y-62409781D02*
X138079415Y-62470162D01*
X138210611Y-62557824D01*
X138322176Y-62669389D01*
X138409838Y-62800585D01*
X138470219Y-62946357D01*
X138501000Y-63101107D01*
X138501000Y-63258893D01*
X138470219Y-63413643D01*
X138409838Y-63559415D01*
X138322176Y-63690611D01*
X138210611Y-63802176D01*
X138079415Y-63889838D01*
X137933643Y-63950219D01*
X137778893Y-63981000D01*
X137621107Y-63981000D01*
X137466357Y-63950219D01*
X137320585Y-63889838D01*
X137189389Y-63802176D01*
X137077824Y-63690611D01*
X136990162Y-63559415D01*
X136929781Y-63413643D01*
X136899000Y-63258893D01*
X136899000Y-63101107D01*
X136929781Y-62946357D01*
X136990162Y-62800585D01*
X137077824Y-62669389D01*
X137189389Y-62557824D01*
X137320585Y-62470162D01*
X137466357Y-62409781D01*
X137621107Y-62379000D01*
X137778893Y-62379000D01*
X137933643Y-62409781D01*
X137933643Y-62409781D01*
G37*
G36*
X112533643Y-62409781D02*
X112679415Y-62470162D01*
X112810611Y-62557824D01*
X112922176Y-62669389D01*
X113009838Y-62800585D01*
X113070219Y-62946357D01*
X113101000Y-63101107D01*
X113101000Y-63258893D01*
X113070219Y-63413643D01*
X113009838Y-63559415D01*
X112922176Y-63690611D01*
X112810611Y-63802176D01*
X112679415Y-63889838D01*
X112533643Y-63950219D01*
X112378893Y-63981000D01*
X112221107Y-63981000D01*
X112066357Y-63950219D01*
X111920585Y-63889838D01*
X111789389Y-63802176D01*
X111677824Y-63690611D01*
X111590162Y-63559415D01*
X111529781Y-63413643D01*
X111499000Y-63258893D01*
X111499000Y-63101107D01*
X111529781Y-62946357D01*
X111590162Y-62800585D01*
X111677824Y-62669389D01*
X111789389Y-62557824D01*
X111920585Y-62470162D01*
X112066357Y-62409781D01*
X112221107Y-62379000D01*
X112378893Y-62379000D01*
X112533643Y-62409781D01*
X112533643Y-62409781D01*
G37*
M02*
