M48
;DRILL file {KiCad 5.0.2-bee76a0~70~ubuntu18.04.1} date Mon 17 Aug 2020 12:22:23 NZST
;FORMAT={-:-/ absolute / metric / decimal}
FMAT,2
METRIC,TZ
T1C0.400
T2C0.762
T3C1.000
T4C1.020
T5C3.200
%
G90
G05
T1
X117.Y-93.
X120.2Y-100.425
X120.5Y-94.
X124.095Y-94.718
X125.Y-93.
X127.2Y-99.6
X129.5Y-107.
X134.5Y-99.
T2
X142.1Y-61.5
X150.99Y-67.85
T3
X102.16Y-89.385
X102.16Y-92.155
X102.16Y-94.925
X102.16Y-97.695
X105.Y-88.
X105.Y-90.77
X105.Y-93.54
X105.Y-96.31
X105.Y-99.08
X145.Y-88.
X145.Y-90.77
X145.Y-93.54
X145.Y-96.31
X145.Y-99.08
X147.84Y-89.385
X147.84Y-92.155
X147.84Y-94.925
X147.84Y-97.695
X98.5Y-66.
X98.5Y-68.54
T4
X112.3Y-63.18
X112.3Y-65.72
X112.3Y-68.26
X112.3Y-70.8
X112.3Y-73.34
X112.3Y-75.88
X112.3Y-78.42
X112.3Y-80.96
X112.3Y-83.5
X112.3Y-86.04
X112.3Y-88.58
X112.3Y-91.12
X112.3Y-93.66
X112.3Y-96.2
X112.3Y-98.74
X112.3Y-101.28
X112.3Y-103.82
X112.3Y-106.36
X112.3Y-108.9
X137.7Y-63.18
X137.7Y-65.72
X137.7Y-68.26
X137.7Y-70.8
X137.7Y-73.34
X137.7Y-75.88
X137.7Y-78.42
X137.7Y-80.96
X137.7Y-83.5
X137.7Y-86.04
X137.7Y-88.58
X137.7Y-91.12
X137.7Y-93.66
X137.7Y-96.2
X137.7Y-98.74
X137.7Y-101.28
X137.7Y-103.82
X137.7Y-106.36
X137.7Y-108.9
T5
X103.58Y-81.04
X103.58Y-106.04
X146.42Y-81.04
X146.42Y-106.04
T0
M30
