G04 #@! TF.GenerationSoftware,KiCad,Pcbnew,5.0.2+dfsg1-1*
G04 #@! TF.CreationDate,2020-04-16T16:50:33+12:00*
G04 #@! TF.ProjectId,Wireless232,57697265-6c65-4737-9332-33322e6b6963,rev?*
G04 #@! TF.SameCoordinates,Original*
G04 #@! TF.FileFunction,Legend,Bot*
G04 #@! TF.FilePolarity,Positive*
%FSLAX46Y46*%
G04 Gerber Fmt 4.6, Leading zero omitted, Abs format (unit mm)*
G04 Created by KiCad (PCBNEW 5.0.2+dfsg1-1) date Thu 16 Apr 2020 16:50:33 NZST*
%MOMM*%
%LPD*%
G01*
G04 APERTURE LIST*
%ADD10C,0.200000*%
%ADD11C,0.300000*%
%ADD12C,0.120000*%
%ADD13C,0.150000*%
G04 APERTURE END LIST*
D10*
X135047619Y-72602380D02*
X135047619Y-71602380D01*
X134476190Y-72602380D01*
X134476190Y-71602380D01*
X133666666Y-72078571D02*
X133523809Y-72126190D01*
X133476190Y-72173809D01*
X133428571Y-72269047D01*
X133428571Y-72411904D01*
X133476190Y-72507142D01*
X133523809Y-72554761D01*
X133619047Y-72602380D01*
X134000000Y-72602380D01*
X134000000Y-71602380D01*
X133666666Y-71602380D01*
X133571428Y-71650000D01*
X133523809Y-71697619D01*
X133476190Y-71792857D01*
X133476190Y-71888095D01*
X133523809Y-71983333D01*
X133571428Y-72030952D01*
X133666666Y-72078571D01*
X134000000Y-72078571D01*
X133000000Y-72507142D02*
X132952380Y-72554761D01*
X133000000Y-72602380D01*
X133047619Y-72554761D01*
X133000000Y-72507142D01*
X133000000Y-72602380D01*
X133000000Y-71983333D02*
X132952380Y-72030952D01*
X133000000Y-72078571D01*
X133047619Y-72030952D01*
X133000000Y-71983333D01*
X133000000Y-72078571D01*
X131571428Y-71602380D02*
X131380952Y-71602380D01*
X131285714Y-71650000D01*
X131190476Y-71745238D01*
X131142857Y-71935714D01*
X131142857Y-72269047D01*
X131190476Y-72459523D01*
X131285714Y-72554761D01*
X131380952Y-72602380D01*
X131571428Y-72602380D01*
X131666666Y-72554761D01*
X131761904Y-72459523D01*
X131809523Y-72269047D01*
X131809523Y-71935714D01*
X131761904Y-71745238D01*
X131666666Y-71650000D01*
X131571428Y-71602380D01*
X130714285Y-71935714D02*
X130714285Y-72602380D01*
X130714285Y-72030952D02*
X130666666Y-71983333D01*
X130571428Y-71935714D01*
X130428571Y-71935714D01*
X130333333Y-71983333D01*
X130285714Y-72078571D01*
X130285714Y-72602380D01*
X129666666Y-72602380D02*
X129761904Y-72554761D01*
X129809523Y-72459523D01*
X129809523Y-71602380D01*
X129380952Y-71935714D02*
X129142857Y-72602380D01*
X128904761Y-71935714D02*
X129142857Y-72602380D01*
X129238095Y-72840476D01*
X129285714Y-72888095D01*
X129380952Y-72935714D01*
X127619047Y-72602380D02*
X127714285Y-72554761D01*
X127761904Y-72507142D01*
X127809523Y-72411904D01*
X127809523Y-72126190D01*
X127761904Y-72030952D01*
X127714285Y-71983333D01*
X127619047Y-71935714D01*
X127476190Y-71935714D01*
X127380952Y-71983333D01*
X127333333Y-72030952D01*
X127285714Y-72126190D01*
X127285714Y-72411904D01*
X127333333Y-72507142D01*
X127380952Y-72554761D01*
X127476190Y-72602380D01*
X127619047Y-72602380D01*
X126857142Y-71935714D02*
X126857142Y-72602380D01*
X126857142Y-72030952D02*
X126809523Y-71983333D01*
X126714285Y-71935714D01*
X126571428Y-71935714D01*
X126476190Y-71983333D01*
X126428571Y-72078571D01*
X126428571Y-72602380D01*
X125571428Y-72554761D02*
X125666666Y-72602380D01*
X125857142Y-72602380D01*
X125952380Y-72554761D01*
X126000000Y-72459523D01*
X126000000Y-72078571D01*
X125952380Y-71983333D01*
X125857142Y-71935714D01*
X125666666Y-71935714D01*
X125571428Y-71983333D01*
X125523809Y-72078571D01*
X125523809Y-72173809D01*
X126000000Y-72269047D01*
X124190476Y-72602380D02*
X124285714Y-72554761D01*
X124333333Y-72507142D01*
X124380952Y-72411904D01*
X124380952Y-72126190D01*
X124333333Y-72030952D01*
X124285714Y-71983333D01*
X124190476Y-71935714D01*
X124047619Y-71935714D01*
X123952380Y-71983333D01*
X123904761Y-72030952D01*
X123857142Y-72126190D01*
X123857142Y-72411904D01*
X123904761Y-72507142D01*
X123952380Y-72554761D01*
X124047619Y-72602380D01*
X124190476Y-72602380D01*
X123571428Y-71935714D02*
X123190476Y-71935714D01*
X123428571Y-72602380D02*
X123428571Y-71745238D01*
X123380952Y-71650000D01*
X123285714Y-71602380D01*
X123190476Y-71602380D01*
X122095238Y-72602380D02*
X122095238Y-71602380D01*
X121857142Y-71602380D01*
X121714285Y-71650000D01*
X121619047Y-71745238D01*
X121571428Y-71840476D01*
X121523809Y-72030952D01*
X121523809Y-72173809D01*
X121571428Y-72364285D01*
X121619047Y-72459523D01*
X121714285Y-72554761D01*
X121857142Y-72602380D01*
X122095238Y-72602380D01*
X120523809Y-72507142D02*
X120571428Y-72554761D01*
X120714285Y-72602380D01*
X120809523Y-72602380D01*
X120952380Y-72554761D01*
X121047619Y-72459523D01*
X121095238Y-72364285D01*
X121142857Y-72173809D01*
X121142857Y-72030952D01*
X121095238Y-71840476D01*
X121047619Y-71745238D01*
X120952380Y-71650000D01*
X120809523Y-71602380D01*
X120714285Y-71602380D01*
X120571428Y-71650000D01*
X120523809Y-71697619D01*
X120095238Y-72078571D02*
X119761904Y-72078571D01*
X119619047Y-72602380D02*
X120095238Y-72602380D01*
X120095238Y-71602380D01*
X119619047Y-71602380D01*
X118476190Y-71554761D02*
X119333333Y-72840476D01*
X118142857Y-72602380D02*
X118142857Y-71602380D01*
X117904761Y-71602380D01*
X117761904Y-71650000D01*
X117666666Y-71745238D01*
X117619047Y-71840476D01*
X117571428Y-72030952D01*
X117571428Y-72173809D01*
X117619047Y-72364285D01*
X117666666Y-72459523D01*
X117761904Y-72554761D01*
X117904761Y-72602380D01*
X118142857Y-72602380D01*
X117285714Y-71602380D02*
X116714285Y-71602380D01*
X117000000Y-72602380D02*
X117000000Y-71602380D01*
X116380952Y-72078571D02*
X116047619Y-72078571D01*
X115904761Y-72602380D02*
X116380952Y-72602380D01*
X116380952Y-71602380D01*
X115904761Y-71602380D01*
X134095238Y-74302380D02*
X134095238Y-73635714D01*
X134095238Y-73730952D02*
X134047619Y-73683333D01*
X133952380Y-73635714D01*
X133809523Y-73635714D01*
X133714285Y-73683333D01*
X133666666Y-73778571D01*
X133666666Y-74302380D01*
X133666666Y-73778571D02*
X133619047Y-73683333D01*
X133523809Y-73635714D01*
X133380952Y-73635714D01*
X133285714Y-73683333D01*
X133238095Y-73778571D01*
X133238095Y-74302380D01*
X132333333Y-74302380D02*
X132333333Y-73778571D01*
X132380952Y-73683333D01*
X132476190Y-73635714D01*
X132666666Y-73635714D01*
X132761904Y-73683333D01*
X132333333Y-74254761D02*
X132428571Y-74302380D01*
X132666666Y-74302380D01*
X132761904Y-74254761D01*
X132809523Y-74159523D01*
X132809523Y-74064285D01*
X132761904Y-73969047D01*
X132666666Y-73921428D01*
X132428571Y-73921428D01*
X132333333Y-73873809D01*
X131952380Y-73635714D02*
X131714285Y-74302380D01*
X131476190Y-73635714D02*
X131714285Y-74302380D01*
X131809523Y-74540476D01*
X131857142Y-74588095D01*
X131952380Y-74635714D01*
X130333333Y-74302380D02*
X130333333Y-73302380D01*
X130333333Y-73683333D02*
X130238095Y-73635714D01*
X130047619Y-73635714D01*
X129952380Y-73683333D01*
X129904761Y-73730952D01*
X129857142Y-73826190D01*
X129857142Y-74111904D01*
X129904761Y-74207142D01*
X129952380Y-74254761D01*
X130047619Y-74302380D01*
X130238095Y-74302380D01*
X130333333Y-74254761D01*
X129047619Y-74254761D02*
X129142857Y-74302380D01*
X129333333Y-74302380D01*
X129428571Y-74254761D01*
X129476190Y-74159523D01*
X129476190Y-73778571D01*
X129428571Y-73683333D01*
X129333333Y-73635714D01*
X129142857Y-73635714D01*
X129047619Y-73683333D01*
X129000000Y-73778571D01*
X129000000Y-73873809D01*
X129476190Y-73969047D01*
X127380952Y-73635714D02*
X127380952Y-74302380D01*
X127809523Y-73635714D02*
X127809523Y-74159523D01*
X127761904Y-74254761D01*
X127666666Y-74302380D01*
X127523809Y-74302380D01*
X127428571Y-74254761D01*
X127380952Y-74207142D01*
X126952380Y-74254761D02*
X126857142Y-74302380D01*
X126666666Y-74302380D01*
X126571428Y-74254761D01*
X126523809Y-74159523D01*
X126523809Y-74111904D01*
X126571428Y-74016666D01*
X126666666Y-73969047D01*
X126809523Y-73969047D01*
X126904761Y-73921428D01*
X126952380Y-73826190D01*
X126952380Y-73778571D01*
X126904761Y-73683333D01*
X126809523Y-73635714D01*
X126666666Y-73635714D01*
X126571428Y-73683333D01*
X125714285Y-74254761D02*
X125809523Y-74302380D01*
X126000000Y-74302380D01*
X126095238Y-74254761D01*
X126142857Y-74159523D01*
X126142857Y-73778571D01*
X126095238Y-73683333D01*
X126000000Y-73635714D01*
X125809523Y-73635714D01*
X125714285Y-73683333D01*
X125666666Y-73778571D01*
X125666666Y-73873809D01*
X126142857Y-73969047D01*
X124809523Y-74302380D02*
X124809523Y-73302380D01*
X124809523Y-74254761D02*
X124904761Y-74302380D01*
X125095238Y-74302380D01*
X125190476Y-74254761D01*
X125238095Y-74207142D01*
X125285714Y-74111904D01*
X125285714Y-73826190D01*
X125238095Y-73730952D01*
X125190476Y-73683333D01*
X125095238Y-73635714D01*
X124904761Y-73635714D01*
X124809523Y-73683333D01*
X123142857Y-74302380D02*
X123142857Y-73778571D01*
X123190476Y-73683333D01*
X123285714Y-73635714D01*
X123476190Y-73635714D01*
X123571428Y-73683333D01*
X123142857Y-74254761D02*
X123238095Y-74302380D01*
X123476190Y-74302380D01*
X123571428Y-74254761D01*
X123619047Y-74159523D01*
X123619047Y-74064285D01*
X123571428Y-73969047D01*
X123476190Y-73921428D01*
X123238095Y-73921428D01*
X123142857Y-73873809D01*
X122809523Y-73635714D02*
X122428571Y-73635714D01*
X122666666Y-73302380D02*
X122666666Y-74159523D01*
X122619047Y-74254761D01*
X122523809Y-74302380D01*
X122428571Y-74302380D01*
X120904761Y-74302380D02*
X120904761Y-73778571D01*
X120952380Y-73683333D01*
X121047619Y-73635714D01*
X121238095Y-73635714D01*
X121333333Y-73683333D01*
X120904761Y-74254761D02*
X121000000Y-74302380D01*
X121238095Y-74302380D01*
X121333333Y-74254761D01*
X121380952Y-74159523D01*
X121380952Y-74064285D01*
X121333333Y-73969047D01*
X121238095Y-73921428D01*
X121000000Y-73921428D01*
X120904761Y-73873809D01*
X119809523Y-73635714D02*
X119428571Y-73635714D01*
X119666666Y-73302380D02*
X119666666Y-74159523D01*
X119619047Y-74254761D01*
X119523809Y-74302380D01*
X119428571Y-74302380D01*
X119095238Y-74302380D02*
X119095238Y-73635714D01*
X119095238Y-73302380D02*
X119142857Y-73350000D01*
X119095238Y-73397619D01*
X119047619Y-73350000D01*
X119095238Y-73302380D01*
X119095238Y-73397619D01*
X118619047Y-74302380D02*
X118619047Y-73635714D01*
X118619047Y-73730952D02*
X118571428Y-73683333D01*
X118476190Y-73635714D01*
X118333333Y-73635714D01*
X118238095Y-73683333D01*
X118190476Y-73778571D01*
X118190476Y-74302380D01*
X118190476Y-73778571D02*
X118142857Y-73683333D01*
X118047619Y-73635714D01*
X117904761Y-73635714D01*
X117809523Y-73683333D01*
X117761904Y-73778571D01*
X117761904Y-74302380D01*
X116904761Y-74254761D02*
X117000000Y-74302380D01*
X117190476Y-74302380D01*
X117285714Y-74254761D01*
X117333333Y-74159523D01*
X117333333Y-73778571D01*
X117285714Y-73683333D01*
X117190476Y-73635714D01*
X117000000Y-73635714D01*
X116904761Y-73683333D01*
X116857142Y-73778571D01*
X116857142Y-73873809D01*
X117333333Y-73969047D01*
D11*
X136250000Y-64617857D02*
X135750000Y-64617857D01*
X135535714Y-65403571D02*
X136250000Y-65403571D01*
X136250000Y-63903571D01*
X135535714Y-63903571D01*
X134964285Y-65332142D02*
X134750000Y-65403571D01*
X134392857Y-65403571D01*
X134250000Y-65332142D01*
X134178571Y-65260714D01*
X134107142Y-65117857D01*
X134107142Y-64975000D01*
X134178571Y-64832142D01*
X134250000Y-64760714D01*
X134392857Y-64689285D01*
X134678571Y-64617857D01*
X134821428Y-64546428D01*
X134892857Y-64475000D01*
X134964285Y-64332142D01*
X134964285Y-64189285D01*
X134892857Y-64046428D01*
X134821428Y-63975000D01*
X134678571Y-63903571D01*
X134321428Y-63903571D01*
X134107142Y-63975000D01*
X133464285Y-65403571D02*
X133464285Y-63903571D01*
X132892857Y-63903571D01*
X132750000Y-63975000D01*
X132678571Y-64046428D01*
X132607142Y-64189285D01*
X132607142Y-64403571D01*
X132678571Y-64546428D01*
X132750000Y-64617857D01*
X132892857Y-64689285D01*
X133464285Y-64689285D01*
X132107142Y-63903571D02*
X131178571Y-63903571D01*
X131678571Y-64475000D01*
X131464285Y-64475000D01*
X131321428Y-64546428D01*
X131250000Y-64617857D01*
X131178571Y-64760714D01*
X131178571Y-65117857D01*
X131250000Y-65260714D01*
X131321428Y-65332142D01*
X131464285Y-65403571D01*
X131892857Y-65403571D01*
X132035714Y-65332142D01*
X132107142Y-65260714D01*
X130607142Y-64046428D02*
X130535714Y-63975000D01*
X130392857Y-63903571D01*
X130035714Y-63903571D01*
X129892857Y-63975000D01*
X129821428Y-64046428D01*
X129750000Y-64189285D01*
X129750000Y-64332142D01*
X129821428Y-64546428D01*
X130678571Y-65403571D01*
X129750000Y-65403571D01*
X127107142Y-65403571D02*
X127607142Y-64689285D01*
X127964285Y-65403571D02*
X127964285Y-63903571D01*
X127392857Y-63903571D01*
X127250000Y-63975000D01*
X127178571Y-64046428D01*
X127107142Y-64189285D01*
X127107142Y-64403571D01*
X127178571Y-64546428D01*
X127250000Y-64617857D01*
X127392857Y-64689285D01*
X127964285Y-64689285D01*
X126535714Y-65332142D02*
X126321428Y-65403571D01*
X125964285Y-65403571D01*
X125821428Y-65332142D01*
X125750000Y-65260714D01*
X125678571Y-65117857D01*
X125678571Y-64975000D01*
X125750000Y-64832142D01*
X125821428Y-64760714D01*
X125964285Y-64689285D01*
X126250000Y-64617857D01*
X126392857Y-64546428D01*
X126464285Y-64475000D01*
X126535714Y-64332142D01*
X126535714Y-64189285D01*
X126464285Y-64046428D01*
X126392857Y-63975000D01*
X126250000Y-63903571D01*
X125892857Y-63903571D01*
X125678571Y-63975000D01*
X125107142Y-64046428D02*
X125035714Y-63975000D01*
X124892857Y-63903571D01*
X124535714Y-63903571D01*
X124392857Y-63975000D01*
X124321428Y-64046428D01*
X124250000Y-64189285D01*
X124250000Y-64332142D01*
X124321428Y-64546428D01*
X125178571Y-65403571D01*
X124250000Y-65403571D01*
X123749999Y-63903571D02*
X122821428Y-63903571D01*
X123321428Y-64475000D01*
X123107142Y-64475000D01*
X122964285Y-64546428D01*
X122892857Y-64617857D01*
X122821428Y-64760714D01*
X122821428Y-65117857D01*
X122892857Y-65260714D01*
X122964285Y-65332142D01*
X123107142Y-65403571D01*
X123535714Y-65403571D01*
X123678571Y-65332142D01*
X123749999Y-65260714D01*
X122249999Y-64046428D02*
X122178571Y-63975000D01*
X122035714Y-63903571D01*
X121678571Y-63903571D01*
X121535714Y-63975000D01*
X121464285Y-64046428D01*
X121392857Y-64189285D01*
X121392857Y-64332142D01*
X121464285Y-64546428D01*
X122321428Y-65403571D01*
X121392857Y-65403571D01*
X119607142Y-65403571D02*
X119607142Y-63903571D01*
X118750000Y-65403571D01*
X118750000Y-63903571D01*
X117821428Y-65403571D02*
X117964285Y-65332142D01*
X118035714Y-65260714D01*
X118107142Y-65117857D01*
X118107142Y-64689285D01*
X118035714Y-64546428D01*
X117964285Y-64475000D01*
X117821428Y-64403571D01*
X117607142Y-64403571D01*
X117464285Y-64475000D01*
X117392857Y-64546428D01*
X117321428Y-64689285D01*
X117321428Y-65117857D01*
X117392857Y-65260714D01*
X117464285Y-65332142D01*
X117607142Y-65403571D01*
X117821428Y-65403571D01*
X116035714Y-65403571D02*
X116035714Y-63903571D01*
X116035714Y-65332142D02*
X116178571Y-65403571D01*
X116464285Y-65403571D01*
X116607142Y-65332142D01*
X116678571Y-65260714D01*
X116750000Y-65117857D01*
X116750000Y-64689285D01*
X116678571Y-64546428D01*
X116607142Y-64475000D01*
X116464285Y-64403571D01*
X116178571Y-64403571D01*
X116035714Y-64475000D01*
X114749999Y-65332142D02*
X114892857Y-65403571D01*
X115178571Y-65403571D01*
X115321428Y-65332142D01*
X115392857Y-65189285D01*
X115392857Y-64617857D01*
X115321428Y-64475000D01*
X115178571Y-64403571D01*
X114892857Y-64403571D01*
X114749999Y-64475000D01*
X114678571Y-64617857D01*
X114678571Y-64760714D01*
X115392857Y-64903571D01*
X133750000Y-67953571D02*
X133750000Y-66453571D01*
X132892857Y-67953571D02*
X133535714Y-67096428D01*
X132892857Y-66453571D02*
X133750000Y-67310714D01*
X132250000Y-66953571D02*
X132250000Y-68239285D01*
X132321428Y-68382142D01*
X132464285Y-68453571D01*
X132535714Y-68453571D01*
X132250000Y-66453571D02*
X132321428Y-66525000D01*
X132250000Y-66596428D01*
X132178571Y-66525000D01*
X132250000Y-66453571D01*
X132250000Y-66596428D01*
X130892857Y-67953571D02*
X130892857Y-67167857D01*
X130964285Y-67025000D01*
X131107142Y-66953571D01*
X131392857Y-66953571D01*
X131535714Y-67025000D01*
X130892857Y-67882142D02*
X131035714Y-67953571D01*
X131392857Y-67953571D01*
X131535714Y-67882142D01*
X131607142Y-67739285D01*
X131607142Y-67596428D01*
X131535714Y-67453571D01*
X131392857Y-67382142D01*
X131035714Y-67382142D01*
X130892857Y-67310714D01*
X129607142Y-67882142D02*
X129750000Y-67953571D01*
X130035714Y-67953571D01*
X130178571Y-67882142D01*
X130250000Y-67739285D01*
X130250000Y-67167857D01*
X130178571Y-67025000D01*
X130035714Y-66953571D01*
X129750000Y-66953571D01*
X129607142Y-67025000D01*
X129535714Y-67167857D01*
X129535714Y-67310714D01*
X130250000Y-67453571D01*
X128892857Y-67953571D02*
X128892857Y-66953571D01*
X128892857Y-67239285D02*
X128821428Y-67096428D01*
X128750000Y-67025000D01*
X128607142Y-66953571D01*
X128464285Y-66953571D01*
X127321428Y-66953571D02*
X127321428Y-68167857D01*
X127392857Y-68310714D01*
X127464285Y-68382142D01*
X127607142Y-68453571D01*
X127821428Y-68453571D01*
X127964285Y-68382142D01*
X127321428Y-67882142D02*
X127464285Y-67953571D01*
X127750000Y-67953571D01*
X127892857Y-67882142D01*
X127964285Y-67810714D01*
X128035714Y-67667857D01*
X128035714Y-67239285D01*
X127964285Y-67096428D01*
X127892857Y-67025000D01*
X127750000Y-66953571D01*
X127464285Y-66953571D01*
X127321428Y-67025000D01*
X125964285Y-67953571D02*
X125964285Y-67167857D01*
X126035714Y-67025000D01*
X126178571Y-66953571D01*
X126464285Y-66953571D01*
X126607142Y-67025000D01*
X125964285Y-67882142D02*
X126107142Y-67953571D01*
X126464285Y-67953571D01*
X126607142Y-67882142D01*
X126678571Y-67739285D01*
X126678571Y-67596428D01*
X126607142Y-67453571D01*
X126464285Y-67382142D01*
X126107142Y-67382142D01*
X125964285Y-67310714D01*
X124607142Y-67953571D02*
X124607142Y-67167857D01*
X124678571Y-67025000D01*
X124821428Y-66953571D01*
X125107142Y-66953571D01*
X125250000Y-67025000D01*
X124607142Y-67882142D02*
X124750000Y-67953571D01*
X125107142Y-67953571D01*
X125250000Y-67882142D01*
X125321428Y-67739285D01*
X125321428Y-67596428D01*
X125250000Y-67453571D01*
X125107142Y-67382142D01*
X124750000Y-67382142D01*
X124607142Y-67310714D01*
X123892857Y-67953571D02*
X123892857Y-66953571D01*
X123892857Y-67239285D02*
X123821428Y-67096428D01*
X123750000Y-67025000D01*
X123607142Y-66953571D01*
X123464285Y-66953571D01*
X122321428Y-67953571D02*
X122321428Y-66453571D01*
X122321428Y-67882142D02*
X122464285Y-67953571D01*
X122750000Y-67953571D01*
X122892857Y-67882142D01*
X122964285Y-67810714D01*
X123035714Y-67667857D01*
X123035714Y-67239285D01*
X122964285Y-67096428D01*
X122892857Y-67025000D01*
X122750000Y-66953571D01*
X122464285Y-66953571D01*
X122321428Y-67025000D01*
X119750000Y-67953571D02*
X120464285Y-67953571D01*
X120464285Y-66453571D01*
X118607142Y-67953571D02*
X118607142Y-67167857D01*
X118678571Y-67025000D01*
X118821428Y-66953571D01*
X119107142Y-66953571D01*
X119250000Y-67025000D01*
X118607142Y-67882142D02*
X118750000Y-67953571D01*
X119107142Y-67953571D01*
X119250000Y-67882142D01*
X119321428Y-67739285D01*
X119321428Y-67596428D01*
X119250000Y-67453571D01*
X119107142Y-67382142D01*
X118750000Y-67382142D01*
X118607142Y-67310714D01*
X117892857Y-67953571D02*
X117892857Y-66453571D01*
X117892857Y-67025000D02*
X117750000Y-66953571D01*
X117464285Y-66953571D01*
X117321428Y-67025000D01*
X117250000Y-67096428D01*
X117178571Y-67239285D01*
X117178571Y-67667857D01*
X117250000Y-67810714D01*
X117321428Y-67882142D01*
X117464285Y-67953571D01*
X117750000Y-67953571D01*
X117892857Y-67882142D01*
D12*
G04 #@! TO.C,R4*
X124402064Y-100210000D02*
X123197936Y-100210000D01*
X124402064Y-98390000D02*
X123197936Y-98390000D01*
G04 #@! TO.C,R3*
X124402064Y-103590000D02*
X123197936Y-103590000D01*
X124402064Y-105410000D02*
X123197936Y-105410000D01*
G04 #@! TO.C,R2*
X123097936Y-100890000D02*
X124302064Y-100890000D01*
X123097936Y-102710000D02*
X124302064Y-102710000D01*
G04 #@! TO.C,R1*
X124402064Y-106090000D02*
X123197936Y-106090000D01*
X124402064Y-107910000D02*
X123197936Y-107910000D01*
G04 #@! TO.C,C6*
X128910000Y-79397936D02*
X128910000Y-80602064D01*
X127090000Y-79397936D02*
X127090000Y-80602064D01*
G04 #@! TO.C,C5*
X121090000Y-79397936D02*
X121090000Y-80602064D01*
X122910000Y-79397936D02*
X122910000Y-80602064D01*
G04 #@! TO.C,C4*
X124090000Y-80602064D02*
X124090000Y-79397936D01*
X125910000Y-80602064D02*
X125910000Y-79397936D01*
G04 #@! TO.C,C3*
X119997936Y-93910000D02*
X121202064Y-93910000D01*
X119997936Y-92090000D02*
X121202064Y-92090000D01*
G04 #@! TO.C,C2*
X119997936Y-94090000D02*
X121202064Y-94090000D01*
X119997936Y-95910000D02*
X121202064Y-95910000D01*
G04 #@! TO.C,C1*
X118090000Y-84397936D02*
X118090000Y-85602064D01*
X119910000Y-84397936D02*
X119910000Y-85602064D01*
D13*
G04 #@! TO.C,U2*
X120925000Y-84925000D02*
X120950000Y-84925000D01*
X120925000Y-89075000D02*
X121030000Y-89075000D01*
X131075000Y-89075000D02*
X130970000Y-89075000D01*
X131075000Y-84925000D02*
X130970000Y-84925000D01*
X120925000Y-84925000D02*
X120925000Y-89075000D01*
X131075000Y-84925000D02*
X131075000Y-89075000D01*
X120950000Y-84925000D02*
X120950000Y-83550000D01*
G04 #@! TO.C,R4*
X120366666Y-100017381D02*
X120700000Y-99541191D01*
X120938095Y-100017381D02*
X120938095Y-99017381D01*
X120557142Y-99017381D01*
X120461904Y-99065001D01*
X120414285Y-99112620D01*
X120366666Y-99207858D01*
X120366666Y-99350715D01*
X120414285Y-99445953D01*
X120461904Y-99493572D01*
X120557142Y-99541191D01*
X120938095Y-99541191D01*
X119509523Y-99350715D02*
X119509523Y-100017381D01*
X119747619Y-98969762D02*
X119985714Y-99684048D01*
X119366666Y-99684048D01*
G04 #@! TO.C,R3*
X120366666Y-104982380D02*
X120700000Y-104506190D01*
X120938095Y-104982380D02*
X120938095Y-103982380D01*
X120557142Y-103982380D01*
X120461904Y-104030000D01*
X120414285Y-104077619D01*
X120366666Y-104172857D01*
X120366666Y-104315714D01*
X120414285Y-104410952D01*
X120461904Y-104458571D01*
X120557142Y-104506190D01*
X120938095Y-104506190D01*
X120033333Y-103982380D02*
X119414285Y-103982380D01*
X119747619Y-104363333D01*
X119604761Y-104363333D01*
X119509523Y-104410952D01*
X119461904Y-104458571D01*
X119414285Y-104553809D01*
X119414285Y-104791904D01*
X119461904Y-104887142D01*
X119509523Y-104934761D01*
X119604761Y-104982380D01*
X119890476Y-104982380D01*
X119985714Y-104934761D01*
X120033333Y-104887142D01*
G04 #@! TO.C,R2*
X127466666Y-102457381D02*
X127800000Y-101981191D01*
X128038095Y-102457381D02*
X128038095Y-101457381D01*
X127657142Y-101457381D01*
X127561904Y-101505001D01*
X127514285Y-101552620D01*
X127466666Y-101647858D01*
X127466666Y-101790715D01*
X127514285Y-101885953D01*
X127561904Y-101933572D01*
X127657142Y-101981191D01*
X128038095Y-101981191D01*
X127085714Y-101552620D02*
X127038095Y-101505001D01*
X126942857Y-101457381D01*
X126704761Y-101457381D01*
X126609523Y-101505001D01*
X126561904Y-101552620D01*
X126514285Y-101647858D01*
X126514285Y-101743096D01*
X126561904Y-101885953D01*
X127133333Y-102457381D01*
X126514285Y-102457381D01*
G04 #@! TO.C,R1*
X120366666Y-107452380D02*
X120700000Y-106976190D01*
X120938095Y-107452380D02*
X120938095Y-106452380D01*
X120557142Y-106452380D01*
X120461904Y-106500000D01*
X120414285Y-106547619D01*
X120366666Y-106642857D01*
X120366666Y-106785714D01*
X120414285Y-106880952D01*
X120461904Y-106928571D01*
X120557142Y-106976190D01*
X120938095Y-106976190D01*
X119414285Y-107452380D02*
X119985714Y-107452380D01*
X119700000Y-107452380D02*
X119700000Y-106452380D01*
X119795238Y-106595238D01*
X119890476Y-106690476D01*
X119985714Y-106738095D01*
G04 #@! TO.C,C6*
X128166666Y-77357142D02*
X128214285Y-77404761D01*
X128357142Y-77452380D01*
X128452380Y-77452380D01*
X128595238Y-77404761D01*
X128690476Y-77309523D01*
X128738095Y-77214285D01*
X128785714Y-77023809D01*
X128785714Y-76880952D01*
X128738095Y-76690476D01*
X128690476Y-76595238D01*
X128595238Y-76500000D01*
X128452380Y-76452380D01*
X128357142Y-76452380D01*
X128214285Y-76500000D01*
X128166666Y-76547619D01*
X127309523Y-76452380D02*
X127500000Y-76452380D01*
X127595238Y-76500000D01*
X127642857Y-76547619D01*
X127738095Y-76690476D01*
X127785714Y-76880952D01*
X127785714Y-77261904D01*
X127738095Y-77357142D01*
X127690476Y-77404761D01*
X127595238Y-77452380D01*
X127404761Y-77452380D01*
X127309523Y-77404761D01*
X127261904Y-77357142D01*
X127214285Y-77261904D01*
X127214285Y-77023809D01*
X127261904Y-76928571D01*
X127309523Y-76880952D01*
X127404761Y-76833333D01*
X127595238Y-76833333D01*
X127690476Y-76880952D01*
X127738095Y-76928571D01*
X127785714Y-77023809D01*
G04 #@! TO.C,C5*
X122166666Y-77357142D02*
X122214285Y-77404761D01*
X122357142Y-77452380D01*
X122452380Y-77452380D01*
X122595238Y-77404761D01*
X122690476Y-77309523D01*
X122738095Y-77214285D01*
X122785714Y-77023809D01*
X122785714Y-76880952D01*
X122738095Y-76690476D01*
X122690476Y-76595238D01*
X122595238Y-76500000D01*
X122452380Y-76452380D01*
X122357142Y-76452380D01*
X122214285Y-76500000D01*
X122166666Y-76547619D01*
X121261904Y-76452380D02*
X121738095Y-76452380D01*
X121785714Y-76928571D01*
X121738095Y-76880952D01*
X121642857Y-76833333D01*
X121404761Y-76833333D01*
X121309523Y-76880952D01*
X121261904Y-76928571D01*
X121214285Y-77023809D01*
X121214285Y-77261904D01*
X121261904Y-77357142D01*
X121309523Y-77404761D01*
X121404761Y-77452380D01*
X121642857Y-77452380D01*
X121738095Y-77404761D01*
X121785714Y-77357142D01*
G04 #@! TO.C,C4*
X125166666Y-77357142D02*
X125214285Y-77404761D01*
X125357142Y-77452380D01*
X125452380Y-77452380D01*
X125595238Y-77404761D01*
X125690476Y-77309523D01*
X125738095Y-77214285D01*
X125785714Y-77023809D01*
X125785714Y-76880952D01*
X125738095Y-76690476D01*
X125690476Y-76595238D01*
X125595238Y-76500000D01*
X125452380Y-76452380D01*
X125357142Y-76452380D01*
X125214285Y-76500000D01*
X125166666Y-76547619D01*
X124309523Y-76785714D02*
X124309523Y-77452380D01*
X124547619Y-76404761D02*
X124785714Y-77119047D01*
X124166666Y-77119047D01*
G04 #@! TO.C,C3*
X115666666Y-93357142D02*
X115714285Y-93404761D01*
X115857142Y-93452380D01*
X115952380Y-93452380D01*
X116095238Y-93404761D01*
X116190476Y-93309523D01*
X116238095Y-93214285D01*
X116285714Y-93023809D01*
X116285714Y-92880952D01*
X116238095Y-92690476D01*
X116190476Y-92595238D01*
X116095238Y-92500000D01*
X115952380Y-92452380D01*
X115857142Y-92452380D01*
X115714285Y-92500000D01*
X115666666Y-92547619D01*
X115333333Y-92452380D02*
X114714285Y-92452380D01*
X115047619Y-92833333D01*
X114904761Y-92833333D01*
X114809523Y-92880952D01*
X114761904Y-92928571D01*
X114714285Y-93023809D01*
X114714285Y-93261904D01*
X114761904Y-93357142D01*
X114809523Y-93404761D01*
X114904761Y-93452380D01*
X115190476Y-93452380D01*
X115285714Y-93404761D01*
X115333333Y-93357142D01*
G04 #@! TO.C,C2*
X117166666Y-95357142D02*
X117214285Y-95404761D01*
X117357142Y-95452380D01*
X117452380Y-95452380D01*
X117595238Y-95404761D01*
X117690476Y-95309523D01*
X117738095Y-95214285D01*
X117785714Y-95023809D01*
X117785714Y-94880952D01*
X117738095Y-94690476D01*
X117690476Y-94595238D01*
X117595238Y-94500000D01*
X117452380Y-94452380D01*
X117357142Y-94452380D01*
X117214285Y-94500000D01*
X117166666Y-94547619D01*
X116785714Y-94547619D02*
X116738095Y-94500000D01*
X116642857Y-94452380D01*
X116404761Y-94452380D01*
X116309523Y-94500000D01*
X116261904Y-94547619D01*
X116214285Y-94642857D01*
X116214285Y-94738095D01*
X116261904Y-94880952D01*
X116833333Y-95452380D01*
X116214285Y-95452380D01*
G04 #@! TO.C,C1*
X117537142Y-84833333D02*
X117584761Y-84785714D01*
X117632380Y-84642857D01*
X117632380Y-84547619D01*
X117584761Y-84404761D01*
X117489523Y-84309523D01*
X117394285Y-84261904D01*
X117203809Y-84214285D01*
X117060952Y-84214285D01*
X116870476Y-84261904D01*
X116775238Y-84309523D01*
X116680000Y-84404761D01*
X116632380Y-84547619D01*
X116632380Y-84642857D01*
X116680000Y-84785714D01*
X116727619Y-84833333D01*
X117632380Y-85785714D02*
X117632380Y-85214285D01*
X117632380Y-85500000D02*
X116632380Y-85500000D01*
X116775238Y-85404761D01*
X116870476Y-85309523D01*
X116918095Y-85214285D01*
G04 #@! TO.C,U2*
X131452380Y-86238095D02*
X132261904Y-86238095D01*
X132357142Y-86285714D01*
X132404761Y-86333333D01*
X132452380Y-86428571D01*
X132452380Y-86619047D01*
X132404761Y-86714285D01*
X132357142Y-86761904D01*
X132261904Y-86809523D01*
X131452380Y-86809523D01*
X131547619Y-87238095D02*
X131500000Y-87285714D01*
X131452380Y-87380952D01*
X131452380Y-87619047D01*
X131500000Y-87714285D01*
X131547619Y-87761904D01*
X131642857Y-87809523D01*
X131738095Y-87809523D01*
X131880952Y-87761904D01*
X132452380Y-87190476D01*
X132452380Y-87809523D01*
G04 #@! TD*
M02*
