M48
;DRILL file {KiCad 5.0.2+dfsg1-1} date Thu 16 Apr 2020 16:50:30 NZST
;FORMAT={-:-/ absolute / inch / decimal}
FMAT,2
INCH,TZ
T1C0.0157
T2C0.0300
T3C0.0394
T4C0.0402
T5C0.1260
%
G90
G05
T1
X4.6063Y-3.6614
X4.7323Y-3.9537
X4.7441Y-3.7008
X4.8856Y-3.7291
X4.9213Y-3.6614
X5.0079Y-3.9213
X5.0984Y-4.2126
X5.2953Y-3.8976
T2
X5.5945Y-2.4213
X5.9445Y-2.6713
T3
X4.022Y-3.5191
X4.022Y-3.6281
X4.022Y-3.7372
X4.022Y-3.8463
X4.1339Y-3.4646
X4.1339Y-3.5736
X4.1339Y-3.6827
X4.1339Y-3.7917
X4.1339Y-3.9008
X3.878Y-2.5984
X3.878Y-2.6984
X5.7087Y-3.4646
X5.7087Y-3.5736
X5.7087Y-3.6827
X5.7087Y-3.7917
X5.7087Y-3.9008
X5.8205Y-3.5191
X5.8205Y-3.6281
X5.8205Y-3.7372
X5.8205Y-3.8463
T4
X4.4213Y-2.4874
X4.4213Y-2.5874
X4.4213Y-2.6874
X4.4213Y-2.7874
X4.4213Y-2.8874
X4.4213Y-2.9874
X4.4213Y-3.0874
X4.4213Y-3.1874
X4.4213Y-3.2874
X4.4213Y-3.3874
X4.4213Y-3.4874
X4.4213Y-3.5874
X4.4213Y-3.6874
X4.4213Y-3.7874
X4.4213Y-3.8874
X4.4213Y-3.9874
X4.4213Y-4.0874
X4.4213Y-4.1874
X4.4213Y-4.2874
X5.4213Y-2.4874
X5.4213Y-2.5874
X5.4213Y-2.6874
X5.4213Y-2.7874
X5.4213Y-2.8874
X5.4213Y-2.9874
X5.4213Y-3.0874
X5.4213Y-3.1874
X5.4213Y-3.2874
X5.4213Y-3.3874
X5.4213Y-3.4874
X5.4213Y-3.5874
X5.4213Y-3.6874
X5.4213Y-3.7874
X5.4213Y-3.8874
X5.4213Y-3.9874
X5.4213Y-4.0874
X5.4213Y-4.1874
X5.4213Y-4.2874
T5
X5.7646Y-3.1906
X5.7646Y-4.1748
X4.078Y-3.1906
X4.078Y-4.1748
T0
M30
